<svg width="48" height="48" viewBox="0 0 48 48" fill="none" xmlns="http://www.w3.org/2000/svg">
<mask id="mask0" mask-type="alpha" maskUnits="userSpaceOnUse" x="5" y="5" width="38" height="38">
<path d="M38 6H10C7.79086 6 6 7.79086 6 10V38C6 40.2091 7.79086 42 10 42H38C40.2091 42 42 40.2091 42 38V10C42 7.79086 40.2091 6 38 6Z" fill="black" stroke="black" stroke-width="2"/>
</mask>
<g mask="url(#mask0)">
<path fill-rule="evenodd" clip-rule="evenodd" d="M35.0848 30.8205C34.6614 31.7987 34.1603 32.6992 33.5798 33.5271C32.7884 34.6557 32.1404 35.4369 31.6411 35.8707C30.867 36.5828 30.0376 36.9475 29.1494 36.9682C28.5118 36.9682 27.7429 36.7867 26.8479 36.4186C25.9499 36.0522 25.1246 35.8707 24.3701 35.8707C23.5787 35.8707 22.7299 36.0522 21.8221 36.4186C20.9129 36.7867 20.1804 36.9786 19.6204 36.9976C18.7687 37.0339 17.9198 36.6588 17.0724 35.8707C16.5316 35.3989 15.8551 34.59 15.0447 33.4441C14.1753 32.2205 13.4604 30.8015 12.9004 29.1838C12.3007 27.4364 12 25.7444 12 24.1062C12 22.2298 12.4054 20.6114 13.2173 19.2551C13.8554 18.1658 14.7043 17.3064 15.7668 16.6756C16.8293 16.0447 17.9773 15.7233 19.2136 15.7027C19.8901 15.7027 20.7772 15.912 21.8796 16.3233C22.9789 16.7361 23.6848 16.9454 23.9942 16.9454C24.2256 16.9454 25.0097 16.7006 26.339 16.2127C27.596 15.7602 28.657 15.5729 29.5261 15.6467C31.8812 15.8368 33.6506 16.7654 34.8273 18.4385C32.721 19.715 31.6791 21.503 31.6998 23.7967C31.7188 25.5833 32.3668 27.07 33.6403 28.2505C34.2174 28.7983 34.8619 29.2218 35.579 29.5225C35.4234 29.9736 35.2593 30.4057 35.0848 30.8205ZM29.6834 9.56016C29.6834 10.9605 29.1719 12.268 28.1524 13.4781C26.9222 14.9168 25.4341 15.7481 23.8204 15.617C23.7998 15.449 23.7879 15.2722 23.7879 15.0864C23.7879 13.7421 24.373 12.3034 25.412 11.1271C25.9307 10.5315 26.5904 10.0363 27.3904 9.64122C28.1887 9.25206 28.9438 9.03685 29.654 9C29.6747 9.1872 29.6834 9.37441 29.6834 9.56014V9.56016Z" fill="#FFF"/>
</g>
</svg>
