<svg width="28" height="20" viewBox="0 0 28 20" fill="none" xmlns="http://www.w3.org/2000/svg">
<path fill-rule="evenodd" clip-rule="evenodd" d="M0 10.2867C-2.5998e-08 9.67309 0.482155 9.17563 1.07692 9.17563L24.3804 9.17563L17.5342 1.88422C17.1204 1.44347 17.1312 0.740041 17.5584 0.313068C17.9856 -0.113907 18.6673 -0.102742 19.0812 0.338006L27.6966 9.51363C27.8954 9.72536 28.0045 10.0099 27.9999 10.3047C27.9953 10.5994 27.8773 10.8802 27.672 11.0852L19.0566 19.6873C18.6292 20.1141 17.9474 20.1026 17.5338 19.6616C17.1202 19.2206 17.1314 18.5172 17.5588 18.0904L24.2617 11.3978L1.07692 11.3979C0.482155 11.3979 2.59983e-08 10.9004 0 10.2867Z" fill="black"/>
</svg>
