<svg width="33" height="32" viewBox="0 0 33 32" fill="none" xmlns="http://www.w3.org/2000/svg">
<path fill-rule="evenodd" clip-rule="evenodd" d="M0.5 16C0.5 7.156 7.65727 0 16.5 0C25.3441 0 32.5 7.1572 32.5 16C32.5 24.8441 25.3429 32 16.5 32C7.656 32 0.5 24.8428 0.5 16ZM6.12909 26.3708C11.8616 32.1033 21.1393 32.1025 26.871 26.3708C32.5895 20.6524 32.5895 11.3476 26.871 5.62904C21.1385 -0.10349 11.8607 -0.102623 6.12909 5.62904C0.410552 11.3476 0.410552 20.6524 6.12909 26.3708Z" fill="black"/>
<path d="M13.9296 22.0744C13.9957 22.1478 14.0823 22.1847 14.169 22.1847C14.2557 22.1847 14.3424 22.1478 14.4084 22.0744L24.0948 10.3643C24.2272 10.2171 24.2272 9.97916 24.0948 9.83196C23.9624 9.68476 23.7484 9.68476 23.616 9.83196L14.169 21.2759L9.38427 15.9564C9.25187 15.8092 9.03786 15.8092 8.90545 15.9564C8.77305 16.1036 8.77305 16.3415 8.90545 16.4887L13.9296 22.0744Z" fill="#AEBEC9" stroke="#AEBEC9"/>
</svg>
