<svg width="48" height="48" viewBox="0 0 48 48" fill="none" xmlns="http://www.w3.org/2000/svg">
<mask id="mask0" mask-type="alpha" maskUnits="userSpaceOnUse" x="6" y="6" width="36" height="36">
<path d="M38 6H10C7.79086 6 6 7.79086 6 10V38C6 40.2091 7.79086 42 10 42H38C40.2091 42 42 40.2091 42 38V10C42 7.79086 40.2091 6 38 6Z" fill="white"/>
</mask>
<g mask="url(#mask0)">
<path fill-rule="evenodd" clip-rule="evenodd" d="M27.0843 11C28.6259 11 29.8873 12.2717 29.8873 13.826V14.8504H35.9489C36.5445 14.8504 37 15.3097 37 15.9102V15.9808C36.965 16.546 36.5095 17.0053 35.9489 16.9699H34.0919L32.9706 34.3499C32.9006 35.8335 31.6742 37.0346 30.1676 36.9992H17.8343C16.3277 37.0346 15.1013 35.8335 15.0313 34.3499L13.91 16.9699H11.983C11.4223 16.9346 10.9669 16.4754 11.0019 15.9102C11.0019 15.3097 11.4574 14.8504 12.053 14.8504H18.1146V13.826C18.1146 12.2717 19.3759 11 20.9176 11H27.0843ZM31.9545 16.9699H16.0473L17.1335 34.2086V34.2439C17.1686 34.6325 17.4839 34.9151 17.8343 34.8797H30.2027C30.5881 34.8797 30.8684 34.5618 30.8684 34.2086L31.9545 16.9699ZM21.1278 20.0785C21.6884 20.1139 22.1439 20.5731 22.179 21.1383V30.7114C22.1439 31.2766 21.6884 31.7358 21.1278 31.7711C20.5322 31.7711 20.0767 31.3119 20.0767 30.7114V21.1383C20.0767 20.5378 20.5322 20.0785 21.1278 20.0785ZM26.8741 20.0785C27.4697 20.0785 27.9252 20.5378 27.9252 21.1383V30.7114C27.9252 31.3119 27.4697 31.7711 26.8741 31.7711C26.3134 31.7358 25.858 31.2766 25.8229 30.7114V21.1383C25.858 20.5731 26.3134 20.1139 26.8741 20.0785ZM27.0843 13.1195H20.9176C20.5322 13.1195 20.2169 13.4374 20.2169 13.826V14.8504H27.785V13.826C27.785 13.4374 27.4697 13.1195 27.0843 13.1195Z" fill="black"/>
</g>
</svg>
