<svg width="48" height="48" viewBox="0 0 48 48" fill="none" xmlns="http://www.w3.org/2000/svg">
<mask id="mask0" mask-type="alpha" maskUnits="userSpaceOnUse" x="5" y="5" width="38" height="38">
<path d="M38 6H10C7.79086 6 6 7.79086 6 10V38C6 40.2091 7.79086 42 10 42H38C40.2091 42 42 40.2091 42 38V10C42 7.79086 40.2091 6 38 6Z" fill="white" stroke="black" stroke-width="2"/>
</mask>
<g mask="url(#mask0)">
<path fill-rule="evenodd" clip-rule="evenodd" d="M15 16C16.3807 16 17.5 14.8807 17.5 13.5C17.5 12.1193 16.3807 11 15 11C13.6193 11 12.5 12.1193 12.5 13.5C12.5 14.8807 13.6193 16 15 16ZM15 23C16.3807 23 17.5 21.8807 17.5 20.5C17.5 19.1193 16.3807 18 15 18C13.6193 18 12.5 19.1193 12.5 20.5C12.5 21.8807 13.6193 23 15 23ZM17.5 27.5C17.5 28.8807 16.3807 30 15 30C13.6193 30 12.5 28.8807 12.5 27.5C12.5 26.1193 13.6193 25 15 25C16.3807 25 17.5 26.1193 17.5 27.5ZM24 16C25.3807 16 26.5 14.8807 26.5 13.5C26.5 12.1193 25.3807 11 24 11C22.6193 11 21.5 12.1193 21.5 13.5C21.5 14.8807 22.6193 16 24 16ZM26.5 20.5C26.5 21.8807 25.3807 23 24 23C22.6193 23 21.5 21.8807 21.5 20.5C21.5 19.1193 22.6193 18 24 18C25.3807 18 26.5 19.1193 26.5 20.5ZM24 30C25.3807 30 26.5 28.8807 26.5 27.5C26.5 26.1193 25.3807 25 24 25C22.6193 25 21.5 26.1193 21.5 27.5C21.5 28.8807 22.6193 30 24 30ZM26.5 34.5C26.5 35.8807 25.3807 37 24 37C22.6193 37 21.5 35.8807 21.5 34.5C21.5 33.1193 22.6193 32 24 32C25.3807 32 26.5 33.1193 26.5 34.5ZM33 16C34.3807 16 35.5 14.8807 35.5 13.5C35.5 12.1193 34.3807 11 33 11C31.6193 11 30.5 12.1193 30.5 13.5C30.5 14.8807 31.6193 16 33 16ZM35.5 20.5C35.5 21.8807 34.3807 23 33 23C31.6193 23 30.5 21.8807 30.5 20.5C30.5 19.1193 31.6193 18 33 18C34.3807 18 35.5 19.1193 35.5 20.5ZM33 30C34.3807 30 35.5 28.8807 35.5 27.5C35.5 26.1193 34.3807 25 33 25C31.6193 25 30.5 26.1193 30.5 27.5C30.5 28.8807 31.6193 30 33 30Z" fill="black"/>
</g>
</svg>
