<svg width="48" height="48" viewBox="0 0 48 48" fill="none" xmlns="http://www.w3.org/2000/svg">
<mask id="mask0" mask-type="alpha" maskUnits="userSpaceOnUse" x="5" y="5" width="38" height="38">
<path d="M38 6H10C7.79086 6 6 7.79086 6 10V38C6 40.2091 7.79086 42 10 42H38C40.2091 42 42 40.2091 42 38V10C42 7.79086 40.2091 6 38 6Z" fill="white" stroke="black" stroke-width="2"/>
</mask>
<g mask="url(#mask0)">
<path fill-rule="evenodd" clip-rule="evenodd" d="M11 17.2867C11 16.6731 11.4822 16.1756 12.0769 16.1756L33.3804 16.1756L30.5342 12.8842C30.1204 12.4435 30.1312 11.74 30.5584 11.3131C30.9856 10.8861 31.6673 10.8973 32.0812 11.338L36.6966 16.5136C36.8954 16.7254 37.0045 17.0099 36.9999 17.3047C36.9953 17.5994 36.8773 17.8802 36.672 18.0852L32.0566 22.6873C31.6292 23.1141 30.9474 23.1025 30.5338 22.6616C30.1202 22.2206 30.1314 21.5172 30.5588 21.0904L33.2617 18.3978L12.0769 18.3979C11.4822 18.3979 11 17.9004 11 17.2867Z" fill="black"/>
<path fill-rule="evenodd" clip-rule="evenodd" d="M37 31.2867C37 30.6731 36.5178 30.1756 35.9231 30.1756L14.6196 30.1756L17.4658 26.8842C17.8796 26.4435 17.8688 25.74 17.4416 25.3131C17.0144 24.8861 16.3327 24.8973 15.9188 25.338L11.3034 30.5136C11.1046 30.7254 10.9955 31.0099 11.0001 31.3047C11.0047 31.5994 11.1227 31.8802 11.328 32.0852L15.9434 36.6873C16.3708 37.1141 17.0526 37.1025 17.4662 36.6616C17.8798 36.2206 17.8686 35.5172 17.4412 35.0904L14.7383 32.3978L35.9231 32.3979C36.5178 32.3979 37 31.9004 37 31.2867Z" fill="black"/>
</g>
</svg>
