<svg width="48" height="48" viewBox="0 0 48 48" fill="none" xmlns="http://www.w3.org/2000/svg">
<mask id="mask0" mask-type="alpha" maskUnits="userSpaceOnUse" x="5" y="5" width="38" height="38">
<path d="M38 6H10C7.79086 6 6 7.79086 6 10V38C6 40.2091 7.79086 42 10 42H38C40.2091 42 42 40.2091 42 38V10C42 7.79086 40.2091 6 38 6Z" fill="white" stroke="black" stroke-width="2"/>
</mask>
<g mask="url(#mask0)">
<path fill-rule="evenodd" clip-rule="evenodd" d="M17 18C17 17.4477 17.4477 17 18 17H26C26.5523 17 27 17.4477 27 18C27 18.5523 26.5523 19 26 19H18C17.4477 19 17 18.5523 17 18Z" fill="black"/>
<path fill-rule="evenodd" clip-rule="evenodd" d="M17 23C17 22.4477 17.4477 22 18 22H30C30.5523 22 31 22.4477 31 23C31 23.5523 30.5523 24 30 24H18C17.4477 24 17 23.5523 17 23Z" fill="black"/>
<path fill-rule="evenodd" clip-rule="evenodd" d="M17 28C17 27.4477 17.4477 27 18 27H30C30.5523 27 31 27.4477 31 28C31 28.5523 30.5523 29 30 29H18C17.4477 29 17 28.5523 17 28Z" fill="black"/>
<path fill-rule="evenodd" clip-rule="evenodd" d="M16.1884 11C14.9671 11 14 11.9734 14 13.1461V34.8539C14 36.0266 14.9671 37 16.1884 37H31.8116C33.0329 37 34 36.0266 34 34.8539V13.1461C34 11.9734 33.0329 11 31.8116 11H16.1884ZM12 13.1461C12 10.8437 13.8879 9 16.1884 9H31.8116C34.1121 9 36 10.8437 36 13.1461V34.8539C36 37.1563 34.1121 39 31.8116 39H16.1884C13.8879 39 12 37.1563 12 34.8539V13.1461Z" fill="black"/>
</g>
</svg>
