<svg xmlns="http://www.w3.org/2000/svg" xmlns:xlink="http://www.w3.org/1999/xlink" width="80" height="80" viewBox="0 0 80 80">
    <defs>
        <rect id="y4ibpo1cda" width="60" height="60" x="0" y="0" rx="4"/>
    </defs>
    <g fill="none" fill-rule="evenodd">
        <g>
            <g>
                <g>
                    <g>
                        <g>
                            <g>
                                <g transform="translate(-600 -262) translate(450 178) translate(130 64) translate(20 20) translate(10 10)">
                                    <mask id="mlc787bqlb" fill="#fff">
                                        <use xlink:href="#y4ibpo1cda"/>
                                    </mask>
                                    <g fill="#000" fill-rule="nonzero" mask="url(#mlc787bqlb)">
                                        <g>
                                            <path stroke="#000" stroke-width=".1" d="M41.19 24.645c-.084-.165-.2-.312-.343-.43-3.53-2.934-8.341-3.767-12.643-2.19.004-5.338-2.414-10.386-6.567-13.707-.494-.396-1.194-.396-1.688 0-4.146 3.314-6.563 8.349-6.567 13.677-4.286-1.535-9.057-.688-12.563 2.229-.141.119-.258.265-.342.43-.176.234-.271.518-.271.811.008 7.282 5.872 13.183 13.109 13.19 2.694.005 5.323-.837 7.518-2.408 2.197 1.568 4.826 2.406 7.519 2.399 7.236-.008 13.101-5.909 13.109-13.19 0-.293-.096-.577-.271-.81zM20.794 11.18c3 2.807 4.706 6.743 4.706 10.866 0 4.122-1.705 8.059-4.706 10.865-3.002-2.805-4.708-6.742-4.708-10.865s1.706-8.06 4.708-10.866h0zM2.937 26.017c3.099-2.334 7.243-2.705 10.702-.957.615 3.586 2.329 6.888 4.903 9.445-1.585.937-3.39 1.429-5.227 1.425-5.526-.013-10.08-4.365-10.377-9.918v.005zm25.415 9.913c-1.857.003-3.68-.501-5.276-1.458 2.545-2.54 4.243-5.813 4.861-9.366 3.474-1.802 7.665-1.449 10.792.909-.3 5.55-4.854 9.898-10.377 9.91v.005z" transform="translate(8.333 10)"/>
                                            <path d="M40.972 16.227c.089 0 .173-.04.227-.112.054-.07.072-.162.049-.249C38.718 6.602 30.346.181 20.798.181c-9.55 0-17.92 6.42-20.45 15.685-.023.087-.004.178.05.249.053.07.136.112.225.112h2.224c.124 0 .233-.08.269-.2C5.526 8.238 12.69 2.932 20.797 2.932c8.108 0 15.273 5.306 17.682 13.095.037.119.145.2.269.2h2.224z" transform="translate(8.333 10)"/>
                                        </g>
                                    </g>
                                </g>
                            </g>
                        </g>
                    </g>
                </g>
            </g>
        </g>
    </g>
</svg>
