<svg width="48" height="48" viewBox="0 0 48 48" fill="none" xmlns="http://www.w3.org/2000/svg">
<mask id="mask0" mask-type="alpha" maskUnits="userSpaceOnUse" x="5" y="5" width="38" height="38">
<path d="M38 6H10C7.79086 6 6 7.79086 6 10V38C6 40.2091 7.79086 42 10 42H38C40.2091 42 42 40.2091 42 38V10C42 7.79086 40.2091 6 38 6Z" fill="white" stroke="black" stroke-width="2"/>
</mask>
<g mask="url(#mask0)">
<path fill-rule="evenodd" clip-rule="evenodd" d="M14.3032 34.1023C13.8693 33.6683 13.8585 32.9756 14.2791 32.5551L30.7571 16.077L20.7603 15.7622C20.156 15.7432 19.6663 15.2381 19.6664 14.6342C19.6666 14.0302 20.1566 13.556 20.7609 13.575L33.341 13.9712C33.6313 13.9803 33.9096 14.1044 34.1148 14.316C34.32 14.5277 34.4351 14.8096 34.4349 15.0998L34.4255 27.2744C34.4251 27.8784 33.9348 28.3523 33.3305 28.333C32.7263 28.3136 32.2368 27.8083 32.2372 27.2044L32.2445 17.7323L15.8504 34.1264C15.4299 34.547 14.7372 34.5362 14.3032 34.1023Z" fill="#40749A"/>
</g>
</svg>
