<svg width="48" height="48" viewBox="0 0 48 48" fill="none" xmlns="http://www.w3.org/2000/svg">
<mask id="mask0_22:462" style="mask-type:alpha" maskUnits="userSpaceOnUse" x="6" y="6" width="36" height="36">
<path d="M38 6H10C7.79086 6 6 7.79086 6 10V38C6 40.2091 7.79086 42 10 42H38C40.2091 42 42 40.2091 42 38V10C42 7.79086 40.2091 6 38 6Z" fill="white"/>
</mask>
<g mask="url(#mask0_22:462)">
<path fill-rule="evenodd" clip-rule="evenodd" d="M24 16C18.7729 16 14.1015 18.9182 11 23.5C14.1015 28.0822 18.7729 31 24 31C29.2267 31 33.8985 28.0822 37 23.5C33.8985 18.9182 29.2267 16 24 16ZM24 29.0975C21.0603 29.0975 18.6763 26.5916 18.6763 23.5C18.6763 20.4084 21.0603 17.9025 24 17.9025C26.9404 17.9025 29.3237 20.4084 29.3237 23.5C29.3237 26.5916 26.9404 29.0975 24 29.0975ZM24 20.7162C22.5375 20.7162 21.352 21.9627 21.352 23.5004C21.352 25.0381 22.5375 26.2846 24 26.2846C25.4625 26.2846 26.648 25.0381 26.648 23.5004C26.648 21.9627 25.4625 20.7162 24 20.7162Z" fill="black"/>
</g>
</svg>
