<svg width="32" height="32" viewBox="0 0 32 32" fill="none" xmlns="http://www.w3.org/2000/svg">
<path fill-rule="evenodd" clip-rule="evenodd" d="M0 16C0 7.156 7.15727 0 16 0C24.8441 0 32 7.1572 32 16C32 24.8441 24.8429 32 16 32C7.156 32 0 24.8428 0 16ZM5.62909 26.3708C11.3616 32.1033 20.6393 32.1025 26.371 26.3708C32.0895 20.6524 32.0895 11.3476 26.371 5.62904C20.6385 -0.10349 11.3607 -0.102623 5.62909 5.62904C-0.0894483 11.3476 -0.0894483 20.6524 5.62909 26.3708Z" fill="black"/>
<path d="M21.8147 10.1853C21.5678 9.93833 21.1673 9.93833 20.9201 10.1853L16 15.1054L11.0799 10.1852C10.8329 9.93826 10.4323 9.93826 10.1853 10.1852C9.93825 10.4322 9.93825 10.8328 10.1853 11.0798L15.1054 16L10.1853 20.9201C9.93825 21.1671 9.93825 21.5677 10.1853 21.8148C10.4323 22.0618 10.8328 22.0617 11.0799 21.8148L16 16.8946L20.9201 21.8148C21.1672 22.0617 21.5677 22.0618 21.8147 21.8148C22.0618 21.5677 22.0618 21.1672 21.8147 20.9201L16.8946 16L21.8147 11.0798C22.0618 10.8328 22.0618 10.4323 21.8147 10.1853Z" fill="#AEBEC9"/>
</svg>
