<svg width="24" height="24" viewBox="0 0 24 24" fill="none" xmlns="http://www.w3.org/2000/svg">
<mask id="mask0_25300_32105" style="mask-type:alpha" maskUnits="userSpaceOnUse" x="2" y="2" width="20" height="20">
<path d="M19 3H5C3.89543 3 3 3.89543 3 5V19C3 20.1046 3.89543 21 5 21H19C20.1046 21 21 20.1046 21 19V5C21 3.89543 20.1046 3 19 3Z" fill="white" stroke="black" stroke-width="2"/>
</mask>
<g mask="url(#mask0_25300_32105)">
<path fill-rule="evenodd" clip-rule="evenodd" d="M19 12.1434C19 11.8365 18.7589 11.5878 18.4615 11.5878L6.80979 11.5878L10.2329 7.94211C10.4398 7.72173 10.4344 7.37002 10.2208 7.15653C10.0072 6.94305 9.66633 6.94863 9.45941 7.169L5.15172 11.7568C5.05232 11.8627 4.99776 12.005 5.00007 12.1523C5.00237 12.2997 5.06135 12.4401 5.164 12.5426L9.47169 16.8437C9.6854 17.057 10.0263 17.0513 10.2331 16.8308C10.4399 16.6103 10.4343 16.2586 10.2206 16.0452L6.86917 12.6989L18.4615 12.6989C18.7589 12.6989 19 12.4502 19 12.1434Z" fill="#3B3F42"/>
</g>
</svg>
