<svg width="32" height="32" viewBox="0 0 32 32" fill="none" xmlns="http://www.w3.org/2000/svg">
    <path fill-rule="evenodd" clip-rule="evenodd"
          d="M6.66675 16.1911C6.66675 15.782 6.98818 15.4504 7.3847 15.4504L22.9204 15.4504L18.3562 10.5895C18.0803 10.2956 18.0875 9.82667 18.3723 9.54203C18.6571 9.25738 19.1116 9.26482 19.3875 9.55865L25.1311 15.6757C25.2637 15.8169 25.3364 16.0066 25.3333 16.2031C25.3303 16.3996 25.2516 16.5868 25.1147 16.7234L19.3712 22.4582C19.0862 22.7427 18.6317 22.735 18.356 22.441C18.0802 22.1471 18.0877 21.6781 18.3726 21.3936L22.8412 16.9319L7.3847 16.9319C6.98818 16.9319 6.66675 16.6002 6.66675 16.1911Z"
          fill="currentColor"/>
</svg>
