<svg width="48" height="48" viewBox="0 0 48 48" fill="none" xmlns="http://www.w3.org/2000/svg">
<mask id="mask0_17419_28735" style="mask-type:alpha" maskUnits="userSpaceOnUse" x="6" y="6" width="36" height="36">
<path d="M38 6H10C7.79086 6 6 7.79086 6 10V38C6 40.2091 7.79086 42 10 42H38C40.2091 42 42 40.2091 42 38V10C42 7.79086 40.2091 6 38 6Z" fill="white"/>
</mask>
<g mask="url(#mask0_17419_28735)">
<path fill-rule="evenodd" clip-rule="evenodd" d="M13.0002 13C13.0002 12.4477 13.4479 12 14.0002 12H21.7425C22.0904 12 22.4133 12.1808 22.5951 12.4774L23.5284 14H32.6464C34.3033 14 35.6464 15.3431 35.6464 17V17.131C36.9849 17.5409 37.9108 18.8597 37.7473 20.3313L36.1917 34.3313C36.0229 35.8506 34.7387 37 33.2101 37H14.7902C13.2616 37 11.9774 35.8506 11.8086 34.3313L10.1297 19.2209C9.99802 18.0361 10.9254 17 12.1174 17H13.0002V13ZM15.0002 17H33.6464C33.6464 16.4477 33.1987 16 32.6464 16H22.9685C22.6206 16 22.2977 15.8192 22.1159 15.5226L21.1826 14H15.0002V17ZM12.1174 19L13.7964 34.1104C13.8526 34.6169 14.2807 35 14.7902 35H33.2101C33.7196 35 34.1477 34.6169 34.204 34.1104L35.7595 20.1104C35.8253 19.5181 35.3616 19 34.7656 19H12.1174Z" fill="black"/>
</g>
</svg>
