<svg width="18" height="18" viewBox="0 0 18 18" fill="none" xmlns="http://www.w3.org/2000/svg">
<g id="[mdpi] Other / Success checkmark (circle)" clip-path="url(#clip0_37399_1725)">
<path id="Vector" d="M5.19231 10.2692L7.79423 12.3508C7.86411 12.4083 7.94593 12.4496 8.03375 12.4715C8.12157 12.4935 8.21318 12.4956 8.30192 12.4777C8.39151 12.4609 8.47643 12.425 8.55089 12.3724C8.62536 12.3199 8.68763 12.2519 8.73346 12.1731L12.8077 5.19231M17.25 9C17.25 13.5563 13.5563 17.25 9 17.25C4.44365 17.25 0.75 13.5563 0.75 9C0.75 4.44365 4.44365 0.75 9 0.75C13.5563 0.75 17.25 4.44365 17.25 9Z" stroke="black" stroke-width="1.5" stroke-linecap="round" stroke-linejoin="round"/>
</g>
<defs>
<clipPath id="clip0_37399_1725">
<rect width="18" height="18" fill="white"/>
</clipPath>
</defs>
</svg>
