<svg width="42" height="42" viewBox="0 0 42 42" fill="none" xmlns="http://www.w3.org/2000/svg">
<path fill-rule="evenodd" clip-rule="evenodd" d="M7.40234 20.9994C7.40234 13.482 13.486 7.39941 21.0023 7.39941C28.5198 7.39941 34.6023 13.483 34.6023 20.9994C34.6023 28.5169 28.5188 34.5994 21.0023 34.5994C13.4849 34.5994 7.40234 28.5158 7.40234 20.9994ZM12.1871 29.8146C17.0597 34.6872 24.9457 34.6865 29.8177 29.8146C34.6784 24.9539 34.6784 17.0449 29.8177 12.1841C24.9451 7.31145 17.0589 7.31218 12.1871 12.1841C7.32631 17.0449 7.32631 24.9539 12.1871 29.8146Z" fill="black"/>
<path d="M18.8159 26.163C18.872 26.2254 18.9457 26.2568 19.0194 26.2568C19.0931 26.2568 19.1668 26.2254 19.2229 26.163L27.4563 16.2094C27.5688 16.0843 27.5688 15.882 27.4563 15.7569C27.3437 15.6318 27.1618 15.6318 27.0493 15.7569L19.0194 25.4843L14.9523 20.9627C14.8398 20.8376 14.6579 20.8376 14.5453 20.9627C14.4328 21.0878 14.4328 21.29 14.5453 21.4152L18.8159 26.163Z" fill="black" stroke="black"/>
</svg>
