<svg width="24" height="24" viewBox="0 0 24 24" fill="none" xmlns="http://www.w3.org/2000/svg">
    <path fill-rule="evenodd" clip-rule="evenodd"
          d="M13.5421 5.5C14.313 5.5 14.9437 6.13585 14.9437 6.913V7.42522H17.9744C18.2723 7.42522 18.5 7.65483 18.5 7.95509V7.99042C18.4825 8.27302 18.2547 8.50263 17.9744 8.48497H17.0459L16.4853 17.1749C16.4503 17.9168 15.8371 18.5173 15.0838 18.4996H8.91714C8.16383 18.5173 7.55066 17.9168 7.51563 17.1749L6.95502 8.48497H5.99148C5.71117 8.4673 5.48343 8.23769 5.50095 7.95509C5.50095 7.65483 5.72869 7.42522 6.02652 7.42522H9.05729V6.913C9.05729 6.13585 9.68797 5.5 10.4588 5.5H13.5421ZM15.9773 8.48497H8.02367L8.56676 17.1043V17.1219C8.58428 17.3162 8.74195 17.4575 8.91714 17.4399H15.1013C15.294 17.4399 15.4342 17.2809 15.4342 17.1043L15.9773 8.48497ZM10.5639 10.0393C10.8442 10.0569 11.072 10.2865 11.0895 10.5691V15.3557C11.072 15.6383 10.8442 15.8679 10.5639 15.8856C10.2661 15.8856 10.0384 15.656 10.0384 15.3557V10.5691C10.0384 10.2689 10.2661 10.0393 10.5639 10.0393ZM13.437 10.0393C13.7348 10.0393 13.9626 10.2689 13.9626 10.5691V15.3557C13.9626 15.656 13.7348 15.8856 13.437 15.8856C13.1567 15.8679 12.929 15.6383 12.9115 15.3557V10.5691C12.929 10.2865 13.1567 10.0569 13.437 10.0393ZM13.5421 6.55975H10.4588C10.2661 6.55975 10.1084 6.71871 10.1084 6.913V7.42522H13.8925V6.913C13.8925 6.71871 13.7348 6.55975 13.5421 6.55975Z"
          fill="currentColor"/>
</svg>
