<svg width="42" height="42" viewBox="0 0 42 42" fill="none" xmlns="http://www.w3.org/2000/svg">
<mask id="mask0_23991_52660" style="mask-type:alpha" maskUnits="userSpaceOnUse" x="4" y="4" width="34" height="34">
<path d="M32.9031 5.69995H9.10313C7.22536 5.69995 5.70312 7.22218 5.70312 9.09995V32.9C5.70312 34.7777 7.22536 36.3 9.10313 36.3H32.9031C34.7809 36.3 36.3031 34.7777 36.3031 32.9V9.09995C36.3031 7.22218 34.7809 5.69995 32.9031 5.69995Z" fill="white" stroke="black" stroke-width="2"/>
</mask>
<g mask="url(#mask0_23991_52660)">
<path fill-rule="evenodd" clip-rule="evenodd" d="M8.25 21C8.25 13.9584 13.9584 8.25 21 8.25C28.0416 8.25 33.75 13.9584 33.75 21C33.75 28.0416 28.0416 33.75 21 33.75C13.9584 33.75 8.25 28.0416 8.25 21ZM21 9.95C14.8973 9.95 9.95 14.8973 9.95 21C9.95 27.1027 14.8973 32.05 21 32.05C27.1027 32.05 32.05 27.1027 32.05 21C32.05 14.8973 27.1027 9.95 21 9.95Z" fill="black"/>
<path fill-rule="evenodd" clip-rule="evenodd" d="M20.8586 24.2038C21.6801 24.2038 22.3461 24.8185 22.3461 25.5769C22.3461 26.3352 21.6801 26.95 20.8586 26.95C20.0371 26.95 19.3711 26.3352 19.3711 25.5769C19.3711 24.8185 20.0371 24.2038 20.8586 24.2038ZM20.8586 14.2C21.639 14.2 22.2791 14.8052 22.3412 15.575L22.3461 15.6979L22.0982 21.1902C22.0982 21.8795 21.5432 22.4384 20.8586 22.4384C20.2143 22.4384 19.6847 21.9434 19.6247 21.3104L19.619 21.1902L19.3711 15.6979C19.3711 14.8706 20.0371 14.2 20.8586 14.2Z" fill="black"/>
</g>
</svg>
