<svg width="24" height="24" viewBox="0 0 24 24" fill="none" xmlns="http://www.w3.org/2000/svg">
<mask id="mask0_43910_2214" style="mask-type:alpha" maskUnits="userSpaceOnUse" x="2" y="2" width="20" height="20">
<path d="M19 3H5C3.89543 3 3 3.89543 3 5V19C3 20.1046 3.89543 21 5 21H19C20.1046 21 21 20.1046 21 19V5C21 3.89543 20.1046 3 19 3Z" fill="white" stroke="black" stroke-width="2"/>
</mask>
<g mask="url(#mask0_43910_2214)">
<path fill-rule="evenodd" clip-rule="evenodd" d="M18 14C18.2761 14 18.5 14.2239 18.5 14.5V17.5C18.5 18.3284 17.8284 19 17 19H7C6.17157 19 5.5 18.3284 5.5 17.5V14.75C5.5 14.4739 5.72386 14.25 6 14.25C6.27614 14.25 6.5 14.4739 6.5 14.75V17.5C6.5 17.7761 6.72386 18 7 18H17C17.2761 18 17.5 17.7761 17.5 17.5V14.5C17.5 14.2239 17.7239 14 18 14Z" fill="#3B3F42"/>
<path fill-rule="evenodd" clip-rule="evenodd" d="M12.1434 14.5C11.8365 14.5 11.5878 14.2589 11.5878 13.9615L11.5878 7.80979L9.44211 9.7329C9.22173 9.93982 8.87002 9.93441 8.65653 9.72081C8.44305 9.50722 8.44863 9.16633 8.669 8.95941L11.7568 6.15172C11.8627 6.05232 12.005 5.99777 12.1523 6.00007C12.2997 6.00237 12.4401 6.06135 12.5426 6.164L15.3437 8.9717C15.557 9.1854 15.5513 9.52629 15.3308 9.73309C15.1103 9.9399 14.7586 9.93431 14.5452 9.72061L12.6989 7.86917L12.6989 13.9615C12.6989 14.2589 12.4502 14.5 12.1434 14.5Z" fill="#3B3F42"/>
</g>
</svg>
