<svg width="22" height="22" viewBox="0 0 22 22" fill="none" xmlns="http://www.w3.org/2000/svg">
    <path fill-rule="evenodd" clip-rule="evenodd"
          d="M5.95808 5.95833C5.95808 5.7052 6.16328 5.5 6.41641 5.5H9.96499C10.1244 5.5 10.2724 5.58286 10.3557 5.7188L10.7835 6.41667H14.9626C15.722 6.41667 16.3376 7.03228 16.3376 7.79167V7.85171C16.9511 8.03957 17.3755 8.64401 17.3005 9.31851L16.5875 15.7352C16.5102 16.4315 15.9216 16.9583 15.221 16.9583H6.77854C6.07791 16.9583 5.48932 16.4315 5.41195 15.7352L4.64243 8.80956C4.5821 8.26656 5.00715 7.79167 5.55349 7.79167H5.95808V5.95833ZM6.87475 7.79167H15.4209C15.4209 7.53854 15.2157 7.33333 14.9626 7.33333H10.5269C10.3674 7.33333 10.2195 7.25047 10.1361 7.11453L9.70835 6.41667H6.87475V7.79167ZM5.55349 8.70833L6.32301 15.6339C6.3488 15.8661 6.54499 16.0417 6.77854 16.0417H15.221C15.4545 16.0417 15.6507 15.8661 15.6765 15.6339L16.3895 9.21728C16.4196 8.94578 16.2071 8.70833 15.9339 8.70833H5.55349Z"
          fill="black"/>
</svg>
