<svg width="24" height="24" viewBox="0 0 24 24" fill="none" xmlns="http://www.w3.org/2000/svg">
    <path d="M9.83662 13.5469H4.61438C4.27507 13.5469 4 13.8219 4 14.1612V19.3835C4 19.7228 4.27507 19.9979 4.61438 19.9979H9.83662C10.1759 19.9979 10.451 19.7228 10.451 19.3835V14.1612C10.451 13.8219 10.1759 13.5469 9.83662 13.5469Z" stroke="black" stroke-width="1.3" stroke-linecap="round" stroke-linejoin="round"/>
    <path d="M19.3835 13.5469H14.1612C13.8219 13.5469 13.5469 13.8219 13.5469 14.1612V19.3835C13.5469 19.7228 13.8219 19.9979 14.1612 19.9979H19.3835C19.7228 19.9979 19.9978 19.7228 19.9978 19.3835V14.1612C19.9978 13.8219 19.7228 13.5469 19.3835 13.5469Z" stroke="black" stroke-width="1.3" stroke-linecap="round" stroke-linejoin="round"/>
    <path d="M9.83662 4H4.61438C4.27507 4 4 4.27507 4 4.61438V9.83662C4 10.1759 4.27507 10.451 4.61438 10.451H9.83662C10.1759 10.451 10.451 10.1759 10.451 9.83662V4.61438C10.451 4.27507 10.1759 4 9.83662 4Z" stroke="black" stroke-width="1.3" stroke-linecap="round" stroke-linejoin="round"/>
    <path d="M19.3835 4H14.1613C13.8219 4 13.5469 4.27507 13.5469 4.61438V9.83662C13.5469 10.1759 13.8219 10.451 14.1613 10.451H19.3835C19.7228 10.451 19.9979 10.1759 19.9979 9.83662V4.61438C19.9979 4.27507 19.7228 4 19.3835 4Z" stroke="black" stroke-width="1.3" stroke-linecap="round" stroke-linejoin="round"/>
</svg>
