<svg width="42" height="42" viewBox="0 0 42 42" fill="none" xmlns="http://www.w3.org/2000/svg">
<path fill-rule="evenodd" clip-rule="evenodd" d="M31.1992 24.3998C31.6687 24.3998 32.0492 24.7804 32.0492 25.2498V30.3498C32.0492 31.7582 30.9075 32.8998 29.4992 32.8998H12.4992C11.0909 32.8998 9.94922 31.7582 9.94922 30.3498V25.6748C9.94922 25.2054 10.3298 24.8248 10.7992 24.8248C11.2687 24.8248 11.6492 25.2054 11.6492 25.6748V30.3498C11.6492 30.8193 12.0298 31.1998 12.4992 31.1998H29.4992C29.9687 31.1998 30.3492 30.8193 30.3492 30.3498V25.2498C30.3492 24.7804 30.7298 24.3998 31.1992 24.3998Z" fill="black"/>
<path fill-rule="evenodd" clip-rule="evenodd" d="M21.2429 10.7998C20.7213 10.7998 20.2985 11.2096 20.2985 11.7152L20.2985 22.1732L16.6508 18.9039C16.2762 18.5521 15.6783 18.5613 15.3153 18.9244C14.9524 19.2875 14.9619 19.867 15.3365 20.2188L20.5858 24.9919C20.7658 25.1609 21.0076 25.2536 21.2582 25.2497C21.5087 25.2458 21.7474 25.1455 21.9216 24.971L26.6835 20.1979C27.0462 19.8346 27.0364 19.2551 26.6616 18.9035C26.2867 18.552 25.6888 18.5615 25.3261 18.9248L22.1874 22.0722L22.1874 11.7152C22.1874 11.2096 21.7646 10.7998 21.2429 10.7998Z" fill="black"/>
</svg>
