<svg width="32" height="32" viewBox="0 0 32 32" fill="none" xmlns="http://www.w3.org/2000/svg">
<mask id="mask0_1948_7006" style="mask-type:alpha" maskUnits="userSpaceOnUse" x="4" y="4" width="24" height="24">
<path d="M25.3333 4H6.66667C5.19391 4 4 5.19391 4 6.66667V25.3333C4 26.8061 5.19391 28 6.66667 28H25.3333C26.8061 28 28 26.8061 28 25.3333V6.66667C28 5.19391 26.8061 4 25.3333 4Z" fill="white"/>
</mask>
<g mask="url(#mask0_1948_7006)">
<path fill-rule="evenodd" clip-rule="evenodd" d="M16 20.6665C14.6953 20.6665 13.4425 20.3938 12.2772 19.8923L14.117 18.8302C14.6628 19.1901 15.3083 19.3982 16 19.3982C17.9515 19.3982 19.535 17.7424 19.549 15.6939L23.024 13.6877C23.6246 14.2771 24.1752 14.9405 24.6666 15.6665C22.599 18.7213 19.4845 20.6665 16 20.6665ZM16 11.9348C16.7936 11.9348 17.5264 12.2087 18.1175 12.6714L20.0186 11.5739C18.7704 10.9877 17.4157 10.6665 16 10.6665C12.5152 10.6665 9.40095 12.612 7.33331 15.6665C7.87821 16.4715 8.49579 17.1995 9.17369 17.8351L12.4601 15.9378C12.4539 15.8482 12.4508 15.7577 12.4508 15.6665C12.4508 13.6054 14.0402 11.9348 16 11.9348ZM23.0111 10.9998L7.99998 19.6665L8.66665 20.8212L23.6778 12.1545L23.0111 10.9998Z" fill="black"/>
</g>
</svg>
