<svg width="32" height="33" viewBox="0 0 32 33" fill="none" xmlns="http://www.w3.org/2000/svg">
<mask id="mask0_1948_6524" style="mask-type:alpha" maskUnits="userSpaceOnUse" x="4" y="4" width="24" height="25">
<path d="M25.3333 4.125H6.66667C5.19391 4.125 4 5.35622 4 6.875V26.125C4 27.6438 5.19391 28.875 6.66667 28.875H25.3333C26.8061 28.875 28 27.6438 28 26.125V6.875C28 5.35622 26.8061 4.125 25.3333 4.125Z" fill="white"/>
</mask>
<g mask="url(#mask0_1948_6524)">
<path fill-rule="evenodd" clip-rule="evenodd" d="M16 11C12.5152 11 9.40095 13.0063 7.33331 16.1562C9.40095 19.3065 12.5152 21.3125 16 21.3125C19.4845 21.3125 22.599 19.3065 24.6666 16.1562C22.599 13.0063 19.4845 11 16 11ZM16 20.0045C14.0402 20.0045 12.4508 18.2817 12.4508 16.1562C12.4508 14.0308 14.0402 12.308 16 12.308C17.9602 12.308 19.5491 14.0308 19.5491 16.1562C19.5491 18.2817 17.9602 20.0045 16 20.0045ZM16 14.2424C15.025 14.2424 14.2346 15.0993 14.2346 16.1565C14.2346 17.2137 15.025 18.0706 16 18.0706C16.975 18.0706 17.7653 17.2137 17.7653 16.1565C17.7653 15.0993 16.975 14.2424 16 14.2424Z" fill="black"/>
</g>
</svg>
