<svg width="32" height="32" viewBox="0 0 32 32" fill="none" xmlns="http://www.w3.org/2000/svg">
<path d="M23.3687 7.79948L24.3091 7.11661C24.4443 7.01841 24.6309 7.03312 24.7491 7.1513C24.8684 7.27063 24.8821 7.45943 24.7813 7.59473L23.9618 8.69413C23.9589 8.69801 23.9545 8.7005 23.9497 8.70101C23.604 8.73735 23.2812 8.8913 23.0354 9.1371L14.7451 17.4274C14.6723 17.5002 14.5542 17.5002 14.4814 17.4274C14.4085 17.3546 14.4085 17.2365 14.4814 17.1637L22.7305 8.9145C22.9786 8.6664 23.1515 8.35319 23.2292 8.01103C23.2485 7.92594 23.298 7.85075 23.3687 7.79948Z" fill="black" stroke="black" stroke-width="1.5"/>
<path d="M11.3517 23.8654L15.8185 18.6167L13.7731 16.2911L8.35741 20.8575C7.40389 21.6615 7.34242 23.1091 8.22435 23.9911C9.10356 24.8703 10.5459 24.8123 11.3517 23.8654Z" fill="white" stroke="black" stroke-width="1.5"/>
<mask id="path-3-inside-1_22195_85496" fill="white">
<path fill-rule="evenodd" clip-rule="evenodd" d="M7.61913 13.956C5.95447 12.2914 5.64235 9.78635 6.68275 7.80656C6.81987 7.54562 7.16797 7.51226 7.37641 7.7207L10.3852 10.7294C10.3941 10.7384 10.4087 10.7384 10.4176 10.7294L11.812 9.33513C11.8209 9.32616 11.8209 9.31161 11.812 9.30264L8.80322 6.29389C8.59478 6.08545 8.62814 5.73735 8.88908 5.60023C10.8689 4.55983 13.3739 4.87195 15.0385 6.53661C16.4437 7.94183 16.8852 9.94587 16.3628 11.7273C16.358 11.7435 16.3532 11.7598 16.3483 11.776L25.0556 19.6338C26.3182 20.7733 26.3686 22.7381 25.1659 23.9407C23.9633 25.1434 21.9985 25.093 20.859 23.8304L13.0681 15.1972C13.0648 15.1984 13.0614 15.1995 13.0581 15.2007C11.2171 15.8418 9.09003 15.4269 7.61913 13.956Z"/>
</mask>
<path fill-rule="evenodd" clip-rule="evenodd" d="M7.61913 13.956C5.95447 12.2914 5.64235 9.78635 6.68275 7.80656C6.81987 7.54562 7.16797 7.51226 7.37641 7.7207L10.3852 10.7294C10.3941 10.7384 10.4087 10.7384 10.4176 10.7294L11.812 9.33513C11.8209 9.32616 11.8209 9.31161 11.812 9.30264L8.80322 6.29389C8.59478 6.08545 8.62814 5.73735 8.88908 5.60023C10.8689 4.55983 13.3739 4.87195 15.0385 6.53661C16.4437 7.94183 16.8852 9.94587 16.3628 11.7273C16.358 11.7435 16.3532 11.7598 16.3483 11.776L25.0556 19.6338C26.3182 20.7733 26.3686 22.7381 25.1659 23.9407C23.9633 25.1434 21.9985 25.093 20.859 23.8304L13.0681 15.1972C13.0648 15.1984 13.0614 15.1995 13.0581 15.2007C11.2171 15.8418 9.09003 15.4269 7.61913 13.956Z" fill="white"/>
<path d="M6.68275 7.80656L5.35493 7.10877L5.35493 7.10877L6.68275 7.80656ZM7.61913 13.956L8.67979 12.8953L8.67979 12.8953L7.61913 13.956ZM7.37641 7.7207L8.43707 6.66004L8.43707 6.66004L7.37641 7.7207ZM10.3852 10.7294L9.3245 11.7901L9.3245 11.7901L10.3852 10.7294ZM10.4176 10.7294L11.4783 11.7901L11.4783 11.7901L10.4176 10.7294ZM11.812 9.33513L10.7513 8.27447L10.7513 8.27447L11.812 9.33513ZM8.88908 5.60023L9.58686 6.92805L9.58686 6.92805L8.88908 5.60023ZM15.0385 6.53661L13.9779 7.59727L15.0385 6.53661ZM16.3628 11.7273L17.8022 12.1494L17.8022 12.1494L16.3628 11.7273ZM16.3483 11.776L14.913 11.3399L14.6361 12.2514L15.3433 12.8896L16.3483 11.776ZM25.0556 19.6338L26.0605 18.5202L26.0605 18.5202L25.0556 19.6338ZM20.859 23.8304L19.7454 24.8353L19.7454 24.8353L20.859 23.8304ZM13.0681 15.1972L14.1817 14.1923L13.5134 13.4517L12.572 13.7816L13.0681 15.1972ZM13.0581 15.2007L12.5648 13.7841L12.5648 13.7841L13.0581 15.2007ZM5.35493 7.10877C4.0177 9.65341 4.41627 12.8745 6.55847 15.0167L8.67979 12.8953C7.49268 11.7082 7.267 9.91928 8.01057 8.50434L5.35493 7.10877ZM8.43707 6.66004C7.60269 5.82566 6.01942 5.84431 5.35493 7.10877L8.01057 8.50434C7.62033 9.24693 6.73326 9.19887 6.31575 8.78136L8.43707 6.66004ZM11.4458 9.66878L8.43707 6.66004L6.31575 8.78136L9.3245 11.7901L11.4458 9.66878ZM9.35702 9.66876C9.93383 9.09197 10.869 9.09197 11.4458 9.66878L9.3245 11.7901C9.91925 12.3849 10.8835 12.3849 11.4783 11.7901L9.35702 9.66876ZM10.7513 8.27447L9.35699 9.66878L11.4783 11.7901L12.8726 10.3958L10.7513 8.27447ZM10.7513 10.3633C10.1745 9.78648 10.1745 8.85128 10.7513 8.27447L12.8726 10.3958C13.4674 9.80103 13.4674 8.83673 12.8726 8.24198L10.7513 10.3633ZM7.74256 7.35455L10.7513 10.3633L12.8726 8.24198L9.86388 5.23323L7.74256 7.35455ZM8.19129 4.27241C6.92683 4.9369 6.90817 6.52017 7.74256 7.35455L9.86388 5.23323C10.2814 5.65074 10.3294 6.53781 9.58686 6.92805L8.19129 4.27241ZM16.0992 5.47595C13.957 3.33375 10.7359 2.93518 8.19129 4.27241L9.58686 6.92805C11.0018 6.18448 12.7908 6.41016 13.9779 7.59727L16.0992 5.47595ZM17.8022 12.1494C18.4727 9.86282 17.9076 7.28437 16.0992 5.47595L13.9779 7.59727C14.9799 8.59928 15.2977 10.0289 14.9234 11.3052L17.8022 12.1494ZM17.7835 12.212C17.7898 12.1912 17.7961 12.1703 17.8022 12.1494L14.9234 11.3052C14.92 11.3168 14.9165 11.3284 14.913 11.3399L17.7835 12.212ZM15.3433 12.8896L24.0506 20.7474L26.0605 18.5202L17.3532 10.6624L15.3433 12.8896ZM24.0506 20.7474C24.6759 21.3116 24.7008 22.2846 24.1053 22.8801L26.2266 25.0014C28.0364 23.1916 27.9606 20.2349 26.0605 18.5202L24.0506 20.7474ZM24.1053 22.8801C23.5098 23.4756 22.5368 23.4507 21.9726 22.8254L19.7454 24.8353C21.4601 26.7354 24.4168 26.8112 26.2266 25.0014L24.1053 22.8801ZM21.9726 22.8254L14.1817 14.1923L11.9545 16.2022L19.7454 24.8353L21.9726 22.8254ZM13.5514 16.6173C13.5558 16.6157 13.5601 16.6142 13.5642 16.6128L12.572 13.7816C12.5695 13.7825 12.5671 13.7833 12.5648 13.7841L13.5514 16.6173ZM6.55847 15.0167C8.45151 16.9097 11.1877 17.4404 13.5514 16.6173L12.5648 13.7841C11.2464 14.2432 9.72856 13.9441 8.67979 12.8953L6.55847 15.0167Z" fill="black" mask="url(#path-3-inside-1_22195_85496)"/>
</svg>
