<svg width="18" height="18" viewBox="0 0 18 18" fill="none" xmlns="http://www.w3.org/2000/svg">
<path d="M14.5568 2.67787C14.7554 2.5336 15.0295 2.55521 15.2032 2.72883C15.3785 2.90413 15.3986 3.1815 15.2504 3.38026L14.687 4.1361C14.6407 4.19822 14.5706 4.23815 14.4935 4.24625C14.3164 4.26487 14.151 4.34376 14.025 4.46972L8.32542 10.1693C8.17161 10.3231 7.92225 10.3231 7.76845 10.1693C7.61465 10.0155 7.61465 9.76614 7.76845 9.61234L13.4398 3.94103C13.5749 3.8059 13.669 3.6353 13.7113 3.44893C13.7389 3.32761 13.8096 3.22044 13.9102 3.14734L14.5568 2.67787Z" fill="white" stroke="white" stroke-width="0.5"/>
<path d="M6.00674 14.5798L9.22658 10.7963L7.49679 8.82952L3.57465 12.1366C2.80016 12.7897 2.75022 13.9655 3.46657 14.6819C4.1807 15.396 5.3522 15.3489 6.00674 14.5798Z" fill="white" stroke="black" stroke-width="0.5"/>
<mask id="path-3-inside-1_23993_1895" fill="white">
<path fill-rule="evenodd" clip-rule="evenodd" d="M3.23806 7.59475C2.09361 6.4503 1.87902 4.72811 2.5943 3.36701C2.68857 3.18761 2.92789 3.16468 3.07119 3.30798L5.1397 5.37649C5.14587 5.38266 5.15587 5.38266 5.16204 5.37649L6.12063 4.4179C6.1268 4.41173 6.1268 4.40173 6.12063 4.39556L4.05212 2.32705C3.90882 2.18375 3.93175 1.94443 4.11115 1.85016C5.47225 1.13488 7.19445 1.34947 8.33889 2.49392C9.30498 3.46 9.60846 4.83779 9.24932 6.06252C9.24605 6.07369 9.24272 6.08484 9.23934 6.09598L15.2256 11.4982C16.0937 12.2816 16.1283 13.6324 15.3015 14.4593C14.4747 15.2861 13.1239 15.2515 12.3405 14.3834L6.98422 8.44808C6.98193 8.44888 6.97965 8.44968 6.97736 8.45048C5.71164 8.89124 4.24931 8.606 3.23806 7.59475Z"/>
</mask>
<path fill-rule="evenodd" clip-rule="evenodd" d="M3.23806 7.59475C2.09361 6.4503 1.87902 4.72811 2.5943 3.36701C2.68857 3.18761 2.92789 3.16468 3.07119 3.30798L5.1397 5.37649C5.14587 5.38266 5.15587 5.38266 5.16204 5.37649L6.12063 4.4179C6.1268 4.41173 6.1268 4.40173 6.12063 4.39556L4.05212 2.32705C3.90882 2.18375 3.93175 1.94443 4.11115 1.85016C5.47225 1.13488 7.19445 1.34947 8.33889 2.49392C9.30498 3.46 9.60846 4.83779 9.24932 6.06252C9.24605 6.07369 9.24272 6.08484 9.23934 6.09598L15.2256 11.4982C16.0937 12.2816 16.1283 13.6324 15.3015 14.4593C14.4747 15.2861 13.1239 15.2515 12.3405 14.3834L6.98422 8.44808C6.98193 8.44888 6.97965 8.44968 6.97736 8.45048C5.71164 8.89124 4.24931 8.606 3.23806 7.59475Z" fill="white"/>
<path d="M2.5943 3.36701L3.0369 3.5996L3.0369 3.5996L2.5943 3.36701ZM3.23806 7.59475L3.59161 7.2412H3.59161L3.23806 7.59475ZM3.07119 3.30798L3.42474 2.95443L3.07119 3.30798ZM5.1397 5.37649L4.78615 5.73005L5.1397 5.37649ZM6.12063 4.39556L5.76708 4.74911L6.12063 4.39556ZM4.05212 2.32705L4.40567 1.9735L4.05212 2.32705ZM4.11115 1.85016L4.34374 2.29276L4.34374 2.29276L4.11115 1.85016ZM8.33889 2.49392L7.98534 2.84747V2.84747L8.33889 2.49392ZM9.24932 6.06252L9.72912 6.20322L9.72912 6.20321L9.24932 6.06252ZM9.23934 6.09598L8.76093 5.95064L8.66863 6.25445L8.90435 6.46718L9.23934 6.09598ZM15.2256 11.4982L14.8906 11.8694L15.2256 11.4982ZM12.3405 14.3834L11.9693 14.7184L12.3405 14.3834ZM6.98422 8.44808L7.35542 8.1131L7.13263 7.86622L6.81881 7.97623L6.98422 8.44808ZM6.97736 8.45048L7.14179 8.92267L7.1418 8.92266L6.97736 8.45048ZM2.15169 3.13441C1.33747 4.6838 1.58087 6.64468 2.8845 7.94831L3.59161 7.2412C2.60635 6.25593 2.42057 4.77243 3.0369 3.5996L2.15169 3.13441ZM3.42474 2.95443C3.0728 2.60248 2.42175 2.62051 2.15169 3.13441L3.0369 3.5996C3.00183 3.66635 2.93451 3.706 2.87121 3.71324C2.81189 3.72003 2.75566 3.69955 2.71764 3.66153L3.42474 2.95443ZM5.49326 5.02294L3.42474 2.95443L2.71764 3.66153L4.78615 5.73005L5.49326 5.02294ZM4.80849 5.02294C4.99757 4.83385 5.30415 4.83384 5.49326 5.02294L4.78615 5.73005C4.98759 5.93149 5.31417 5.93147 5.51559 5.73004L4.80849 5.02294ZM5.76708 4.06435L4.80849 5.02294L5.51559 5.73004L6.47419 4.77145L5.76708 4.06435ZM5.76708 4.74911C5.57799 4.56002 5.57799 4.25344 5.76708 4.06435L6.47419 4.77145C6.67562 4.57002 6.67562 4.24344 6.47419 4.04201L5.76708 4.74911ZM3.69857 2.6806L5.76708 4.74911L6.47419 4.04201L4.40567 1.9735L3.69857 2.6806ZM3.87855 1.40755C3.36465 1.67761 3.34662 2.32865 3.69857 2.6806L4.40567 1.9735C4.44369 2.01152 4.46417 2.06775 4.45738 2.12707C4.45014 2.19037 4.41049 2.25769 4.34374 2.29276L3.87855 1.40755ZM8.69245 2.14036C7.38882 0.836733 5.42794 0.593332 3.87855 1.40755L4.34374 2.29276C5.51657 1.67643 7.00007 1.8622 7.98534 2.84747L8.69245 2.14036ZM9.72912 6.20321C10.1376 4.8101 9.79294 3.24085 8.69245 2.14036L7.98534 2.84747C8.81703 3.67916 9.07929 4.86547 8.76953 5.92183L9.72912 6.20321ZM9.71774 6.24133C9.7216 6.22863 9.72539 6.21593 9.72912 6.20322L8.76953 5.92183C8.76671 5.93145 8.76384 5.94105 8.76093 5.95064L9.71774 6.24133ZM8.90435 6.46718L14.8906 11.8694L15.5606 11.127L9.57432 5.72479L8.90435 6.46718ZM14.8906 11.8694C15.5462 12.4611 15.5724 13.4813 14.9479 14.1057L15.655 14.8128C16.6842 13.7836 16.6411 12.1022 15.5606 11.127L14.8906 11.8694ZM14.9479 14.1057C14.3235 14.7301 13.3033 14.704 12.7117 14.0484L11.9693 14.7184C12.9444 15.7989 14.6259 15.842 15.655 14.8128L14.9479 14.1057ZM12.7117 14.0484L7.35542 8.1131L6.61303 8.78306L11.9693 14.7184L12.7117 14.0484ZM7.1418 8.92266C7.14434 8.92178 7.14696 8.92086 7.14963 8.91992L6.81881 7.97623C6.81691 7.9769 6.81495 7.97758 6.81291 7.97829L7.1418 8.92266ZM2.8845 7.94831C4.03646 9.10027 5.70185 9.4241 7.14179 8.92267L6.81292 7.97829C5.72143 8.35838 4.46215 8.11174 3.59161 7.2412L2.8845 7.94831Z" fill="black" mask="url(#path-3-inside-1_23993_1895)"/>
</svg>
