<svg width="24" height="24" viewBox="0 0 24 24" fill="none" xmlns="http://www.w3.org/2000/svg">
<mask id="mask0_18815_22524" style="mask-type:alpha" maskUnits="userSpaceOnUse" x="3" y="3" width="19" height="18">
<path d="M19.002 3H5.00195C3.89738 3 3.00195 3.89543 3.00195 5V19C3.00195 20.1046 3.89738 21 5.00195 21H19.002C20.1065 21 21.002 20.1046 21.002 19V5C21.002 3.89543 20.1065 3 19.002 3Z" fill="white"/>
</mask>
<g mask="url(#mask0_18815_22524)">
<path fill-rule="evenodd" clip-rule="evenodd" d="M10.5732 5C7.77245 5 5.50195 7.25987 5.50195 10.0476C5.50195 12.8352 7.77245 15.0951 10.5732 15.0951C11.6384 15.0951 12.6269 14.7682 13.4429 14.2098C13.47 14.2678 13.5076 14.3222 13.5557 14.37L17.54 18.3357C17.7601 18.5548 18.1169 18.5548 18.3369 18.3357C18.557 18.1167 18.557 17.7616 18.3369 17.5426L14.3525 13.5769C14.3257 13.5502 14.2969 13.5268 14.2665 13.5066C15.121 12.6031 15.6445 11.3862 15.6445 10.0476C15.6445 7.25987 13.374 5 10.5732 5ZM6.62891 10.0476C6.62891 7.87935 8.39484 6.12168 10.5732 6.12168C12.7516 6.12168 14.5176 7.87935 14.5176 10.0476C14.5176 12.2158 12.7516 13.9734 10.5732 13.9734C8.39484 13.9734 6.62891 12.2158 6.62891 10.0476Z" fill="#A5A5A5"/>
</g>
</svg>
