<svg width="48" height="48" viewBox="0 0 48 48" fill="none" xmlns="http://www.w3.org/2000/svg">
<mask id="mask0_17419_17604" style="mask-type:alpha" maskUnits="userSpaceOnUse" x="6" y="6" width="36" height="36">
<path d="M38 6H10C7.79086 6 6 7.79086 6 10V38C6 40.2091 7.79086 42 10 42H38C40.2091 42 42 40.2091 42 38V10C42 7.79086 40.2091 6 38 6Z" fill="white"/>
</mask>
<g mask="url(#mask0_17419_17604)">
<path fill-rule="evenodd" clip-rule="evenodd" d="M21.4253 10.1367L21.08 9.93457L20.6906 10.0264C19.1715 10.3847 17.7458 10.9841 16.4563 11.7817L16.1162 11.9921L16.0149 12.3789L15.2594 15.2652L12.3738 16.0214L11.9869 16.1228L11.7766 16.463C10.9817 17.7493 10.3837 19.1713 10.0257 20.6863L9.93373 21.0756L10.1357 21.421L11.6434 23.9997L10.1356 26.5778L9.93359 26.9231L10.0256 27.3125C10.3836 28.8278 10.9816 30.2499 11.7766 31.5364L11.9869 31.8766L12.3738 31.978L15.2593 32.7342L16.014 35.6197L16.1152 36.0067L16.4553 36.2171C17.7451 37.015 19.1711 37.6147 20.6906 37.973L21.08 38.0649L21.4253 37.8627L23.9988 36.3562L26.5722 37.8627L26.9175 38.0649L27.3069 37.973C28.8264 37.6147 30.2524 37.015 31.5422 36.2171L31.8823 36.0067L31.9835 35.6197L32.7382 32.7343L35.6229 31.979L36.0099 31.8777L36.2203 31.5374C37.0156 30.2506 37.6139 28.8282 37.9719 27.3125L38.0639 26.9231L37.8619 26.5778L36.3542 23.9997L37.862 21.4221L38.064 21.0767L37.972 20.6873C37.614 19.1715 37.0157 17.7489 36.2203 16.462L36.0099 16.1217L35.6229 16.0204L32.7381 15.2651L31.9826 12.3789L31.8813 11.9921L31.5412 11.7817C30.252 10.9843 28.8266 10.3849 27.3079 10.0266L26.9185 9.93479L26.5733 10.1368L23.9988 11.6432L21.4253 10.1367ZM17.046 16.3375L17.8462 13.2811C18.7541 12.7587 19.7344 12.3486 20.7681 12.0695L23.4935 13.6649L23.9985 13.9605L24.5037 13.665L27.2301 12.0697C28.2636 12.3488 29.2436 12.7588 30.1514 13.2811L30.9515 16.3376L31.0997 16.9036L31.6656 17.0518L34.7206 17.8516C35.2412 18.7572 35.6502 19.7347 35.929 20.7655L34.3325 23.4948L34.0372 23.9996L34.3325 24.5045L35.9289 27.2342C35.6502 28.2649 35.2412 29.2423 34.7206 30.1478L31.6655 30.9477L31.0994 31.0959L30.9513 31.6621L30.1521 34.7179C29.2439 35.2405 28.2634 35.6507 27.2294 35.9299L24.5039 34.3345L23.9988 34.0388L23.4936 34.3345L20.7681 35.9299C19.7341 35.6507 18.7536 35.2405 17.8454 34.7179L17.0462 31.6622L16.8982 31.0962L16.3323 30.9479L13.2765 30.147C12.7561 29.2418 12.3473 28.2646 12.0686 27.2342L13.665 24.5046L13.9602 23.9998L13.6651 23.495L12.0687 20.7648C12.3474 19.7345 12.7562 18.7575 13.2765 17.8524L16.3321 17.0516L16.8979 16.9033L17.046 16.3375ZM19.2112 24.0029C19.2112 21.3192 21.3637 19.1599 23.999 19.1599C26.6343 19.1599 28.7868 21.3192 28.7868 24.0029C28.7868 26.6867 26.6343 28.846 23.999 28.846C21.3637 28.846 19.2112 26.6867 19.2112 24.0029ZM23.999 17.1599C20.2413 17.1599 17.2112 20.2326 17.2112 24.0029C17.2112 27.7733 20.2413 30.846 23.999 30.846C27.7568 30.846 30.7868 27.7733 30.7868 24.0029C30.7868 20.2326 27.7568 17.1599 23.999 17.1599Z" fill="black"/>
</g>
</svg>
