<svg width="42" height="42" viewBox="0 0 42 42" fill="none" xmlns="http://www.w3.org/2000/svg">
<rect x="19.2266" y="7.39941" width="3.54783" height="3.54783" rx="1.77391" fill="black"/>
<rect opacity="0.1" x="26.2637" y="8.33496" width="3.54783" height="3.54783" rx="1.77391" transform="rotate(30 26.2637 8.33496)" fill="black"/>
<rect opacity="0.2" x="31.8906" y="12.6631" width="3.54783" height="3.54783" rx="1.77391" transform="rotate(60 31.8906 12.6631)" fill="black"/>
<rect opacity="0.3" x="34.5996" y="19.2256" width="3.54783" height="3.54783" rx="1.77391" transform="rotate(90 34.5996 19.2256)" fill="black"/>
<rect opacity="0.4" x="33.666" y="26.2627" width="3.54783" height="3.54783" rx="1.77391" transform="rotate(120 33.666 26.2627)" fill="black"/>
<rect opacity="0.5" width="3.54783" height="3.54783" rx="1.77391" transform="matrix(-0.866026 0.499999 -0.500001 -0.866025 29.3359 31.8906)" fill="black"/>
<rect opacity="0.6" x="22.7734" y="34.5996" width="3.54782" height="3.54783" rx="1.77391" transform="rotate(180 22.7734 34.5996)" fill="black"/>
<rect opacity="0.7" x="15.7363" y="33.6641" width="3.54783" height="3.54783" rx="1.77391" transform="rotate(-150 15.7363 33.6641)" fill="black"/>
<rect opacity="0.8" x="10.1094" y="29.3359" width="3.54783" height="3.54783" rx="1.77391" transform="rotate(-120 10.1094 29.3359)" fill="black"/>
<rect opacity="0.9" x="7.40039" y="22.7734" width="3.54783" height="3.54783" rx="1.77391" transform="rotate(-90 7.40039 22.7734)" fill="black"/>
<rect x="8.33594" y="15.7354" width="3.54783" height="3.54783" rx="1.77391" transform="rotate(-60 8.33594 15.7354)" fill="black"/>
<rect x="12.6641" y="10.1084" width="3.54783" height="3.54783" rx="1.77391" transform="rotate(-30 12.6641 10.1084)" fill="black"/>
</svg>
