<svg width="22" height="22" viewBox="0 0 22 22" fill="none" xmlns="http://www.w3.org/2000/svg">
<mask id="mask0_25522_39359" style="mask-type:alpha" maskUnits="userSpaceOnUse" x="2" y="2" width="18" height="18">
<path d="M17.4167 2.75H4.58333C3.57081 2.75 2.75 3.57081 2.75 4.58333V17.4167C2.75 18.4292 3.57081 19.25 4.58333 19.25H17.4167C18.4292 19.25 19.25 18.4292 19.25 17.4167V4.58333C19.25 3.57081 18.4292 2.75 17.4167 2.75Z" fill="white"/>
</mask>
<g mask="url(#mask0_25522_39359)">
<path fill-rule="evenodd" clip-rule="evenodd" d="M10.9998 4.58366C9.39289 4.58366 7.9239 5.17437 6.79818 6.15048L8.75142 8.10372C9.37231 7.62107 10.1525 7.33366 10.9998 7.33366C11.8472 7.33366 12.6274 7.6211 13.2483 8.10379L15.2016 6.15055C14.0758 5.17439 12.6068 4.58366 10.9998 4.58366ZM13.8965 8.75199C14.3791 9.37287 14.6665 10.153 14.6665 11.0003C14.6665 11.8477 14.3791 12.6279 13.8964 13.2487L15.8497 15.202L15.8621 15.1877C16.3066 14.6715 16.6668 14.0871 16.9282 13.4559C17.2095 12.7768 17.3717 12.0553 17.4085 11.3228C17.4138 11.216 17.4165 11.1085 17.4165 11.0003C17.4165 10.8922 17.4138 10.7847 17.4085 10.6778C17.3717 9.94536 17.2095 9.22381 16.9282 8.54478C16.6672 7.9146 16.3078 7.33104 15.8642 6.81551L15.8497 6.79874L13.8965 8.75199ZM13.2483 13.8969C12.6274 14.3796 11.8472 14.667 10.9998 14.667C10.1525 14.667 9.37238 14.3796 8.7515 13.897L6.79839 15.8501C7.31802 16.3003 7.90741 16.6647 8.54443 16.9286C9.32293 17.251 10.1573 17.417 11 17.417C11.1053 17.417 11.2104 17.4144 11.3154 17.4092C12.0502 17.3731 12.7742 17.2107 13.4554 16.9286C14.0924 16.6647 14.6818 16.3003 15.2014 15.8501L13.2483 13.8969ZM8.1033 13.2488C7.62061 12.6279 7.33317 11.8477 7.33317 11.0003C7.33317 10.153 7.62058 9.3728 8.10324 8.75191L6.15007 6.79874C5.69989 7.31837 5.33547 7.90776 5.07161 8.54477C4.74914 9.32328 4.58317 10.1577 4.58317 11.0003C4.58317 11.843 4.74914 12.6774 5.07161 13.4559C5.33548 14.0929 5.69992 14.6823 6.15013 15.202L8.1033 13.2488ZM10.9998 3.66699C9.13973 3.66699 7.44137 4.35954 6.14855 5.50086L6.13848 5.49079L5.81838 5.81088C4.48896 7.13827 3.6665 8.97325 3.6665 11.0003C3.6665 12.8605 4.35908 14.5589 5.50044 15.8517L5.49044 15.8617L5.78676 16.158L5.78714 16.1584L5.81376 16.1852L5.81439 16.1858L5.82996 16.2013C5.85076 16.222 5.87168 16.2425 5.89272 16.263C7.20225 17.534 8.98466 18.3206 10.9507 18.3335C10.9671 18.3336 10.9835 18.3337 10.9998 18.3337C11.008 18.3337 11.0162 18.3336 11.0244 18.3336C11.0326 18.3336 11.0408 18.3336 11.0489 18.3335C12.8832 18.3215 14.5576 17.636 15.8373 16.512C15.9567 16.4072 16.0728 16.2984 16.1854 16.1858L16.2124 16.1587L16.5094 15.8617L16.4993 15.8516C16.5105 15.839 16.5216 15.8263 16.5327 15.8135C17.5848 14.6052 18.2475 13.0489 18.3254 11.3402C18.3307 11.2271 18.3333 11.1138 18.3333 11.0003C18.3333 10.887 18.3307 10.7737 18.3254 10.6607C18.2476 8.95287 17.5856 7.39736 16.5346 6.18927C16.4227 6.06063 16.3063 5.93574 16.1854 5.81488L15.8613 5.49079L15.8512 5.50093C14.5584 4.35957 12.86 3.66699 10.9998 3.66699ZM8.24984 11.0003C8.24984 9.48154 9.48105 8.25033 10.9998 8.25033C12.5186 8.25033 13.7498 9.48154 13.7498 11.0003C13.7498 12.5191 12.5186 13.7503 10.9998 13.7503C9.48105 13.7503 8.24984 12.5191 8.24984 11.0003Z" fill="#6D9BBC"/>
</g>
</svg>
