<svg viewBox="0 0 312 312" fill="none" xmlns="http://www.w3.org/2000/svg">
    <rect x="0.5" y="0.5" width="311" height="311" rx="155.5" stroke="url(#paint0_linear_20589_692)"/>
    <rect x="30.5" y="31.5" width="250" height="250" rx="125" stroke="url(#paint1_linear_20589_692)"
          stroke-opacity="0.8"/>
    <rect x="60.75" y="61.75" width="189.5" height="189.5" rx="94.75" stroke="url(#paint2_linear_20589_692)"
          stroke-opacity="0.8" stroke-width="1.5"/>
    <rect x="84" y="85" width="143" height="143" rx="71.5" stroke="url(#paint3_linear_20589_692)" stroke-opacity="0.8"
          stroke-width="2"/>
    <path fill-rule="evenodd" clip-rule="evenodd"
          d="M157.595 142.625H166.439C168.239 142.625 171.93 144.377 171.93 149.007C171.93 153.638 168.239 155.389 166.439 155.389H146.215C144.385 155.389 140.668 157.141 140.668 161.882C140.668 166.623 144.385 168.375 146.215 168.375H155.447"
          fill="#FBFBFB"/>
    <path
        d="M157.595 142.625H166.439C168.239 142.625 171.93 144.377 171.93 149.007C171.93 153.638 168.239 155.389 166.439 155.389H146.215C144.385 155.389 140.668 157.141 140.668 161.882C140.668 166.623 144.385 168.375 146.215 168.375H155.447"
        stroke="#D2D6DB" stroke-width="1.9" stroke-linejoin="round"/>
    <path fill-rule="evenodd" clip-rule="evenodd" d="M129 146.434H136.461V138.818H129V146.434Z" fill="#FBFBFB"
          stroke="#3B3F42" stroke-width="1.9" stroke-linejoin="round"/>
    <path fill-rule="evenodd" clip-rule="evenodd" d="M136.465 147.251H150.553V138H136.465V147.251Z" fill="#FBFBFB"
          stroke="#3B3F42" stroke-width="1.9" stroke-linejoin="round"/>
    <path fill-rule="evenodd" clip-rule="evenodd" d="M150.551 144.378H157.595V140.874H150.551V144.378Z" fill="#FBFBFB"
          stroke="#3B3F42" stroke-width="1.9" stroke-linejoin="round"/>
    <path fill-rule="evenodd" clip-rule="evenodd" d="M176.133 172.183H183.594V164.567H176.133V172.183Z" fill="#FBFBFB"
          stroke="#3B3F42" stroke-width="1.9" stroke-linejoin="round"/>
    <path fill-rule="evenodd" clip-rule="evenodd" d="M162.047 173H176.135V163.75H162.047V173Z" fill="#FBFBFB"
          stroke="#3B3F42" stroke-width="1.9" stroke-linejoin="round"/>
    <path fill-rule="evenodd" clip-rule="evenodd" d="M155 170.127H162.044V166.623H155V170.127Z" fill="#FBFBFB"
          stroke="#3B3F42" stroke-width="1.9" stroke-linejoin="round"/>
    <defs>
        <linearGradient id="paint0_linear_20589_692" x1="156" y1="0" x2="156" y2="312" gradientUnits="userSpaceOnUse">
            <stop stop-color="#F1F1F1"/>
            <stop offset="1" stop-color="#FCFCFC" stop-opacity="0.79"/>
        </linearGradient>
        <linearGradient id="paint1_linear_20589_692" x1="155.5" y1="31" x2="155.5" y2="282"
                        gradientUnits="userSpaceOnUse">
            <stop stop-color="#A9AAAA" stop-opacity="0.24"/>
            <stop offset="1" stop-color="#F4F5F6" stop-opacity="0.31"/>
        </linearGradient>
        <linearGradient id="paint2_linear_20589_692" x1="155.5" y1="61" x2="155.5" y2="252"
                        gradientUnits="userSpaceOnUse">
            <stop stop-color="#B5B5B5" stop-opacity="0.3"/>
            <stop offset="1" stop-color="#F4F5F6" stop-opacity="0.35"/>
        </linearGradient>
        <linearGradient id="paint3_linear_20589_692" x1="155.5" y1="84" x2="155.5" y2="229"
                        gradientUnits="userSpaceOnUse">
            <stop stop-color="#8F8F90" stop-opacity="0.23"/>
            <stop offset="1" stop-color="#F4F5F6" stop-opacity="0.28"/>
        </linearGradient>
    </defs>
</svg>
