<svg width="32" height="32" viewBox="0 0 32 32" fill="none" xmlns="http://www.w3.org/2000/svg">
<path d="M15.9974 12.2666C18.0802 12.2666 21.3307 12.2666 21.3307 12.2666L15.9974 19.7333L10.6641 12.2666C10.6641 12.2666 13.9146 12.2666 15.9974 12.2666Z" fill="black"/>
<path fill-rule="evenodd" clip-rule="evenodd" d="M10.1919 12.5559C10.2833 12.3783 10.4664 12.2666 10.6661 12.2666H21.3325C21.5323 12.2666 21.7156 12.3783 21.807 12.5559C21.8985 12.7335 21.8829 12.9474 21.7668 13.1099L16.4335 20.5766C16.3334 20.7168 16.1717 20.7999 15.9995 20.7999C15.8272 20.7999 15.6656 20.7168 15.5655 20.5766L10.2322 13.1099C10.116 12.9474 10.1005 12.7335 10.1919 12.5559ZM20.2964 13.3333H11.7025L15.9995 19.349L20.2964 13.3333Z" fill="black"/>
</svg>
