<svg width="15" height="13" viewBox="0 0 15 13" fill="none" xmlns="http://www.w3.org/2000/svg">
    <path fill-rule="evenodd" clip-rule="evenodd"
          d="M2.00002 0.5C2.00002 0.223858 2.22388 0 2.50002 0H6.37119C6.54513 0 6.70657 0.0903968 6.79747 0.238693L7.26415 1H11.8231C12.6516 1 13.3231 1.67157 13.3231 2.5V2.5655C13.9924 2.77044 14.4553 3.42983 14.3736 4.16565L13.5958 11.1656C13.5114 11.9253 12.8693 12.5 12.105 12.5H2.89506C2.13074 12.5 1.48864 11.9253 1.40424 11.1656L0.564768 3.61043C0.498949 3.01807 0.96264 2.5 1.55865 2.5H2.00002V0.5ZM3.00002 2.5H12.3231C12.3231 2.22386 12.0993 2 11.8231 2H6.98418C6.81024 2 6.6488 1.9096 6.55789 1.76131L6.09122 1H3.00002V2.5ZM1.55865 3.5L2.39812 11.0552C2.42626 11.3084 2.64029 11.5 2.89506 11.5H12.105C12.3598 11.5 12.5738 11.3084 12.6019 11.0552L13.3797 4.05522C13.4126 3.75903 13.1808 3.5 12.8828 3.5H1.55865Z"
          fill="currentColor"/>
</svg>
