<svg width="20" height="18" viewBox="0 0 20 18" fill="none" xmlns="http://www.w3.org/2000/svg">
    <path fill-rule="evenodd" clip-rule="evenodd"
          d="M12.0688 0.544628C11.8819 0.344691 11.5917 0.279339 11.3371 0.379828C11.0825 0.480316 10.9152 0.726223 10.9152 0.999943V4.54319C9.58495 4.5865 8.30188 4.89949 7.12144 5.43738C4.28473 6.73 2.04074 9.32145 1.15898 12.5905C0.617081 14.599 0.660052 16.2287 0.675847 16.8277C0.677778 16.9009 0.679303 16.9587 0.679303 16.9999C0.679303 17.3036 0.884554 17.569 1.17851 17.6452C1.47247 17.7215 1.78083 17.5895 1.92851 17.3241C3.93647 13.7158 6.34827 12.361 8.20331 11.8753C9.14177 11.6296 9.95751 11.6013 10.5343 11.6336C10.6768 11.6415 10.8044 11.6532 10.9152 11.666V16.1578C10.9152 16.4316 11.0825 16.6775 11.3371 16.778C11.5917 16.8784 11.8819 16.8131 12.0688 16.6132L19.1552 9.03421C19.3948 8.77795 19.3948 8.37984 19.1552 8.12358L12.0688 0.544628ZM11.5819 11.1052L11.7555 10.4615C12.0464 10.54 12.2485 10.8039 12.2485 11.1052V14.4687L17.7556 8.57889L12.2485 2.68907V5.21047C12.2485 5.39154 12.1749 5.56483 12.0445 5.69048C11.9141 5.81614 11.7383 5.88336 11.5573 5.87668C11.5187 5.87526 11.4792 5.87452 11.4332 5.87365L11.4303 5.87359C10.5679 5.8537 9.72069 5.9666 8.90992 6.19724C6.54325 6.87047 4.48669 8.54695 3.26595 10.8526C2.92281 11.5007 2.6457 12.1985 2.44631 12.9378C2.28313 13.5426 2.17849 14.1066 2.11208 14.6124C3.99572 12.1673 6.08833 11.0508 7.86558 10.5854C8.96259 10.2982 9.92057 10.2639 10.6086 10.3023C10.953 10.3215 11.2311 10.3591 11.427 10.3928C11.5251 10.4097 11.6027 10.4257 11.6581 10.4381C11.6858 10.4442 11.7079 10.4495 11.7242 10.4535L11.7443 10.4586L11.751 10.4603L11.7535 10.461L11.7546 10.4613C11.7546 10.4613 11.7555 10.4615 11.5819 11.1052Z"
          fill="currentColor"/>
</svg>
