<svg width="20" height="16" viewBox="0 0 20 16" fill="none" xmlns="http://www.w3.org/2000/svg">
    <path fill-rule="evenodd" clip-rule="evenodd"
          d="M3.33268 1.99984C2.5963 1.99984 1.99935 2.59679 1.99935 3.33317V12.6665C1.99935 13.4029 2.5963 13.9998 3.33268 13.9998H16.666C17.4024 13.9998 17.9993 13.4029 17.9993 12.6665V3.33317C17.9993 2.59679 17.4024 1.99984 16.666 1.99984H3.33268ZM0.666016 3.33317C0.666016 1.86041 1.85992 0.666504 3.33268 0.666504H16.666C18.1388 0.666504 19.3327 1.86041 19.3327 3.33317V12.6665C19.3327 14.1393 18.1388 15.3332 16.666 15.3332H3.33268C1.85992 15.3332 0.666016 14.1393 0.666016 12.6665V3.33317Z"
          fill="currentColor"/>
    <path fill-rule="evenodd" clip-rule="evenodd"
          d="M9.52794 9.80457L1.52794 1.80458L2.47075 0.861766L9.99935 8.39036L17.5279 0.861766L18.4708 1.80458L10.4708 9.80457C10.2104 10.0649 9.78829 10.0649 9.52794 9.80457Z"
          fill="currentColor"/>
</svg>
