<svg width="15" height="14" viewBox="0 0 15 14" fill="none" xmlns="http://www.w3.org/2000/svg">
    <path
        d="M14.4081 8.80205C14.3795 8.74594 14.34 8.6962 14.2918 8.65582C13.0937 7.66031 11.4612 7.37761 10.0012 7.91282C10.0027 6.10131 9.18201 4.38827 7.77258 3.26117C7.60503 3.12687 7.36748 3.12687 7.19992 3.26117C5.79303 4.3858 4.97255 6.09456 4.97133 7.90255C3.51702 7.38195 1.89779 7.66926 0.70817 8.65899C0.660035 8.69936 0.620493 8.7491 0.591909 8.80521C0.532377 8.88442 0.5 8.98098 0.5 9.08028C0.502598 11.5513 2.49276 13.5538 4.94855 13.5565C5.86287 13.558 6.75486 13.2723 7.5 12.7392C8.24551 13.2712 9.13747 13.5558 10.0515 13.5533C12.5072 13.5507 14.4974 11.5482 14.5 9.07712C14.5 8.97782 14.4676 8.88125 14.4081 8.80205ZM7.48665 4.2326C8.50501 5.18506 9.08357 6.52095 9.08357 7.91994C9.08357 9.31892 8.50501 10.6548 7.48665 11.6073C6.46785 10.6551 5.88899 9.31908 5.88899 7.91994C5.88899 6.5208 6.46785 5.18481 7.48665 4.2326ZM1.42694 9.26761C2.47842 8.47547 3.88465 8.34967 5.05852 8.94275C5.26714 10.1597 5.84891 11.2804 6.72231 12.1479C6.1847 12.4659 5.57216 12.6329 4.94855 12.6317C3.0733 12.6273 1.52779 11.1502 1.42694 9.26603V9.26761ZM10.0515 12.6317C9.42123 12.6325 8.80254 12.4615 8.26119 12.1369C9.12462 11.2747 9.70099 10.1642 9.91084 8.95856C11.0895 8.34705 12.5118 8.46677 13.5731 9.26682C13.471 11.1501 11.9258 12.6258 10.0515 12.6301V12.6317Z"
        fill="currentColor"/>
    <path
        d="M14.3343 5.94546C14.3643 5.94551 14.3927 5.93146 14.4111 5.90744C14.4294 5.88342 14.4356 5.85218 14.4277 5.82294C13.5691 2.67895 10.7282 0.5 7.48782 0.5C4.24741 0.5 1.40656 2.67895 0.547918 5.82294C0.540422 5.85215 0.546711 5.8832 0.564969 5.90713C0.583226 5.93106 0.611418 5.9452 0.641398 5.94546H1.39631C1.43826 5.94552 1.4753 5.91789 1.48743 5.87748C2.30514 3.23421 4.73654 1.43345 7.48782 1.43345C10.2391 1.43345 12.6705 3.23421 13.4882 5.87748C13.5006 5.91773 13.5375 5.94526 13.5793 5.94546H14.3343Z"
        fill="currentColor"/>
</svg>
