<svg width="19" height="18" viewBox="0 0 19 18" fill="none" xmlns="http://www.w3.org/2000/svg">
<g clip-path="url(#clip0_30408_47996)">
<path d="M5.69231 10.2692L8.29423 12.3508C8.36411 12.4083 8.44593 12.4496 8.53375 12.4715C8.62157 12.4935 8.71318 12.4956 8.80192 12.4777C8.89151 12.4609 8.97643 12.425 9.05089 12.3724C9.12536 12.3199 9.18763 12.2519 9.23346 12.1731L13.3077 5.19231M17.75 9C17.75 13.5563 14.0563 17.25 9.5 17.25C4.94365 17.25 1.25 13.5563 1.25 9C1.25 4.44365 4.94365 0.75 9.5 0.75C14.0563 0.75 17.75 4.44365 17.75 9Z" stroke="black" stroke-linecap="round" stroke-linejoin="round"/>
</g>
<defs>
<clipPath id="clip0_30408_47996">
<rect width="18" height="18" fill="white" transform="translate(0.5)"/>
</clipPath>
</defs>
</svg>
