<svg viewBox="0 0 20 20" fill="none" xmlns="http://www.w3.org/2000/svg">
    <mask id="mask0_11376_182254" style="mask-type:alpha" maskUnits="userSpaceOnUse" x="2" y="2" width="16" height="16">
        <path d="M15.8333 2.5H4.16667C3.24619 2.5 2.5 3.24619 2.5 4.16667V15.8333C2.5 16.7538 3.24619 17.5 4.16667 17.5H15.8333C16.7538 17.5 17.5 16.7538 17.5 15.8333V4.16667C17.5 3.24619 16.7538 2.5 15.8333 2.5Z" fill="white"/>
    </mask>
    <g mask="url(#mask0_11376_182254)">
        <path fill-rule="evenodd" clip-rule="evenodd" d="M4.71804 13.2215C4.88713 13.3776 5.15074 13.3671 5.30682 13.198L10.0007 8.11299L14.6945 13.198C14.8506 13.3671 15.1142 13.3776 15.2833 13.2215C15.4524 13.0654 15.4629 12.8018 15.3068 12.6327L10.3068 7.21608C10.2279 7.13063 10.1169 7.08203 10.0007 7.08203C9.88436 7.08203 9.77336 7.13063 9.69448 7.21608L4.69449 12.6327C4.5384 12.8018 4.54894 13.0654 4.71804 13.2215Z" fill="#40749A"/>
    </g>
</svg>
