<svg width="10" height="12" viewBox="0 0 10 12" fill="none" xmlns="http://www.w3.org/2000/svg">
<path fill-rule="evenodd" clip-rule="evenodd" d="M5.11964 0.166504C4.86395 0.166504 4.65668 0.367402 4.65668 0.615222L4.65668 10.325L1.61859 7.47242C1.43494 7.29999 1.14185 7.3045 0.963941 7.4825C0.786035 7.66049 0.790687 7.94456 0.974332 8.117L4.79751 11.7067C4.88573 11.7896 5.0043 11.835 5.12711 11.8331C5.24992 11.8312 5.36691 11.7821 5.45232 11.6965L9.03656 8.10676C9.21437 7.92867 9.20956 7.6446 9.02582 7.47226C8.84209 7.29992 8.54899 7.30458 8.37118 7.48266L5.5826 10.2755L5.5826 0.615222C5.5826 0.367402 5.37533 0.166504 5.11964 0.166504Z" fill="white"/>
</svg>
