<svg xmlns="http://www.w3.org/2000/svg" width="40" height="40" viewBox="0 0 40 40">
    <g fill="none" fill-rule="evenodd">
        <g fill-rule="nonzero">
            <g>
                <g>
                    <g>
                        <g>
                            <g transform="translate(-620 -310) translate(450 170) translate(130 100) translate(40 40) translate(1)">
                                <path fill="#000" d="M10.816 13.014c-1.975 0-3.575-1.601-3.575-3.576s1.6-3.576 3.575-3.576 3.576 1.601 3.576 3.576c-.005 1.973-1.603 3.571-3.576 3.576zm0-5.611c-1.133 0-2.051.918-2.051 2.051s.918 2.051 2.051 2.051 2.052-.918 2.052-2.05c.002-.544-.213-1.066-.596-1.451s-.904-.601-1.448-.601h-.008zM28.265 13.014c-1.447.003-2.753-.866-3.31-2.202-.555-1.336-.251-2.875.77-3.9 1.022-1.024 2.561-1.331 3.898-.778 1.337.553 2.21 1.857 2.21 3.304-.005 1.97-1.598 3.567-3.568 3.576zm0-5.555c-.808 0-1.535.487-1.844 1.234-.308.746-.136 1.605.436 2.174.572.57 1.432.739 2.177.427.745-.31 1.229-1.04 1.225-1.848 0-.531-.212-1.04-.59-1.413-.378-.374-.89-.58-1.42-.574h.016z"/>
                                <path fill="#000" d="M28.265 7.297c-.225.016-.446-.062-.61-.216-.165-.154-.258-.37-.258-.595v-5.48c0-.48.389-.868.868-.868s.867.388.867.867v5.481c.001.226-.092.441-.257.595-.164.154-.385.232-.61.216zM10.816 7.297c-.46.01-.845-.35-.867-.81V1.004c0-.479.388-.867.867-.867.48 0 .868.388.868.867v5.481c-.022.461-.407.82-.868.811zM24.722 4.37H13.986c-.335.116-.707 0-.918-.285-.21-.286-.21-.676 0-.962.21-.286.583-.401.918-.285h10.736c.335-.116.707 0 .918.285.21.286.21.676 0 .962-.21.286-.583.401-.918.285zM37.07 16.273H1.751c-.447 0-.81-.363-.81-.81 0-.449.363-.812.81-.812h35.32c.447 0 .81.363.81.811 0 .448-.363.811-.81.811z"/>
                                <path fill="#000" d="M5.303 39.422c-1.468.107-2.91-.425-3.957-1.46-.715-.834-1.083-1.91-1.03-3.008V7.573C.17 5.331 1.687 3.319 3.884 2.846h3.47c.232-.002.454.088.619.251.164.163.257.385.257.617 0 .478-.39.664-.876.664H4.111c-1.406.433-2.329 1.776-2.23 3.244v27.454c.054.696.317 1.36.754 1.905.725.652 1.69.97 2.66.876h29.408c.178 0 2.432-.187 2.432-3.657V8.043c0-.089-.113-2.14-.949-3.04-.446-.446-1.064-.677-1.694-.633h-3.243c-.479 0-.868-.186-.868-.665 0-.479.389-.867.868-.867h3.243c1.11-.04 2.184.404 2.943 1.216.855 1.09 1.269 2.462 1.16 3.843v26.06c0 5.246-3.82 5.465-3.86 5.465H5.303z"/>
                                <circle cx="8.57" cy="22.33" r="1.038" fill="#A8B8C0"/>
                                <circle cx="14.205" cy="22.33" r="1.038" fill="#A8B8C0"/>
                                <circle cx="19.759" cy="22.33" r="1.038" fill="#A8B8C0"/>
                                <circle cx="24.778" cy="22.33" r="1.038" fill="#A8B8C0"/>
                                <circle cx="29.959" cy="22.33" r="1.038" fill="#A8B8C0"/>
                                <circle cx="8.57" cy="27.478" r="1.038" fill="#A8B8C0"/>
                                <circle cx="14.205" cy="27.478" r="1.038" fill="#A8B8C0"/>
                                <circle cx="19.759" cy="27.478" r="1.038" fill="#A8B8C0"/>
                                <circle cx="24.778" cy="27.478" r="1.038" fill="#A8B8C0"/>
                                <circle cx="29.959" cy="27.478" r="1.038" fill="#A8B8C0"/>
                                <circle cx="8.57" cy="32.084" r="1.038" fill="#A8B8C0"/>
                                <circle cx="14.205" cy="32.084" r="1.038" fill="#A8B8C0"/>
                                <circle cx="19.759" cy="32.084" r="1.038" fill="#A8B8C0"/>
                                <circle cx="24.778" cy="32.084" r="1.038" fill="#A8B8C0"/>
                                <circle cx="29.959" cy="32.084" r="1.038" fill="#A8B8C0"/>
                            </g>
                        </g>
                    </g>
                </g>
            </g>
        </g>
    </g>
</svg>
