<svg xmlns="http://www.w3.org/2000/svg" xmlns:xlink="http://www.w3.org/1999/xlink" width="32" height="32" viewBox="0 0 32 32">
    <defs>
        <rect id="qlhwszrd9a" width="24" height="24" x="0" y="0" rx="4"/>
    </defs>
    <g fill="none" fill-rule="evenodd" transform="translate(4 4)">
        <mask id="95umlf2ozb" fill="#fff">
            <use xlink:href="#qlhwszrd9a"/>
        </mask>
        <g fill="#6A6A6A" mask="url(#95umlf2ozb)">
            <path d="M18.312 4.99c-.36.015-.7.198-.949.51-2.671 3.236-5.108 6.418-7.69 9.594L6.51 12.042c-.385-.372-.905-.467-1.364-.25-.46.216-.788.712-.863 1.301-.074.59.118 1.181.503 1.554l4.138 4c.549.529 1.34.475 1.836-.125 2.97-3.598 5.637-7.138 8.552-10.667.41-.479.533-1.212.312-1.846-.222-.635-.743-1.04-1.312-1.019z"/>
        </g>
    </g>
</svg>
