<svg width="20" height="20" viewBox="0 0 20 20" fill="none" xmlns="http://www.w3.org/2000/svg">
<mask id="mask0_1091_46442" style="mask-type:alpha" maskUnits="userSpaceOnUse" x="2" y="2" width="16" height="16">
<path d="M15.8333 2.5H4.16667C3.24619 2.5 2.5 3.24619 2.5 4.16667V15.8333C2.5 16.7538 3.24619 17.5 4.16667 17.5H15.8333C16.7538 17.5 17.5 16.7538 17.5 15.8333V4.16667C17.5 3.24619 16.7538 2.5 15.8333 2.5Z" fill="white"/>
</mask>
<g mask="url(#mask0_1091_46442)">
<path fill-rule="evenodd" clip-rule="evenodd" d="M5.87528 5.87521C6.038 5.71249 6.30182 5.71249 6.46453 5.87521L10.0001 9.41074L13.5356 5.87521C13.6983 5.71249 13.9621 5.71249 14.1249 5.87521C14.2876 6.03793 14.2876 6.30175 14.1249 6.46447L10.5893 10L14.1249 13.5355C14.2876 13.6983 14.2876 13.9621 14.1249 14.1248C13.9621 14.2875 13.6983 14.2875 13.5356 14.1248L10.0001 10.5893L6.46453 14.1248C6.30182 14.2875 6.038 14.2875 5.87528 14.1248C5.71256 13.9621 5.71256 13.6983 5.87528 13.5355L9.41081 10L5.87528 6.46447C5.71256 6.30175 5.71256 6.03793 5.87528 5.87521Z" fill="white"/>
</g>
</svg>
