<svg xmlns="http://www.w3.org/2000/svg" width="120" height="120" viewBox="0 0 120 120">
    <g fill="none" fill-rule="evenodd">
        <circle cx="60" cy="60" r="60" fill="#F3F8FC"/>
        <g fill-rule="nonzero">
            <path fill="#000" d="M21.812.207c.441 0 .798.355.798.793v2.759c0 .438-.357.793-.798.793h-8.326c-.44 0-.798-.355-.798-.793V1c0-.438.357-.793.798-.793h8.326zm-.797 1.586h-6.731v1.173h6.73V1.793z" transform="translate(42 39)"/>
            <path fill="#000" d="M30.833 2.966c.452 0 .814.373.797.822l-1.387 37.241c-.016.427-.369.764-.798.764H5.853c-.429 0-.781-.337-.797-.764L3.668 3.788c-.017-.45.345-.822.798-.822h26.367zM5.293 4.552l1.33 35.655h22.053l1.329-35.655H5.294z" transform="translate(42 39)"/>
            <path fill="#000" d="M1 4.552h33.331c.441 0 .798-.355.798-.793 0-.438-.357-.793-.798-.793H1c-.44 0-.798.355-.798.793 0 .438.357.793.798.793z" transform="translate(42 39)"/>
            <path fill="#A8B8C0" d="M11.75 33.22L10.818 12c-.02-.438-.392-.777-.832-.758-.44.02-.782.39-.763.827l.932 21.22c.02.438.392.778.832.759.44-.02.782-.39.763-.827zM23.097 33.22L24.029 12c.02-.438.392-.777.832-.758.44.02.782.39.762.827l-.932 21.22c-.019.438-.391.778-.832.759-.44-.02-.781-.39-.762-.827zM18.1 33.255v-21.22c0-.439-.357-.794-.798-.794-.44 0-.798.355-.798.793v21.221c0 .438.358.793.798.793.441 0 .798-.355.798-.793z" transform="translate(42 39)"/>
        </g>
    </g>
</svg>
