<svg width="32" height="32" viewBox="0 0 32 32" fill="none" xmlns="http://www.w3.org/2000/svg">
    <mask id="mask0_15714_27599" style="mask-type:alpha" maskUnits="userSpaceOnUse" x="4" y="4" width="24" height="24">
        <path d="M25.3333 4H6.66667C5.19391 4 4 5.19391 4 6.66667V25.3333C4 26.8061 5.19391 28 6.66667 28H25.3333C26.8061 28 28 26.8061 28 25.3333V6.66667C28 5.19391 26.8061 4 25.3333 4Z" fill="white"/>
    </mask>
    <g mask="url(#mask0_15714_27599)">
        <path fill-rule="evenodd" clip-rule="evenodd" d="M11.267 8.00008C10.5729 8.00008 10.0013 8.56863 10.0013 9.28098V22.7192C10.0013 23.4315 10.5729 24.0001 11.267 24.0001H20.7356C21.4297 24.0001 22.0013 23.4315 22.0013 22.7192V9.28098C22.0013 8.56863 21.4297 8.00008 20.7356 8.00008H11.267ZM8.66797 9.28098C8.66797 7.84211 9.82668 6.66675 11.267 6.66675H20.7356C22.1759 6.66675 23.3346 7.84211 23.3346 9.28098V22.7192C23.3346 24.1581 22.1759 25.3334 20.7356 25.3334H11.267C9.82668 25.3334 8.66797 24.1581 8.66797 22.7192V9.28098Z" fill="black"/>
        <path d="M12.668 20.0001C13.2203 20.0001 13.668 19.5524 13.668 19.0001C13.668 18.4478 13.2203 18.0001 12.668 18.0001C12.1157 18.0001 11.668 18.4478 11.668 19.0001C11.668 19.5524 12.1157 20.0001 12.668 20.0001Z" fill="black"/>
        <path d="M16.0013 20.0001C16.5536 20.0001 17.0013 19.5524 17.0013 19.0001C17.0013 18.4478 16.5536 18.0001 16.0013 18.0001C15.449 18.0001 15.0013 18.4478 15.0013 19.0001C15.0013 19.5524 15.449 20.0001 16.0013 20.0001Z" fill="black"/>
        <path d="M20.3346 19.0001C20.3346 19.5524 19.8869 20.0001 19.3346 20.0001C18.7824 20.0001 18.3346 19.5524 18.3346 19.0001C18.3346 18.4478 18.7824 18.0001 19.3346 18.0001C19.8869 18.0001 20.3346 18.4478 20.3346 19.0001Z" fill="black"/>
    </g>
</svg>
