<svg width="48" height="48" viewBox="0 0 48 48" fill="none" xmlns="http://www.w3.org/2000/svg">
<mask id="mask0" mask-type="alpha" maskUnits="userSpaceOnUse" x="6" y="6" width="36" height="36">
<path d="M38 6H10C7.79086 6 6 7.79086 6 10V38C6 40.2091 7.79086 42 10 42H38C40.2091 42 42 40.2091 42 38V10C42 7.79086 40.2091 6 38 6Z" fill="white"/>
</mask>
<g mask="url(#mask0)">
<path fill-rule="evenodd" clip-rule="evenodd" d="M14.7143 12.8571C13.6886 12.8571 12.8571 13.6886 12.8571 14.7143V33.2857C12.8571 34.3114 13.6886 35.1429 14.7143 35.1429H33.2857C34.3114 35.1429 35.1429 34.3114 35.1429 33.2857V26C35.1429 25.4872 35.5586 25.0714 36.0714 25.0714C36.5843 25.0714 37 25.4872 37 26V33.2857C37 35.3371 35.3371 37 33.2857 37H14.7143C12.6629 37 11 35.3371 11 33.2857V14.7143C11 12.6629 12.6629 11 14.7143 11H22C22.5128 11 22.9286 11.4157 22.9286 11.9286C22.9286 12.4414 22.5128 12.8571 22 12.8571H14.7143Z" fill="#FFF"/>
<path fill-rule="evenodd" clip-rule="evenodd" d="M23.1287 24.8286C23.5626 25.2625 24.2553 25.2733 24.6758 24.8527L38.0202 11.5084L37.9387 18.2967C37.9578 18.9009 38.4628 19.3907 39.0668 19.3905C39.6708 19.3904 40.145 18.9004 40.126 18.2961L40.1261 8.92454C40.1169 8.63426 39.9929 8.3559 39.7812 8.15074C39.5695 7.94558 39.2876 7.83044 38.9975 7.83066L29.6873 7.82956C29.0833 7.83003 28.6094 8.32027 28.6287 8.92455C28.6481 9.52884 29.1534 10.0183 29.7574 10.0179L36.3649 10.021L23.1045 23.2814C22.6839 23.702 22.6947 24.3947 23.1287 24.8286Z" fill="#FFF"/>
</g>
</svg>
