<svg width="48" height="48" viewBox="0 0 48 48" fill="none" xmlns="http://www.w3.org/2000/svg">
<mask id="mask0" mask-type="alpha" maskUnits="userSpaceOnUse" x="5" y="5" width="38" height="38">
<path d="M38 6H10C7.79086 6 6 7.79086 6 10V38C6 40.2091 7.79086 42 10 42H38C40.2091 42 42 40.2091 42 38V10C42 7.79086 40.2091 6 38 6Z" fill="white" stroke="black" stroke-width="2"/>
</mask>
<g mask="url(#mask0)">
<path fill-rule="evenodd" clip-rule="evenodd" d="M19.4185 9.74972C22.6074 8.69636 26.0565 8.75447 29.2085 9.91464C32.3605 11.0748 35.0313 13.2693 36.7894 16.1435C38.5475 19.0178 39.2902 22.4039 38.8975 25.7548C38.5048 29.1057 36.9997 32.2256 34.6253 34.6106C32.2509 36.9955 29.1459 38.5061 25.812 38.8983C22.478 39.2905 19.1099 38.5414 16.2518 36.7721C13.3937 35.0027 11.2125 32.3165 10.0607 29.1473C9.87214 28.6285 10.1377 28.0544 10.6537 27.8648C11.1698 27.6753 11.741 27.9422 11.9296 28.461C12.9278 31.2076 14.8182 33.5357 17.2952 35.0691C19.7722 36.6026 22.6913 37.2518 25.5807 36.9119C28.4701 36.5719 31.1611 35.2628 33.2189 33.1958C35.2767 31.1289 36.5812 28.4249 36.9215 25.5208C37.2618 22.6167 36.6181 19.6821 35.0944 17.1911C33.5708 14.7001 31.2561 12.7982 28.5243 11.7927C25.7926 10.7872 22.8034 10.7368 20.0397 11.6498C17.8991 12.3568 15.9906 13.6098 14.4927 15.2718H16.9716C17.521 15.2718 17.9664 15.7195 17.9664 16.2718C17.9664 16.8241 17.521 17.2718 16.9716 17.2718H12.4638C11.9143 17.2718 11.4689 16.8241 11.4689 16.2718V11.5C11.4689 10.9477 11.9143 10.5 12.4638 10.5C13.0132 10.5 13.4586 10.9477 13.4586 11.5V13.4609C15.1143 11.7754 17.1538 10.4978 19.4185 9.74972Z" fill="black"/>
<path d="M33.3818 23.7535C33.3451 23.6814 33.2942 23.6174 33.2324 23.5655C31.6918 22.2855 29.5929 21.9221 27.7158 22.6102C27.7178 20.2811 26.6626 18.0786 24.8505 16.6295C24.635 16.4568 24.3296 16.4568 24.1142 16.6295C22.3053 18.0755 21.2504 20.2724 21.2488 22.597C19.379 21.9276 17.2972 22.297 15.7676 23.5696C15.7058 23.6215 15.6549 23.6854 15.6182 23.7576C15.5416 23.8594 15.5 23.9835 15.5 24.1112C15.5033 27.2883 18.0621 29.8629 21.2196 29.8663C22.3951 29.8684 23.542 29.501 24.5 28.8155C25.4585 29.4995 26.6053 29.8655 27.7804 29.8622C30.9379 29.8589 33.4967 27.2842 33.5 24.1072C33.5 23.9795 33.4584 23.8553 33.3818 23.7535ZM24.4828 17.8785C25.7922 19.1031 26.536 20.8207 26.536 22.6194C26.536 24.418 25.7922 26.1356 24.4828 27.3602C23.1729 26.1359 22.4287 24.4182 22.4287 22.6194C22.4287 20.8205 23.1729 19.1028 24.4828 17.8785ZM16.6918 24.3521C18.0437 23.3336 19.8517 23.1719 21.361 23.9344C21.6292 25.499 22.3772 26.9399 23.5001 28.0553C22.8089 28.4642 22.0213 28.6789 21.2196 28.6773C18.8085 28.6716 16.8214 26.7726 16.6918 24.35V24.3521ZM27.7804 28.6773C26.9701 28.6784 26.1747 28.4586 25.4787 28.0411C26.5888 26.9326 27.3298 25.5048 27.5997 23.9547C29.1151 23.1685 30.9437 23.3224 32.3082 24.3511C32.177 26.7724 30.1904 28.6697 27.7804 28.6753V28.6773Z" fill="black"/>
<path fill-rule="evenodd" clip-rule="evenodd" d="M23.9581 16.4342C24.2649 16.1885 24.7001 16.1886 25.0068 16.4344C26.7888 17.8596 27.8617 19.9896 27.9586 22.2658C29.8325 21.7018 31.8726 22.1107 33.3921 23.3732L33.393 23.374C33.4752 23.4429 33.5435 23.5267 33.5945 23.6208C33.6953 23.7625 33.75 23.9324 33.75 24.1072C33.7465 27.4205 31.0776 30.1086 27.7809 30.1122C26.6123 30.1154 25.4707 29.7691 24.5002 29.1195C23.53 29.7706 22.3882 30.1183 21.2191 30.1163C21.2191 30.1163 21.2192 30.1163 21.2191 30.1163C17.9224 30.1127 15.2535 27.4249 15.25 24.1115C15.25 23.9367 15.3047 23.7665 15.4055 23.6249C15.402 23.6313 15.3987 23.6377 15.3954 23.6441L15.6182 23.7576L15.4183 23.6074C15.414 23.6132 15.4097 23.619 15.4055 23.6249C15.4565 23.5307 15.5248 23.4469 15.607 23.378L15.6078 23.3774C17.1166 22.1221 19.1405 21.7081 21.0064 22.2553C21.0015 22.3688 20.9989 22.4827 20.9988 22.5968L21.2488 22.597L21.3331 22.3616C21.2248 22.3229 21.1159 22.2874 21.0064 22.2553C21.1058 19.9827 22.1787 17.8568 23.9581 16.4342ZM24.6941 16.8246C24.5701 16.7251 24.3946 16.7251 24.2705 16.8246C22.5212 18.2229 21.5004 20.3482 21.4988 22.5972L21.4986 22.9519L21.1646 22.8324C19.3784 22.193 17.3896 22.5456 15.928 23.7614C15.892 23.7916 15.8624 23.8289 15.8409 23.871L15.8311 23.8904L15.818 23.9078C15.7739 23.9664 15.75 24.0379 15.75 24.1112C15.7532 27.1519 18.2017 29.6131 21.2198 29.6163C22.3429 29.6183 23.4389 29.2673 24.3545 28.6122L24.4998 28.5082L24.6452 28.612C25.5613 29.2657 26.6571 29.6153 27.7798 29.6122C30.7979 29.609 33.2468 27.1475 33.25 24.1069C33.25 24.0336 33.2261 23.9624 33.182 23.9037L33.1689 23.8863L33.1591 23.867C33.1376 23.8248 33.108 23.7876 33.0721 23.7574C31.6 22.5346 29.595 22.1876 27.8018 22.8449L27.4655 22.9682L27.4658 22.61C27.4677 20.3566 26.4466 18.226 24.6941 16.8246ZM24.4829 17.5362L24.6536 17.6959C26.0137 18.9679 26.786 20.7517 26.786 22.6194C26.786 24.487 26.0137 26.2708 24.6536 27.5428L24.4829 27.7025L24.3121 27.5429C22.9515 26.2711 22.1787 24.4872 22.1787 22.6194C22.1787 20.7515 22.9515 18.9676 24.3121 17.6958L24.4829 17.5362ZM24.4828 18.227C23.3299 19.3905 22.6787 20.9692 22.6787 22.6194C22.6787 24.2695 23.3299 25.8482 24.4828 27.0117C25.6351 25.8479 26.286 24.2693 26.286 22.6194C26.286 20.9694 25.6351 19.3908 24.4828 18.227ZM27.8232 24.1223C27.5479 25.5662 26.8757 26.9022 25.8846 27.9792C26.4342 28.2552 27.0376 28.4078 27.653 28.4255L27.7799 28.4253C30.0113 28.4201 31.8607 26.6973 32.0493 24.4716C30.8072 23.5958 29.191 23.462 27.8232 24.1223ZM28.0304 28.9182C30.4605 28.7871 32.4241 26.833 32.5578 24.3646L32.5651 24.2316L32.4587 24.1514C31.0174 23.0649 29.0855 22.9022 27.4845 23.7328L27.3746 23.7898L27.3534 23.9118C27.0924 25.4113 26.3756 26.7922 25.302 27.8642L25.0752 28.0907L25.3501 28.2555C26.085 28.6963 26.925 28.9285 27.7808 28.9273L28.0304 28.9269V28.9182ZM16.4879 24.8187C16.8329 27.1513 18.8273 28.9217 21.219 28.9273C22.0658 28.929 22.8975 28.7022 23.6274 28.2705L23.9057 28.1059L23.6763 27.878C22.5904 26.7993 21.8668 25.4057 21.6074 23.8921L21.5861 23.768L21.4737 23.7113C19.8793 22.9057 17.9693 23.0767 16.5414 24.1524L16.6853 24.3435L16.4418 24.35V24.8534L16.4879 24.8187ZM21.1374 24.1035C19.7767 23.4654 18.1803 23.6063 16.9508 24.4726C17.1389 26.6986 18.9883 28.422 21.2201 28.4273C21.8703 28.4286 22.5106 28.2792 23.092 27.9923C22.0899 26.9083 21.4117 25.5604 21.1374 24.1035Z" fill="black"/>
</g>
</svg>
