<svg width="48" height="48" viewBox="0 0 48 48" fill="none" xmlns="http://www.w3.org/2000/svg">
<mask id="mask0" mask-type="alpha" maskUnits="userSpaceOnUse" x="5" y="5" width="38" height="38">
<path d="M38 6H10C7.79086 6 6 7.79086 6 10V38C6 40.2091 7.79086 42 10 42H38C40.2091 42 42 40.2091 42 38V10C42 7.79086 40.2091 6 38 6Z" fill="black" stroke="black" stroke-width="2"/>
</mask>
<g mask="url(#mask0)">
<path d="M36.48 24.2889C36.48 23.22 36.3933 22.44 36.2056 21.6311H24V26.4555H31.1644C31.02 27.6544 30.24 29.46 28.5066 30.6733L28.4823 30.8348L32.3415 33.8244L32.6089 33.8511C35.0644 31.5833 36.48 28.2466 36.48 24.2889Z" fill="#FFF"/>
<path d="M24 37C27.5099 37 30.4565 35.8444 32.6088 33.8511L28.5066 30.6733C27.4088 31.4388 25.9355 31.9733 24 31.9733C20.5622 31.9733 17.6445 29.7056 16.6044 26.5711L16.4519 26.5841L12.4391 29.6896L12.3866 29.8355C14.5244 34.0821 18.9155 37 24 37Z" fill="#FFF"/>
<path d="M16.6044 26.5711C16.3299 25.7622 16.1711 24.8955 16.1711 24C16.1711 23.1044 16.3299 22.2378 16.59 21.4289L16.5827 21.2566L12.5196 18.1012L12.3866 18.1644C11.5056 19.9266 11 21.9056 11 24C11 26.0944 11.5056 28.0733 12.3866 29.8355L16.6044 26.5711Z" fill="#FFF"/>
<path d="M24 16.0266C26.441 16.0266 28.0877 17.0811 29.0266 17.9622L32.6955 14.38C30.4422 12.2856 27.5099 11 24 11C18.9155 11 14.5244 13.9178 12.3866 18.1644L16.5899 21.4289C17.6445 18.2944 20.5622 16.0266 24 16.0266Z" fill="#FFF"/>
</g>
</svg>
