<svg width="48" height="48" viewBox="0 0 48 48" fill="none" xmlns="http://www.w3.org/2000/svg">
<mask id="mask0_90_1009" style="mask-type:alpha" maskUnits="userSpaceOnUse" x="6" y="6" width="36" height="36">
<path d="M38 6H10C7.79086 6 6 7.79086 6 10V38C6 40.2091 7.79086 42 10 42H38C40.2091 42 42 40.2091 42 38V10C42 7.79086 40.2091 6 38 6Z" fill="white"/>
</mask>
<g mask="url(#mask0_90_1009)">
<path d="M37 20.917H38V19.7353L36.8345 19.9308L37 20.917ZM30.083 14L31.0692 14.1655L31.2647 13H30.083V14ZM36.8345 19.9308C36.5638 19.9762 36.285 20 36 20V22C36.3964 22 36.7858 21.967 37.1655 21.9033L36.8345 19.9308ZM36 20C33.2386 20 31 17.7614 31 15H29C29 18.866 32.134 22 36 22V20ZM31 15C31 14.715 31.0238 14.4362 31.0692 14.1655L29.0967 13.8345C29.033 14.2142 29 14.6036 29 15H31ZM14 15H30.083V13H14V15ZM12 17C12 15.8954 12.8954 15 14 15V13C11.7909 13 10 14.7909 10 17H12ZM12 31V17H10V31H12ZM14 33C12.8954 33 12 32.1046 12 31H10C10 33.2091 11.7909 35 14 35V33ZM34 33H14V35H34V33ZM36 31C36 32.1046 35.1046 33 34 33V35C36.2091 35 38 33.2091 38 31H36ZM36 20.917V31H38V20.917H36Z" fill="black"/>
<path d="M12 14L24 26L30 20L31 19" stroke="black" stroke-width="2" stroke-linejoin="round"/>
<circle cx="37" cy="14" r="4" fill="black"/>
</g>
</svg>
