<svg width="48" height="48" viewBox="0 0 48 48" fill="none" xmlns="http://www.w3.org/2000/svg">
<mask id="mask0" mask-type="alpha" maskUnits="userSpaceOnUse" x="6" y="6" width="36" height="36">
<path d="M38 6H10C7.79086 6 6 7.79086 6 10V38C6 40.2091 7.79086 42 10 42H38C40.2091 42 42 40.2091 42 38V10C42 7.79086 40.2091 6 38 6Z" fill="white"/>
</mask>
<g mask="url(#mask0)">
<path fill-rule="evenodd" clip-rule="evenodd" d="M24.4741 8.39104C24.1781 8.23167 23.8219 8.23167 23.5259 8.39104L13.0518 14.0309C12.404 14.3798 12 15.0561 12 15.7919V31C12 32.1046 12.8954 33 14 33H34C35.1046 33 36 32.1046 36 31V15.7919C36 15.0561 35.596 14.3798 34.9482 14.0309L24.4741 8.39104ZM22.5777 6.6301C23.4656 6.15199 24.5344 6.15199 25.4223 6.6301L35.8964 12.27C37.192 12.9677 38 14.3204 38 15.7919V31C38 33.2091 36.2091 35 34 35H14C11.7909 35 10 33.2091 10 31V15.7919C10 14.3204 10.808 12.9677 12.1036 12.27L22.5777 6.6301Z" fill="black"/>
<path fill-rule="evenodd" clip-rule="evenodd" d="M23.4453 22.8321L11.4453 14.8321L12.5547 13.168L24 20.7982L35.4453 13.168L36.5547 14.8321L24.5547 22.8321C24.2188 23.056 23.7812 23.056 23.4453 22.8321Z" fill="black"/>
</g>
</svg>
