<svg width="48" height="48" viewBox="0 0 48 48" fill="none" xmlns="http://www.w3.org/2000/svg">
<mask id="mask0" mask-type="alpha" maskUnits="userSpaceOnUse" x="6" y="6" width="36" height="36">
<path d="M38 6H10C7.79086 6 6 7.79086 6 10V38C6 40.2091 7.79086 42 10 42H38C40.2091 42 42 40.2091 42 38V10C42 7.79086 40.2091 6 38 6Z" fill="white"/>
</mask>
<g mask="url(#mask0)">
<path fill-rule="evenodd" clip-rule="evenodd" d="M12 13C12 11.3431 13.3431 10 15 10H35C36.6569 10 38 11.3431 38 13V35C38 36.6569 36.6569 38 35 38H15C13.3431 38 12 36.6569 12 35V30H10C9.44772 30 9 29.5523 9 29C9 28.4477 9.44772 28 10 28H12V20H10C9.44772 20 9 19.5523 9 19C9 18.4477 9.44772 18 10 18H12V13ZM14 20H15C15.5523 20 16 19.5523 16 19C16 18.4477 15.5523 18 15 18H14V13C14 12.4477 14.4477 12 15 12H35C35.5523 12 36 12.4477 36 13V35C36 35.5523 35.5523 36 35 36H15C14.4477 36 14 35.5523 14 35V30H15C15.5523 30 16 29.5523 16 29C16 28.4477 15.5523 28 15 28H14V20Z" fill="black"/>
<path fill-rule="evenodd" clip-rule="evenodd" d="M25.8601 23.9753C25.7163 23.2953 25.9359 22.5894 26.44 22.1109C26.8445 21.7271 27.0926 21.1904 27.0926 20.5926C27.0926 19.4369 26.1557 18.5 25 18.5C23.8443 18.5 22.9074 19.4369 22.9074 20.5926C22.9074 21.1904 23.1555 21.727 23.5599 22.1107C24.0641 22.5891 24.2838 23.295 24.1401 23.9751C23.9963 24.6552 23.5098 25.2118 22.8551 25.4453C21.5046 25.9269 20.5357 27.2024 20.501 28.704H29.499C29.4643 27.2024 28.4954 25.9269 27.1451 25.4454C26.4904 25.212 26.0038 24.6554 25.8601 23.9753ZM31.16 30.704H18.84C18.6201 30.1067 18.5 29.4611 18.5 28.7875C18.5 27.1153 19.2399 25.616 20.4102 24.5991C20.9263 24.1505 21.5262 23.7958 22.1833 23.5615C21.6894 23.0929 21.3124 22.5024 21.1004 21.8381C20.9751 21.4454 20.9074 21.0269 20.9074 20.5926C20.9074 18.3323 22.7397 16.5 25 16.5C27.2603 16.5 29.0926 18.3323 29.0926 20.5926C29.0926 21.0269 29.0249 21.4454 28.8996 21.8382C28.6876 22.5024 28.3106 23.0929 27.8168 23.5616C28.4739 23.7959 29.0737 24.1506 29.5899 24.5992C30.7601 25.6161 31.5 27.1154 31.5 28.7875C31.5 29.4611 31.3799 30.1067 31.16 30.704Z" fill="black"/>
</g>
</svg>
