<svg width="48" height="48" viewBox="0 0 48 48" fill="none" xmlns="http://www.w3.org/2000/svg">
<mask id="mask0" mask-type="alpha" maskUnits="userSpaceOnUse" x="6" y="6" width="36" height="36">
<path d="M38 6H10C7.79086 6 6 7.79086 6 10V38C6 40.2091 7.79086 42 10 42H38C40.2091 42 42 40.2091 42 38V10C42 7.79086 40.2091 6 38 6Z" fill="white"/>
</mask>
<g mask="url(#mask0)">
<path fill-rule="evenodd" clip-rule="evenodd" d="M14 15C12.8954 15 12 15.8954 12 17V31C12 32.1046 12.8954 33 14 33H34C35.1046 33 36 32.1046 36 31V17C36 15.8954 35.1046 15 34 15H14ZM10 17C10 14.7909 11.7909 13 14 13H34C36.2091 13 38 14.7909 38 17V31C38 33.2091 36.2091 35 34 35H14C11.7909 35 10 33.2091 10 31V17Z" fill="black"/>
<path fill-rule="evenodd" clip-rule="evenodd" d="M23.2929 26.7071L11.2929 14.7071L12.7071 13.2929L24 24.5858L35.2929 13.2929L36.7071 14.7071L24.7071 26.7071C24.3166 27.0976 23.6834 27.0976 23.2929 26.7071Z" fill="black"/>
</g>
</svg>
