<svg xmlns="http://www.w3.org/2000/svg" width="81" height="56" viewBox="0 0 81 56">
    <g fill="none" fill-rule="evenodd">
        <g fill="#000" fill-rule="nonzero">
            <g>
                <path d="M15.469 44.796c-1.62 0-3.011.56-3.916 1.578l-.105.116-.098-.122c-.826-1.028-2.017-1.578-3.447-1.578-1.487 0-2.786.467-3.656 1.315l-.13.129-.083-.164c-.406-.813-1.275-1.28-2.388-1.28-.444-.002-.886.07-1.307.213-.134.045-.177.114-.177.276v1.552c-.005.036.006.072.031.099.067.039.146.052.221.035.21-.034.422-.056.635-.067.706 0 1.065.321 1.065.954v7.588c-.005.054.014.107.052.145.038.038.091.057.145.052h2.04c.054.005.108-.014.146-.052.038-.038.057-.091.052-.145V49.7c0-1.698 1.114-2.84 2.774-2.84 1.566 0 2.617 1.203 2.617 2.994v5.592c-.005.054.014.107.052.145.038.038.092.057.145.052h2.049c.054.005.107-.014.145-.052.038-.038.057-.091.052-.145V49.7c0-1.698 1.008-2.84 2.506-2.84 1.712 0 2.861 1.203 2.861 2.994v5.592c-.004.053.016.106.054.144.037.038.09.057.144.053h2.046c.054.004.106-.015.144-.053.038-.038.058-.09.054-.144V49.7c.003-2.932-1.895-4.904-4.723-4.904zM35.732 53.665c-.056-.03-.121-.037-.182-.02-.278.06-.561.09-.846.091-.25.006-.491-.094-.664-.275-.173-.182-.262-.427-.245-.677v-7.507c.005-.053-.014-.107-.052-.145-.038-.038-.091-.057-.145-.052h-2.049c-.053-.005-.106.014-.145.052-.038.038-.057.092-.052.145v5.665c0 1.672-1.24 2.84-3.017 2.84-1.711 0-2.86-1.205-2.86-2.996v-5.509c.004-.053-.015-.107-.053-.145-.038-.038-.091-.057-.145-.052h-2.045c-.054-.005-.107.014-.145.052-.038.038-.057.092-.052.145v5.665c0 2.932 1.899 4.902 4.732 4.902 1.517 0 2.806-.418 3.731-1.209l.116-.1.083.13c.471.75 1.432 1.183 2.638 1.183.5-.007.995-.094 1.468-.258.058-.01.11-.043.143-.092.033-.048.045-.109.032-.166l-.177-1.53c0-.054-.026-.105-.07-.137zM50.662 53.665c-.056-.03-.122-.037-.183-.02-.278.06-.56.09-.844.091-.25.006-.492-.094-.665-.275-.173-.182-.261-.427-.244-.677V40.15c.004-.053-.015-.106-.053-.144-.038-.038-.09-.057-.144-.053H46.46c-.053-.004-.106.015-.144.053-.038.038-.057.09-.053.144v5.719l-.209-.146c-.888-.619-1.947-.944-3.029-.93-3.383 0-5.746 2.27-5.746 5.52 0 3.25 2.367 5.521 5.746 5.521 1.32.035 2.602-.446 3.573-1.34l.13-.117.077.158c.395.826 1.298 1.3 2.453 1.3.5-.008.997-.095 1.47-.259.057-.01.108-.044.141-.092.033-.049.045-.109.034-.166l-.178-1.53c-.004-.048-.027-.092-.063-.123zm-7.619.227c-1.928 0-3.328-1.502-3.328-3.57 0-2.07 1.4-3.572 3.328-3.572 1.929 0 3.24 1.467 3.24 3.571s-1.325 3.571-3.24 3.571zM53.293 45.092h2.04c.11 0 .198.088.198.197v10.133c0 .11-.089.197-.197.197h-2.041c-.11 0-.198-.088-.198-.197V45.287c.002-.108.09-.195.198-.195zM65.114 53.533c-.583.132-1.178.198-1.775.197-1.22 0-2.04-.855-2.04-2.127v-4.634h3.904c.053.005.106-.014.144-.052.038-.038.058-.092.053-.145v-1.487c.005-.054-.015-.107-.053-.145-.038-.038-.09-.057-.144-.052h-3.905v-3.043c.005-.053-.014-.106-.052-.144-.038-.039-.091-.058-.145-.053h-2.05c-.054-.004-.107.015-.145.053-.038.038-.057.09-.053.144v9.65c0 2.483 1.676 4.141 4.17 4.141.821-.024 1.636-.141 2.43-.35.057-.01.107-.043.139-.092.032-.048.042-.107.029-.163l-.267-1.546c-.005-.055-.035-.105-.083-.135-.047-.03-.105-.036-.157-.017zM80.45 53.665c-.055-.03-.12-.037-.18-.02-.28.06-.564.09-.849.091-.25.006-.491-.094-.664-.275-.173-.182-.262-.427-.245-.677v-7.507c.005-.053-.014-.107-.052-.145-.038-.038-.091-.057-.145-.052h-2.049c-.053-.005-.106.014-.144.052-.038.038-.058.092-.053.145v.621l-.21-.15c-.89-.636-1.959-.97-3.051-.952-3.382 0-5.746 2.272-5.746 5.521 0 3.25 2.366 5.521 5.746 5.521 1.319.029 2.598-.452 3.573-1.34l.132-.117.075.158c.404.826 1.297 1.3 2.455 1.3.5-.008.995-.095 1.467-.259.058-.01.11-.043.143-.091.033-.05.045-.11.032-.167l-.177-1.532c0-.048-.022-.093-.057-.125zm-7.616.227c-1.929 0-3.329-1.502-3.329-3.57 0-2.07 1.4-3.572 3.329-3.572 1.928 0 3.237 1.467 3.237 3.571s-1.339 3.571-3.243 3.571h.006zM54.338 40.028c-.546 0-1.038.329-1.246.833-.21.504-.094 1.084.292 1.47.386.385.966.5 1.47.292.504-.209.832-.7.832-1.246 0-.745-.603-1.349-1.348-1.349z" transform="translate(-600 -120) translate(600 120)"/>
                <g>
                    <path d="M34.911 20.71c-.071-.14-.17-.263-.292-.364-3.007-2.484-7.105-3.189-10.77-1.854.004-4.519-2.056-8.792-5.594-11.604-.42-.335-1.017-.335-1.437 0-3.532 2.806-5.591 7.068-5.594 11.579-3.65-1.299-7.715-.582-10.701 1.887-.121.1-.22.225-.292.365-.15.197-.231.438-.231.686.007 6.164 5.002 11.16 11.166 11.166 2.296.004 4.535-.709 6.405-2.039 1.871 1.328 4.11 2.038 6.404 2.031 6.165-.006 11.16-5.002 11.167-11.166 0-.248-.081-.489-.23-.686zM17.537 9.313c2.557 2.376 4.009 5.708 4.009 9.198s-1.452 6.823-4.009 9.199c-2.557-2.376-4.01-5.709-4.01-9.199s1.453-6.823 4.01-9.198zm-15.21 12.56c2.64-1.976 6.169-2.29 9.116-.81.523 3.035 1.984 5.831 4.176 7.995-1.35.794-2.887 1.21-4.453 1.207-4.707-.01-8.586-3.696-8.84-8.396v.004zm21.648 8.392c-1.581.002-3.134-.424-4.493-1.234 2.167-2.151 3.614-4.921 4.14-7.929 2.96-1.525 6.53-1.227 9.193.77-.256 4.697-4.135 8.378-8.84 8.39v.003z" transform="translate(-600 -120) translate(600 120) translate(22.852 .153)"/>
                    <path d="M34.726 13.584c.075 0 .147-.034.193-.094.046-.06.061-.138.042-.211C32.805 5.436 25.674 0 17.54 0 9.406 0 2.275 5.436.12 13.279c-.02.073-.004.15.042.21s.117.095.192.095H2.25c.105 0 .198-.068.229-.17C4.53 6.822 10.634 2.33 17.54 2.33c6.907 0 13.01 4.492 15.062 11.086.031.1.124.169.229.17h1.895z" transform="translate(-600 -120) translate(600 120) translate(22.852 .153)"/>
                </g>
            </g>
        </g>
    </g>
</svg>
