<svg width="48" height="48" viewBox="0 0 48 48" fill="none" xmlns="http://www.w3.org/2000/svg">
<mask id="mask0" mask-type="alpha" maskUnits="userSpaceOnUse" x="6" y="6" width="36" height="36">
<path d="M38 6H10C7.79086 6 6 7.79086 6 10V38C6 40.2091 7.79086 42 10 42H38C40.2091 42 42 40.2091 42 38V10C42 7.79086 40.2091 6 38 6Z" fill="white"/>
</mask>
<g mask="url(#mask0)">
<path fill-rule="evenodd" clip-rule="evenodd" d="M34.5071 10.1711C34.8131 10.3619 34.9981 10.685 35 11.032V29.7022C35 29.7587 34.9952 29.8142 34.986 29.8683C34.9953 29.984 35 30.1019 35 30.2208C34.994 32.7962 32.7909 34.8826 30.0714 34.8883C27.3495 34.8883 25.1429 32.7986 25.1429 30.2208C25.1429 27.643 27.3495 25.5532 30.0714 25.5532C31.0848 25.5532 32.0267 25.8429 32.81 26.3395L32.8089 16.7316L22.2733 21.1035C22.1428 21.1645 22.0017 21.2025 21.857 21.2158L21.8571 32.8138C21.8571 32.8697 21.8525 32.9245 21.8435 32.978C21.8524 33.0943 21.8571 33.2129 21.8571 33.3325C21.8511 35.9079 19.648 37.9943 16.9286 38C14.2066 38 12 35.9103 12 33.3325C12 30.7547 14.2066 28.6649 16.9286 28.6649C17.9419 28.6649 18.8839 28.9546 19.6671 29.4512L19.6667 16.2181C19.6689 15.7994 19.9367 15.423 20.3457 15.2639L33.4886 10.0777C33.8235 9.94749 34.2048 9.98244 34.5071 10.1711ZM16.9286 30.7394C15.4164 30.7394 14.1905 31.9003 14.1905 33.3325C14.1905 34.7646 15.4164 35.9255 16.9286 35.9255C18.4408 35.9255 19.6667 34.7646 19.6667 33.3325C19.6667 31.9003 18.4408 30.7394 16.9286 30.7394ZM30.0714 27.6277C28.5592 27.6277 27.3333 28.7887 27.3333 30.2208C27.3333 31.6529 28.5592 32.8138 30.0714 32.8138C31.5836 32.8138 32.8095 31.6529 32.8095 30.2208C32.8095 28.7887 31.5836 27.6277 30.0714 27.6277ZM32.8095 12.5878L21.8571 16.9131L21.8566 19.0332L32.3495 14.6623C32.4952 14.5931 32.6522 14.5569 32.8095 14.5527L32.8095 12.5878Z" fill="#6A6A6A"/>
</g>
</svg>
