<svg width="48" height="48" viewBox="0 0 48 48" fill="none" xmlns="http://www.w3.org/2000/svg">
<path d="M39 21C39 20.4477 39.4477 20 40 20C40.5523 20 41 20.4477 41 21V27C41 27.5523 40.5523 28 40 28C39.4477 28 39 27.5523 39 27V21Z" fill="black"/>
<path fill-rule="evenodd" clip-rule="evenodd" d="M6 17C6 14.2386 8.23858 12 11 12H33C35.7614 12 38 14.2386 38 17V31C38 33.7614 35.7614 36 33 36H11C8.23858 36 6 33.7614 6 31V17ZM11 14C9.34315 14 8 15.3431 8 17V31C8 32.6569 9.34315 34 11 34H33C34.6569 34 36 32.6569 36 31V17C36 15.3431 34.6569 14 33 14H11Z" fill="black"/>
<path fill-rule="evenodd" clip-rule="evenodd" d="M26.6924 19.0502C27.0829 19.4408 27.0829 20.0739 26.6924 20.4645L18.2071 28.9497C17.8166 29.3403 17.1835 29.3403 16.7929 28.9497C16.4024 28.5592 16.4024 27.9261 16.7929 27.5355L25.2782 19.0502C25.6687 18.6597 26.3019 18.6597 26.6924 19.0502Z" fill="black"/>
<path fill-rule="evenodd" clip-rule="evenodd" d="M16.7929 19.0502C17.1834 18.6597 17.8166 18.6597 18.2071 19.0502L26.6924 27.5355C27.0829 27.9261 27.0829 28.5592 26.6924 28.9497C26.3019 29.3403 25.6687 29.3403 25.2782 28.9497L16.7929 20.4645C16.4024 20.0739 16.4024 19.4408 16.7929 19.0502Z" fill="black"/>
<path fill-rule="evenodd" clip-rule="evenodd" d="M26.6924 19.0502C27.0829 19.4408 27.0829 20.0739 26.6924 20.4645L18.2071 28.9497C17.8166 29.3403 17.1835 29.3403 16.7929 28.9497C16.4024 28.5592 16.4024 27.9261 16.7929 27.5355L25.2782 19.0502C25.6687 18.6597 26.3019 18.6597 26.6924 19.0502Z" fill="black"/>
<path fill-rule="evenodd" clip-rule="evenodd" d="M16.7929 19.0502C17.1834 18.6597 17.8166 18.6597 18.2071 19.0502L26.6924 27.5355C27.0829 27.9261 27.0829 28.5592 26.6924 28.9497C26.3019 29.3403 25.6687 29.3403 25.2782 28.9497L16.7929 20.4645C16.4024 20.0739 16.4024 19.4408 16.7929 19.0502Z" fill="black"/>
</svg>
