<svg width="48" height="48" viewBox="0 0 48 48" fill="none" xmlns="http://www.w3.org/2000/svg">
<mask id="mask0" mask-type="alpha" maskUnits="userSpaceOnUse" x="6" y="6" width="36" height="36">
<path d="M38 6H10C7.79086 6 6 7.79086 6 10V38C6 40.2091 7.79086 42 10 42H38C40.2091 42 42 40.2091 42 38V10C42 7.79086 40.2091 6 38 6Z" fill="white"/>
</mask>
<g mask="url(#mask0)">
<path d="M25 12C25 11.4477 24.5523 11 24 11C23.4477 11 23 11.4477 23 12H25ZM23 36C23 36.5523 23.4477 37 24 37C24.5523 37 25 36.5523 25 36H23ZM36 25C36.5523 25 37 24.5523 37 24C37 23.4477 36.5523 23 36 23V25ZM12 23C11.4477 23 11 23.4477 11 24C11 24.5523 11.4477 25 12 25V23ZM23 12V24H25V12H23ZM23 24V36H25V24H23ZM24 25H36V23H24V25ZM36 23H12V25H36V23Z" fill="#fff"/>
</g>
</svg>
