<svg xmlns="http://www.w3.org/2000/svg" id="Warstwa_1" x="0" y="0" version="1.1" viewBox="0 0 40 40"
     xml:space="preserve"><defs/>
    <style>.st0{fill:#a8b8c0}</style>
    <path
        d="M26.7 26.2H13.4c-.4 0-.7-.3-.7-.7 0-.4.3-.7.7-.7h13.3c.4 0 .7.3.7.7 0 .4-.3.7-.7.7zM21.8 8.4h-4c-.9 0-1.6-.7-1.6-1.5V5.4c0-.4.3-.7.7-.7s.7.3.7.7v1.5c.2.1.2.1.3.1h4s.1 0 .1-.1V5.4c0-.4.3-.7.7-.7s.7.3.7.7v1.5c0 .4-.2.8-.5 1.1-.2.3-.6.4-1.1.4z"
        class="st0"/>
    <path
        d="M32.9 39.8c-.4 0-.7-.3-.7-.7V4.5c0-1.7-1.5-3-3.2-3H11.2C9.4 1.5 8 2.8 8 4.5v34.6c-.1.3-.4.5-.7.5-.3 0-.6-.2-.7-.5V4.5c0-1.2.5-2.3 1.4-3.1.9-.8 2-1.3 3.2-1.2H29c2.5 0 4.6 1.9 4.6 4.3v34.6c0 .4-.3.7-.7.7z"/>
    <path
        d="M29.5 30.3H10.6c-.2 0-.4-.1-.5-.2-.1-.1-.2-.3-.2-.5V5c0-.4.3-.7.7-.7h18.9c.4 0 .7.3.7.7v24.6c.1.4-.3.7-.7.7zM11.3 29h17.5V5.7H11.3V29z"/>
    <path
        d="M19.9 39.8c-1.6 0-3.1-.9-3.7-2.4-.6-1.4-.3-3.1.9-4.2s2.9-1.4 4.3-.8c1.5.6 2.5 2 2.5 3.6 0 1-.4 2-1.2 2.7-.7.7-1.7 1.1-2.8 1.1zm0-6.3c-1 0-1.9.6-2.3 1.5-.4.9-.2 2 .5 2.7.7.7 1.8.9 2.7.5.9-.4 1.6-1.3 1.6-2.2 0-1.4-1.1-2.5-2.5-2.5zm-7.7 5c-1.1 0-2-.6-2.5-1.6-.4-1-.2-2.1.6-2.8.8-.7 1.9-1 2.9-.6s1.6 1.3 1.6 2.4c0 1.5-1.1 2.6-2.6 2.6zm0-3.7c-.5 0-.9.3-1.1.7-.2.4-.1.9.2 1.2.3.3.8.4 1.3.3.4-.2.7-.6.7-1 .1-.6-.4-1.1-1.1-1.2zm15.4 4c-1.1 0-2-.6-2.4-1.6-.4-1-.2-2 .6-2.8.8-.7 1.9-1 2.9-.6s1.6 1.3 1.6 2.4c0 1.4-1.2 2.6-2.7 2.6zm0-3.7c-.5 0-.9.3-1.1.7-.2.4-.1.9.2 1.2.3.3.8.4 1.3.2.4-.2.7-.6.7-1 0-.3-.1-.6-.3-.8-.2-.2-.4-.3-.8-.3z"
        class="st0"/></svg>
