<svg width="48" height="48" viewBox="0 0 48 48" fill="none" xmlns="http://www.w3.org/2000/svg">
<mask id="mask0" mask-type="alpha" maskUnits="userSpaceOnUse" x="6" y="6" width="36" height="36">
<path d="M38 6H10C7.79086 6 6 7.79086 6 10V38C6 40.2091 7.79086 42 10 42H38C40.2091 42 42 40.2091 42 38V10C42 7.79086 40.2091 6 38 6Z" fill="white"/>
</mask>
<g mask="url(#mask0)">
<path fill-rule="evenodd" clip-rule="evenodd" d="M19.5179 16.8303C19.6145 14.2892 21.705 12.2588 24.2697 12.2588C26.896 12.2588 29.025 14.3878 29.025 17.0141V22.6874C29.025 25.3137 26.896 27.4427 24.2697 27.4427C21.705 27.4427 19.6145 25.4123 19.5179 22.8712H24.5849C25.2087 22.8712 25.7143 22.3656 25.7143 21.7418C25.7143 21.1181 25.2087 20.6124 24.5849 20.6124H19.5144V19.0891H24.5849C25.2087 19.0891 25.7143 18.5834 25.7143 17.9597C25.7143 17.3359 25.2087 16.8303 24.5849 16.8303H19.5179ZM24.2697 10C20.3959 10 17.2556 13.1403 17.2556 17.0141V22.6874C17.2556 26.5612 20.3959 29.7015 24.2697 29.7015C28.1435 29.7015 31.2838 26.5612 31.2838 22.6874V17.0141C31.2838 13.1403 28.1435 10 24.2697 10ZM16.2588 25.524C16.2588 24.9003 15.7532 24.3946 15.1294 24.3946C14.5057 24.3946 14 24.9003 14 25.524V25.7475C14 30.3014 18.1877 33.7112 23.1403 34.1661V35.6099C23.1403 35.6543 23.1428 35.6981 23.1478 35.7412H15.7597C15.136 35.7412 14.6303 36.2468 14.6303 36.8706C14.6303 37.4943 15.136 38 15.7597 38H33.4099C34.0337 38 34.5393 37.4943 34.5393 36.8706C34.5393 36.2468 34.0337 35.7412 33.4099 35.7412H25.3915C25.3965 35.6981 25.3991 35.6543 25.3991 35.6099V34.1661C30.3516 33.7112 34.5394 30.3014 34.5394 25.7475V25.5507C34.5394 24.927 34.0337 24.4213 33.41 24.4213C32.7862 24.4213 32.2806 24.927 32.2806 25.5507V25.7475C32.2806 28.9595 28.9377 31.959 24.2697 31.959C19.6017 31.959 16.2588 28.9595 16.2588 25.7475V25.524Z" fill="black"/>
</g>
</svg>
