<svg width="197" height="81" viewBox="0 0 197 81" fill="none" xmlns="http://www.w3.org/2000/svg">
<rect width="197" height="81" fill="#E5E5E5"/>
<g clip-path="url(#clip0_5338_107419)">
<rect width="960" height="550" transform="translate(-382 -50)" fill="white"/>
<path d="M53.7214 35.4C59.1614 35.4 62.7214 32.04 62.7214 26.36C62.7214 25.96 62.3214 25.64 61.9214 25.64H59.6814C59.2414 25.64 58.8814 26 58.8814 26.44C58.8814 29.72 56.8814 31.6 53.7214 31.6C51.6414 31.6 50.0014 30.56 49.2014 28.88C48.4414 27.28 48.3614 23.96 48.3614 21C48.3614 18.04 48.4414 14.72 49.2014 13.12C50.0014 11.44 51.6414 10.4 53.7214 10.4C56.8814 10.4 58.8814 12.28 58.8814 15.56C58.8814 16 59.2414 16.36 59.6814 16.36H61.9214C62.3214 16.36 62.7214 16.04 62.7214 15.64C62.7214 9.96 59.1614 6.6 53.7214 6.6C49.7214 6.6 46.9614 8.64 45.6814 11.32C44.4814 13.84 44.4414 17.28 44.4414 21C44.4414 24.72 44.4814 28.16 45.6814 30.68C46.9614 33.36 49.7214 35.4 53.7214 35.4ZM74.5183 35.4C76.6783 35.4 78.4383 34.92 79.6383 34C81.1183 32.88 82.0383 31.28 82.2783 29.4C82.3583 28.92 82.0783 28.6 81.5983 28.6H79.5583C79.1183 28.6 78.7583 28.84 78.6383 29.28C78.4383 29.96 78.0383 30.52 77.4383 31C76.6783 31.52 75.6783 31.8 74.5183 31.8C73.3583 31.8 72.3183 31.48 71.5983 30.88C70.4783 30 69.9583 28.64 69.9583 26.56C69.9583 26.32 70.1183 26.16 70.3583 26.16H81.7183C82.1583 26.16 82.5183 25.8 82.5183 25.36V22.96C82.5183 20.28 81.7183 18.08 80.2383 16.64C78.8383 15.28 76.9183 14.6 74.5983 14.6C72.1583 14.6 70.1983 15.32 68.7583 16.76C67.0383 18.52 66.1183 21.36 66.1183 25C66.1183 29.04 66.9983 31.68 68.9983 33.56C70.3583 34.8 72.1983 35.4 74.5183 35.4ZM70.3983 23.08C70.1583 23.08 69.9983 22.92 69.9983 22.68C69.9983 21.16 70.4383 19.92 71.3183 19.04C72.1183 18.24 73.2783 17.8 74.5983 17.8C75.8783 17.8 76.9583 18.24 77.7183 19.04C78.5983 19.92 79.0383 21.16 79.0383 22.68C79.0383 22.92 78.8783 23.08 78.6383 23.08H70.3983ZM87.7945 35H89.7945C90.2345 35 90.5945 34.64 90.5945 34.2V22.84C90.5945 19.96 92.5145 18.2 94.9945 18.2C97.8745 18.2 99.3945 20.08 99.3945 23.04V34.2C99.3945 34.64 99.7545 35 100.195 35H102.195C102.635 35 102.995 34.64 102.995 34.2V21.76C102.995 17.48 100.435 14.6 96.1945 14.6C92.5945 14.6 92.0345 16.2 91.1545 16.2C90.5145 16.2 90.3945 15.68 90.1145 15.28C89.9945 15.08 89.7945 15 89.5545 15H87.7945C87.3545 15 86.9945 15.36 86.9945 15.8V34.2C86.9945 34.64 87.3545 35 87.7945 35ZM116.029 35H118.229C118.669 35 119.029 34.64 119.029 34.2V32.2C119.029 31.76 118.669 31.4 118.229 31.4H116.029C113.869 31.4 112.829 30.52 112.829 28.6V19.2C112.829 18.96 112.989 18.8 113.229 18.8H117.829C118.269 18.8 118.629 18.44 118.629 18V16C118.629 15.56 118.269 15.2 117.829 15.2H113.229C112.989 15.2 112.829 15.04 112.829 14.8V8.6C112.829 8.16 112.469 7.8 112.029 7.8H110.029C109.589 7.8 109.229 8.16 109.229 8.6V14.8C109.229 15.04 109.069 15.2 108.829 15.2H106.029C105.589 15.2 105.229 15.56 105.229 16V18C105.229 18.44 105.589 18.8 106.029 18.8H108.829C109.069 18.8 109.229 18.96 109.229 19.2V28.6C109.229 32.84 111.509 35 116.029 35ZM129.518 35.4C131.678 35.4 133.438 34.92 134.638 34C136.118 32.88 137.038 31.28 137.278 29.4C137.358 28.92 137.078 28.6 136.598 28.6H134.558C134.118 28.6 133.758 28.84 133.638 29.28C133.438 29.96 133.038 30.52 132.438 31C131.678 31.52 130.678 31.8 129.518 31.8C128.358 31.8 127.318 31.48 126.598 30.88C125.478 30 124.958 28.64 124.958 26.56C124.958 26.32 125.118 26.16 125.358 26.16H136.718C137.158 26.16 137.518 25.8 137.518 25.36V22.96C137.518 20.28 136.718 18.08 135.238 16.64C133.838 15.28 131.918 14.6 129.598 14.6C127.158 14.6 125.198 15.32 123.758 16.76C122.038 18.52 121.118 21.36 121.118 25C121.118 29.04 121.998 31.68 123.998 33.56C125.358 34.8 127.198 35.4 129.518 35.4ZM125.398 23.08C125.158 23.08 124.998 22.92 124.998 22.68C124.998 21.16 125.438 19.92 126.318 19.04C127.118 18.24 128.278 17.8 129.598 17.8C130.878 17.8 131.958 18.24 132.718 19.04C133.598 19.92 134.038 21.16 134.038 22.68C134.038 22.92 133.878 23.08 133.638 23.08H125.398ZM142.795 35H144.795C145.235 35 145.595 34.64 145.595 34.2V24.6C145.595 20.36 148.435 18.76 151.595 18.76H152.395C152.835 18.76 153.195 18.4 153.195 17.96V15.8C153.195 15.36 152.835 15 152.395 15H151.595C147.315 15 146.635 17.2 145.675 17.2C145.075 17.2 145.075 16.32 144.955 15.8C144.835 15.24 144.595 15 144.155 15H142.795C142.355 15 141.995 15.36 141.995 15.8V34.2C141.995 34.64 142.355 35 142.795 35Z" fill="black"/>
<g clip-path="url(#clip1_5338_107419)">
<path d="M39.0203 68.2782C37.8192 68.2782 36.7876 68.6929 36.1175 69.4466L36.0396 69.5336L35.9672 69.442C35.3548 68.6816 34.4712 68.2782 33.4124 68.2782C32.3096 68.2782 31.3469 68.6251 30.7006 69.2533L30.6034 69.3483L30.5435 69.2274C30.2418 68.6251 29.5966 68.2782 28.7729 68.2782C28.4432 68.2766 28.1155 68.33 27.8034 68.4364C27.704 68.4703 27.6712 68.5211 27.6712 68.6409V69.7912C27.6678 69.8177 27.6765 69.8442 27.6949 69.8635C27.7441 69.893 27.8027 69.9027 27.8588 69.8906C28.0144 69.8653 28.1713 69.8487 28.3288 69.8409C28.8531 69.8409 29.1198 70.0793 29.1198 70.5483V76.172C29.1154 76.2124 29.1296 76.2526 29.1584 76.2814C29.1872 76.3102 29.2274 76.3243 29.2678 76.32H30.7808C30.8212 76.3243 30.8614 76.3102 30.8902 76.2814C30.919 76.2526 30.9332 76.2124 30.9288 76.172V71.9132C30.9288 70.6545 31.7548 69.8082 32.9842 69.8082C34.1446 69.8082 34.9243 70.7008 34.9243 72.0285V76.172C34.92 76.2124 34.9342 76.2526 34.9629 76.2814C34.9917 76.3102 35.0319 76.3243 35.0723 76.32H36.5853C36.6257 76.3243 36.666 76.3102 36.6947 76.2814C36.7235 76.2526 36.7377 76.2124 36.7333 76.172V71.9132C36.7333 70.6545 37.4802 69.8082 38.591 69.8082C39.8599 69.8082 40.7119 70.7008 40.7119 72.0285V76.172C40.7079 76.2125 40.7224 76.2527 40.7513 76.2814C40.7802 76.3101 40.8205 76.3243 40.861 76.32H42.3729C42.4134 76.3243 42.4537 76.3101 42.4826 76.2814C42.5115 76.2527 42.526 76.2125 42.522 76.172V71.9132C42.5232 69.7392 41.1153 68.2782 39.0203 68.2782Z" fill="black"/>
<path d="M54.0396 74.8522C53.998 74.8299 53.9494 74.8247 53.904 74.8375C53.6982 74.8813 53.4884 74.9036 53.278 74.9042C52.8802 74.9042 52.6 74.6138 52.6 74.198V68.6353C52.6043 68.5948 52.5901 68.5546 52.5614 68.5259C52.5326 68.4971 52.4924 68.4829 52.452 68.4872H50.9412C50.9008 68.4829 50.8606 68.4971 50.8318 68.5259C50.8031 68.5546 50.7889 68.5948 50.7932 68.6353V72.8341C50.7932 74.0771 49.8735 74.9381 48.5571 74.9381C47.2881 74.9381 46.4362 74.0466 46.4362 72.7189V68.6353C46.4401 68.5947 46.4256 68.5545 46.3967 68.5259C46.3678 68.4972 46.3275 68.483 46.287 68.4872H44.7751C44.7347 68.4829 44.6945 68.4971 44.6657 68.5259C44.637 68.5546 44.6228 68.5948 44.6271 68.6353V72.8341C44.6271 75.007 46.0339 76.468 48.13 76.468C49.2542 76.468 50.2102 76.1573 50.8949 75.5709L50.9819 75.4963L51.0418 75.5935C51.391 76.1494 52.104 76.468 52.9977 76.468C53.3685 76.4627 53.736 76.3975 54.0859 76.2748C54.129 76.2678 54.1673 76.2433 54.1918 76.2072C54.2164 76.1711 54.2251 76.1265 54.2158 76.0839L54.0836 74.9539C54.0847 74.9152 54.0686 74.8779 54.0396 74.8522Z" fill="black"/>
<path d="M65.1051 74.8522C65.064 74.8298 65.0156 74.8245 64.9706 74.8375C64.7644 74.8812 64.5543 74.9036 64.3435 74.9042C63.9469 74.9042 63.6655 74.6138 63.6655 74.198V64.8353C63.6694 64.7949 63.6551 64.755 63.6265 64.7263C63.5978 64.6977 63.5578 64.6833 63.5175 64.6872H61.991C61.9506 64.6833 61.9107 64.6977 61.882 64.7263C61.8534 64.755 61.839 64.7949 61.8429 64.8353V69.0759L61.687 68.9686C61.029 68.5097 60.2439 68.2683 59.4418 68.2782C56.9345 68.2782 55.1831 69.963 55.1831 72.3731C55.1831 74.7833 56.9345 76.468 59.4418 76.468C60.4204 76.4936 61.3704 76.137 62.0904 75.4737L62.1876 75.3878L62.2441 75.5008C62.5424 76.1132 63.2057 76.4646 64.0633 76.4646C64.434 76.4591 64.8014 76.3939 65.1514 76.2714C65.1945 76.2644 65.2327 76.2399 65.2571 76.2038C65.2815 76.1676 65.2898 76.123 65.2802 76.0805L65.1492 74.9505C65.1492 74.913 65.1332 74.8772 65.1051 74.8522ZM59.4554 75.0206C58.026 75.0206 56.9887 73.9076 56.9887 72.3731C56.9887 70.8387 58.026 69.7257 59.4554 69.7257C60.8848 69.7257 61.8554 70.8149 61.8554 72.3731C61.8554 73.9313 60.8723 75.0206 59.4588 75.0206H59.4554Z" fill="black"/>
<path d="M68.3889 68.4974H67.2349C67.054 68.4974 66.9073 68.644 66.9073 68.8249V75.9778C66.9073 76.1587 67.054 76.3053 67.2349 76.3053H68.3889C68.5698 76.3053 68.7164 76.1587 68.7164 75.9778V68.8249C68.7164 68.644 68.5698 68.4974 68.3889 68.4974Z" fill="black"/>
<path d="M75.8192 74.755C75.3863 74.8542 74.9436 74.9046 74.4994 74.9053C73.5955 74.9053 72.9864 74.2714 72.9864 73.3234V69.8895H75.8802C75.9207 69.8938 75.9609 69.8796 75.9896 69.8509C76.0184 69.8221 76.0326 69.7819 76.0283 69.7415V68.6398C76.0326 68.5994 76.0184 68.5591 75.9896 68.5304C75.9609 68.5016 75.9207 68.4874 75.8802 68.4918H72.9842V66.2398C72.9885 66.1994 72.9743 66.1591 72.9456 66.1304C72.9168 66.1016 72.8766 66.0874 72.8362 66.0918H71.3232C71.2828 66.0879 71.2429 66.1022 71.2142 66.1309C71.1856 66.1595 71.1712 66.1995 71.1751 66.2398V73.3923C71.1751 75.2319 72.4181 76.468 74.2667 76.468C74.8749 76.4497 75.4792 76.3625 76.0678 76.2082C76.1098 76.2 76.1467 76.1753 76.1701 76.1395C76.1935 76.1037 76.2014 76.06 76.1921 76.0183L75.9955 74.8726C75.9928 74.8311 75.971 74.7933 75.9364 74.7702C75.9018 74.7472 75.8585 74.7416 75.8192 74.755Z" fill="black"/>
<path d="M87.1819 74.8522C87.1403 74.8299 87.0917 74.8247 87.0463 74.8375C86.8399 74.8821 86.6293 74.9049 86.4181 74.9053C86.0215 74.9053 85.7401 74.6149 85.7401 74.1991V68.6353C85.7444 68.5948 85.7302 68.5546 85.7015 68.5259C85.6727 68.4971 85.6325 68.4829 85.5921 68.4872H84.0836C84.0432 68.4829 84.003 68.4971 83.9742 68.5259C83.9455 68.5546 83.9313 68.5948 83.9356 68.6353V69.0963L83.7785 68.9833C83.12 68.5128 82.3279 68.2657 81.5186 68.2782C79.0113 68.2782 77.2599 69.963 77.2599 72.3731C77.2599 74.7833 79.0113 76.468 81.5186 76.468C82.4964 76.4889 83.4448 76.1329 84.1672 75.4737L84.2644 75.3878L84.3209 75.5008C84.6192 76.1132 85.2825 76.4647 86.1401 76.4647C86.512 76.4597 86.8806 76.3944 87.2316 76.2714C87.2747 76.2644 87.313 76.2399 87.3376 76.2038C87.3622 76.1677 87.3708 76.1231 87.3616 76.0805L87.2294 74.9449C87.2272 74.9087 87.21 74.8751 87.1819 74.8522ZM81.5322 75.0206C80.1028 75.0206 79.0655 73.9076 79.0655 72.3731C79.0655 70.8387 80.1028 69.7257 81.5322 69.7257C82.9616 69.7257 83.9333 70.8149 83.9333 72.3731C83.9333 73.9313 82.948 75.0206 81.5345 75.0206H81.5322Z" fill="black"/>
<path d="M67.8305 64.746C67.4259 64.7455 67.061 64.9889 66.9058 65.3625C66.7507 65.7362 66.836 66.1665 67.1219 66.4527C67.4078 66.7389 67.838 66.8247 68.2118 66.67C68.5856 66.5153 68.8294 66.1506 68.8294 65.746C68.8288 65.1944 68.3821 64.7472 67.8305 64.746Z" fill="black"/>
<path d="M21.3559 72.7607C21.3128 72.6738 21.252 72.5968 21.1774 72.5347C19.3406 71.019 16.8385 70.5891 14.6011 71.4048C14.6037 68.6458 13.3462 66.0368 11.1864 64.32C10.9294 64.1146 10.5644 64.1146 10.3074 64.32C8.15133 66.0338 6.89423 68.637 6.89266 71.3912C4.66208 70.5953 2.17719 71.0328 0.35255 72.5426C0.278287 72.605 0.217537 72.6819 0.174019 72.7686C0.0831153 72.8895 0.0335881 73.0365 0.0327759 73.1878C0.0414886 76.9497 3.09123 79.9959 6.85312 80.0003C8.25429 80.0031 9.62141 79.5686 10.7638 78.7573C11.9068 79.5684 13.2742 80.0029 14.6757 80.0003C18.4405 79.9959 21.4912 76.9447 21.4949 73.1799C21.4953 73.0288 21.4465 72.8816 21.3559 72.7607ZM10.7458 65.7969C12.3073 67.2476 13.1945 69.2829 13.1945 71.4144C13.1945 73.5458 12.3073 75.5811 10.7458 77.0319C9.18424 75.5811 8.29704 73.5458 8.29704 71.4144C8.29704 69.2829 9.18424 67.2476 10.7458 65.7969ZM1.4565 73.468C3.06811 72.2605 5.22404 72.0684 7.02374 72.972C7.34333 74.825 8.23423 76.5317 9.57176 77.8534C8.74779 78.3379 7.80899 78.5927 6.85312 78.5912C3.97925 78.5864 1.60954 76.3377 1.45424 73.468H1.4565ZM14.6768 78.5935C13.7108 78.5954 12.7622 78.3353 11.9322 77.8409C13.2569 76.5262 14.1412 74.833 14.4633 72.9946C16.2701 72.0615 18.4514 72.2441 20.078 73.4646C19.9255 76.3379 17.553 78.5903 14.6757 78.5935H14.6768Z" fill="black"/>
<path d="M21.243 68.4093C21.2892 68.4091 21.3327 68.3875 21.3608 68.3508C21.3889 68.314 21.3984 68.2664 21.3865 68.2217C20.0702 63.4319 15.7154 60.1123 10.748 60.1123C5.78067 60.1123 1.42582 63.4319 0.109618 68.2217C0.0977104 68.2664 0.107188 68.314 0.135277 68.3508C0.163367 68.3875 0.206893 68.4091 0.253121 68.4093H1.40905C1.47339 68.4088 1.53002 68.3667 1.54917 68.3053C2.79602 64.2713 6.52571 61.5203 10.748 61.5203C14.9704 61.5203 18.7 64.2713 19.9469 68.3053C19.9653 68.3668 20.0217 68.409 20.0859 68.4093H21.243Z" fill="black"/>
<path d="M87.5537 66.3404L87.53 65.4002C87.528 65.3795 87.5351 65.359 87.5493 65.3438C87.5636 65.3287 87.5837 65.3204 87.6045 65.3211L88.0226 65.311C88.2949 65.3042 88.4882 65.459 88.4949 65.6895C88.5035 65.8402 88.4113 65.9784 88.2689 66.0285L88.4814 66.2997C88.5187 66.3505 88.4994 66.3923 88.4373 66.3935H88.2938C88.257 66.3977 88.2208 66.3812 88.2 66.3505L87.9876 66.0726H87.8023L87.809 66.3245C87.811 66.3453 87.804 66.3658 87.7897 66.381C87.7754 66.3961 87.7553 66.4044 87.7345 66.4036H87.6316C87.5929 66.407 87.5584 66.379 87.5537 66.3404ZM88.0396 65.8601C88.1627 65.8601 88.2339 65.7935 88.2305 65.6906C88.2271 65.5878 88.1446 65.5392 88.0317 65.5415L87.791 65.5483L87.7989 65.8669L88.0396 65.8601Z" fill="black"/>
<path d="M88.8543 64.972C88.4546 64.588 87.8476 64.5182 87.3712 64.8016C86.8949 65.085 86.6665 65.6517 86.8133 66.1862C86.96 66.7207 87.4457 67.0913 88 67.0918H88.0226C88.5213 67.0831 88.9655 66.7745 89.1477 66.3101C89.3299 65.8458 89.214 65.3175 88.8543 64.972ZM88.7413 66.572C88.4191 66.9093 87.9104 66.9879 87.5015 66.7635C87.0926 66.539 86.8857 66.0677 86.9973 65.6148C87.1089 65.1619 87.5111 64.8407 87.9774 64.8319H87.9989C88.4109 64.8323 88.783 65.0785 88.9446 65.4575C89.1062 65.8366 89.0262 66.2755 88.7413 66.5731V66.572Z" fill="black"/>
</g>
<rect x="97.25" y="62" width="1" height="16" fill="#A5A5A5"/>
<path d="M107.58 75H108.322C108.476 75 108.602 74.874 108.602 74.72V67.692C108.602 67.65 108.63 67.622 108.658 67.622C108.686 67.622 108.7 67.65 108.714 67.678L110.716 74.762C110.758 74.93 110.856 75 111.01 75H111.598C111.752 75 111.85 74.93 111.892 74.762L113.894 67.678C113.908 67.65 113.922 67.622 113.95 67.622C113.978 67.622 114.006 67.65 114.006 67.692V74.72C114.006 74.874 114.132 75 114.286 75H115.028C115.182 75 115.308 74.874 115.308 74.72V65.48C115.308 65.326 115.182 65.2 115.028 65.2H113.6C113.446 65.2 113.348 65.27 113.306 65.438L111.374 72.48C111.36 72.522 111.332 72.536 111.304 72.536C111.276 72.536 111.248 72.522 111.234 72.48L109.302 65.438C109.26 65.27 109.162 65.2 109.008 65.2H107.58C107.426 65.2 107.3 65.326 107.3 65.48V74.72C107.3 74.874 107.426 75 107.58 75ZM123.214 68H122.514C122.36 68 122.234 68.126 122.234 68.28V72.256C122.234 73.264 121.562 73.88 120.694 73.88C119.686 73.88 119.154 73.222 119.154 72.186V68.28C119.154 68.126 119.028 68 118.874 68H118.174C118.02 68 117.894 68.126 117.894 68.28V72.634C117.894 74.132 118.79 75.14 120.274 75.14C121.534 75.14 121.73 74.58 122.038 74.58C122.262 74.58 122.304 74.762 122.402 74.902C122.444 74.972 122.514 75 122.598 75H123.214C123.368 75 123.494 74.874 123.494 74.72V68.28C123.494 68.126 123.368 68 123.214 68ZM128.469 75.14C129.603 75.14 129.813 74.608 130.107 74.608C130.219 74.608 130.289 74.678 130.387 74.902C130.415 74.972 130.471 75 130.583 75H131.059C131.213 75 131.339 74.874 131.339 74.72V65.34C131.339 65.186 131.213 65.06 131.059 65.06H130.359C130.205 65.06 130.079 65.186 130.079 65.34V67.86C130.079 68.182 130.009 68.308 129.827 68.308C129.575 68.308 129.281 67.86 128.357 67.86C127.419 67.86 126.635 68.294 126.215 69.05C125.907 69.624 125.767 70.38 125.767 71.5C125.767 72.564 125.907 73.32 126.201 73.936C126.607 74.692 127.447 75.14 128.469 75.14ZM128.595 73.88C128.007 73.88 127.517 73.67 127.279 73.236C127.041 72.802 127.027 72.312 127.027 71.5C127.027 70.688 127.055 70.198 127.279 69.764C127.503 69.33 128.007 69.12 128.595 69.12C129.183 69.12 129.673 69.33 129.911 69.764C130.149 70.198 130.163 70.688 130.163 71.5C130.163 72.312 130.149 72.802 129.911 73.236C129.673 73.67 129.183 73.88 128.595 73.88ZM134.024 66.474H134.976C135.102 66.474 135.2 66.376 135.2 66.25V65.284C135.2 65.172 135.102 65.06 134.976 65.06H134.024C133.898 65.06 133.8 65.172 133.8 65.284V66.25C133.8 66.376 133.898 66.474 134.024 66.474ZM134.136 75H134.864C135.018 75 135.144 74.874 135.144 74.72V68.28C135.144 68.126 135.018 68 134.864 68H134.136C133.982 68 133.856 68.126 133.856 68.28V74.72C133.856 74.874 133.982 75 134.136 75ZM140.739 75H141.509C141.663 75 141.789 74.874 141.789 74.72V74.02C141.789 73.866 141.663 73.74 141.509 73.74H140.739C139.983 73.74 139.619 73.432 139.619 72.76V69.47C139.619 69.386 139.675 69.33 139.759 69.33H141.369C141.523 69.33 141.649 69.204 141.649 69.05V68.35C141.649 68.196 141.523 68.07 141.369 68.07H139.759C139.675 68.07 139.619 68.014 139.619 67.93V65.76C139.619 65.606 139.493 65.48 139.339 65.48H138.639C138.485 65.48 138.359 65.606 138.359 65.76V67.93C138.359 68.014 138.303 68.07 138.219 68.07H137.239C137.085 68.07 136.959 68.196 136.959 68.35V69.05C136.959 69.204 137.085 69.33 137.239 69.33H138.219C138.303 69.33 138.359 69.386 138.359 69.47V72.76C138.359 74.244 139.157 75 140.739 75ZM145.671 75.14C146.707 75.14 147.057 74.608 147.309 74.608C147.449 74.608 147.519 74.776 147.589 74.902C147.631 74.972 147.701 75 147.785 75H148.261C148.415 75 148.541 74.874 148.541 74.72V70.1C148.541 68.63 147.659 67.86 145.993 67.86C144.383 67.86 143.445 68.602 143.445 69.862C143.445 70.044 143.543 70.142 143.725 70.142H144.369C144.593 70.142 144.691 70.072 144.691 69.904C144.691 69.302 145.167 68.966 145.979 68.966C146.819 68.966 147.281 69.344 147.281 70.058V70.632C147.281 70.716 147.225 70.772 147.141 70.772H145.643C144.047 70.772 143.123 71.514 143.123 72.914C143.123 74.258 144.131 75.14 145.671 75.14ZM145.769 73.978C144.887 73.978 144.425 73.6 144.425 72.886C144.425 72.228 144.859 71.92 145.783 71.92H147.253C147.337 71.92 147.393 71.976 147.393 72.06V72.508C147.393 73.502 146.875 73.978 145.769 73.978ZM157.604 75.14C159.508 75.14 160.754 73.964 160.754 71.976C160.754 71.836 160.614 71.724 160.474 71.724H159.69C159.536 71.724 159.41 71.85 159.41 72.004C159.41 73.152 158.71 73.81 157.604 73.81C156.876 73.81 156.302 73.446 156.022 72.858C155.756 72.298 155.728 71.136 155.728 70.1C155.728 69.064 155.756 67.902 156.022 67.342C156.302 66.754 156.876 66.39 157.604 66.39C158.71 66.39 159.41 67.048 159.41 68.196C159.41 68.35 159.536 68.476 159.69 68.476H160.474C160.614 68.476 160.754 68.364 160.754 68.224C160.754 66.236 159.508 65.06 157.604 65.06C156.204 65.06 155.238 65.774 154.79 66.712C154.37 67.594 154.356 68.798 154.356 70.1C154.356 71.402 154.37 72.606 154.79 73.488C155.238 74.426 156.204 75.14 157.604 75.14ZM165.583 75.14C166.339 75.14 166.955 74.972 167.375 74.65C167.893 74.258 168.215 73.698 168.299 73.04C168.327 72.872 168.229 72.76 168.061 72.76H167.347C167.193 72.76 167.067 72.844 167.025 72.998C166.955 73.236 166.815 73.432 166.605 73.6C166.339 73.782 165.989 73.88 165.583 73.88C165.177 73.88 164.813 73.768 164.561 73.558C164.169 73.25 163.987 72.774 163.987 72.046C163.987 71.962 164.043 71.906 164.127 71.906H168.103C168.257 71.906 168.383 71.78 168.383 71.626V70.786C168.383 69.848 168.103 69.078 167.585 68.574C167.095 68.098 166.423 67.86 165.611 67.86C164.757 67.86 164.071 68.112 163.567 68.616C162.965 69.232 162.643 70.226 162.643 71.5C162.643 72.914 162.951 73.838 163.651 74.496C164.127 74.93 164.771 75.14 165.583 75.14ZM164.141 70.828C164.057 70.828 164.001 70.772 164.001 70.688C164.001 70.156 164.155 69.722 164.463 69.414C164.743 69.134 165.149 68.98 165.611 68.98C166.059 68.98 166.437 69.134 166.703 69.414C167.011 69.722 167.165 70.156 167.165 70.688C167.165 70.772 167.109 70.828 167.025 70.828H164.141ZM170.929 75H171.629C171.783 75 171.909 74.874 171.909 74.72V70.744C171.909 69.736 172.581 69.12 173.449 69.12C174.457 69.12 174.989 69.778 174.989 70.814V74.72C174.989 74.874 175.115 75 175.269 75H175.969C176.123 75 176.249 74.874 176.249 74.72V70.366C176.249 68.868 175.353 67.86 173.869 67.86C172.609 67.86 172.413 68.42 172.105 68.42C171.881 68.42 171.839 68.238 171.741 68.098C171.699 68.028 171.629 68 171.545 68H170.929C170.775 68 170.649 68.126 170.649 68.28V74.72C170.649 74.874 170.775 75 170.929 75ZM181.511 75H182.281C182.435 75 182.561 74.874 182.561 74.72V74.02C182.561 73.866 182.435 73.74 182.281 73.74H181.511C180.755 73.74 180.391 73.432 180.391 72.76V69.47C180.391 69.386 180.447 69.33 180.531 69.33H182.141C182.295 69.33 182.421 69.204 182.421 69.05V68.35C182.421 68.196 182.295 68.07 182.141 68.07H180.531C180.447 68.07 180.391 68.014 180.391 67.93V65.76C180.391 65.606 180.265 65.48 180.111 65.48H179.411C179.257 65.48 179.131 65.606 179.131 65.76V67.93C179.131 68.014 179.075 68.07 178.991 68.07H178.011C177.857 68.07 177.731 68.196 177.731 68.35V69.05C177.731 69.204 177.857 69.33 178.011 69.33H178.991C179.075 69.33 179.131 69.386 179.131 69.47V72.76C179.131 74.244 179.929 75 181.511 75ZM186.933 75.14C187.689 75.14 188.305 74.972 188.725 74.65C189.243 74.258 189.565 73.698 189.649 73.04C189.677 72.872 189.579 72.76 189.411 72.76H188.697C188.543 72.76 188.417 72.844 188.375 72.998C188.305 73.236 188.165 73.432 187.955 73.6C187.689 73.782 187.339 73.88 186.933 73.88C186.527 73.88 186.163 73.768 185.911 73.558C185.519 73.25 185.337 72.774 185.337 72.046C185.337 71.962 185.393 71.906 185.477 71.906H189.453C189.607 71.906 189.733 71.78 189.733 71.626V70.786C189.733 69.848 189.453 69.078 188.935 68.574C188.445 68.098 187.773 67.86 186.961 67.86C186.107 67.86 185.421 68.112 184.917 68.616C184.315 69.232 183.993 70.226 183.993 71.5C183.993 72.914 184.301 73.838 185.001 74.496C185.477 74.93 186.121 75.14 186.933 75.14ZM185.491 70.828C185.407 70.828 185.351 70.772 185.351 70.688C185.351 70.156 185.505 69.722 185.813 69.414C186.093 69.134 186.499 68.98 186.961 68.98C187.409 68.98 187.787 69.134 188.053 69.414C188.361 69.722 188.515 70.156 188.515 70.688C188.515 70.772 188.459 70.828 188.375 70.828H185.491ZM192.279 75H192.979C193.133 75 193.259 74.874 193.259 74.72V71.36C193.259 69.876 194.253 69.316 195.359 69.316H195.639C195.793 69.316 195.919 69.19 195.919 69.036V68.28C195.919 68.126 195.793 68 195.639 68H195.359C193.861 68 193.623 68.77 193.287 68.77C193.077 68.77 193.077 68.462 193.035 68.28C192.993 68.084 192.909 68 192.755 68H192.279C192.125 68 191.999 68.126 191.999 68.28V74.72C191.999 74.874 192.125 75 192.279 75Z" fill="#A5A5A5"/>
</g>
<defs>
<clipPath id="clip0_5338_107419">
<rect width="960" height="550" fill="white" transform="translate(-382 -50)"/>
</clipPath>
<clipPath id="clip1_5338_107419">
<rect width="89.25" height="20" fill="white" transform="translate(0 60)"/>
</clipPath>
</defs>
</svg>
