<svg width="48" height="48" viewBox="0 0 48 48" fill="none" xmlns="http://www.w3.org/2000/svg">
<mask id="mask0" mask-type="alpha" maskUnits="userSpaceOnUse" x="6" y="6" width="36" height="36">
<path d="M38 6H10C7.79086 6 6 7.79086 6 10V38C6 40.2091 7.79086 42 10 42H38C40.2091 42 42 40.2091 42 38V10C42 7.79086 40.2091 6 38 6Z" fill="#6D9BBC"/>
</mask>
<g mask="url(#mask0)">
<path fill-rule="evenodd" clip-rule="evenodd" d="M16.7653 37.1783C16.3907 36.7725 16.416 36.1398 16.8218 35.7652L29.0257 24.5L16.8218 13.2348C16.416 12.8602 16.3907 12.2275 16.7653 11.8217C17.1399 11.4159 17.7725 11.3906 18.1783 11.7652L31.1783 23.7652C31.3834 23.9545 31.5001 24.2209 31.5001 24.5C31.5001 24.7791 31.3834 25.0455 31.1783 25.2348L18.1783 37.2348C17.7725 37.6094 17.1399 37.5841 16.7653 37.1783Z" fill="#6D9BBC"/>
</g>
</svg>
