<svg width="28" height="20" viewBox="0 0 28 20" fill="none" xmlns="http://www.w3.org/2000/svg">
<path fill-rule="evenodd" clip-rule="evenodd" d="M28 10.2867C28 9.67309 27.5178 9.17563 26.9231 9.17563L3.61958 9.17563L10.4658 1.88422C10.8796 1.44347 10.8688 0.740041 10.4416 0.313068C10.0144 -0.113907 9.33265 -0.102742 8.91882 0.338006L0.303432 9.51363C0.104633 9.72536 -0.00447273 10.0099 0.000137329 10.3047C0.00474548 10.5994 0.12269 10.8802 0.328005 11.0852L8.94339 19.6873C9.37079 20.1141 10.0526 20.1025 10.4662 19.6616C10.8798 19.2206 10.8686 18.5172 10.4412 18.0904L3.73833 11.3978L26.9231 11.3979C27.5178 11.3979 28 10.9004 28 10.2867Z" fill="black"/>
</svg>
