<svg width="48" height="48" viewBox="0 0 48 48" fill="none" xmlns="http://www.w3.org/2000/svg">
<mask id="mask0_226_1633" style="mask-type:alpha" maskUnits="userSpaceOnUse" x="5" y="5" width="38" height="38">
<path d="M38 6H10C7.79086 6 6 7.79086 6 10V38C6 40.2091 7.79086 42 10 42H38C40.2091 42 42 40.2091 42 38V10C42 7.79086 40.2091 6 38 6Z" fill="white" stroke="black" stroke-width="2"/>
</mask>
<g mask="url(#mask0_226_1633)">
<path fill-rule="evenodd" clip-rule="evenodd" d="M38 24.2867C38 23.6731 37.5178 23.1756 36.9231 23.1756L13.6196 23.1756L20.4658 15.8842C20.8796 15.4435 20.8688 14.74 20.4416 14.3131C20.0144 13.8861 19.3327 13.8973 18.9188 14.338L10.3034 23.5136C10.1046 23.7254 9.99553 24.0099 10.0001 24.3047C10.0047 24.5994 10.1227 24.8802 10.328 25.0852L18.9434 33.6873C19.3708 34.1141 20.0526 34.1025 20.4662 33.6616C20.8798 33.2206 20.8686 32.5172 20.4412 32.0904L13.7383 25.3978L36.9231 25.3979C37.5178 25.3979 38 24.9004 38 24.2867Z" fill="black"/>
</g>
</svg>
