<svg width="48" height="48" viewBox="0 0 48 48" fill="none" xmlns="http://www.w3.org/2000/svg">
<mask id="mask0" mask-type="alpha" maskUnits="userSpaceOnUse" x="6" y="6" width="36" height="36">
<path d="M38 6H10C7.79086 6 6 7.79086 6 10V38C6 40.2091 7.79086 42 10 42H38C40.2091 42 42 40.2091 42 38V10C42 7.79086 40.2091 6 38 6Z" fill="white"/>
</mask>
<g mask="url(#mask0)">
<path fill-rule="evenodd" clip-rule="evenodd" d="M34.4667 19.3333C34.9821 19.3333 35.4 19.7512 35.4 20.2667V34.2667C35.4 36.3285 33.7285 38 31.6667 38H19.5333C19.0179 38 18.6 37.5821 18.6 37.0667C18.6 36.5512 19.0179 36.1333 19.5333 36.1333H31.6667C32.6976 36.1333 33.5333 35.2976 33.5333 34.2667V20.2667C33.5333 19.7512 33.9512 19.3333 34.4667 19.3333Z" fill="#A5A5A5"/>
<path fill-rule="evenodd" clip-rule="evenodd" d="M16.7333 11.8667C15.7024 11.8667 14.8667 12.7024 14.8667 13.7333V30.5333C14.8667 31.5643 15.7024 32.4 16.7333 32.4H27.9333C28.9643 32.4 29.8 31.5643 29.8 30.5333V18.4H24.2C23.6845 18.4 23.2667 17.9821 23.2667 17.4667V11.8667H16.7333ZM25.1333 13.1866L28.4801 16.5333H25.1333V13.1866ZM13 13.7333C13 11.6715 14.6715 10 16.7333 10H24.2C24.4475 10 24.6849 10.0983 24.86 10.2734L31.3933 16.8067C31.5683 16.9817 31.6667 17.2191 31.6667 17.4667V30.5333C31.6667 32.5952 29.9952 34.2667 27.9333 34.2667H16.7333C14.6715 34.2667 13 32.5952 13 30.5333V13.7333Z" fill="#A5A5A5"/>
</g>
</svg>
