<svg xmlns="http://www.w3.org/2000/svg" xmlns:xlink="http://www.w3.org/1999/xlink" width="28" height="28" viewBox="0 0 28 28">
    <defs>
        <rect id="62hlfdp72a" width="21" height="21" x="0" y="0" rx="2.333"/>
    </defs>
    <g fill="none" fill-rule="evenodd" transform="translate(3.5 3.5)">
        <mask id="oytxmwu19b" fill="#fff">
            <use xlink:href="#62hlfdp72a"/>
        </mask>
        <g mask="url(#oytxmwu19b)">
            <g>
                <path stroke="#6A6A6A" stroke-width=".758" d="M6.387 13.843H1.705C.752 13.843 0 13.24 0 12.517V11.19c0-1.527 1.053-2.853 2.608-3.576.702.482 1.605.763 2.558.763.43 0 .841-.051 1.227-.145M5.21 0c1.694 0 3.013 1.318 3.013 2.967 0 1.695-1.319 3.013-3.014 3.013-1.648 0-2.966-1.318-2.966-3.013C2.243 1.318 3.56 0 5.209 0z" transform="translate(4.667 2.333)"/>
                <path fill="#6A6A6A" d="M10.283 16.277c-1.955 0-2.471-1.617-2.471-2.472V8.157c0-.195.158-.353.353-.353.195 0 .353.158.353.353v5.648c.001.18.062 1.766 1.765 1.766 1.745 0 1.765-1.694 1.765-1.766V8.157c-.002-.176-.062-1.06-1.059-1.06-.997 0-1.057.884-1.06 1.061v5.647c.005.16.07.354.354.354s.349-.195.353-.358V8.157c0-.195.158-.353.353-.353.195 0 .353.158.353.353v5.648c0 .426-.282 1.06-1.059 1.06-.777 0-1.06-.634-1.06-1.06V8.157c0-.61.37-1.766 1.766-1.766s1.765 1.155 1.765 1.766v5.648c0 .855-.516 2.472-2.471 2.472z" transform="translate(4.667 2.333)"/>
            </g>
        </g>
    </g>
</svg>
