<svg width="48" height="48" viewBox="0 0 48 48" fill="none" xmlns="http://www.w3.org/2000/svg">
<path fill-rule="evenodd" clip-rule="evenodd" d="M24 12C20.6863 12 18 14.6863 18 18C18 21.3137 20.6863 24 24 24C27.3137 24 30 21.3137 30 18C30 14.6863 27.3137 12 24 12ZM16 18C16 13.5817 19.5817 10 24 10C28.4183 10 32 13.5817 32 18C32 22.4183 28.4183 26 24 26C19.5817 26 16 22.4183 16 18Z" fill="#6A6A6A"/>
<path fill-rule="evenodd" clip-rule="evenodd" d="M33 30.8542C31.0367 29.7589 28.168 29 24 29C17.5718 29 14.234 30.8052 12.5421 32.8654C11.7077 33.8814 11.3208 34.906 11.1445 35.6857C11.0565 36.0748 11.0207 36.4039 11.0072 36.6432C11.0005 36.763 10.9994 36.8609 11.0003 36.9333C11.0007 36.9695 11.0016 36.9994 11.0026 37.0225L11.0041 37.0521L11.0047 37.063L11.005 37.0675L11.0052 37.0694C11.0052 37.0694 11.0053 37.0713 12.0027 37C13.0002 36.9287 13.0003 36.9304 13.0003 36.9304L13.0004 36.9319L13.0008 36.9373C13.0006 36.9339 13.0003 36.9245 13.0001 36.9095C12.9997 36.8793 13.0001 36.8268 13.0041 36.7552C13.0121 36.6117 13.0349 36.3939 13.0953 36.1268C13.2157 35.594 13.4849 34.8686 14.0877 34.1346C15.2701 32.6948 17.9309 31 24 31C28.8444 31 31.5172 32.0798 33 33.2478V30.8542Z" fill="#6A6A6A"/>
<path fill-rule="evenodd" clip-rule="evenodd" d="M36.3333 29.3333C36.3333 26.9401 38.2734 25 40.6667 25C43.0599 25 45 26.9401 45 29.3333V37C45 40.3137 42.3137 43 39 43C35.6863 43 33 40.3137 33 37V29.8788C33 29.3265 33.4477 28.8788 34 28.8788C34.5523 28.8788 35 29.3265 35 29.8788V37C35 39.2091 36.7909 41 39 41C41.2091 41 43 39.2091 43 37V29.3333C43 28.0447 41.9553 27 40.6667 27C39.378 27 38.3333 28.0447 38.3333 29.3333V36.9394C38.3333 37.3076 38.6318 37.6061 39 37.6061C39.3682 37.6061 39.6667 37.3076 39.6667 36.9394V29.8788C39.6667 29.3265 40.1144 28.8788 40.6667 28.8788C41.219 28.8788 41.6667 29.3265 41.6667 29.8788V36.9394C41.6667 38.4122 40.4728 39.6061 39 39.6061C37.5272 39.6061 36.3333 38.4122 36.3333 36.9394V29.3333Z" fill="#6A6A6A"/>
</svg>
