<svg xmlns="http://www.w3.org/2000/svg" width="12" height="16" viewBox="0 0 12 16">
    <g fill="#A5A5A5" stroke="#A5A5A5" stroke-width=".3">
        <path d="M6.001.277C5.832.101 5.595 0 5.35 0H1.552C.682 0 0 .73 0 1.663v9.042c0 .913.668 1.657 1.49 1.657h5.427c.805 0 1.512-.744 1.512-1.592V3.168c0-.236-.105-.48-.287-.67L6.002.278zm1.507 2.404h-1.39c-.195 0-.404-.127-.404-.315V.82l1.794 1.86zm-.59 9.085H1.488c-.506 0-.918-.476-.918-1.061V1.663c0-.598.431-1.067.98-1.067h3.592v1.77c0 .502.438.91.976.91h1.738v7.494c0 .521-.448.996-.94.996z" transform="translate(1 1)"/>
        <path d="M8.508 13.404H3.08c-.31 0-.599-.17-.774-.458-.085-.139-.262-.18-.395-.09-.133.088-.172.272-.087.41.28.46.75.734 1.256.734h5.428C9.317 14 10 13.28 10 12.428V4.826c0-.242-.1-.486-.28-.672l-.235-.238c-.114-.115-.295-.112-.404.006-.11.118-.108.307.006.421l.232.235c.07.073.11.163.11.249v7.601c0 .52-.43.976-.921.976z" transform="translate(1 1)"/>
    </g>
</svg>
