<svg xmlns="http://www.w3.org/2000/svg" xmlns:xlink="http://www.w3.org/1999/xlink" width="32" height="32" viewBox="0 0 32 32">
    <defs>
        <rect id="8c3b4mo2ia" width="24" height="24" x="0" y="0" rx="4"/>
    </defs>
    <g fill="none" fill-rule="evenodd" transform="translate(4 4)">
        <mask id="hcao4673sb" fill="#fff">
            <use xlink:href="#8c3b4mo2ia"/>
        </mask>
        <g fill="#000" fill-rule="nonzero" stroke="#000" stroke-width=".5" mask="url(#hcao4673sb)">
            <path d="M19.546 7.112h-.29v-.5c0-.615-.498-1.116-1.109-1.116H9.863l-.666-.716c-.057-.062-.137-.097-.22-.097H5.853c-.612 0-1.109.501-1.109 1.117v1.312h-.29c-.61 0-1.108.501-1.108 1.117v.025l.806 9.762c.007.61.502 1.103 1.109 1.103h13.478c.607 0 1.102-.494 1.109-1.103l.805-9.762.001-.025c0-.616-.497-1.117-1.108-1.117zm0 .61c.274 0 .498.221.504.496l-.806 9.759v.025c0 .28-.227.508-.505.508H5.261c-.278 0-.504-.228-.504-.508l-.001-.025-.805-9.76c.006-.274.23-.496.504-.496h15.09zm-10.7-2.43l.666.717c.057.061.137.096.22.096h8.415c.278 0 .504.228.504.508v.5H5.35V5.8c0-.28.226-.507.504-.507h2.993z"/>
        </g>
    </g>
</svg>
