<?xml version="1.0" encoding="UTF-8"?>
<svg width="17px" height="17px" viewBox="0 0 17 17" version="1.1" xmlns="http://www.w3.org/2000/svg" xmlns:xlink="http://www.w3.org/1999/xlink">
    <!-- Generator: sketchtool 59.1 (101010) - https://sketch.com -->
    <title>5F100B43-5186-4C69-BB3C-98F78DE581EB</title>
    <desc>Created with sketchtool.</desc>
    <g id="Asset-Artboard-Page" stroke="none" stroke-width="1" fill="none" fill-rule="evenodd">
        <g id="icon/battery" transform="translate(0.809524, 0.000000)" fill="#6A6A6A">
            <g id="Group" transform="translate(8.000000, 8.009302) rotate(90.000000) translate(-8.000000, -8.009302) translate(2.333333, -0.333721)">
                <path d="M7.83643405,0.33488369 C8.11257642,0.33488369 8.33643405,0.558741315 8.33643405,0.83488369 L8.33643405,1.83488369 L8.335,1.84372092 L10.3387596,1.84379824 C10.615223,1.84379824 10.839341,2.06765587 10.839341,2.34379824 L10.839341,15.6771316 C10.839341,15.9532739 10.615223,16.1771316 10.3387596,16.1771316 L0.994573752,16.1771316 C0.718110288,16.1771316 0.493992368,15.9532739 0.493992368,15.6771316 L0.493992368,2.34379824 C0.493992368,2.06765587 0.718110288,1.84379824 0.994573752,1.84379824 L2.99698196,1.84406884 C2.99692692,1.84101373 2.99689929,1.83795194 2.99689929,1.83488369 L2.99689929,0.83488369 C2.99689929,0.558741315 3.22075691,0.33488369 3.49689929,0.33488369 L7.83643405,0.33488369 Z M9.8381782,2.84379824 L1.49515514,2.84379824 L1.49515514,15.1771316 L9.8381782,15.1771316 L9.8381782,2.84379824 Z M8.16923077,12.3476741 C8.25128205,12.3476741 8.31692308,12.3918025 8.33333333,12.446963 L8.33333333,12.446963 L8.33333333,13.583269 C8.33333333,13.6384294 8.26769231,13.6825578 8.18564103,13.6825578 L8.18564103,13.6825578 L3.14769231,13.6825578 C3.06564103,13.6825578 3,13.6384294 3,13.583269 L3,13.583269 L3,12.446963 C3,12.3918025 3.06564103,12.3476741 3.14769231,12.3476741 L3.14769231,12.3476741 Z M8.16923077,9.67790675 C8.25128205,9.67790675 8.31692308,9.72203514 8.33333333,9.77719562 L8.33333333,9.77719562 L8.33333333,10.9135016 C8.33333333,10.9686621 8.26769231,11.0127904 8.18564103,11.0127904 L8.18564103,11.0127904 L3.14769231,11.0127904 C3.06564103,11.0127904 3,10.9686621 3,10.9135016 L3,10.9135016 L3,9.77719562 C3,9.72203514 3.06564103,9.67790675 3.14769231,9.67790675 L3.14769231,9.67790675 Z M8.16923077,7.00813937 C8.25128205,7.00813937 8.31692308,7.05226776 8.33333333,7.10742824 L8.33333333,7.10742824 L8.33333333,8.24373419 C8.33333333,8.29889468 8.26769231,8.34302306 8.18564103,8.34302306 L8.18564103,8.34302306 L3.14769231,8.34302306 C3.06564103,8.34302306 3,8.29889468 3,8.24373419 L3,8.24373419 L3,7.10742824 C3,7.05226776 3.06564103,7.00813937 3.14769231,7.00813937 L3.14769231,7.00813937 Z" id="Combined-Shape"></path>
            </g>
        </g>
    </g>
</svg>