<svg width="48" height="48" viewBox="0 0 48 48" fill="none" xmlns="http://www.w3.org/2000/svg">
<mask id="mask0" mask-type="alpha" maskUnits="userSpaceOnUse" x="6" y="6" width="36" height="36">
<path d="M38 6H10C7.79086 6 6 7.79086 6 10V38C6 40.2091 7.79086 42 10 42H38C40.2091 42 42 40.2091 42 38V10C42 7.79086 40.2091 6 38 6Z" fill="white"/>
</mask>
<g mask="url(#mask0)">
<path d="M12.7071 23.2929C12.3166 22.9024 11.6834 22.9024 11.2929 23.2929C10.9024 23.6834 10.9024 24.3166 11.2929 24.7071L12.7071 23.2929ZM22 34L21.2929 34.7071C21.5019 34.9161 21.7927 35.022 22.0872 34.9962C22.3817 34.9704 22.6497 34.8156 22.8192 34.5735L22 34ZM36.8192 14.5735C37.1359 14.121 37.0259 13.4975 36.5735 13.1808C36.121 12.8641 35.4975 12.9741 35.1808 13.4265L36.8192 14.5735ZM11.2929 24.7071L21.2929 34.7071L22.7071 33.2929L12.7071 23.2929L11.2929 24.7071ZM22.8192 34.5735L36.8192 14.5735L35.1808 13.4265L21.1808 33.4265L22.8192 34.5735Z" fill="#6A6A6A"/>
</g>
</svg>
