<svg width="48" height="48" viewBox="0 0 48 48" fill="none" xmlns="http://www.w3.org/2000/svg">
<path d="M39 21C39 20.4477 39.4477 20 40 20C40.5523 20 41 20.4477 41 21V27C41 27.5523 40.5523 28 40 28C39.4477 28 39 27.5523 39 27V21Z" fill="#6A6A6A"/>
<path fill-rule="evenodd" clip-rule="evenodd" d="M6 17C6 14.2386 8.23858 12 11 12H33C35.7614 12 38 14.2386 38 17V31C38 33.7614 35.7614 36 33 36H11C8.23858 36 6 33.7614 6 31V17ZM11 14C9.34315 14 8 15.3431 8 17V31C8 32.6569 9.34315 34 11 34H33C34.6569 34 36 32.6569 36 31V17C36 15.3431 34.6569 14 33 14H11Z" fill="#6A6A6A"/>
<path d="M23.0374 28.3741L14.1667 23.7055C14.0667 23.6363 14 23.5326 14 23.3942C14 23.3596 14 23.3251 14 23.2905C14.0667 23.1176 14.2001 23.0138 14.3668 23.0484L21.0031 24.1896L21.0698 19.7631C21.0698 19.6248 21.1365 19.521 21.2366 19.4519C21.3366 19.3827 21.47 19.3827 21.5701 19.4519L29.8404 24.6392C29.9738 24.7429 30.0405 24.9158 29.9738 25.0542C29.9071 25.2271 29.7404 25.2962 29.5737 25.2617L23.5043 23.8092V28.0628C23.5043 28.1666 23.4376 28.3049 23.3375 28.3741C23.2708 28.4086 23.1374 28.4086 23.0374 28.3741Z" fill="#6A6A6A"/>
</svg>
