<svg xmlns="http://www.w3.org/2000/svg" xmlns:xlink="http://www.w3.org/1999/xlink" width="32" height="32" viewBox="0 0 32 32">
    <defs>
        <rect id="j6u8mvf03a" width="24" height="24" x="0" y="0" rx="4"/>
    </defs>
    <g fill="none" fill-rule="evenodd" transform="translate(4 4)">
        <mask id="aki6e5mwhb" fill="#fff">
            <use xlink:href="#j6u8mvf03a"/>
        </mask>
        <g fill="#000" mask="url(#aki6e5mwhb)">
            <path d="M19.273 9.09c.401 0 .727.327.727.728v9.455c0 .401-.326.727-.727.727H7.636c-.401 0-.727-.326-.727-.727V9.818c0-.401.326-.727.727-.727h11.637zm-.728 1.455H8.364v8h10.181v-8zm-1.455.727v2.91c0 .401-.325.727-.726.727H9.09v-1.455h6.546v-2.182h1.454zM16.364 4c.401 0 .727.326.727.727l-.001 3.636h-1.454V5.455H5.455v8l.726-.001v1.455H4.727c-.401 0-.727-.326-.727-.727V4.727C4 4.326 4.326 4 4.727 4h11.637z"/>
        </g>
    </g>
</svg>
