<svg width="48" height="48" viewBox="0 0 48 48" fill="none" xmlns="http://www.w3.org/2000/svg">
<mask id="mask0" mask-type="alpha" maskUnits="userSpaceOnUse" x="6" y="6" width="36" height="36">
<path d="M38 6H10C7.79086 6 6 7.79086 6 10V38C6 40.2091 7.79086 42 10 42H38C40.2091 42 42 40.2091 42 38V10C42 7.79086 40.2091 6 38 6Z" fill="white"/>
</mask>
<g mask="url(#mask0)">
<path fill-rule="evenodd" clip-rule="evenodd" d="M24 12C20.6863 12 18 14.6863 18 18C18 21.3137 20.6863 24 24 24C27.3137 24 30 21.3137 30 18C30 14.6863 27.3137 12 24 12ZM16 18C16 13.5817 19.5817 10 24 10C28.4183 10 32 13.5817 32 18C32 22.4183 28.4183 26 24 26C19.5817 26 16 22.4183 16 18Z" fill="black"/>
<path fill-rule="evenodd" clip-rule="evenodd" d="M13.0003 36.9304C13.0003 36.9304 13.0002 36.9287 12.0027 37C11.0053 37.0713 11.0052 37.0694 11.0052 37.0694L11.005 37.0675L11.0047 37.063L11.0041 37.0521L11.0026 37.0225C11.0016 36.9994 11.0007 36.9695 11.0003 36.9333C10.9994 36.8609 11.0005 36.763 11.0072 36.6432C11.0207 36.4039 11.0565 36.0748 11.1445 35.6857C11.3208 34.906 11.7077 33.8814 12.5421 32.8654C14.234 30.8052 17.5718 29 24 29C30.4282 29 33.766 30.8052 35.4579 32.8654C36.2923 33.8814 36.6792 34.906 36.8555 35.6857C36.9435 36.0748 36.9793 36.4039 36.9928 36.6432C36.9995 36.763 37.0006 36.8609 36.9998 36.9333C36.9993 36.9695 36.9984 36.9994 36.9974 37.0225L36.9959 37.0521L36.9953 37.063L36.995 37.0675L36.9948 37.0694C36.9948 37.0694 36.9947 37.0713 35.9973 37C34.9998 36.9287 34.9997 36.9304 34.9997 36.9304L34.9996 36.9319L34.9992 36.9373C34.9994 36.9339 34.9997 36.9245 34.9999 36.9095C35.0003 36.8793 34.9999 36.8268 34.9959 36.7552C34.9879 36.6117 34.9652 36.3939 34.9047 36.1268C34.7843 35.594 34.5151 34.8686 33.9123 34.1346C32.7299 32.6948 30.0691 31 24 31C17.9309 31 15.2701 32.6948 14.0877 34.1346C13.4849 34.8686 13.2157 35.594 13.0953 36.1268C13.0349 36.3939 13.0121 36.6117 13.0041 36.7552C13.0001 36.8268 12.9997 36.8793 13.0001 36.9095C13.0003 36.9245 13.0006 36.9339 13.0008 36.9373L13.0004 36.9319L13.0003 36.9304Z" fill="black"/>
</g>
</svg>
