<svg width="48" height="48" viewBox="0 0 48 48" fill="none" xmlns="http://www.w3.org/2000/svg">
<mask id="mask0" mask-type="alpha" maskUnits="userSpaceOnUse" x="6" y="6" width="36" height="36">
<path d="M38 6H10C7.79086 6 6 7.79086 6 10V38C6 40.2091 7.79086 42 10 42H38C40.2091 42 42 40.2091 42 38V10C42 7.79086 40.2091 6 38 6Z" fill="white"/>
</mask>
<g mask="url(#mask0)">
<path d="M31 18C31 21.866 27.866 25 24 25C20.134 25 17 21.866 17 18C17 14.134 20.134 11 24 11C27.866 11 31 14.134 31 18Z" fill="#6A6A6A"/>
<path fill-rule="evenodd" clip-rule="evenodd" d="M24 12C20.6863 12 18 14.6863 18 18C18 21.3137 20.6863 24 24 24C27.3137 24 30 21.3137 30 18C30 14.6863 27.3137 12 24 12ZM16 18C16 13.5817 19.5817 10 24 10C28.4183 10 32 13.5817 32 18C32 22.4183 28.4183 26 24 26C19.5817 26 16 22.4183 16 18Z" fill="#6A6A6A"/>
<path d="M12.0027 37C12.0027 37 11.5027 30 24 30C36.4973 30 35.9973 37 35.9973 37H12.0027Z" fill="#6A6A6A"/>
<path fill-rule="evenodd" clip-rule="evenodd" d="M13.1259 36H34.8741C34.7407 35.4819 34.4685 34.8119 33.9123 34.1346C32.7299 32.6948 30.0691 31 24 31C17.9309 31 15.2701 32.6948 14.0877 34.1346C13.5315 34.8119 13.2593 35.4819 13.1259 36ZM35.9973 37C36.9947 37.0713 36.9948 37.0694 36.9948 37.0694L36.995 37.0675L36.9953 37.063L36.9959 37.0521L36.9974 37.0225C36.9984 36.9994 36.9993 36.9695 36.9998 36.9333C37.0006 36.8609 36.9995 36.763 36.9928 36.6432C36.9793 36.4039 36.9435 36.0748 36.8555 35.6857C36.6792 34.906 36.2923 33.8814 35.4579 32.8654C33.766 30.8052 30.4282 29 24 29C17.5718 29 14.234 30.8052 12.5421 32.8654C11.7077 33.8814 11.3208 34.906 11.1445 35.6857C11.0565 36.0748 11.0207 36.4039 11.0072 36.6432C11.0005 36.763 10.9994 36.8609 11.0003 36.9333C11.0007 36.9695 11.0016 36.9994 11.0026 37.0225L11.0041 37.0521L11.0047 37.063L11.005 37.0675L11.0052 37.0694C11.0052 37.0694 11.0053 37.0713 12.0027 37L11.0053 37.0713L11.0716 38H36.9284L36.9947 37.0713L35.9973 37Z" fill="#6A6A6A"/>
</g>
</svg>
