<?xml version="1.0" encoding="UTF-8"?>
<svg width="43px" height="50px" viewBox="0 0 43 50" version="1.1" xmlns="http://www.w3.org/2000/svg" xmlns:xlink="http://www.w3.org/1999/xlink">
    <!-- Generator: sketchtool 62 (101010) - https://sketch.com -->
    <title>608F7161-6854-42CC-B413-CE8AFA629D4B@0,5x</title>
    <desc>Created with sketchtool.</desc>
    <defs>
        <rect id="path-1" x="0" y="0" width="60" height="60" rx="7.5"></rect>
        <rect id="path-3" x="0" y="0" width="20" height="20" rx="2.1875"></rect>
    </defs>
    <g id="06.-CONTACTS" stroke="none" stroke-width="1" fill="none" fill-rule="evenodd">
        <g id="06.CONTACTS_imported-contacts-from-google_04" transform="translate(-621.000000, -190.000000)">
            <g id="MEDIUM-POPUP-ILLUSTRATION" transform="translate(580.000000, 151.000000)">
                <g id="MEDIUM-POPUP-ICON/PHONE">
                    <g transform="translate(20.000000, 20.000000)">
                        <g id="Group" transform="translate(10.000000, 10.000000)">
                            <mask id="mask-2" fill="white">
                                <use xlink:href="#path-1"></use>
                            </mask>
                            <g id="Rectangle"></g>
                            <g id="Group-17" mask="url(#mask-2)">
                                <g transform="translate(10.888889, 9.222222)">
                                    <g id="Group-15" stroke-width="1" fill="none">
                                        <path d="M15.2238562,0.0140370067 C21.3115773,0.0140370067 26.2466503,5.03696872 26.2466503,11.233069 C26.2466503,17.4291693 21.3115773,22.452101 15.2238562,22.452101 C9.13613512,22.452101 4.20106209,17.4291693 4.20106209,11.233069 C4.20106209,5.03696872 9.13613512,0.0140370067 15.2238562,0.0140370067 Z M15.2238562,1.97630116 C10.2009076,1.97630116 6.12900327,6.12069729 6.12900327,11.233069 C6.12900327,16.3454407 10.2009076,20.4898368 15.2238562,20.4898368 C20.2468048,20.4898368 24.3187092,16.3454407 24.3187092,11.233069 C24.3187092,6.12069729 20.2468048,1.97630116 15.2238562,1.97630116 Z" id="Oval" fill="#000000" fill-rule="nonzero"></path>
                                        <path d="M2.55117873,41.2495552 C4.04187931,28.7716136 8.28176635,22.7476985 15.2238562,22.7476985 C22.16031,22.7476985 26.3275375,28.7645453 27.677445,41.2385445 C27.7357318,41.7771515 28.2119726,42.1656867 28.7411585,42.1063623 C29.2703445,42.0470378 29.6520837,41.5623185 29.5937968,41.0237115 L29.4948879,40.162511 L29.3865344,39.3196342 C27.7280753,27.091946 23.0212124,20.7854343 15.2238562,20.7854343 C7.07771078,20.7854343 2.23119784,27.6712269 0.637333776,41.0127008 C0.573072259,41.5506032 0.949406794,42.0396809 1.47790049,42.1050865 C2.00639418,42.1704921 2.48691722,41.7874577 2.55117873,41.2495552 Z" id="Path-2" fill="#000000" fill-rule="nonzero"></path>
                                    </g>
                                    <circle id="Oval" fill="#F2F7FA" cx="30.7777778" cy="37.4444444" r="11.6666667"></circle>
                                </g>
                            </g>
                        </g>
                        <g id="NEW-ICON-WITH-GRID/GOOGLE/WHITE" transform="translate(38.333333, 43.333333)">
                            <g id="Group" transform="translate(3.333333, 3.333333)">
                                <mask id="mask-4" fill="white">
                                    <use xlink:href="#path-3"></use>
                                </mask>
                                <g id="Rectangle"></g>
                                <g id="google-icon" mask="url(#mask-4)" fill="#AEBEC9">
                                    <g transform="translate(3.333333, 3.333333)" id="Combined-Shape">
                                        <path d="M6.66578154,1.2221617e-13 C8.46551703,1.2221617e-13 9.96905796,0.659174567 11.1244261,1.7331032 L11.1244261,1.7331032 L9.24320005,3.56990768 C8.76176264,3.11808462 7.91744733,2.57741851 6.66578154,2.57741851 C4.90306399,2.57741851 3.4069777,3.74024125 2.86626053,5.34743241 C2.7329449,5.76218648 2.65150544,6.20655489 2.65150544,6.66578154 C2.65150544,7.12495713 2.7329449,7.56937661 2.87366412,7.98413068 C3.4069777,9.59132183 4.90306399,10.7540935 6.66578154,10.7540935 C7.65821966,10.7540935 8.41369192,10.4800587 8.97656879,10.0875154 L8.97656879,10.0875154 L9.15960046,9.94978259 C9.92082914,9.33473882 10.2705919,8.49569303 10.3393394,7.92485092 L10.3393394,7.92485092 L6.66578154,7.92485092 L6.66578154,5.45113369 L12.9242126,5.45113369 C13.0204592,5.86588776 13.0649318,6.26583465 13.0649318,6.81390435 C13.0649318,8.84325316 12.3390739,10.5541456 11.0800045,11.7169683 C9.97641049,12.7390208 8.46551703,13.3315631 6.66578154,13.3315631 C4.05869762,13.3315631 1.80713907,11.8354257 0.710999678,9.65795412 L0.710999678,9.65795412 L0.58131109,9.38359576 C0.209974416,8.55083648 6.61793724e-12,7.63231731 6.61793724e-12,6.66578154 C6.61793724e-12,5.59185291 0.259227674,4.57715297 0.710999678,3.67355791 L0.710999678,3.67355791 L0.828482202,3.45076625 C1.96284172,1.39468686 4.14859707,1.2221617e-13 6.66578154,1.2221617e-13 Z"></path>
                                    </g>
                                </g>
                            </g>
                        </g>
                    </g>
                </g>
            </g>
        </g>
    </g>
</svg>