<svg xmlns="http://www.w3.org/2000/svg" width="12" height="14" viewBox="0 0 12 14">
    <g fill="none" fill-rule="evenodd">
        <g fill="#6A6A6A">
            <g>
                <g>
                    <g>
                        <g>
                            <path d="M2.93 7c.79.542 1.804.858 2.875.858 1.127 0 2.142-.316 2.93-.813 1.748.768 2.932 2.213 2.932 3.974v1.49c0 .814-.846 1.491-1.917 1.491H1.916C.846 14 0 13.323 0 12.51v-1.49C0 9.302 1.184 7.812 2.93 7zm2.88-7c1.654 0 2.94 1.286 2.94 2.894 0 1.653-1.286 2.94-2.94 2.94-1.607 0-2.893-1.287-2.893-2.94C2.917 1.286 4.203 0 5.81 0z" transform="translate(-355 -229) translate(305 204) translate(40 16) translate(9 9) translate(1.167)"/>
                        </g>
                    </g>
                </g>
            </g>
        </g>
    </g>
</svg>
