<svg xmlns="http://www.w3.org/2000/svg" xmlns:xlink="http://www.w3.org/1999/xlink" width="32" height="32" viewBox="0 0 32 32">
    <defs>
        <rect id="g073vt3g7a" width="24" height="24" x="0" y="0" rx="4"/>
    </defs>
    <g fill="none" fill-rule="evenodd" transform="translate(4 4)">
        <mask id="bo7magg0mb" fill="#fff">
            <use xlink:href="#g073vt3g7a"/>
        </mask>
        <g stroke="#6A6A6A" stroke-width="1.3" mask="url(#bo7magg0mb)">
            <path d="M8.598 12.934c.879.566 2.009.896 3.202.896 1.255 0 2.385-.33 3.264-.848 1.946.801 3.265 2.31 3.265 4.15v1.556c0 .849-.942 1.556-2.135 1.556H7.468c-1.193 0-2.135-.707-2.135-1.556v-1.556c0-1.792 1.319-3.349 3.265-4.198zM11.854 4c2.121 0 3.772 1.547 3.772 3.481 0 1.99-1.65 3.537-3.772 3.537-2.063 0-3.714-1.548-3.714-3.537C8.14 5.547 9.79 4 11.854 4z"/>
        </g>
    </g>
</svg>
