<svg xmlns="http://www.w3.org/2000/svg" xmlns:xlink="http://www.w3.org/1999/xlink" width="28" height="28" viewBox="0 0 28 28">
    <defs>
        <rect id="hoaanl7yxa" width="21" height="21" x="0" y="0" rx="2.333"/>
    </defs>
    <g fill="none" fill-rule="evenodd" transform="translate(3.5 3.5)">
        <mask id="l81xfexzrb" fill="#fff">
            <use xlink:href="#hoaanl7yxa"/>
        </mask>
        <g fill="#6A6A6A" mask="url(#l81xfexzrb)">
            <path d="M12.183 3.538c.816 0 1.484.676 1.484 1.503v.545h3.21c.315 0 .556.245.556.564v.038c-.018.3-.26.545-.556.526h-.984l-.593 9.248c-.037.79-.687 1.429-1.485 1.41h-6.53c-.798.019-1.447-.62-1.484-1.41l-.594-9.248h-1.02c-.297-.019-.539-.263-.52-.564 0-.32.241-.564.557-.564h3.21v-.545c0-.827.667-1.503 1.483-1.503zm2.579 3.176H6.339l.575 9.173v.019c.018.207.185.357.37.338h6.55c.204 0 .352-.169.352-.357l.576-9.173zM9.029 8.368c.297.02.538.264.556.564v5.094c-.018.301-.26.545-.556.564-.316 0-.557-.244-.557-.564V8.932c0-.32.241-.564.557-.564zm3.042 0c.316 0 .557.245.557.564v5.094c0 .32-.241.564-.557.564-.296-.019-.538-.263-.556-.564V8.932c.018-.3.26-.545.556-.564zm.112-3.703H8.917c-.204 0-.37.17-.37.376v.545h4.007v-.545c0-.206-.167-.376-.371-.376z"/>
        </g>
    </g>
</svg>
