<svg xmlns="http://www.w3.org/2000/svg" xmlns:xlink="http://www.w3.org/1999/xlink" width="32" height="32" viewBox="0 0 32 32">
    <defs>
        <rect id="0i8nylkv8a" width="24" height="24" x="0" y="0" rx="4"/>
    </defs>
    <g fill="none" fill-rule="evenodd" transform="translate(4 4)">
        <mask id="0mpahbveob" fill="#fff">
            <use xlink:href="#0i8nylkv8a"/>
        </mask>
        <g fill="#000" mask="url(#0mpahbveob)">
            <path d="M12 16.522c.964 0 1.746.778 1.746 1.739 0 .96-.782 1.739-1.746 1.739s-1.746-.779-1.746-1.74c0-.96.782-1.738 1.746-1.738zm-5.587-4.174c.964 0 1.746.778 1.746 1.739 0 .96-.782 1.74-1.746 1.74-.965 0-1.746-.78-1.746-1.74s.781-1.74 1.746-1.74zm5.587 0c.964 0 1.746.778 1.746 1.739 0 .96-.782 1.74-1.746 1.74s-1.746-.78-1.746-1.74.782-1.74 1.746-1.74zm5.587 0c.965 0 1.746.778 1.746 1.739 0 .96-.781 1.74-1.746 1.74-.964 0-1.746-.78-1.746-1.74s.782-1.74 1.746-1.74zM6.413 8.174c.964 0 1.746.779 1.746 1.739 0 .96-.782 1.74-1.746 1.74-.965 0-1.746-.78-1.746-1.74s.781-1.74 1.746-1.74zm5.587 0c.964 0 1.746.779 1.746 1.739 0 .96-.782 1.74-1.746 1.74s-1.746-.78-1.746-1.74.782-1.74 1.746-1.74zm5.587 0c.965 0 1.746.779 1.746 1.739 0 .96-.781 1.74-1.746 1.74-.964 0-1.746-.78-1.746-1.74s.782-1.74 1.746-1.74zM6.413 4c.964 0 1.746.779 1.746 1.74 0 .96-.782 1.738-1.746 1.738-.965 0-1.746-.778-1.746-1.739C4.667 4.78 5.448 4 6.413 4zM12 4c.964 0 1.746.779 1.746 1.74 0 .96-.782 1.738-1.746 1.738S10.254 6.7 10.254 5.74C10.254 4.78 11.036 4 12 4zm5.587 0c.965 0 1.746.779 1.746 1.74 0 .96-.781 1.738-1.746 1.738-.964 0-1.746-.778-1.746-1.739 0-.96.782-1.739 1.746-1.739z"/>
        </g>
    </g>
</svg>
