<svg xmlns="http://www.w3.org/2000/svg" xmlns:xlink="http://www.w3.org/1999/xlink" width="28" height="28" viewBox="0 0 28 28">
    <defs>
        <rect id="w1xdbzrwwa" width="21" height="21" x="0" y="0" rx="2.333"/>
    </defs>
    <g fill="none" fill-rule="evenodd" transform="translate(3.5 3.5)">
        <mask id="6vs6fl0rbb" fill="#fff">
            <use xlink:href="#w1xdbzrwwa"/>
        </mask>
        <g mask="url(#6vs6fl0rbb)">
            <g>
                <path fill="#fff" d="M1.012 10.676l.02.134-.008-.07.017.084c.011.05.025.098.04.147l.025.069.047.097.084.139.027.04c.034.04.068.078.105.116.04.039.08.076.123.111l-.02-.017.024.017.037.026c.086.057.177.107.273.149l-.05-.024.07.026c.049.016.098.03.147.04l.09.018.043.004.12.004h9.238c.149 0 .296.003.442-.016l-.066.005.08-.014c.05-.012.098-.025.146-.04l.073-.028.094-.045.138-.084.064-.044-.024.017c.039-.034.078-.068.115-.105.039-.04.076-.082.111-.124l-.015.016.015-.02.026-.037c.057-.086.106-.177.148-.274l-.024.048.026-.069c.016-.048.03-.097.04-.146l.016-.086.006-.067.003-.138V8.431c0-.285.232-.495.507-.51.273-.012.506.242.506.508v2.12c-.001.578-.212 1.128-.604 1.552-.413.445-1.013.696-1.617.7H2.704c-.417 0-.84.02-1.237-.135C.824 12.416.33 11.92.11 11.257 0 10.93.003 10.59.003 10.25V8.429c0-.285.232-.496.507-.508.273-.012.506.242.506.508v1.516c0 .284-.022.582.015.865l-.007-.072-.012-.062zM6.947.016c.274.011.507.223.507.507v7.109l.111-.112 1.556-1.562.358-.359c.188-.188.532-.202.716 0 .185.203.2.518 0 .718l-.976.979-1.556 1.561-.358.36-.017.015-.018.015.016-.015-.03.026-.02.018c-.063.046-.134.077-.21.087l-.079.004c-.034-.001-.068-.006-.1-.012-.069-.013-.134-.039-.19-.08l-.067-.058-.488-.49-.488-.49-1.556-1.56-.358-.36c-.188-.188-.201-.533 0-.718.202-.186.516-.202.716 0l.975.979 1.05 1.053V1.55l-.003-.506.003-.505V.523l.008-.088c.044-.23.255-.43.498-.42z" transform="translate(3.5 4.083)"/>
            </g>
        </g>
    </g>
</svg>
