<svg xmlns="http://www.w3.org/2000/svg" width="14" height="14" viewBox="0 0 14 14">
    <g fill-rule="evenodd">
        <path d="M12.878 6.22v4.232c0 .263.011.532-.023.794l.018-.132c-.03.212-.087.418-.17.617l.05-.118c-.063.146-.137.286-.226.418-.02.03-.041.06-.063.088-.023.03-.079.09.025-.032l-.034.041c-.05.061-.104.119-.159.175-.052.053-.108.104-.166.152-.005.005-.044.04-.05.04.007 0 .111-.082.04-.03-.031.023-.064.046-.097.067-.132.089-.272.163-.418.226l.118-.05c-.197.083-.405.139-.617.17l.131-.018c-.34.046-.696.023-1.04.023H3.857c-.295 0-.59.002-.883 0-.115 0-.229-.008-.342-.023l.131.018c-.212-.03-.418-.087-.617-.17l.118.05c-.146-.063-.286-.137-.418-.226-.03-.02-.06-.041-.087-.063-.03-.023-.091-.079.03.025l-.04-.034c-.061-.05-.119-.104-.175-.159-.053-.052-.104-.108-.151-.166-.005-.005-.042-.044-.042-.05 0 .007.083.111.032.04-.023-.031-.046-.064-.068-.097-.089-.132-.163-.272-.226-.418l.05.118c-.082-.198-.138-.405-.17-.618l.018.132c-.046-.34-.023-.697-.023-1.04V8.267 5.889 3.86v-.883c0-.115.009-.229.023-.342l-.018.131c.03-.212.088-.418.17-.617l-.05.118c.063-.146.137-.286.226-.418.02-.03.041-.06.063-.087.023-.03.079-.091-.025.03.012-.012.023-.027.035-.04.049-.061.103-.119.158-.175.052-.053.108-.104.166-.152.005-.004.045-.04.05-.04-.007 0-.11.082-.04.03.031-.022.064-.046.097-.067.132-.089.272-.163.419-.226l-.119.05c.198-.083.405-.139.618-.17l-.132.018c.229-.031.461-.023.692-.023H7.66c.258 0 .505-.227.494-.494C8.142.236 7.936.01 7.66.01H4.288c-.435 0-.87-.002-1.305 0C1.89.013.837.63.338 1.614.12 2.043.005 2.51.005 2.991V10.896c.002.506.128 1.005.374 1.448.517.94 1.537 1.524 2.606 1.527.303.002.604 0 .907 0H10.89c1.074-.003 2.102-.596 2.614-1.547.237-.441.362-.934.362-1.434v-.442-2.013-1.909-.31c0-.258-.227-.505-.494-.494-.268.015-.494.221-.494.498z"/>
        <path d="M12.866 2.089l-.576.576-1.377 1.377-1.67 1.67-1.439 1.439c-.232.232-.472.46-.7.7l-.01.01c.118-.048.233-.098.35-.145l-1.628.098-.232.015.494.494.073-1.657.01-.234c-.048.117-.098.233-.145.35l.586-.587 1.403-1.403L9.687 3.11l1.435-1.435c.22-.219.436-.443.659-.659l.003-.003c.04-.038.074-.04-.028.017.035-.019.064-.04.1-.055l-.118.05c.043-.017.084-.028.129-.035l-.132.018c.044-.005.087-.006.132-.002l-.132-.018c.052.007.1.02.148.042l-.119-.05.07.038c.049.028-.088-.077-.047-.036.009.008.017.016.027.023l.01.01.064.064.265.265.615.615.084.084.016.016c.015.015.061.072.007.003-.056-.072.006.022.018.046l-.05-.118c.02.048.033.097.042.148l-.019-.132c.005.045.004.088-.001.132l.018-.132c-.007.045-.018.088-.035.129l.05-.119c-.013.028-.028.055-.043.08-.028.042-.017.027.036-.042-.003.012-.013.023-.025.035-.18.186-.199.515 0 .698.195.178.508.2.699 0 .25-.262.357-.626.268-.978-.046-.186-.155-.346-.288-.48l-.516-.515-.49-.491c-.145-.143-.331-.26-.536-.29-.34-.051-.662.036-.914.28-.123.119-.244.244-.364.364l-.9.9-1.208 1.208-1.279 1.279L6.212 5.19l-.733.733-.15.15c-.1.104-.145.226-.155.368-.005.062-.005.125-.008.187L5.096 8.2l-.004.123c-.012.256.235.511.494.495l1.011-.063.644-.04c.2-.011.395-.008.555-.158.305-.288.595-.594.891-.89l1.9-1.9 1.942-1.942c.34-.341.685-.676 1.021-1.021l.015-.015c.183-.183.196-.52 0-.699-.196-.183-.503-.197-.699-.001z"/>
    </g>
</svg>
