<svg width="48" height="48" viewBox="0 0 48 48" fill="none" xmlns="http://www.w3.org/2000/svg">
<mask id="mask0" mask-type="alpha" maskUnits="userSpaceOnUse" x="6" y="6" width="36" height="36">
<path d="M38 6H10C7.79086 6 6 7.79086 6 10V38C6 40.2091 7.79086 42 10 42H38C40.2091 42 42 40.2091 42 38V10C42 7.79086 40.2091 6 38 6Z" fill="white"/>
</mask>
<g mask="url(#mask0)">
<path fill-rule="evenodd" clip-rule="evenodd" d="M14.7143 12.8571C13.6886 12.8571 12.8571 13.6886 12.8571 14.7143V33.2857C12.8571 34.3114 13.6886 35.1429 14.7143 35.1429H33.2857C34.3114 35.1429 35.1429 34.3114 35.1429 33.2857V24C35.1429 23.4872 35.5586 23.0714 36.0714 23.0714C36.5843 23.0714 37 23.4872 37 24V33.2857C37 35.3371 35.3371 37 33.2857 37H14.7143C12.6629 37 11 35.3371 11 33.2857V14.7143C11 12.6629 12.6629 11 14.7143 11H24C24.5128 11 24.9286 11.4157 24.9286 11.9286C24.9286 12.4414 24.5128 12.8571 24 12.8571H14.7143Z" fill="black"/>
<path fill-rule="evenodd" clip-rule="evenodd" d="M33.0867 12.904L31.4398 14.5508L33.4492 16.5602L35.096 14.9133L33.0867 12.904ZM32.136 17.8734L30.1266 15.864L20.2857 25.7049V27.7143H22.2951L32.136 17.8734ZM31.8534 11.5108C32.5345 10.8297 33.6388 10.8297 34.3199 11.5108L36.4892 13.6801C37.1703 14.3612 37.1703 15.4655 36.4892 16.1466L23.3363 29.2995C23.1621 29.4736 22.926 29.5714 22.6797 29.5714H18.4286V25.3203C18.4286 25.074 18.5264 24.8379 18.7005 24.6637L31.8534 11.5108Z" fill="black"/>
</g>
</svg>
