<?xml version="1.0" encoding="UTF-8"?>
<svg width="29px" height="29px" viewBox="0 0 29 29" version="1.1" xmlns="http://www.w3.org/2000/svg" xmlns:xlink="http://www.w3.org/1999/xlink">
    <!-- Generator: sketchtool 62 (101010) - https://sketch.com -->
    <title>50BC3AC9-9611-4C49-B7F7-71EF88E96008@0,5x</title>
    <desc>Created with sketchtool.</desc>
    <defs>
        <rect id="path-1" x="0" y="0" width="36" height="36" rx="4"></rect>
    </defs>
    <g id="18.-RECOVERY-MODE" stroke="none" stroke-width="1" fill="none" fill-rule="evenodd">
        <g id="18.Recovery-Mode" transform="translate(-685.000000, -442.000000)">
            <g id="recovery-mode-component-copy-3" transform="translate(660.000000, 417.000000)">
                <g id="recovery-mode-component">
                    <g id="NEW-ICON-WITH-GRID/Backup/BLACK" transform="translate(16.000000, 16.000000)">
                        <g id="Group" transform="translate(6.000000, 6.000000)">
                            <mask id="mask-2" fill="white">
                                <use xlink:href="#path-1"></use>
                            </mask>
                            <g id="Rectangle"></g>
                            <g id="Path-2" mask="url(#mask-2)" fill="#000000" stroke="#000000" stroke-width="0.3">
                                <g transform="translate(4.000000, 4.000000)" id="Path">
                                    <path d="M26.2062013,17.9739614 L26.2072783,17.970946 C26.2571398,17.8324537 26.362786,17.7160383 26.504186,17.650346 C26.645909,17.584546 26.8094937,17.5762537 26.9578937,17.6277306 L26.9617706,17.6289153 C27.2648167,17.729823 27.4176321,18.039223 27.3280321,18.319223 C25.2045552,24.0345614 19.4492629,27.7099922 13.1952475,27.3264999 C6.93943366,26.9428999 1.70504904,22.5913768 0.34010827,16.6603306 C-1.02447819,10.7307922 1.80243519,4.63182141 7.28987519,1.69680757 C12.7781552,-1.23866828 19.6010013,-0.298503985 24.0323244,3.99908603 L24.7141244,4.6985368 L24.7141244,2.02048757 C24.7155244,1.72208295 24.9674167,1.46538757 25.2969552,1.46506449 C25.454509,1.46582911 25.6034475,1.52735372 25.7115706,1.63333372 C25.819586,1.73915218 25.8781706,1.8803368 25.8775244,2.02532295 L25.8557706,6.40538449 C25.854586,6.70334757 25.6035552,6.95998911 25.2744475,6.96127065 L20.684386,6.98241065 C20.3536629,6.9820768 20.1014475,6.72374449 20.1014475,6.42433834 C20.1014475,6.12473834 20.353986,5.86626603 20.6850321,5.86626603 L24.1708167,5.86626603 L23.6711244,5.32421834 C23.5140013,5.15373065 23.3533244,4.9828768 23.1800475,4.81448911 C19.112509,0.862784492 12.8523552,-0.000823815824 7.81633981,2.69073218 C2.77819212,5.38343834 0.168849501,10.9922691 1.42605058,16.4567922 C2.68290596,21.9199153 7.49817366,25.9102383 13.2317552,26.2607768 C18.9650783,26.6113153 24.2553552,23.2394691 26.2062013,17.9739614 Z"></path>
                                </g>
                            </g>
                            <g id="Group-3-Copy-11" mask="url(#mask-2)" stroke="#000000">
                                <g transform="translate(12.000000, 12.000000)">
                                    <path d="M11.3360854,7.19575351 C11.2034188,7.72151593 10.9936058,8.21696137 10.7193368,8.66963001 L9.22114415,9.05792599 L8.82856052,10.5437749 C8.37052209,10.8164718 7.86913542,11.0249199 7.33707598,11.1565338 L5.99986413,10.3812159 L4.66374852,11.1567376 C4.13105673,11.0250547 3.62910043,10.8163574 3.17059807,10.5432738 L2.77908172,9.0581497 L1.28015391,8.66878936 C1.00627732,8.2165838 0.796717603,7.7217066 0.664121962,7.196575 L1.44724318,5.86958701 L0.664121962,4.54259902 C0.796717603,4.01746742 1.00627732,3.52259022 1.28015391,3.07038466 L2.77908172,2.68102432 L3.17059807,1.19590017 C3.62910043,0.922816638 4.13105673,0.714119357 4.66374852,0.582436387 L5.99986413,1.35795816 L7.33707598,0.582640265 C7.86913542,0.714254107 8.37052209,0.922702197 8.82856052,1.19539913 L9.22114415,2.68124802 L10.7193368,3.069544 C10.9936058,3.52221265 11.2034188,4.01765809 11.3360854,4.54342051 L10.5525927,5.86958701 L11.3360854,7.19575351 Z" id="Combined-Shape"></path>
                                    <ellipse id="Oval" cx="6" cy="5.87091854" rx="2.23913043" ry="2.24048376"></ellipse>
                                </g>
                            </g>
                        </g>
                    </g>
                </g>
            </g>
        </g>
    </g>
</svg>