<svg width="48" height="48" viewBox="0 0 48 48" fill="none" xmlns="http://www.w3.org/2000/svg">
<mask id="mask0" mask-type="alpha" maskUnits="userSpaceOnUse" x="5" y="5" width="38" height="38">
<path d="M38 6H10C7.79086 6 6 7.79086 6 10V38C6 40.2091 7.79086 42 10 42H38C40.2091 42 42 40.2091 42 38V10C42 7.79086 40.2091 6 38 6Z" fill="white" stroke="black" stroke-width="2"/>
</mask>
<g mask="url(#mask0)">
<path fill-rule="evenodd" clip-rule="evenodd" d="M9 24C9 15.7157 15.7157 9 24 9C32.2843 9 39 15.7157 39 24C39 32.2843 32.2843 39 24 39C15.7157 39 9 32.2843 9 24ZM24 11C16.8203 11 11 16.8203 11 24C11 31.1797 16.8203 37 24 37C31.1797 37 37 31.1797 37 24C37 16.8203 31.1797 11 24 11Z" fill="#e96a6a"/>
<path fill-rule="evenodd" clip-rule="evenodd" d="M29.6569 18.3431C30.0474 18.7337 30.0474 19.3668 29.6569 19.7574L19.7574 29.6569C19.3669 30.0474 18.7337 30.0474 18.3432 29.6569C17.9527 29.2663 17.9527 28.6332 18.3432 28.2426L28.2427 18.3431C28.6332 17.9526 29.2664 17.9526 29.6569 18.3431Z" fill="#e96a6a"/>
<path fill-rule="evenodd" clip-rule="evenodd" d="M18.3432 18.3431C18.7337 17.9526 19.3669 17.9526 19.7574 18.3431L29.6569 28.2426C30.0474 28.6332 30.0474 29.2663 29.6569 29.6569C29.2664 30.0474 28.6332 30.0474 28.2427 29.6569L18.3432 19.7574C17.9527 19.3668 17.9527 18.7337 18.3432 18.3431Z" fill="#e96a6a"/>
</g>
</svg>
