<svg xmlns="http://www.w3.org/2000/svg" viewBox="0 0 40 40">
    <g fill="#000" fill-rule="nonzero">
        <path
            d="M19.95 0a19.94 19.94 0 100 39.9 19.94 19.94 0 100-39.9zm12.93 32.88A18.28 18.28 0 117.02 7.02a18.27 18.27 0 1125.86 25.86z"/>
        <path
            d="M27.59 12.3a.83.83 0 00-1.18 0l-6.46 6.47-6.47-6.46a.83.83 0 10-1.17 1.17l6.46 6.47-6.46 6.46a.83.83 0 101.17 1.18l6.47-6.47 6.46 6.47a.83.83 0 001.18-1.18l-6.47-6.46 6.47-6.47a.83.83 0 000-1.17z"/>
    </g>
</svg>
