<svg width="28" height="24" viewBox="0 0 28 24" fill="none" xmlns="http://www.w3.org/2000/svg">
<path fill-rule="evenodd" clip-rule="evenodd" d="M8.47879 0C8.19724 0 7.91635 0.0135222 7.63719 0.0413231C5.6869 0.233776 3.87863 1.09468 2.48073 2.5063C0.881599 4.11986 0 6.26907 0 8.54726C0 10.8256 0.88144 12.9746 2.48073 14.5882C2.50954 14.6173 2.54252 14.6489 2.57986 14.6816L2.58297 14.6844L12.7715 23.5396C13.1244 23.8463 13.5641 24 14.0022 24C14.4404 24 14.8802 23.8463 15.233 23.5396L25.4182 14.6872C25.4594 14.6519 25.4958 14.617 25.528 14.5839C28.8254 11.2507 28.8241 5.83757 25.5234 2.50641C23.9242 0.89243 21.7905 0 19.5248 0C17.4772 0 15.5374 0.72912 14.0018 2.06128C12.4665 0.729217 10.5265 0 8.47879 0ZM2.48073 11.0329C2.67915 11.5219 2.937 11.9861 3.25055 12.4165C3.44598 12.6848 3.66306 12.94 3.90087 13.18L14.0022 21.9595L24.1027 13.1808L24.1036 13.18C26.6324 10.6265 26.6322 6.46688 24.1027 3.91412C22.8773 2.67738 21.2543 2 19.5248 2C17.7958 2 16.1729 2.67727 14.9464 3.91457C14.8767 3.98498 14.8101 4.05529 14.746 4.12665L14.0059 4.95132L13.2612 4.13071C13.1936 4.05614 13.125 3.98342 13.0559 3.91329C11.83 2.677 10.2074 2 8.47879 2C8.26111 2 8.04629 2.01046 7.83501 2.03152L7.83399 2.03162C7.50729 2.06384 7.1858 2.12061 6.8716 2.20114C5.759 2.48628 4.73792 3.0692 3.90156 3.91387C3.28194 4.53901 2.80298 5.26766 2.48073 6.06188C2.16527 6.83939 2 7.67972 2 8.54726C2 9.41497 2.16524 10.2554 2.48073 11.0329Z" fill="black"/>
<path d="M8.47879 2C10.2074 2 11.83 2.677 13.0559 3.91329C13.125 3.98342 13.1936 4.05614 13.2612 4.13071L14.0059 4.95132L14.746 4.12665C14.8101 4.05529 14.8767 3.98498 14.9464 3.91457C16.1729 2.67727 17.7958 2 19.5248 2C21.2543 2 22.8773 2.67738 24.1027 3.91412C26.6322 6.46688 26.6324 10.6265 24.1036 13.18L24.1027 13.1808L14.0022 21.9595L3.90087 13.18C3.66306 12.94 3.44598 12.6848 3.25055 12.4165C2.937 11.9861 2.67915 11.5219 2.48073 11.0329C2.16524 10.2554 2 9.41497 2 8.54726C2 7.67972 2.16527 6.83939 2.48073 6.06188C2.80298 5.26766 3.28194 4.53901 3.90156 3.91387C4.73792 3.0692 5.759 2.48628 6.8716 2.20114C7.1858 2.12061 7.50729 2.06384 7.83399 2.03162L7.83501 2.03152C8.04629 2.01046 8.26111 2 8.47879 2Z" fill="black"/>
</svg>
