<svg width="48" height="48" viewBox="0 0 48 48" fill="none" xmlns="http://www.w3.org/2000/svg">
<mask id="mask0" mask-type="alpha" maskUnits="userSpaceOnUse" x="6" y="6" width="36" height="36">
<path d="M38 6H10C7.79086 6 6 7.79086 6 10V38C6 40.2091 7.79086 42 10 42H38C40.2091 42 42 40.2091 42 38V10C42 7.79086 40.2091 6 38 6Z" fill="white"/>
</mask>
<g mask="url(#mask0)">
<path d="M12.4004 34.5798L11.6764 35.2696H11.6764L12.4004 34.5798ZM12.4004 13.4202L13.1244 14.1101H13.1244L12.4004 13.4202ZM20.2619 13.2328L19.6973 14.0581L20.2619 13.2328ZM20.7661 13.8556L21.688 13.468L21.688 13.468L20.7661 13.8556ZM21.6307 15.9119L20.7089 16.2995V16.2995L21.6307 15.9119ZM35.5996 18.0115L36.3236 17.3217L35.5996 18.0115ZM35.5996 34.5798L36.3236 35.2696L35.5996 34.5798ZM26 12C25.4477 12 25 12.4477 25 13C25 13.5523 25.4477 14 26 14V12ZM35.9773 14C36.5296 14 36.9773 13.5523 36.9773 13C36.9773 12.4477 36.5296 12 35.9773 12V14ZM34.6329 34H13.3671V36H34.6329V34ZM13.3671 34C13.2817 34 13.1963 33.9654 13.1244 33.8899L11.6764 35.2696C12.0994 35.7134 12.6974 36 13.3671 36V34ZM13.1244 33.8899C13.0517 33.8137 13 33.701 13 33.5652H11C11 34.2218 11.2543 34.8266 11.6764 35.2696L13.1244 33.8899ZM13 33.5652V14.4348H11V33.5652H13ZM13 14.4348C13 14.299 13.0517 14.1863 13.1244 14.1101L11.6764 12.7304C11.2543 13.1734 11 13.7782 11 14.4348H13ZM13.1244 14.1101C13.1963 14.0346 13.2817 14 13.3671 14V12C12.6974 12 12.0994 12.2866 11.6764 12.7304L13.1244 14.1101ZM13.3671 14H19.5154V12H13.3671V14ZM19.5154 14C19.5772 14 19.6397 14.0187 19.6973 14.0581L20.8265 12.4074C20.4488 12.1491 19.9952 12 19.5154 12V14ZM19.6973 14.0581C19.7553 14.0978 19.809 14.1593 19.8443 14.2431L21.688 13.468C21.5046 13.0318 21.2038 12.6655 20.8265 12.4074L19.6973 14.0581ZM19.8443 14.2431L20.7089 16.2995L22.5525 15.5243L21.688 13.468L19.8443 14.2431ZM20.7089 16.2995C20.9975 16.986 21.4691 17.5583 22.056 17.9598L23.1852 16.309C22.9176 16.126 22.6931 15.8585 22.5525 15.5243L20.7089 16.2995ZM22.056 17.9598C22.6432 18.3615 23.3453 18.5913 24.0859 18.5913V16.5913C23.7633 16.5913 23.4524 16.4918 23.1852 16.309L22.056 17.9598ZM24.0859 18.5913H34.6329V16.5913H24.0859V18.5913ZM34.6329 18.5913C34.7183 18.5913 34.8037 18.6259 34.8756 18.7014L36.3236 17.3217C35.9006 16.8779 35.3026 16.5913 34.6329 16.5913V18.5913ZM34.8756 18.7014C34.9483 18.7776 35 18.8903 35 19.0261H37C37 18.3695 36.7457 17.7647 36.3236 17.3217L34.8756 18.7014ZM35 19.0261V33.5652H37V19.0261H35ZM35 33.5652C35 33.701 34.9483 33.8137 34.8756 33.8899L36.3236 35.2696C36.7457 34.8266 37 34.2218 37 33.5652H35ZM34.8756 33.8899C34.8037 33.9654 34.7183 34 34.6329 34V36C35.3026 36 35.9006 35.7134 36.3236 35.2696L34.8756 33.8899ZM26 14H35.9773V12H26V14Z" fill="#6A6A6A"/>
</g>
</svg>
