<svg width="48" height="48" viewBox="0 0 48 48" fill="none" xmlns="http://www.w3.org/2000/svg">
<path d="M39 21C39 20.4477 39.4477 20 40 20C40.5523 20 41 20.4477 41 21V27C41 27.5523 40.5523 28 40 28C39.4477 28 39 27.5523 39 27V21Z" fill="#6A6A6A"/>
<path fill-rule="evenodd" clip-rule="evenodd" d="M6 17C6 14.2386 8.23858 12 11 12H33C35.7614 12 38 14.2386 38 17V31C38 33.7614 35.7614 36 33 36H11C8.23858 36 6 33.7614 6 31V17ZM11 14C9.34315 14 8 15.3431 8 17V31C8 32.6569 9.34315 34 11 34H33C34.6569 34 36 32.6569 36 31V17C36 15.3431 34.6569 14 33 14H11Z" fill="#6A6A6A"/>
<path fill-rule="evenodd" clip-rule="evenodd" d="M12 16C10.8954 16 10 16.8954 10 18V30C10 31.1046 10.8954 32 12 32H32C33.1046 32 34 31.1046 34 30V18C34 16.8954 33.1046 16 32 16H12ZM14.1667 23.7055L23.0374 28.3741C23.1374 28.4086 23.2708 28.4086 23.3375 28.3741C23.4376 28.3049 23.5043 28.1666 23.5043 28.0628V23.8092L29.5737 25.2617C29.7404 25.2962 29.9071 25.2271 29.9738 25.0542C30.0405 24.9158 29.9738 24.7429 29.8404 24.6392L21.5701 19.4519C21.47 19.3827 21.3366 19.3827 21.2366 19.4519C21.1365 19.521 21.0698 19.6248 21.0698 19.7631L21.0031 24.1896L14.3668 23.0484C14.2001 23.0138 14.0667 23.1176 14 23.2905V23.3942C14 23.5326 14.0667 23.6363 14.1667 23.7055Z" fill="#6A6A6A"/>
</svg>
