<svg width="48" height="48" viewBox="0 0 48 48" fill="none" xmlns="http://www.w3.org/2000/svg">
<path d="M39 21C39 20.4477 39.4477 20 40 20C40.5523 20 41 20.4477 41 21V27C41 27.5523 40.5523 28 40 28C39.4477 28 39 27.5523 39 27V21Z" fill="black"/>
<path fill-rule="evenodd" clip-rule="evenodd" d="M6 17C6 14.2386 8.23858 12 11 12H33C35.7614 12 38 14.2386 38 17V31C38 33.7614 35.7614 36 33 36H11C8.23858 36 6 33.7614 6 31V17ZM11 14C9.34315 14 8 15.3431 8 17V31C8 32.6569 9.34315 34 11 34H33C34.6569 34 36 32.6569 36 31V17C36 15.3431 34.6569 14 33 14H11Z" fill="black"/>
<path d="M10 18C10 16.8954 10.8954 16 12 16H14V32H12C10.8954 32 10 31.1046 10 30V18Z" fill="black"/>
<path d="M15 16H19V32H15V16Z" fill="black"/>
<path d="M25 16H28C28.5523 16 29 16.4477 29 17V31C29 31.5523 28.5523 32 28 32H25V16Z" fill="black"/>
<path d="M20 16H24V32H20V16Z" fill="black"/>
</svg>
