<svg xmlns="http://www.w3.org/2000/svg" xmlns:xlink="http://www.w3.org/1999/xlink" width="28" height="28" viewBox="0 0 28 28">
    <defs>
        <rect id="gn2cngq29a" width="21" height="21" x="0" y="0" rx="2.333"/>
    </defs>
    <g fill="none" fill-rule="evenodd" transform="translate(3.5 3.5)">
        <mask id="reypuof7ob" fill="#fff">
            <use xlink:href="#gn2cngq29a"/>
        </mask>
        <g fill="#6D9BBC" fill-rule="nonzero" stroke="#6D9BBC" stroke-width=".583" mask="url(#reypuof7ob)">
            <g>
                <path d="M1.436 13.466l.875-.876c.432-.43.863-.862 1.294-1.293l1.579-1.58 1.724-1.723L8.652 6.25l1.621-1.62 1.376-1.376.988-.988c.156-.156.312-.31.467-.467l.02-.02c.24-.24.258-.683 0-.92-.261-.24-.665-.258-.922 0l-.322.321-.876.876L9.71 3.349 8.132 4.928 6.408 6.65 4.663 8.396l-1.621 1.621-1.375 1.376c-.33.328-.66.659-.988.988-.157.156-.313.31-.467.467l-.02.02c-.24.24-.259.683 0 .92.26.238.664.258.921 0l.323-.322z" transform="rotate(180 8.75 8.75)"/>
                <path d="M5.233 1.772h7.564l-.652-.651v6.434c0 .371-.005.742 0 1.113v.016c0 .34.3.668.651.651.353-.016.651-.286.651-.65v-.922V5.74 3.694v-.963V1.18 1.12c0-.352-.298-.651-.65-.651H6.363c-.371 0-.742-.005-1.113 0h-.017c-.34 0-.667.3-.65.651.014.352.284.651.649.651h0z" transform="rotate(180 8.75 8.75)"/>
            </g>
        </g>
    </g>
</svg>
