<svg width="48" height="48" viewBox="0 0 48 48" fill="none" xmlns="http://www.w3.org/2000/svg">
<mask id="mask0" mask-type="alpha" maskUnits="userSpaceOnUse" x="5" y="5" width="38" height="38">
<path d="M38 6H10C7.79086 6 6 7.79086 6 10V38C6 40.2091 7.79086 42 10 42H38C40.2091 42 42 40.2091 42 38V10C42 7.79086 40.2091 6 38 6Z" fill="white" stroke="black" stroke-width="2"/>
</mask>
<g mask="url(#mask0)">
<path fill-rule="evenodd" clip-rule="evenodd" d="M33.6966 13.8977C34.1306 14.3316 34.1414 15.0243 33.7208 15.4449L17.2428 31.923L27.2396 32.2378C27.8438 32.2568 28.3336 32.7618 28.3334 33.3658C28.3333 33.9698 27.8433 34.444 27.239 34.425L14.6589 34.0288C14.3686 34.0197 14.0902 33.8956 13.8851 33.684C13.6799 33.4723 13.5648 33.1903 13.565 32.9002L13.5744 20.7256C13.5748 20.1216 14.0651 19.6477 14.6693 19.667C15.2736 19.6863 15.7631 20.1916 15.7627 20.7956L15.7554 30.2676L32.1495 13.8736C32.57 13.453 33.2627 13.4638 33.6966 13.8977Z" fill="#40749A"/>
</g>
</svg>
