<svg width="48" height="48" viewBox="0 0 48 48" fill="none" xmlns="http://www.w3.org/2000/svg">
<mask id="mask0" mask-type="alpha" maskUnits="userSpaceOnUse" x="6" y="6" width="36" height="36">
<path d="M38 6H10C7.79086 6 6 7.79086 6 10V38C6 40.2091 7.79086 42 10 42H38C40.2091 42 42 40.2091 42 38V10C42 7.79086 40.2091 6 38 6Z" fill="white"/>
</mask>
<g mask="url(#mask0)">
<path fill-rule="evenodd" clip-rule="evenodd" d="M21.1426 10C15.541 10 11 14.5197 11 20.0951C11 25.6705 15.541 30.1902 21.1426 30.1902C23.2729 30.1902 25.2499 29.5365 26.882 28.4196C26.9361 28.5356 27.0113 28.6443 27.1074 28.74L35.0762 36.6715C35.5163 37.1095 36.2298 37.1095 36.6699 36.6715C37.11 36.2334 37.11 35.5232 36.6699 35.0852L28.7012 27.1537C28.6476 27.1004 28.5899 27.0535 28.5292 27.0132C30.238 25.2063 31.2851 22.7724 31.2851 20.0951C31.2851 14.5197 26.7442 10 21.1426 10ZM13.2539 20.0951C13.2539 15.7587 16.7858 12.2434 21.1426 12.2434C25.4994 12.2434 29.0312 15.7587 29.0312 20.0951C29.0312 24.4315 25.4994 27.9469 21.1426 27.9469C16.7858 27.9469 13.2539 24.4315 13.2539 20.0951Z" fill="black"/>
</g>
</svg>
