<svg xmlns="http://www.w3.org/2000/svg" xmlns:xlink="http://www.w3.org/1999/xlink" width="32" height="32" viewBox="0 0 32 32">
    <defs>
        <rect id="5tctsdgnga" width="24" height="24" x="0" y="0" rx="4"/>
    </defs>
    <g fill="none" fill-rule="evenodd" transform="translate(4 4)">
        <mask id="tiahra1dqb" fill="#fff">
            <use xlink:href="#5tctsdgnga"/>
        </mask>
        <g stroke="#000" mask="url(#tiahra1dqb)">
            <g transform="translate(2.667 2.667)">
                <path stroke-width="1.5" d="M17.663 11.19c-.207.828-.538 1.608-.97 2.32l-2.326.603-.61 2.306c-.72.43-1.51.76-2.35.966L9.334 16.18 7.26 17.385c-.84-.207-1.63-.535-2.35-.966L4.3 14.113l-2.326-.603c-.433-.712-.763-1.492-.97-2.32l1.215-2.06-1.216-2.06c.208-.827.538-1.607.97-2.319L4.3 4.148l.608-2.306c.721-.43 1.511-.76 2.35-.965L9.333 2.08 11.41.877c.838.206 1.628.534 2.349.965l.609 2.306 2.326.603c.432.712.763 1.492.97 2.32l-1.215 2.06 1.215 2.059z"/>
                <ellipse cx="9.333" cy="9.133" stroke-width="1.3" rx="3.611" ry="3.613"/>
            </g>
        </g>
    </g>
</svg>
