<svg width="48" height="48" viewBox="0 0 48 48" fill="none" xmlns="http://www.w3.org/2000/svg">
<mask id="mask0" mask-type="alpha" maskUnits="userSpaceOnUse" x="6" y="6" width="36" height="36">
<path d="M38 6H10C7.79086 6 6 7.79086 6 10V38C6 40.2091 7.79086 42 10 42H38C40.2091 42 42 40.2091 42 38V10C42 7.79086 40.2091 6 38 6Z" fill="white"/>
</mask>
<g mask="url(#mask0)">
<path fill-rule="evenodd" clip-rule="evenodd" d="M16.8986 12C15.8574 12 15 12.8528 15 13.9213V34.0787C15 35.1472 15.8574 36 16.8986 36H31.1014C32.1426 36 33 35.1472 33 34.0787V13.9213C33 12.8528 32.1426 12 31.1014 12H16.8986ZM13 13.9213C13 11.763 14.7381 10 16.8986 10H31.1014C33.2619 10 35 11.763 35 13.9213V34.0787C35 36.237 33.2619 38 31.1014 38H16.8986C14.7381 38 13 36.237 13 34.0787V13.9213Z" fill="black"/>
<path d="M19 30C19.8284 30 20.5 29.3284 20.5 28.5C20.5 27.6716 19.8284 27 19 27C18.1716 27 17.5 27.6716 17.5 28.5C17.5 29.3284 18.1716 30 19 30Z" fill="black"/>
<path d="M24 30C24.8284 30 25.5 29.3284 25.5 28.5C25.5 27.6716 24.8284 27 24 27C23.1716 27 22.5 27.6716 22.5 28.5C22.5 29.3284 23.1716 30 24 30Z" fill="black"/>
<path d="M30.5 28.5C30.5 29.3284 29.8284 30 29 30C28.1716 30 27.5 29.3284 27.5 28.5C27.5 27.6716 28.1716 27 29 27C29.8284 27 30.5 27.6716 30.5 28.5Z" fill="black"/>
</g>
</svg>
