<svg width="48" height="48" viewBox="0 0 48 48" fill="none" xmlns="http://www.w3.org/2000/svg">
<mask id="mask0" mask-type="alpha" maskUnits="userSpaceOnUse" x="6" y="6" width="36" height="36">
<path d="M38 6H10C7.79086 6 6 7.79086 6 10V38C6 40.2091 7.79086 42 10 42H38C40.2091 42 42 40.2091 42 38V10C42 7.79086 40.2091 6 38 6Z" fill="white"/>
</mask>
<g mask="url(#mask0)">
<path fill-rule="evenodd" clip-rule="evenodd" d="M21.4265 10.137L21.0812 9.93486L20.6918 10.0267C19.1727 10.385 17.747 10.9844 16.4575 11.782L16.1174 11.9924L16.0161 12.3792L15.2606 15.2655L12.375 16.0217L11.9881 16.1231L11.7779 16.4633C10.9829 17.7496 10.3849 19.1715 10.0269 20.6866L9.93495 21.0759L10.1369 21.4213L11.6446 24L10.1368 26.578L9.93481 26.9234L10.0268 27.3128C10.3848 28.8281 10.9828 30.2502 11.7779 31.5367L11.9881 31.8769L12.375 31.9783L15.2605 32.7345L16.0152 35.62L16.1164 36.007L16.4565 36.2174C17.7463 37.0153 19.1723 37.615 20.6918 37.9733L21.0812 38.0651L21.4265 37.863L24 36.3565L26.5734 37.863L26.9187 38.0651L27.3082 37.9733C28.8276 37.615 30.2537 37.0153 31.5434 36.2174L31.8836 36.007L31.9848 35.62L32.7394 32.7346L35.6241 31.9793L36.0111 31.878L36.2215 31.5377C37.0169 30.2509 37.6151 28.8285 37.9731 27.3128L38.0651 26.9234L37.8631 26.578L36.3554 24L37.8632 21.4224L38.0652 21.077L37.9732 20.6876C37.6152 19.1718 37.0169 17.7492 36.2215 16.4623L36.0111 16.122L35.6241 16.0207L32.7394 15.2654L31.9838 12.3792L31.8825 11.9924L31.5424 11.782C30.2532 10.9846 28.8279 10.3852 27.3091 10.0269L26.9198 9.93508L26.5745 10.1371L24 11.6435L21.4265 10.137ZM17.0473 16.3378L17.8474 13.2814C18.7554 12.759 19.7356 12.3489 20.7693 12.0698L23.4947 13.6652L23.9998 13.9608L24.5049 13.6653L27.2314 12.07C28.2648 12.3491 29.2448 12.7591 30.1526 13.2814L30.9527 16.3379L31.1009 16.9039L31.6668 17.052L34.7218 17.8519C35.2425 18.7575 35.6514 19.735 35.9302 20.7658L34.3337 23.4951L34.0384 23.9999L34.3337 24.5048L35.9301 27.2345C35.6514 28.2652 35.2424 29.2426 34.7218 30.1481L31.6667 30.948L31.1006 31.0962L30.9525 31.6624L30.1534 34.7182C29.2452 35.2408 28.2646 35.651 27.2306 35.9302L24.5052 34.3348L24 34.039L23.4948 34.3348L20.7693 35.9302C19.7353 35.651 18.7548 35.2408 17.8466 34.7182L17.0474 31.6625L16.8994 31.0965L16.3335 30.9482L13.2777 30.1473C12.7573 29.242 12.3485 28.2649 12.0698 27.2345L13.6662 24.5049L13.9614 24.0001L13.6663 23.4953L12.07 20.7651C12.3486 19.7348 12.7574 18.7578 13.2777 17.8527L16.3334 17.0519L16.8991 16.9036L17.0473 16.3378ZM19.2124 24.0032C19.2124 21.3195 21.3649 19.1602 24.0002 19.1602C26.6356 19.1602 28.7881 21.3195 28.7881 24.0032C28.7881 26.687 26.6356 28.8463 24.0002 28.8463C21.3649 28.8463 19.2124 26.687 19.2124 24.0032ZM24.0002 17.1602C20.2425 17.1602 17.2124 20.2329 17.2124 24.0032C17.2124 27.7736 20.2425 30.8463 24.0002 30.8463C27.758 30.8463 30.7881 27.7736 30.7881 24.0032C30.7881 20.2329 27.758 17.1602 24.0002 17.1602Z" fill="black"/>
</g>
</svg>
