<svg xmlns="http://www.w3.org/2000/svg" xmlns:xlink="http://www.w3.org/1999/xlink" width="32" height="32" viewBox="0 0 32 32">
    <defs>
        <rect id="1xhoxofmka" width="24" height="24" x="0" y="0" rx="4"/>
    </defs>
    <g fill="none" fill-rule="evenodd" transform="translate(4 4)">
        <mask id="iffm74q2pb" fill="#fff">
            <use xlink:href="#1xhoxofmka"/>
        </mask>
        <g fill="#000" stroke="#000" stroke-width=".5" mask="url(#iffm74q2pb)">
            <path d="M6.351 4.852c.224.243.219.63-.012.864C4.72 7.36 3.892 9.351 3.836 11.723c-.055 2.354.767 4.326 2.488 5.96.239.226.257.613.04.863-.216.25-.585.269-.823.042-1.97-1.87-2.935-4.183-2.871-6.895.063-2.692 1.02-4.988 2.856-6.854.232-.235.6-.229.825.013zm10.606 0c.224-.242.593-.248.825-.013 1.836 1.866 2.793 4.162 2.856 6.854.064 2.712-.9 5.025-2.87 6.895-.24.227-.608.208-.825-.042-.216-.25-.198-.637.04-.864 1.722-1.633 2.544-3.605 2.489-5.959-.056-2.372-.886-4.364-2.503-6.007-.23-.234-.237-.621-.012-.864zm-2.612 3.286c.224-.243.593-.25.825-.015 1.143 1.154 1.729 2.483 1.729 3.958s-.541 2.737-1.605 3.746c-.238.226-.607.207-.823-.043-.217-.25-.199-.636.04-.863.82-.779 1.221-1.713 1.221-2.84 0-1.129-.448-2.145-1.372-3.079-.232-.234-.239-.62-.015-.864zm-5.382 0c.223.243.217.63-.015.864-.924.934-1.372 1.95-1.372 3.079 0 1.127.4 2.061 1.22 2.84.24.227.258.613.041.863-.216.25-.585.27-.824.043-1.063-1.01-1.604-2.271-1.604-3.746s.586-2.804 1.729-3.958c.232-.235.601-.228.825.015zm2.636 2.136c.773 0 1.38.637 1.38 1.447s-.607 1.446-1.38 1.446c-.773 0-1.381-.636-1.381-1.446 0-.81.608-1.447 1.38-1.447z"/>
        </g>
    </g>
</svg>
