<svg width="48" height="48" viewBox="0 0 48 48" fill="none" xmlns="http://www.w3.org/2000/svg">
<mask id="mask0" mask-type="alpha" maskUnits="userSpaceOnUse" x="5" y="5" width="38" height="38">
<path d="M38 6H10C7.79086 6 6 7.79086 6 10V38C6 40.2091 7.79086 42 10 42H38C40.2091 42 42 40.2091 42 38V10C42 7.79086 40.2091 6 38 6Z" fill="white" stroke="black" stroke-width="2"/>
</mask>
<g mask="url(#mask0)">
<path fill-rule="evenodd" clip-rule="evenodd" d="M9 13C9 11.8954 9.89543 11 11 11H17C18.1046 11 19 11.8954 19 13V19C19 20.1046 18.1046 21 17 21H11C9.89543 21 9 20.1046 9 19V13ZM17 13H11V19H17V13Z" fill="black"/>
<path fill-rule="evenodd" clip-rule="evenodd" d="M23 16C23 15.4477 23.4477 15 24 15H38C38.5523 15 39 15.4477 39 16C39 16.5523 38.5523 17 38 17H24C23.4477 17 23 16.5523 23 16Z" fill="black"/>
<path fill-rule="evenodd" clip-rule="evenodd" d="M9 29C9 27.8954 9.89543 27 11 27H17C18.1046 27 19 27.8954 19 29V35C19 36.1046 18.1046 37 17 37H11C9.89543 37 9 36.1046 9 35V29ZM17 29H11V35H17V29Z" fill="black"/>
<path fill-rule="evenodd" clip-rule="evenodd" d="M23 32C23 31.4477 23.4477 31 24 31H38C38.5523 31 39 31.4477 39 32C39 32.5523 38.5523 33 38 33H24C23.4477 33 23 32.5523 23 32Z" fill="black"/>
</g>
</svg>
