<svg xmlns="http://www.w3.org/2000/svg" xmlns:xlink="http://www.w3.org/1999/xlink" width="32" height="32" viewBox="0 0 32 32">
    <defs>
        <rect id="1hvzktklya" width="24" height="24" x="0" y="0" rx="4"/>
    </defs>
    <g fill="none" fill-rule="evenodd" transform="translate(4 4)">
        <mask id="18ggh9dseb" fill="#fff">
            <use xlink:href="#1hvzktklya"/>
        </mask>
        <g fill="#000" mask="url(#18ggh9dseb)">
            <path d="M18.308 3.113c.19.123.305.33.306.554v12c0 .037-.003.074-.009.11.007.073.01.148.01.223-.004 1.655-1.372 2.996-3.06 3-1.689 0-3.058-1.343-3.058-3s1.37-3 3.059-3c.629 0 1.214.186 1.7.506l-.001-6.176-6.54 2.81c-.08.04-.168.064-.258.072v7.455c0 .037-.003.073-.008.108.006.074.009.15.009.225-.004 1.655-1.372 2.996-3.06 3-1.689 0-3.058-1.343-3.058-3s1.37-3 3.059-3c.629 0 1.214.186 1.7.506L9.098 7c.001-.27.168-.511.421-.613l8.157-3.334c.208-.083.445-.06.632.06zm-10.91 13.22C6.46 16.333 5.7 17.08 5.7 18s.761 1.667 1.7 1.667c.938 0 1.699-.747 1.699-1.667s-.76-1.667-1.7-1.667zm8.158-2c-.939 0-1.7.747-1.7 1.667s.761 1.667 1.7 1.667c.938 0 1.699-.747 1.699-1.667s-.76-1.667-1.7-1.667zm1.699-9.666l-6.797 2.78-.001 1.362L16.969 6c.09-.044.188-.068.286-.07V4.667z"/>
        </g>
    </g>
</svg>
