<svg xmlns="http://www.w3.org/2000/svg" xmlns:xlink="http://www.w3.org/1999/xlink" width="32" height="32" viewBox="0 0 32 32">
    <defs>
        <rect id="6ynjkmjvwa" width="24" height="24" x="0" y="0" rx="4"/>
    </defs>
    <g fill="none" fill-rule="evenodd" transform="translate(4 4)">
        <mask id="4oad85pprb" fill="#fff">
            <use xlink:href="#6ynjkmjvwa"/>
        </mask>
        <path fill-rule="nonzero" stroke="#000" stroke-width="1.5" d="M12 21.333c5.155 0 9.333-4.178 9.333-9.333S17.155 2.667 12 2.667 2.667 6.845 2.667 12 6.845 21.333 12 21.333z" mask="url(#4oad85pprb)"/>
        <path fill="#000" fill-rule="nonzero" d="M12.901 10.024c0 .302-.214.657-.479.92-.264.262-.693.485-.97.853-.292.385-.344.832-.352 1.323l-.001.436c0 .144.113.262.252.262h1.26c.14 0 .253-.118.253-.262v-.25c0-.453.083-.679.458-.992l.122-.097c.554-.42 1.223-1.195 1.223-2.285 0-1.522-1.047-2.599-2.66-2.599-1.59 0-2.674 1.077-2.674 2.757v.197c0 .144.114.262.253.262h1.26c.139 0 .253-.118.253-.262v-.223c0-.565.34-.906.907-.906.505 0 .895.328.895.866zm-1.664 6.643c-.138 0-.252-.118-.252-.263V14.83c0-.145.114-.263.252-.263h1.513c.139 0 .252.118.252.263v1.575c0 .145-.113.263-.252.263h-1.513z" mask="url(#4oad85pprb)"/>
    </g>
</svg>
