<svg width="25" height="5" viewBox="0 0 25 5" fill="none" xmlns="http://www.w3.org/2000/svg">
<path fill-rule="evenodd" clip-rule="evenodd" d="M2.49976 5C3.88047 5 4.99976 3.88071 4.99976 2.5C4.99976 1.11929 3.88047 0 2.49976 0C1.11904 0 -0.000244141 1.11929 -0.000244141 2.5C-0.000244141 3.88071 1.11904 5 2.49976 5ZM12.4998 5C13.8805 5 14.9998 3.88071 14.9998 2.5C14.9998 1.11929 13.8805 0 12.4998 0C11.119 0 9.99976 1.11929 9.99976 2.5C9.99976 3.88071 11.119 5 12.4998 5ZM24.9998 2.5C24.9998 3.88071 23.8805 5 22.4998 5C21.119 5 19.9998 3.88071 19.9998 2.5C19.9998 1.11929 21.119 0 22.4998 0C23.8805 0 24.9998 1.11929 24.9998 2.5Z" fill="#6A6A6A"/>
</svg>
