<svg xmlns="http://www.w3.org/2000/svg" width="58" height="42" viewBox="0 0 58 42">
    <path fill="#000" fill-rule="evenodd" stroke="#000" stroke-width=".3" d="M28.816 1a1.243 1.243 0 0 0-.98.439c-2.692 3.118-4.67 6.303-5.866 9.538-2.722-2.3-6.164-4.113-10.274-5.486a1.216 1.216 0 0 0-1.023.119c-.31.189-.53.507-.606.876-1.088 5.292-1.115 10.046.05 14.187-2.53-.042-5.24.28-8.118.948a1.28 1.28 0 0 0-.83.64 1.404 1.404 0 0 0-.109 1.077c2.134 7.038 5.531 12.179 10.307 15.042 4.71 2.824 10.631 3.35 17.633 1.65 7.002 1.7 12.924 1.174 17.633-1.65 4.776-2.863 8.173-8.004 10.307-15.042.109-.36.069-.75-.11-1.077a1.28 1.28 0 0 0-.83-.64c-2.981-.691-5.784-1.012-8.391-.941 1.166-4.143 1.14-8.899.05-14.194a1.338 1.338 0 0 0-.605-.876 1.216 1.216 0 0 0-1.023-.119c-4.106 1.372-7.545 3.181-10.265 5.478-1.285-3.21-3.323-6.39-6.05-9.533a1.246 1.246 0 0 0-.9-.435zm-.035 3.371c3.96 4.89 5.944 9.62 6.042 14.228.098 4.614-1.67 9.24-5.61 13.99-4.1-4.9-6.015-9.622-6.042-14.244-.027-4.595 1.811-9.229 5.61-13.974zM12.28 8.526c3.674 1.375 6.626 3.123 8.861 5.221a20.09 20.09 0 0 0-.514 4.614c.011 1.985.325 3.964.934 5.934a17.48 17.48 0 0 0-1.675-1.1c-2.115-1.221-4.465-1.987-7.03-2.325-1.182-3.45-1.384-7.553-.576-12.344zm33.169 0c.811 4.809.604 8.924-.59 12.383-2.454.356-4.709 1.11-6.746 2.286-.49.282-.965.59-1.427.92.493-1.847.722-3.707.683-5.576a20.583 20.583 0 0 0-.701-4.867c2.225-2.065 5.15-3.788 8.78-5.146zM9.476 23.348c3.55-.031 6.605.708 9.186 2.198 3.843 2.218 6.762 6.146 8.699 12.116-6.08 1.29-10.92.675-14.735-1.612-3.791-2.273-6.682-6.269-8.682-12.108 1.963-.381 3.806-.58 5.532-.594zm39.047 0c1.727.014 3.57.213 5.533.594-2 5.839-4.89 9.835-8.682 12.108-3.814 2.287-8.655 2.903-14.735 1.612 1.934-5.97 4.853-9.898 8.696-12.116 2.582-1.49 5.638-2.23 9.188-2.198z"/>
</svg>
