<svg xmlns="http://www.w3.org/2000/svg" xmlns:xlink="http://www.w3.org/1999/xlink" width="32" height="32" viewBox="0 0 32 32">
    <defs>
        <rect id="1vgemvwawa" width="24" height="24" x="0" y="0" rx="4"/>
    </defs>
    <g fill="none" fill-rule="evenodd" transform="translate(4 4)">
        <mask id="y0gqzizt3b" fill="#fff">
            <use xlink:href="#1vgemvwawa"/>
        </mask>
        <g mask="url(#y0gqzizt3b)">
            <g transform="translate(5.333 2.667)">
                <path stroke="#6A6A6A" stroke-width="1.3" d="M2.856 8.339c.77.528 1.758.836 2.802.836 1.099 0 2.087-.308 2.857-.792.12.053.238.11.353.169-1.585.951-2.646 2.687-2.646 4.67 0 .683.126 1.337.356 1.94h-4.71C.824 15.161 0 14.501 0 13.708v-1.453c0-1.672 1.154-3.125 2.856-3.917z"/>
                <path stroke="#6A6A6A" stroke-width="1.517" d="M5.705 0c1.857 0 3.3 1.444 3.3 3.25 0 1.856-1.443 3.3-3.3 3.3-1.805 0-3.249-1.444-3.249-3.3C2.456 1.443 3.9 0 5.706 0z"/>
                <circle cx="12.444" cy="13.533" r="4.017" stroke="#6A6A6A" stroke-width="1.3"/>
                <path fill="#6A6A6A" d="M12.444 11.2c.323 0 .584.261.584.583v1.167h1.166c.323 0 .584.261.584.583 0 .322-.261.584-.584.584l-1.167-.001v1.167c0 .322-.26.584-.583.584-.322 0-.583-.262-.583-.584v-1.167h-1.167c-.322 0-.583-.26-.583-.583 0-.322.261-.583.583-.583h1.166l.001-1.167c0-.322.261-.583.583-.583z"/>
            </g>
        </g>
    </g>
</svg>
