<svg width="48" height="48" viewBox="0 0 48 48" fill="none" xmlns="http://www.w3.org/2000/svg">
<path fill-rule="evenodd" clip-rule="evenodd" d="M24 12C20.6863 12 18 14.6863 18 18C18 21.3137 20.6863 24 24 24C27.3137 24 30 21.3137 30 18C30 14.6863 27.3137 12 24 12ZM16 18C16 13.5817 19.5817 10 24 10C28.4183 10 32 13.5817 32 18C32 22.4183 28.4183 26 24 26C19.5817 26 16 22.4183 16 18Z" fill="#6A6A6A"/>
<path fill-rule="evenodd" clip-rule="evenodd" d="M31.824 30.2873C29.939 29.5057 27.4024 29 24 29C17.5718 29 14.234 30.8052 12.5421 32.8654C11.7077 33.8814 11.3208 34.906 11.1445 35.6857C11.0565 36.0748 11.0207 36.4039 11.0072 36.6432C11.0005 36.763 10.9994 36.8609 11.0003 36.9333C11.0007 36.9695 11.0016 36.9994 11.0026 37.0225L11.0041 37.0521L11.0047 37.063L11.005 37.0675L11.0052 37.0694C11.0052 37.0704 11.0053 37.0713 12.0027 37C13.0002 36.9287 13.0003 36.9296 13.0003 36.9304L13.0004 36.9319L13.0006 36.9344L13.0008 36.9373C13.0006 36.9339 13.0003 36.9245 13.0001 36.9095C12.9997 36.8793 13.0001 36.8268 13.0041 36.7552C13.0121 36.6117 13.0349 36.3939 13.0953 36.1268C13.2157 35.594 13.4849 34.8686 14.0877 34.1346C15.2701 32.6948 17.9309 31 24 31C26.9653 31 29.117 31.4046 30.6801 31.9864C30.9776 31.3636 31.3644 30.7917 31.824 30.2873Z" fill="#6A6A6A"/>
<path fill-rule="evenodd" clip-rule="evenodd" d="M37 29C33.6863 29 31 31.6863 31 35C31 38.3137 33.6863 41 37 41C40.3137 41 43 38.3137 43 35C43 31.6863 40.3137 29 37 29ZM29 35C29 30.5817 32.5817 27 37 27C41.4183 27 45 30.5817 45 35C45 39.4183 41.4183 43 37 43C32.5817 43 29 39.4183 29 35Z" fill="#6A6A6A"/>
<path fill-rule="evenodd" clip-rule="evenodd" d="M37 31C37.5523 31 38 31.4477 38 32V38C38 38.5523 37.5523 39 37 39C36.4477 39 36 38.5523 36 38V32C36 31.4477 36.4477 31 37 31Z" fill="#6A6A6A"/>
<path fill-rule="evenodd" clip-rule="evenodd" d="M33 35C33 34.4477 33.4477 34 34 34H40C40.5523 34 41 34.4477 41 35C41 35.5523 40.5523 36 40 36H34C33.4477 36 33 35.5523 33 35Z" fill="#6A6A6A"/>
</svg>
