<svg xmlns="http://www.w3.org/2000/svg" xmlns:xlink="http://www.w3.org/1999/xlink" width="32" height="32" viewBox="0 0 32 32">
    <defs>
        <rect id="u7mk1o9tca" width="24" height="24" x="0" y="0" rx="4"/>
    </defs>
    <g fill="none" fill-rule="evenodd" transform="translate(4 4)">
        <mask id="qn02bk8mxb" fill="#fff">
            <use xlink:href="#u7mk1o9tca"/>
        </mask>
        <g mask="url(#qn02bk8mxb)">
            <g transform="translate(4 4)">
                <rect width="12.922" height="14.7" x="2.428" y=".65" stroke="#000" stroke-width="1.3" rx="2"/>
                <rect width="5.911" height="3.422" x="6.644" y="3.8" stroke="#000" stroke-width="1.2" rx="1"/>
                <path fill="#000" d="M4.533 4.489c0 .344-.278.622-.622.622H.89c-.344 0-.622-.278-.622-.622s.278-.622.622-.622H3.91c.344 0 .622.278.622.622zM4.533 11.511c0 .344-.278.622-.622.622H.89c-.344 0-.622-.278-.622-.622s.278-.622.622-.622H3.91c.344 0 .622.278.622.622z"/>
            </g>
        </g>
    </g>
</svg>
