<svg xmlns="http://www.w3.org/2000/svg" xmlns:xlink="http://www.w3.org/1999/xlink" width="32" height="32" viewBox="0 0 32 32">
    <defs>
        <rect id="ccbw3sldaa" width="24" height="24" x="0" y="0" rx="4"/>
    </defs>
    <g fill="none" fill-rule="evenodd" transform="translate(4 4)">
        <mask id="uc675etiwb" fill="#fff">
            <use xlink:href="#ccbw3sldaa"/>
        </mask>
        <g fill="#000" mask="url(#uc675etiwb)">
            <path d="M11.688 4c2.449 0 4.102.906 5.017 2.526.611 1.083.833 2.292.857 3.815l.005.46c.016.527.105 1.197.256 1.972.09.461.2.95.326 1.455.097.392.2.779.304 1.15l.105.366.184.612c.142.449-.194.906-.666.906h-3.342c-.213 1.565-1.18 2.448-2.786 2.448-1.605 0-2.585-.88-2.828-2.447l-3.754-.001c-.47 0-.805-.452-.668-.899.727-2.374 1.104-4.241 1.135-5.586l.005-.473c.023-1.545.238-2.734.845-3.808C7.59 4.892 9.238 4 11.688 4zm1.637 13.262h-2.79c.167.751.611 1.057 1.413 1.057.8 0 1.232-.303 1.377-1.057zm-1.637-11.87c-3.32 0-4.376 1.645-4.451 4.824l-.008.608c-.032 1.31-.343 2.988-.93 5.047h10.842l-.118-.427c-.079-.288-.156-.583-.23-.882-.13-.527-.246-1.038-.34-1.524-.166-.847-.265-1.589-.283-2.206l-.007-.58c-.077-3.164-1.16-4.86-4.475-4.86z"/>
        </g>
    </g>
</svg>
