<svg xmlns="http://www.w3.org/2000/svg" xmlns:xlink="http://www.w3.org/1999/xlink" width="32" height="32" viewBox="0 0 32 32">
    <defs>
        <path id="1xofx8tdzc" d="M0 0L8.682 0 8.682 7.675 0 7.675z"/>
        <path id="0oalr31z9e" d="M0 0L8.682 0 8.682 7.585 0 7.585z"/>
        <rect id="4bdo16pyfa" width="24" height="24" x="0" y="0" rx="4"/>
    </defs>
    <g fill="none" fill-rule="evenodd">
        <g>
            <g>
                <g>
                    <g>
                        <g>
                            <g>
                                <g>
                                    <g transform="translate(-526 -456) translate(450 204) translate(68 248) translate(8 4) translate(4 4)">
                                        <mask id="a7umjfw2vb" fill="#fff">
                                            <use xlink:href="#4bdo16pyfa"/>
                                        </mask>
                                        <g mask="url(#a7umjfw2vb)">
                                            <g>
                                                <g transform="translate(4 4) translate(7.31)">
                                                    <mask id="88n4wsmvkd" fill="#fff">
                                                        <use xlink:href="#1xofx8tdzc"/>
                                                    </mask>
                                                    <path fill="#FFF" fill-rule="nonzero" d="M.016 1.258C2.9.817 5.79.4 8.68 0c.002 2.533 0 5.064.002 7.596-2.888.011-5.776.055-8.666.065-.002-2.136-.002-4.27 0-6.403" mask="url(#88n4wsmvkd)"/>
                                                </g>
                                                <path fill="#FFF" fill-rule="nonzero" d="M0 2.28c2.172-.335 4.353-.625 6.534-.898l.004 6.3c-2.18-.001-4.359.032-6.538.026V2.28M0 8.37c2.178-.008 4.355.027 6.533.023 0 2.106.005 4.212.001 6.318C4.36 14.39 2.18 14.107 0 13.812V8.369" transform="translate(4 4)"/>
                                                <g transform="translate(4 4) translate(7.31 8.447)">
                                                    <mask id="g0gfonteqf" fill="#fff">
                                                        <use xlink:href="#0oalr31z9e"/>
                                                    </mask>
                                                    <path fill="#FFF" fill-rule="nonzero" d="M.003.007H8.68c.004 2.525 0 5.05 0 7.578C5.796 7.153 2.906 6.752.016 6.36.012 4.243.006 2.126.003.007" mask="url(#g0gfonteqf)"/>
                                                </g>
                                            </g>
                                        </g>
                                    </g>
                                </g>
                            </g>
                        </g>
                    </g>
                </g>
            </g>
        </g>
    </g>
</svg>
