<svg width="48" height="48" viewBox="0 0 48 48" fill="none" xmlns="http://www.w3.org/2000/svg">
<mask id="mask0" mask-type="alpha" maskUnits="userSpaceOnUse" x="6" y="6" width="36" height="36">
<path d="M38 6H10C7.79086 6 6 7.79086 6 10V38C6 40.2091 7.79086 42 10 42H38C40.2091 42 42 40.2091 42 38V10C42 7.79086 40.2091 6 38 6Z" fill="white"/>
</mask>
<g mask="url(#mask0)">
<path fill-rule="evenodd" clip-rule="evenodd" d="M35.4254 35.8232C33.4839 37.7647 30.6247 38.4689 27.9557 37.6853C25.8432 37.065 23.775 36.1516 21.8177 34.9501C20.0829 33.8846 18.4349 32.593 16.9209 31.0791C15.407 29.5651 14.1156 27.9174 13.05 26.1826C11.8481 24.225 10.9345 22.1566 10.3143 20.0444C9.53063 17.3755 10.2349 14.5164 12.1764 12.575L13.74 11.0114C15.2559 9.49566 17.7419 9.73106 19.0464 11.3997L21.667 14.7519C22.81 16.2141 22.7355 18.3045 21.4168 19.6232L19.7663 21.2735C19.7195 21.3202 19.6897 21.4126 19.7393 21.5164C20.4245 22.9499 21.3543 24.2859 22.5342 25.4658C23.7133 26.6449 25.0504 27.5757 26.4835 28.2606C26.5875 28.3104 26.6796 28.2803 26.726 28.2339L28.3768 26.5832C29.6954 25.2646 31.7858 25.1899 33.248 26.3329L36.6002 28.9536C38.2689 30.2581 38.5043 32.7441 36.9887 34.26L35.4254 35.8232ZM18.3875 29.6125C16.9888 28.2138 15.7982 26.694 14.8173 25.097C13.711 23.2951 12.8725 21.3953 12.3043 19.4601C11.7287 17.4997 12.2521 15.4324 13.643 14.0415L13.689 13.9955L18.2697 19.8375C17.6026 20.5302 17.4603 21.5579 17.8681 22.4109C18.0069 22.7014 18.1546 22.9884 18.311 23.2716C18.9205 24.3744 19.6635 25.4187 20.5416 26.3815C20.7118 26.5682 20.8872 26.7519 21.0676 26.9323C22.4165 28.2812 23.9481 29.3476 25.5892 30.132C26.4546 30.5455 27.5001 30.393 28.1928 29.7003L28.2342 29.6589L34.1006 34.2149L33.9588 34.3567C32.5679 35.7475 30.5006 36.2709 28.54 35.6952C26.6043 35.1269 24.7044 34.2885 22.9027 33.1825L18.3875 29.6125ZM29.7123 28.1808L35.5768 32.7353C36.1038 32.1415 36.0428 31.1504 35.3229 30.5877L31.9707 27.9669C31.2949 27.4387 30.3863 27.5068 29.8433 28.0497L29.7123 28.1808ZM15.2065 12.4781L15.1663 12.5183L19.7468 18.3601L19.9503 18.1566C20.4932 17.6137 20.5613 16.7051 20.033 16.0293L17.4124 12.6771C16.8308 11.9331 15.7918 11.8929 15.2065 12.4781Z" fill="black"/>
</g>
</svg>
