<svg xmlns="http://www.w3.org/2000/svg" xmlns:xlink="http://www.w3.org/1999/xlink" width="32" height="32" viewBox="0 0 32 32">
    <defs>
        <rect id="teliiiblha" width="24" height="24" x="0" y="0" rx="4"/>
    </defs>
    <g fill="none" fill-rule="evenodd" transform="translate(4 4)">
        <mask id="uacznec8eb" fill="#fff">
            <use xlink:href="#teliiiblha"/>
        </mask>
        <g stroke="#000" stroke-width="1.3" mask="url(#uacznec8eb)">
            <path d="M6.85 4.094c-.842.533-2.69 1.826-2.82 2.982-.6 5.157 7.737 13.493 12.892 12.893 1.166-.13 2.454-1.976 2.984-2.819.152-.24.117-.554-.085-.755L17.51 14.08c-.114-.116-.27-.18-.433-.18-.162 0-.318.064-.432.18l-1.301 1.316c-.146.146-.26.255-.346.32-1.085.116-3.11-.53-4.656-2.08-1.545-1.548-2.19-3.57-2.08-4.657.077-.087.183-.199.328-.344L9.911 7.36c.115-.115.18-.27.18-.433 0-.163-.065-.318-.18-.433L7.607 4.18c-.201-.202-.516-.238-.757-.086z"/>
        </g>
    </g>
</svg>
