<svg width="48" height="48" viewBox="0 0 48 48" fill="none" xmlns="http://www.w3.org/2000/svg">
<mask id="mask0" mask-type="alpha" maskUnits="userSpaceOnUse" x="5" y="5" width="38" height="38">
<path d="M38 6H10C7.79086 6 6 7.79086 6 10V38C6 40.2091 7.79086 42 10 42H38C40.2091 42 42 40.2091 42 38V10C42 7.79086 40.2091 6 38 6Z" fill="white" stroke="black" stroke-width="2"/>
</mask>
<g mask="url(#mask0)">
<path fill-rule="evenodd" clip-rule="evenodd" d="M12 12.5C11.4477 12.5 11 12.9477 11 13.5C11 14.0523 11.4477 14.5 12 14.5H36C36.5523 14.5 37 14.0523 37 13.5C37 12.9477 36.5523 12.5 36 12.5H12ZM12 19.5C11.4477 19.5 11 19.9477 11 20.5C11 21.0523 11.4477 21.5 12 21.5H36C36.5523 21.5 37 21.0523 37 20.5C37 19.9477 36.5523 19.5 36 19.5H12ZM11 27.5C11 26.9477 11.4477 26.5 12 26.5H36C36.5523 26.5 37 26.9477 37 27.5C37 28.0523 36.5523 28.5 36 28.5H12C11.4477 28.5 11 28.0523 11 27.5ZM12 33.5C11.4477 33.5 11 33.9477 11 34.5C11 35.0523 11.4477 35.5 12 35.5H36C36.5523 35.5 37 35.0523 37 34.5C37 33.9477 36.5523 33.5 36 33.5H12Z" fill="black"/>
</g>
</svg>
