<svg xmlns="http://www.w3.org/2000/svg" xmlns:xlink="http://www.w3.org/1999/xlink" width="32" height="32" viewBox="0 0 32 32">
    <defs>
        <rect id="z5wzaiv24a" width="24" height="24" x="0" y="0" rx="4"/>
    </defs>
    <g fill="none" fill-rule="evenodd" transform="translate(4 4)">
        <mask id="sxjbn78xzb" fill="#fff">
            <use xlink:href="#z5wzaiv24a"/>
        </mask>
        <g fill="#000" mask="url(#sxjbn78xzb)">
            <path d="M20.254 18.4c.589 0 1.06.356 1.08.8 0 .444-.472.8-1.06.8H3.726c-.59 0-1.06-.356-1.06-.8 0-.444.47-.8 1.06-.8zm0-4.8c.589 0 1.06.356 1.08.8 0 .444-.472.8-1.06.8H3.726c-.59 0-1.06-.356-1.06-.8 0-.444.47-.8 1.06-.8zm0-4.8c.589 0 1.06.356 1.08.8 0 .444-.472.8-1.06.8H3.726c-.59 0-1.06-.356-1.06-.8 0-.444.47-.8 1.06-.8zm0-4.8c.589 0 1.06.356 1.08.8 0 .444-.472.8-1.06.8H3.726c-.59 0-1.06-.356-1.06-.8 0-.444.47-.8 1.06-.8z"/>
        </g>
    </g>
</svg>
