<?xml version="1.0" encoding="UTF-8"?>
<svg width="28px" height="23px" viewBox="0 0 28 23" version="1.1" xmlns="http://www.w3.org/2000/svg" xmlns:xlink="http://www.w3.org/1999/xlink">
    <!-- Generator: sketchtool 62 (101010) - https://sketch.com -->
    <title>351B25A5-9DA1-4D13-83BF-10B11D96BD95@0,5x</title>
    <desc>Created with sketchtool.</desc>
    <defs>
        <rect id="path-1" x="0" y="0" width="36" height="36" rx="4"></rect>
    </defs>
    <g id="18.-RECOVERY-MODE" stroke="none" stroke-width="1" fill="none" fill-rule="evenodd">
        <g id="18.Recovery-Mode" transform="translate(-266.000000, -279.000000)">
            <g id="recovery-mode-component" transform="translate(240.000000, 251.000000)">
                <g id="NEW-ICON-WITH-GRID/Backup/BLACK">
                    <g transform="translate(16.000000, 16.000000)">
                        <g id="Group" transform="translate(6.000000, 6.000000)">
                            <mask id="mask-2" fill="white">
                                <use xlink:href="#path-1"></use>
                            </mask>
                            <g id="Rectangle"></g>
                            <g id="noun_Folder-Lock_732484" mask="url(#mask-2)" fill="#000000" fill-rule="nonzero" stroke="#000000" stroke-width="0.5">
                                <g transform="translate(5.000000, 7.000000)" id="Shape">
                                    <path d="M24.3184651,3.66817846 L23.8837209,3.66817846 L23.8837209,2.91882462 C23.8837209,1.99492615 23.1375814,1.24344 22.2209302,1.24344 L9.79504651,1.24344 L8.79586047,0.169366154 C8.71,0.0770676923 8.59027907,0.0249784615 8.46481395,0.0249784615 L3.77906977,0.0249784615 C2.86211628,0.0249784615 2.11627907,0.776464615 2.11627907,1.70036308 L2.11627907,3.66817846 L1.68153488,3.66817846 C0.764581395,3.66817846 0.018744186,4.41966462 0.018744186,5.34356308 C0.018744186,5.35635692 0.0193488372,5.36884615 0.020255814,5.38133538 L1.22804651,20.0235877 C1.23893023,20.9380431 1.98053488,21.6788677 2.89083721,21.6788677 L8.35809302,21.6788677 L17.641907,21.6788677 L23.1091628,21.6788677 C24.0194651,21.6788677 24.7610698,20.9380431 24.7719535,20.0235877 L25.9797442,5.38133538 C25.9806512,5.36884615 25.9812558,5.35605231 25.9812558,5.34356308 C25.9812558,4.41996923 25.2351163,3.66817846 24.3184651,3.66817846 Z M24.3187674,4.58202462 C24.7299302,4.58202462 25.0655116,4.91466462 25.0742791,5.32680923 L23.866186,19.9654062 L23.8646744,20.0034831 L23.8646744,20.0034831 C23.8646744,20.4235477 23.5257674,20.7650215 23.1088605,20.7650215 L2.89113953,20.7650215 C2.47453488,20.7650215 2.13532558,20.4235477 2.13532558,20.0034831 C2.13532558,19.9909938 2.13472093,19.9778954 2.13381395,19.9654062 L0.926325581,5.32680923 C0.935093023,4.91466462 1.27067442,4.58202462 1.68213953,4.58202462 L24.3187674,4.58202462 Z M8.26890698,0.939129231 L9.26809302,2.01320308 C9.35395349,2.10550154 9.47367442,2.15759077 9.59913953,2.15759077 L22.2209302,2.15759077 C22.6378372,2.15759077 22.9767442,2.49936923 22.9767442,2.91912923 L22.9767442,3.66848308 L3.02325581,3.66848308 L3.02325581,1.70066769 C3.02325581,1.28090769 3.36246512,0.939129231 3.77906977,0.939129231 L8.26890698,0.939129231 Z"></path>
                                </g>
                            </g>
                        </g>
                    </g>
                </g>
            </g>
        </g>
    </g>
</svg>