<svg xmlns="http://www.w3.org/2000/svg" xmlns:xlink="http://www.w3.org/1999/xlink" width="28" height="28" viewBox="0 0 28 28">
    <defs>
        <rect id="2jp8wlceea" width="21" height="21" x="0" y="0" rx="2.333"/>
    </defs>
    <g fill="none" fill-rule="evenodd" transform="translate(3.5 3.5)">
        <mask id="m1zjbh4l9b" fill="#fff">
            <use xlink:href="#2jp8wlceea"/>
        </mask>
        <g fill="#000" mask="url(#m1zjbh4l9b)">
            <path d="M7.164 5.267c2.406-1.525 5.549-1.176 7.562.839.033.032.06.069.082.107l.042-1.275c.01-.276.241-.493.517-.483.276.01.492.24.483.517l-.06 1.736c-.019.56-.423 1.032-.974 1.138l-1.723.327c-.271.052-.533-.127-.584-.398-.052-.271.126-.533.398-.584l1.325-.252c-.078-.023-.151-.065-.213-.126C12.336 5.129 9.71 4.837 7.7 6.11c-2.01 1.275-2.87 3.773-2.065 6.014.803 2.241 3.054 3.625 5.417 3.33 2.362-.294 4.204-2.188 4.433-4.558.027-.275.271-.476.546-.45.275.027.476.272.45.547-.275 2.835-2.479 5.101-5.306 5.454-2.827.352-5.52-1.304-6.482-3.985-.961-2.682.066-5.672 2.472-7.196z"/>
        </g>
    </g>
</svg>
