<svg width="48" height="48" viewBox="0 0 48 48" fill="none" xmlns="http://www.w3.org/2000/svg">
<mask id="mask0" mask-type="alpha" maskUnits="userSpaceOnUse" x="6" y="6" width="36" height="36">
<path d="M38 6H10C7.79086 6 6 7.79086 6 10V38C6 40.2091 7.79086 42 10 42H38C40.2091 42 42 40.2091 42 38V10C42 7.79086 40.2091 6 38 6Z" fill="white"/>
</mask>
<g mask="url(#mask0)">
<path fill-rule="evenodd" clip-rule="evenodd" d="M33.6001 15.6682L22.6633 26.6009L26.6852 33.8658L33.6001 15.6682ZM21.3932 25.3313L32.3301 14.3986L14.1255 21.3109L21.3932 25.3313ZM35.6464 11.2246C36.352 10.9425 37.0576 11.6478 36.7754 12.3531L27.6731 36.2639C27.4614 36.9693 26.4735 37.0398 26.1207 36.405L20.8993 27.0946L11.6559 21.9457C10.9503 21.593 11.0208 20.6055 11.7264 20.3234L35.6464 11.2246Z" fill="black"/>
<path fill-rule="evenodd" clip-rule="evenodd" d="M36.6264 12.2935C36.8561 11.7194 36.2807 11.1438 35.706 11.3736L35.7035 11.3746L11.786 20.4724L11.7848 20.4729C11.2029 20.7066 11.1521 21.5144 11.7276 21.8021L11.734 21.8053L21.017 26.9765L26.2607 36.3265C26.5512 36.8492 27.3524 36.7742 27.5193 36.2178L27.5227 36.2067L36.6254 12.296L36.6264 12.2935ZM36.9249 12.4114C37.258 11.5757 36.4236 10.7422 35.5881 11.0751L35.5868 11.0756L11.6694 20.1734L11.6668 20.1744C10.8398 20.5051 10.749 21.6686 11.5808 22.0876L20.7815 27.2127L25.9805 36.483C26.3949 37.2277 27.5652 37.1644 27.825 36.3158L36.9244 12.4128L36.9249 12.4114ZM32.2731 14.2486L32.4435 14.5121L21.4212 25.5302L13.7448 21.2837L32.2731 14.2486ZM14.5061 21.338L21.3652 25.1323L31.6871 14.8144L14.5061 21.338ZM33.4867 15.5547L33.7502 15.7252L26.7124 34.2462L22.4643 26.5728L33.4867 15.5547ZM22.8622 26.6289L26.6581 33.4854L33.1842 16.3109L22.8622 26.6289Z" fill="black"/>
</g>
</svg>
