<svg width="48" height="48" viewBox="0 0 48 48" fill="none" xmlns="http://www.w3.org/2000/svg">
<path fill-rule="evenodd" clip-rule="evenodd" d="M24.1092 29.8727C23.9245 29.8727 23.7734 29.7066 23.7734 29.5035V19.3707C23.7734 19.2599 23.6727 19.2415 23.6223 19.2968L21.2553 21.6778C21.1042 21.8254 20.886 21.7332 20.886 21.5301V20.4043C20.886 20.1274 20.9531 19.9244 21.0706 19.7952L23.6223 17.1189C23.7063 17.0266 23.8406 16.9528 23.9581 16.9528H24.9989C25.1836 16.9528 25.3346 17.1189 25.3346 17.322V29.5035C25.3346 29.7066 25.1836 29.8727 24.9989 29.8727H24.1092Z" fill="black"/>
<path fill-rule="evenodd" clip-rule="evenodd" d="M23.9367 17.313C23.9141 17.3245 23.8938 17.3407 23.8813 17.3544L23.8757 17.3605L21.3276 20.0329C21.2897 20.0761 21.236 20.1812 21.236 20.4043V21.2008L23.3707 19.0535C23.4862 18.9326 23.6677 18.8807 23.8372 18.9428C24.0338 19.0149 24.1234 19.1998 24.1234 19.3707V29.5035C24.1234 29.512 24.1253 29.5184 24.1272 29.5227H24.9809C24.9828 29.5184 24.9846 29.512 24.9846 29.5035V17.3219C24.9846 17.3135 24.9828 17.3071 24.9809 17.3028H23.9624L23.9606 17.3033C23.9556 17.3047 23.9473 17.3076 23.9367 17.313ZM23.3666 16.8799C23.497 16.7383 23.7174 16.6028 23.9581 16.6028H24.9989C25.4073 16.6028 25.6846 16.9576 25.6846 17.3219V29.5035C25.6846 29.8679 25.4073 30.2227 24.9989 30.2227H24.1092C23.7007 30.2227 23.4234 29.8679 23.4234 29.5035V19.9934L21.5 21.9281C21.332 22.0923 21.0934 22.146 20.8817 22.0595C20.6702 21.9731 20.536 21.7668 20.536 21.5301V20.4043C20.536 20.0775 20.6146 19.7764 20.8117 19.5597L20.8173 19.5536L23.3666 16.8799Z" fill="black"/>
<path fill-rule="evenodd" clip-rule="evenodd" d="M15.2417 11C14.9004 11 14.592 11.1379 14.3657 11.3654C14.1394 11.5931 14 11.906 14 12.2547V35.7453C14 36.094 14.1393 36.4069 14.3657 36.6346C14.592 36.8621 14.9004 37 15.2417 37H32.7583C33.0996 37 33.408 36.8621 33.6343 36.6346C33.8607 36.4069 34 36.094 34 35.7453V16.0873L29.3542 11H15.2417ZM12.9474 9.95532C13.5325 9.36687 14.3449 9 15.2417 9H30.2363L36 15.3116V35.7453C36 36.6419 35.6375 37.4563 35.0526 38.0447C34.4675 38.6331 33.6551 39 32.7583 39H15.2417C14.3449 39 13.5325 38.6331 12.9474 38.0447C12.3625 37.4563 12 36.6419 12 35.7453V12.2547C12 11.3581 12.3625 10.5437 12.9474 9.95532Z" fill="black"/>
</svg>
