<svg width="48" height="48" viewBox="0 0 48 48" fill="none" xmlns="http://www.w3.org/2000/svg">
<mask id="mask0" mask-type="alpha" maskUnits="userSpaceOnUse" x="6" y="6" width="36" height="36">
<path d="M38 6H10C7.79086 6 6 7.79086 6 10V38C6 40.2091 7.79086 42 10 42H38C40.2091 42 42 40.2091 42 38V10C42 7.79086 40.2091 6 38 6Z" fill="white"/>
</mask>
<g mask="url(#mask0)">
<path fill-rule="evenodd" clip-rule="evenodd" d="M18 24C18 23.4477 18.4477 23 19 23H29C29.5523 23 30 23.4477 30 24C30 24.5523 29.5523 25 29 25H19C18.4477 25 18 24.5523 18 24Z" fill="#6A6A6A"/>
<path fill-rule="evenodd" clip-rule="evenodd" d="M18 29C18 28.4477 18.4477 28 19 28H29C29.5523 28 30 28.4477 30 29C30 29.5523 29.5523 30 29 30H19C18.4477 30 18 29.5523 18 29Z" fill="#6A6A6A"/>
<path fill-rule="evenodd" clip-rule="evenodd" d="M16.8986 12C15.8574 12 15 12.8528 15 13.9213V34.0787C15 35.1472 15.8574 36 16.8986 36H31.1014C32.1426 36 33 35.1472 33 34.0787V13.9213C33 12.8528 32.1426 12 31.1014 12H16.8986ZM13 13.9213C13 11.763 14.7381 10 16.8986 10H31.1014C33.2619 10 35 11.763 35 13.9213V34.0787C35 36.237 33.2619 38 31.1014 38H16.8986C14.7381 38 13 36.237 13 34.0787V13.9213Z" fill="#6A6A6A"/>
<path fill-rule="evenodd" clip-rule="evenodd" d="M17 10H31V14C31 15.6569 29.6569 17 28 17H20C18.3431 17 17 15.6569 17 14V10ZM19 12V14C19 14.5523 19.4477 15 20 15H28C28.5523 15 29 14.5523 29 14V12H19Z" fill="#6A6A6A"/>
</g>
</svg>
