<svg xmlns="http://www.w3.org/2000/svg" xmlns:xlink="http://www.w3.org/1999/xlink" width="32" height="32" viewBox="0 0 32 32">
    <defs>
        <rect id="qjmhh8w9ia" width="24" height="24" x="0" y="0" rx="4"/>
    </defs>
    <g fill="none" fill-rule="evenodd" transform="translate(4 4)">
        <mask id="e2yr8wj9wb" fill="#fff">
            <use xlink:href="#qjmhh8w9ia"/>
        </mask>
        <g fill="#6A6A6A" stroke="#6A6A6A" stroke-width=".5" mask="url(#e2yr8wj9wb)">
            <path d="M6.488 4.852c.232.243.226.63-.013.864-1.677 1.643-2.538 3.635-2.596 6.007-.057 2.354.796 4.326 2.58 5.96.248.226.267.613.043.863-.225.25-.607.269-.855.042-2.043-1.87-3.043-4.183-2.977-6.895.065-2.692 1.057-4.988 2.962-6.854.24-.235.623-.229.856.013zm10.998 0c.233-.242.616-.248.855-.013 1.905 1.866 2.897 4.162 2.963 6.854.066 2.712-.934 5.025-2.978 6.895-.247.227-.63.208-.854-.042-.224-.25-.206-.637.042-.864 1.785-1.633 2.638-3.605 2.58-5.959-.057-2.372-.918-4.364-2.595-6.007-.24-.234-.246-.621-.013-.864zm-2.708 3.286c.232-.243.614-.25.855-.015 1.186 1.154 1.793 2.483 1.793 3.958s-.561 2.737-1.664 3.746c-.247.226-.63.207-.854-.043-.225-.25-.206-.636.042-.863.85-.779 1.266-1.713 1.266-2.84 0-1.129-.465-2.145-1.423-3.079-.24-.234-.247-.62-.015-.864zm-5.582 0c.232.243.225.63-.016.864-.958.934-1.422 1.95-1.422 3.079 0 1.127.415 2.061 1.266 2.84.247.227.266.613.042.863s-.607.27-.855.043c-1.102-1.01-1.663-2.271-1.663-3.746s.607-2.804 1.793-3.958c.24-.235.623-.228.855.015zm2.734 2.136c.801 0 1.431.637 1.431 1.447s-.63 1.446-1.431 1.446c-.802 0-1.432-.636-1.432-1.446 0-.81.63-1.447 1.432-1.447z"/>
        </g>
    </g>
</svg>
