<svg width="48" height="48" viewBox="0 0 48 48" fill="none" xmlns="http://www.w3.org/2000/svg">
<mask id="mask0" mask-type="alpha" maskUnits="userSpaceOnUse" x="5" y="5" width="38" height="38">
<path d="M38 6H10C7.79086 6 6 7.79086 6 10V38C6 40.2091 7.79086 42 10 42H38C40.2091 42 42 40.2091 42 38V10C42 7.79086 40.2091 6 38 6Z" fill="white" stroke="black" stroke-width="2"/>
</mask>
<g mask="url(#mask0)">
<path fill-rule="evenodd" clip-rule="evenodd" d="M14.8076 12.2929C15.1981 12.6834 15.1981 13.3166 14.8076 13.7071C12.9895 15.5252 11.7514 17.8416 11.2498 20.3633C10.7482 22.8851 11.0056 25.4989 11.9896 27.8744C12.9735 30.2498 14.6398 32.2801 16.7776 33.7086C17.2368 34.0154 17.3603 34.6364 17.0535 35.0956C16.7467 35.5548 16.1257 35.6784 15.6665 35.3715C13.1997 33.7233 11.2771 31.3806 10.1418 28.6397C9.0065 25.8989 8.70945 22.8829 9.28823 19.9731C9.86701 17.0634 11.2956 14.3907 13.3934 12.2929C13.7839 11.9024 14.4171 11.9024 14.8076 12.2929ZM33.1924 12.2929C33.5829 11.9024 34.2161 11.9024 34.6066 12.2929C36.7044 14.3907 38.133 17.0634 38.7118 19.9731C39.2906 22.8829 38.9935 25.8989 37.8582 28.6397C36.7229 31.3806 34.8003 33.7233 32.3336 35.3715C31.8744 35.6784 31.2534 35.5549 30.9465 35.0956C30.6397 34.6364 30.7632 34.0154 31.2224 33.7086C33.3603 32.2801 35.0265 30.2498 36.0104 27.8744C36.9944 25.4989 37.2518 22.8851 36.7502 20.3633C36.2486 17.8416 35.0105 15.5252 33.1924 13.7071C32.8019 13.3166 32.8019 12.6834 33.1924 12.2929Z" fill="#6A6A6A"/>
<path fill-rule="evenodd" clip-rule="evenodd" d="M19.0503 16.5355C19.4408 16.9261 19.4408 17.5592 19.0503 17.9498C18.0713 18.9287 17.4046 20.176 17.1345 21.5339C16.8644 22.8917 17.003 24.2992 17.5328 25.5783C18.0627 26.8574 18.9599 27.9506 20.111 28.7198C20.5702 29.0266 20.6937 29.6476 20.3869 30.1068C20.0801 30.566 19.4591 30.6896 18.9999 30.3827C17.5198 29.3938 16.3663 27.9882 15.6851 26.3437C15.0039 24.6991 14.8257 22.8895 15.1729 21.1437C15.5202 19.3979 16.3774 17.7942 17.636 16.5355C18.0266 16.145 18.6597 16.145 19.0503 16.5355ZM28.9498 16.5355C29.3403 16.145 29.9734 16.145 30.364 16.5355C31.6226 17.7942 32.4798 19.3979 32.8271 21.1437C33.1743 22.8895 32.9961 24.6991 32.3149 26.3437C31.6337 27.9882 30.4802 29.3938 29.0001 30.3827C28.5409 30.6896 27.9199 30.566 27.6131 30.1068C27.3063 29.6476 27.4298 29.0266 27.889 28.7198C29.0401 27.9506 29.9373 26.8574 30.4672 25.5783C30.997 24.2992 31.1356 22.8917 30.8655 21.5339C30.5954 20.176 29.9287 18.9287 28.9497 17.9498C28.5592 17.5592 28.5592 16.9261 28.9498 16.5355Z" fill="#6A6A6A"/>
<path d="M27 22.8995C27 24.5564 25.6569 25.8995 24 25.8995C22.3431 25.8995 21 24.5564 21 22.8995C21 21.2427 22.3431 19.8995 24 19.8995C25.6569 19.8995 27 21.2427 27 22.8995Z" fill="#6A6A6A"/>
</g>
</svg>
