<svg xmlns="http://www.w3.org/2000/svg" width="18" height="20" viewBox="0 0 18 20">
    <g fill="none" fill-rule="evenodd">
        <g fill="#AEBEC9">
            <g>
                <g>
                    <g>
                        <g>
                            <g>
                                <path d="M4.187 10c1.127.774 2.576 1.226 4.106 1.226 1.61 0 3.06-.452 4.187-1.161 2.496 1.096 4.187 3.16 4.187 5.677v2.129c0 1.161-1.208 2.129-2.738 2.129H2.738C1.208 20 0 19.032 0 17.871v-2.13c0-2.45 1.69-4.58 4.187-5.741zM8.3 0C10.663 0 12.5 1.837 12.5 4.134c0 2.362-1.837 4.2-4.2 4.2-2.296 0-4.133-1.838-4.133-4.2C4.167 1.837 6.004 0 8.3 0z" transform="translate(-1217 -425) translate(690 299) translate(512 112) translate(14 14) translate(1.667)"/>
                            </g>
                        </g>
                    </g>
                </g>
            </g>
        </g>
    </g>
</svg>
