<svg width="48" height="48" viewBox="0 0 48 48" fill="none" xmlns="http://www.w3.org/2000/svg">
<mask id="mask0" mask-type="alpha" maskUnits="userSpaceOnUse" x="6" y="6" width="36" height="36">
<path d="M38 6H10C7.79086 6 6 7.79086 6 10V38C6 40.2091 7.79086 42 10 42H38C40.2091 42 42 40.2091 42 38V10C42 7.79086 40.2091 6 38 6Z" fill="white"/>
</mask>
<g mask="url(#mask0)">
<path d="M14.75 29.75H11.625C11.2798 29.75 11 30.0298 11 30.375V35.375C11 35.7202 11.2798 36 11.625 36H14.75C15.0952 36 15.375 35.7202 15.375 35.375V30.375C15.375 30.0298 15.0952 29.75 14.75 29.75Z" fill="#6A6A6A"/>
<path d="M21.625 23.5H18.5C18.1548 23.5 17.875 23.7798 17.875 24.125V35.375C17.875 35.7202 18.1548 36 18.5 36H21.625C21.9702 36 22.25 35.7202 22.25 35.375V24.125C22.25 23.7798 21.9702 23.5 21.625 23.5Z" fill="#6A6A6A"/>
<path d="M28.5 17.25H25.375C25.0298 17.25 24.75 17.5298 24.75 17.875V35.375C24.75 35.7202 25.0298 36 25.375 36H28.5C28.8452 36 29.125 35.7202 29.125 35.375V17.875C29.125 17.5298 28.8452 17.25 28.5 17.25Z" fill="#6A6A6A"/>
<path d="M35.375 11H32.25C31.9048 11 31.625 11.2798 31.625 11.625V35.375C31.625 35.7202 31.9048 36 32.25 36H35.375C35.7202 36 36 35.7202 36 35.375V11.625C36 11.2798 35.7202 11 35.375 11Z" fill="#6A6A6A"/>
</g>
</svg>
