<svg width="48" height="48" viewBox="0 0 48 48" fill="none" xmlns="http://www.w3.org/2000/svg">
<mask id="mask0" mask-type="alpha" maskUnits="userSpaceOnUse" x="6" y="6" width="36" height="36">
<path d="M38 6H10C7.79086 6 6 7.79086 6 10V38C6 40.2091 7.79086 42 10 42H38C40.2091 42 42 40.2091 42 38V10C42 7.79086 40.2091 6 38 6Z" fill="white"/>
</mask>
<g mask="url(#mask0)">
<path d="M14.75 34H11.625C11.2798 34 11 34.2798 11 34.625V35.375C11 35.7202 11.2798 36 11.625 36H14.75C15.0952 36 15.375 35.7202 15.375 35.375V34.625C15.375 34.2798 15.0952 34 14.75 34Z" fill="black"/>
<path fill-rule="evenodd" clip-rule="evenodd" d="M11.9756 19C12.1187 19 12.2358 18.8971 12.2358 18.7714V15.9143C12.2358 15.8457 12.2878 15.8 12.3659 15.8H13.1593C13.3024 15.8 13.3675 15.8686 13.4065 15.9371L14.9675 18.8171C15.0195 18.9086 15.1106 19 15.2797 19H16.0732C16.2553 19 16.3333 18.8971 16.3333 18.7943C16.3333 18.7143 16.3073 18.6571 16.2813 18.6114L14.7724 15.9143C14.7333 15.8457 14.7073 15.7886 14.7073 15.72C14.7073 15.6171 14.8114 15.5371 14.9805 15.4457C15.774 15.0343 16.3333 14.3829 16.3333 13.4C16.3333 11.96 15.1106 11 13.6016 11H11.2602C11.1171 11 11 11.1029 11 11.2286V18.7714C11 18.8971 11.1171 19 11.2602 19H11.9756ZM13.6016 14.7143H12.3659C12.2878 14.7143 12.2358 14.6686 12.2358 14.6V12.2C12.2358 12.1314 12.2878 12.0857 12.3659 12.0857H13.6016C14.3951 12.0857 15.0585 12.5657 15.0585 13.4C15.0585 14.2343 14.3951 14.7143 13.6016 14.7143Z" fill="black"/>
<path d="M21.625 34H18.5C18.1548 34 17.875 34.2798 17.875 34.625V35.375C17.875 35.7202 18.1548 36 18.5 36H21.625C21.9702 36 22.25 35.7202 22.25 35.375V34.625C22.25 34.2798 21.9702 34 21.625 34Z" fill="black"/>
<path d="M28.5 34H25.375C25.0298 34 24.75 34.2798 24.75 34.625V35.375C24.75 35.7202 25.0298 36 25.375 36H28.5C28.8452 36 29.125 35.7202 29.125 35.375V34.625C29.125 34.2798 28.8452 34 28.5 34Z" fill="black"/>
<path d="M35.375 34H32.25C31.9048 34 31.625 34.2798 31.625 34.625V35.375C31.625 35.7202 31.9048 36 32.25 36H35.375C35.7202 36 36 35.7202 36 35.375V34.625C36 34.2798 35.7202 34 35.375 34Z" fill="black"/>
</g>
</svg>
