<svg xmlns="http://www.w3.org/2000/svg" xmlns:xlink="http://www.w3.org/1999/xlink" width="28" height="28" viewBox="0 0 28 28">
    <defs>
        <rect id="xoy2x5nhda" width="21" height="21" x="0" y="0" rx="2.333"/>
    </defs>
    <g fill="none" fill-rule="evenodd" transform="translate(3.5 3.5)">
        <mask id="e0bx80ai0b" fill="#fff">
            <use xlink:href="#xoy2x5nhda"/>
        </mask>
        <g fill="#FFF" mask="url(#e0bx80ai0b)">
            <path d="M15.626 14.41c-.212.49-.462.94-.753 1.354-.395.564-.72.954-.97 1.171-.386.356-.8.539-1.245.55-.319 0-.703-.092-1.15-.276-.45-.183-.862-.274-1.24-.274-.395 0-.82.091-1.274.274-.454.184-.82.28-1.1.29-.426.018-.85-.17-1.274-.564-.27-.236-.61-.64-1.014-1.213-.435-.612-.792-1.321-1.072-2.13-.3-.874-.45-1.72-.45-2.539 0-.938.202-1.747.608-2.425.319-.545.744-.975 1.275-1.29.531-.316 1.105-.476 1.723-.487.338 0 .782.105 1.333.31.55.207.903.312 1.057.312.116 0 .508-.123 1.173-.367.628-.226 1.159-.32 1.593-.283 1.178.095 2.063.56 2.651 1.396-1.053.639-1.574 1.533-1.564 2.68.01.893.334 1.636.97 2.226.289.274.611.486.97.636-.078.226-.16.442-.247.65zM12.925 3.78c0 .7-.256 1.354-.765 1.96-.616.718-1.36 1.134-2.166 1.068-.01-.084-.017-.172-.017-.265 0-.672.293-1.391.812-1.98.26-.297.59-.545.99-.742.399-.195.776-.303 1.131-.321.01.094.015.187.015.28z"/>
        </g>
    </g>
</svg>
