<svg xmlns="http://www.w3.org/2000/svg" width="16" height="16" viewBox="0 0 16 16">
    <g fill="none" fill-rule="evenodd">
        <g stroke="#6A6A6A" stroke-width="1.3">
            <path d="M8.1 14.4H1.892C.835 14.4 0 13.74 0 12.948v-1.452C0 9.823 1.169 8.37 2.894 7.579c.779.528 1.78.836 2.838.836H8.1M5.736 0c1.741 0 3.096 1.337 3.096 3.008 0 1.718-1.355 3.055-3.096 3.055-1.693 0-3.048-1.337-3.048-3.055C2.688 1.337 4.043 0 5.736 0z" transform="translate(.8)"/>
        </g>
        <path fill="#6A6A6A" d="M13.184 15.936c-2.202 0-2.784-1.82-2.784-2.784V6.79c0-.22.178-.398.398-.398.22 0 .397.178.397.398v6.363c.002.203.07 1.989 1.99 1.989 1.965 0 1.988-1.908 1.988-1.989V6.79c-.003-.198-.07-1.194-1.193-1.194s-1.191.996-1.194 1.196v6.361c.005.18.078.398.398.398s.393-.219.398-.402v-6.36c0-.219.178-.397.398-.397.22 0 .397.178.397.398v6.363c0 .48-.318 1.193-1.193 1.193s-1.193-.713-1.193-1.193V6.79c0-.688.416-1.989 1.989-1.989 1.573 0 1.988 1.301 1.988 1.989v6.363c0 .963-.582 2.784-2.784 2.784z"/>
    </g>
</svg>
