<svg xmlns="http://www.w3.org/2000/svg" width="14" height="14" viewBox="0 0 14 14">
    <path fill="#FFF" fill-rule="evenodd" d="M13.443 9.167c.308 0 .557.246.557.55v3.566c0 .304-.25.55-.557.55H.557c-.308 0-.557-.246-.557-.55V9.717c0-.304.25-.55.557-.55.307 0 .557.246.557.55v3.015h11.772V9.717c0-.304.25-.55.557-.55zm-6.35 1.218l-.013.001h-.002l-.016.004-.059.003.043-.004.032-.003h.001l-.033.003-.046.004-.093-.008-.03-.006c-.016-.004-.032-.008-.049-.014-.015-.005-.03-.01-.046-.017l-.037-.018c-.015-.009-.03-.017-.043-.027l-.043-.031-.005-.004.02.016-.045-.04-.01-.008L4.335 7.95c-.21-.21-.21-.551 0-.761.187-.187.477-.208.687-.063l.074.063 1.366 1.365V1.478c0-.264.19-.484.441-.53L7 .94c.268 0 .49.195.531.451l.007.087.002 7.077L8.904 7.19c.189-.19.484-.209.695-.057l.066.057c.187.187.208.477.063.687l-.063.074-2.284 2.285-.009.008c-.015.014-.03.028-.047.04l-.027.02-.043.025-.038.019-.045.017c-.017.006-.033.01-.05.014l-.041.007h.012z"/>
</svg>
