<svg xmlns="http://www.w3.org/2000/svg" width="16" height="17" viewBox="0 0 16 17">
    <path stroke="#000" stroke-width=".5" d="M14.965 4.106h-.267v-.454c0-.56-.46-1.015-1.024-1.015H6.028l-.615-.651c-.053-.056-.127-.088-.204-.088H2.326c-.565 0-1.024.456-1.024 1.016v1.192h-.267c-.564 0-1.023.456-1.023 1.016v.023l.744 8.874c.006.554.463 1.003 1.023 1.003h12.442c.56 0 1.017-.449 1.023-1.003l.744-8.874v-.023c0-.56-.459-1.016-1.023-1.016zm0 .554c.253 0 .46.202.465.452l-.743 8.872-.001.023c0 .254-.209.461-.465.461H1.779c-.256 0-.465-.207-.465-.461v-.023L.57 5.112c.005-.25.212-.452.465-.452h13.93zM5.09 2.453l.614.65c.053.056.127.088.204.088h7.767c.257 0 .466.207.466.462v.454H1.86V2.914c0-.254.21-.461.466-.461h2.763z"/>
</svg>
