<svg xmlns="http://www.w3.org/2000/svg" width="14" height="14" viewBox="0 0 14 14">
    <path fill="#000" fill-rule="evenodd" d="M7 13.96c3.32-.001 6.177-2.348 6.824-5.604.647-3.257-1.097-6.517-4.164-7.786C6.592-.7 3.054.374 1.21 3.135c-1.843 2.76-1.48 6.44.868 8.787C3.38 13.232 5.153 13.965 7 13.96zm4.14-11.1c2.134 2.137 2.293 5.546.368 7.872L3.27 2.49C5.596.563 9.005.723 11.14 2.857l-.002.004zm-8.659.41l8.25 8.241c-2.328 1.921-5.734 1.76-7.867-.375C.73 9.003.568 5.596 2.489 3.27H2.48z"/>
</svg>
