<svg xmlns="http://www.w3.org/2000/svg" xmlns:xlink="http://www.w3.org/1999/xlink" width="28" height="28" viewBox="0 0 28 28">
    <defs>
        <rect id="g6o4tson5a" width="21" height="21" x="0" y="0" rx="2.333"/>
    </defs>
    <g fill="none" fill-rule="evenodd" transform="translate(3.5 3.5)">
        <mask id="el5548gl6b" fill="#fff">
            <use xlink:href="#g6o4tson5a"/>
        </mask>
        <g fill="#6D9BBC" mask="url(#el5548gl6b)">
            <g>
                <path d="M8.888 4.79c-.207 0-.414-.079-.572-.234l-2.66-2.629-2.66 2.63c-.315.31-.827.31-1.142 0-.315-.312-.315-.818 0-1.13L5.086.236c.315-.312.827-.312 1.142 0L9.46 3.428c.315.311.315.817 0 1.128-.159.155-.365.233-.572.233z" transform="translate(4.667 2.917)"/>
                <path d="M5.656 10.92c-.446 0-.808-.408-.808-.91V.91c0-.502.362-.91.808-.91.446 0 .808.408.808.91v9.1c0 .502-.362.91-.808.91z" transform="translate(4.667 2.917)"/>
                <path d="M.808 14.657c-.206 0-.413-.06-.572-.177-.315-.237-.315-.622 0-.858l4.848-3.64c.315-.238.827-.238 1.142 0 .315.236.315.62 0 .857L1.38 14.48c-.157.119-.364.178-.57.178z" transform="translate(4.667 2.917)"/>
                <path d="M10.567 14.657c.206 0 .413-.06.572-.177.315-.237.315-.622 0-.858L6.29 9.982c-.315-.238-.827-.238-1.142 0-.315.236-.315.62 0 .857l4.847 3.64c.157.119.364.178.57.178z" transform="translate(4.667 2.917)"/>
            </g>
        </g>
    </g>
</svg>
