<svg xmlns="http://www.w3.org/2000/svg" width="16" height="17" viewBox="0 0 16 17">
    <path fill="#000" fill-rule="evenodd" d="M14.667 6.314c.368 0 .666.299.666.668v8.682a.667.667 0 0 1-.666.668H4a.667.667 0 0 1-.667-.668V6.982c0-.37.299-.668.667-.668h10.667zM14 7.649H4.667v7.347H14V7.65zm-1.333.667v2.673a.667.667 0 0 1-.667.668H5.333V10.32l6 .001V8.316h1.334zM12 1.638c.368 0 .667.3.667.668v3.34h-1.334V2.973H2v7.347h.667v1.335H1.333a.667.667 0 0 1-.666-.667V2.306c0-.369.298-.668.666-.668H12z"/>
</svg>
