<svg xmlns="http://www.w3.org/2000/svg" width="16" height="17" viewBox="0 0 16 17">
    <path fill="none" fill-rule="evenodd" stroke="#000" stroke-width="1.5" d="M4.938 9.475c.791.544 1.808.862 2.882.862 1.13 0 2.147-.318 2.938-.817 1.751.771 2.938 2.223 2.938 3.992v1.496c0 .817-.848 1.497-1.921 1.497H3.92c-1.073 0-1.921-.68-1.921-1.497v-1.496c0-1.724 1.187-3.22 2.938-4.037zM7.868.882c1.91 0 3.395 1.488 3.395 3.348 0 1.913-1.485 3.401-3.395 3.401-1.856 0-3.342-1.488-3.342-3.401A3.331 3.331 0 0 1 7.868.882z"/>
</svg>
