<svg xmlns="http://www.w3.org/2000/svg" width="14" height="14" viewBox="0 0 14 14">
    <path fill="#000" fill-rule="evenodd" d="M8.683.038c.816 0 1.484.676 1.484 1.503v.545h3.21a.55.55 0 0 1 .556.564v.038c-.018.3-.26.545-.556.526h-.984l-.593 9.248c-.037.79-.687 1.429-1.485 1.41h-6.53c-.798.019-1.447-.62-1.484-1.41l-.594-9.248H.687a.543.543 0 0 1-.52-.564.55.55 0 0 1 .557-.564h3.21v-.545C3.933.714 4.6.038 5.416.038zm2.579 3.176H2.839l.575 9.173v.019c.018.207.185.357.37.338h6.55c.204 0 .352-.169.352-.357l.576-9.173zM5.529 4.868a.603.603 0 0 1 .556.564v5.094a.603.603 0 0 1-.556.564.55.55 0 0 1-.557-.564V5.432a.55.55 0 0 1 .557-.564zm3.042 0a.55.55 0 0 1 .557.564v5.094a.55.55 0 0 1-.557.564.603.603 0 0 1-.556-.564V5.432c.018-.3.26-.545.556-.564zm.112-3.703H5.417a.375.375 0 0 0-.37.376v.545h4.007v-.545a.375.375 0 0 0-.371-.376z"/>
</svg>
