<svg xmlns="http://www.w3.org/2000/svg" width="16" height="17" viewBox="0 0 16 17">
    <path fill="none" fill-rule="evenodd" stroke="#000" stroke-width=".3" d="M6.725 14.158a1.652 1.652 0 0 1 1.82-.502c.66.247 1.106.87 1.113 1.587l-.001-.026.003.026c-.007.729-.493 1.41-1.186 1.613l-.141.034a1.68 1.68 0 0 1-1.765-.783c-.368-.616-.287-1.4.157-1.949zm.43.52l-.022.037c-.02.032-.037.064-.053.097l-.01.019c-.004.002-.023.05-.008.021l.004-.01-.027.081-.027.091c-.008.035-.008.079-.021.112l.003-.02-.001.024-.002.023a1.178 1.178 0 0 0 0 .187v.02l.005.026c-.008-.038-.009-.009-.004.01l.004.01-.004-.017-.001-.02.005.017.018.089c.006.031.016.065.026.097l.01.03.009.032.002.002.012.02.02.04a1.117 1.117 0 0 0 .096.16l.005.01-.007-.007a.193.193 0 0 0 .02.026l.004.005-.01-.014-.003-.005.07.076.07.068.032.029c.028.025.016.016.003.005l-.008-.006.009.01.033.02.026.016c.056.037.116.06.172.095l-.015-.008.018.006.02.009a1.023 1.023 0 0 0 .191.053l.033.006H7.83c-.006.001.072.01.034.002l-.012-.002.095.007h.092c.036 0 .077-.01.114-.008H8.13l.001.002.045-.009c.06-.013.122-.03.181-.051l.023-.007c-.007.008.022-.003.028-.013l-.024.012H8.38l.011-.006.045-.022.043-.023a.882.882 0 0 0 .074-.045l.026-.015.027-.018.002-.002.016-.017c.012-.01.023-.018.033-.028l.07-.068c.02-.022.037-.044.057-.065l.004-.005.01-.014c.018-.026.036-.054.053-.082l.047-.086.02-.04c.017-.034.012-.021.004-.005l-.007.015.01-.016a.429.429 0 0 0 .013-.04l.008-.03c.021-.065.035-.13.048-.196l-.003.01v.01c-.004.046.011-.067.003-.02l-.001-.004.002-.023c.002-.035.004-.07.004-.105l-.001.003.008.062c.032.149.165.276.323.269a.337.337 0 0 0 .33-.334l-.001-.026-.004-.04c-.03-.148-.169-.275-.324-.268a.342.342 0 0 0-.322.257l-.01.077a.587.587 0 0 0-.01-.13v.008a.112.112 0 0 1-.006-.031v-.005a1.19 1.19 0 0 0-.026-.118l-.035-.106-.004-.014-.003-.007v.002a.152.152 0 0 1-.004-.01l-.003-.008.001.004-.005-.01-.046-.086a1.065 1.065 0 0 0-.058-.092l-.013-.023-.013-.012a1.709 1.709 0 0 0-.07-.076l-.074-.07a.288.288 0 0 0-.025-.022h.002l-.012-.007a1.24 1.24 0 0 0-.044-.031l-.046-.029a1.412 1.412 0 0 0-.086-.047c-.007-.003-.031-.018-.04-.024l.01.01.012.008-.01-.006-.014-.006a1.399 1.399 0 0 0-.2-.06l-.027-.004-.005-.002-.015-.002-.01-.002-.01-.002.006.002-.03-.002-.047-.003c-.064-.002-.129.003-.195.008l.014-.001-.015.003a.275.275 0 0 0-.023.003l-.022.005-.086.022c-.031.01-.062.02-.094.032l-.012.003-.01.007a3.42 3.42 0 0 0-.087.046l-.084.05-.025.014-.018.01-.011.015-.018.014-.015.014c-.05.044-.093.092-.136.14l-.006.006.011-.014c.021-.03-.025.027-.02.024l.008-.006-.037.053zM1.72 9.935a1.652 1.652 0 0 1 1.82-.503c.661.247 1.107.871 1.113 1.587l-.002-.036.004.036c-.006.73-.493 1.41-1.186 1.613l-.141.034a1.68 1.68 0 0 1-1.765-.782c-.368-.616-.287-1.4.157-1.95zm10.01 0a1.652 1.652 0 0 1 1.82-.503c.66.247 1.106.871 1.113 1.587l-.003-.036.004.036c-.006.73-.492 1.41-1.186 1.613l-.14.034a1.68 1.68 0 0 1-1.765-.782c-.368-.616-.288-1.4.156-1.95zm-5.005 0a1.652 1.652 0 0 1 1.82-.503c.66.247 1.106.871 1.113 1.587l-.001-.025.003.025c-.007.73-.493 1.41-1.186 1.613l-.141.034a1.68 1.68 0 0 1-1.765-.782c-.368-.616-.287-1.4.157-1.95zm-3.692.071c-.065-.001-.13.004-.195.009l.014-.002-.016.003a.275.275 0 0 0-.022.004l-.022.005-.086.021c-.032.01-.063.02-.094.032l-.01.003c.009-.004.007-.004.004-.003l-.011.005.007-.002-.013.007a3.42 3.42 0 0 0-.087.046l-.084.05c-.006.005-.015.01-.024.015l-.02.01h.002l-.012.014-.033.029a1.54 1.54 0 0 0-.135.14l-.001-.001.006-.007c.02-.031-.026.027-.02.024l.012-.015-.005.008-.012.018a1.117 1.117 0 0 0-.1.17l-.01.021c.012-.041-.029.057-.009.019l.005-.011-.027.082-.028.09c-.008.036-.008.08-.021.112l.003-.013v.017l-.003.023a1.178 1.178 0 0 0 0 .187l.005.047c-.008-.039-.008-.01-.003.01l.003.009-.003-.017-.002-.02.005.018.008.044.01.044c.007.032.017.065.027.097l.009.03.009.033.003.001.012.021.02.04a1.117 1.117 0 0 0 .096.16l.007.013.072.078.069.068c.011.01.023.018.033.028.046.042-.017-.01-.017-.011l.02.02c.02.015.05.03.06.036.056.037.115.06.171.095l-.01-.005.013.004.02.008a1.023 1.023 0 0 0 .192.054l.044.008-.003-.002.086.006h.092l.096-.007.019-.003.022-.004c.061-.013.122-.03.182-.052l.02-.006.013-.007.044-.022.043-.023a.882.882 0 0 0 .074-.045c.005-.004.015-.01.026-.015l.029-.02.016-.017c.012-.01.024-.018.033-.028.024-.022.047-.045.07-.069l.058-.065v-.002l.013-.016c.019-.027.037-.055.053-.083l.047-.086.03-.06c.003-.005 0 .005-.005.016l-.008.015.011-.017a.429.429 0 0 0 .012-.04l.008-.029c.022-.065.035-.13.048-.197l-.002.01-.001.01c-.002.028.002-.001.005-.02l-.001-.004v.004l-.003.01.001-.014.003-.023.003-.105v.003l.007.062c.032.15.166.276.323.269a.337.337 0 0 0 .33-.334l-.002-.036-.002-.029c-.031-.149-.17-.276-.324-.268a.342.342 0 0 0-.322.256l-.01.077a.596.596 0 0 0-.011-.13H3.98a1.272 1.272 0 0 0-.065-.252l-.009-.02-.005-.013-.005-.009-.022-.043-.024-.043a1.065 1.065 0 0 0-.058-.092l-.014-.024c.014.01.014.003.004-.006l-.02-.013.014.017-.01-.01a1.709 1.709 0 0 0-.07-.075l-.074-.071-.024-.022.002.002.005.003.007.005-.01-.008a.318.318 0 0 0-.012-.009l.006.006-.008-.005a1.24 1.24 0 0 0-.045-.032l-.046-.028a1.412 1.412 0 0 0-.086-.047c-.011-.005-.07-.045-.03-.015.037.027.005.001-.011-.004a1.399 1.399 0 0 0-.201-.06l-.026-.004-.006-.002-.015-.002h-.002l-.018-.003.01.002-.034-.003zm10.009 0c-.065-.001-.13.004-.195.009l.013-.002-.015.003a.275.275 0 0 0-.022.004l-.022.005-.086.021c-.032.01-.063.02-.094.032l-.01.003c.009-.004.008-.004.005-.003l-.012.005.007-.002-.013.007a3.42 3.42 0 0 0-.087.046l-.083.05c-.006.005-.015.01-.025.015l-.02.01h.002l-.012.014-.033.029c-.05.043-.092.091-.135.14l-.001-.001.006-.007c.02-.031-.026.027-.02.024l.012-.015-.005.008-.012.018a1.117 1.117 0 0 0-.1.17l-.01.021c.013-.041-.029.057-.009.019l.005-.011-.027.082-.027.09c-.009.036-.009.08-.022.112l.003-.013v.017l-.003.023a1.178 1.178 0 0 0 0 .187l.005.047c-.008-.039-.008-.01-.003.01l.003.009-.003-.017-.002-.02.005.018.009.044.01.044c.006.032.016.065.026.097l.009.03.01.033.002.001.012.021.02.04a1.117 1.117 0 0 0 .096.16l.007.013.072.078.069.068c.011.01.023.018.033.028l.013.013-.01-.008a.63.63 0 0 1-.014-.01l.014.014c.02.015.05.03.06.036.056.037.115.06.171.095l-.01-.005.013.004.02.008a1.023 1.023 0 0 0 .192.054l.044.008-.003-.002.087.006h.091l.096-.007.019-.003.022-.004c.061-.013.122-.03.182-.052l.02-.006.013-.007.044-.022.043-.023a.882.882 0 0 0 .075-.045c.005-.004.014-.01.025-.015l.029-.02.017-.017c.011-.01.023-.018.033-.028l.069-.069.058-.065v-.002a.067.067 0 0 1-.012.019c.016-.008.03-.031.025-.03l-.011.01.01-.015c.02-.027.038-.055.054-.083l.048-.086.03-.06c.003-.005-.001.005-.006.016l-.007.014.01-.016a.429.429 0 0 0 .013-.04l.007-.029c.022-.065.035-.13.048-.197l-.002.01v.01c-.003.028.002-.001.004-.02l-.001-.004v.004l-.003.01.002-.014.002-.023.003-.105v.003l.008.062c.032.15.165.276.322.269a.337.337 0 0 0 .33-.334l-.002-.036-.002-.029c-.031-.149-.17-.276-.324-.268a.342.342 0 0 0-.322.256l-.01.077a.596.596 0 0 0-.011-.13h-.001a1.272 1.272 0 0 0-.065-.252l-.009-.02-.004-.012-.005-.01c-.015-.028-.03-.058-.047-.086a1.065 1.065 0 0 0-.057-.092c-.007-.01-.02-.038-.032-.043.029.034.036.027.021.013l-.02-.013.013.016-.009-.008a1.709 1.709 0 0 0-.07-.076l-.073-.071-.025-.022-.004-.003-.05-.035-.047-.028a1.412 1.412 0 0 0-.086-.047c-.011-.005-.07-.045-.03-.015l.013.009-.01-.006-.014-.007a1.399 1.399 0 0 0-.201-.06l-.026-.004-.006-.002-.015-.002h-.002l-.017-.003.009.002-.034-.003zm-5.005 0c-.064-.001-.129.004-.195.009l.013-.002-.014.003-.045.009-.086.021c-.031.01-.062.02-.094.032l-.01.003c.01-.004.008-.004.005-.003l-.012.005.007-.002-.013.007a3.42 3.42 0 0 0-.086.046l-.084.05c-.006.005-.015.01-.025.015l-.02.01h.003l-.012.014c-.012.01-.024.019-.033.029-.05.043-.093.091-.136.14h-.002l-.005.009-.013.018a1.117 1.117 0 0 0-.1.17l-.01.021v-.006l-.007.014c-.006.015-.011.03-.001.01l.004-.01-.027.082-.027.09c-.008.036-.008.08-.021.112l.003-.018-.001.022-.002.023a1.178 1.178 0 0 0 0 .187v.02l.005.027c-.008-.039-.009-.01-.004.01l.004.009-.004-.017v-.014l.004.012.008.044.01.044c.006.032.016.065.026.097l.01.03.009.033.002.001.012.021.02.04a1.117 1.117 0 0 0 .096.16l.005.009.008.01.066.072.07.068.032.028c.046.042-.016-.01-.016-.011.006.018.064.046.079.056.056.037.116.06.172.095l-.01-.005.013.004.02.008a1.023 1.023 0 0 0 .191.054l.04.006.088.006h.092l.097-.007.017-.003.023-.004c.06-.013.122-.03.181-.052l.022-.006.011-.007.045-.022.043-.023a.882.882 0 0 0 .074-.045c.005-.004.015-.01.026-.015l.028-.02.017-.017c.012-.01.023-.018.033-.028l.07-.069.057-.065.002-.002.011-.016c.02-.027.037-.055.054-.083l.047-.086.02-.04c.017-.034.012-.02.004-.004l-.006.013.01-.015a.429.429 0 0 0 .012-.04l.008-.029c.021-.065.035-.13.048-.197l-.003.01v.01c-.003.038.006-.028.005-.031l-.003.01v-.003l.002-.023c.002-.035.004-.07.004-.105l-.001.003.008.062c.032.15.165.276.323.269a.337.337 0 0 0 .33-.334l-.001-.025-.004-.04c-.03-.149-.169-.276-.324-.268a.342.342 0 0 0-.322.256l-.01.077a.596.596 0 0 0-.01-.13v.008l-.001-.005-.003-.012a.098.098 0 0 1-.002-.014v-.005a1.21 1.21 0 0 0-.026-.117l-.035-.107-.008-.02-.005-.013-.005-.009-.022-.043-.024-.043a1.065 1.065 0 0 0-.058-.092l-.014-.024c.013.01.013.003.004-.006l-.021-.013.015.017-.01-.01a1.709 1.709 0 0 0-.07-.075l-.074-.071-.025-.022a.781.781 0 0 0-.008-.008l.008.008-.01-.006a1.24 1.24 0 0 0-.044-.032l-.046-.028a1.412 1.412 0 0 0-.086-.047c-.012-.005-.071-.045-.03-.015l.01.008-.008-.005-.014-.007a1.399 1.399 0 0 0-.2-.06l-.027-.004c.006.004.003.005-.011.002l-.02-.007-.034-.003zM6.725 5.713a1.652 1.652 0 0 1 1.82-.502c.66.246 1.106.87 1.113 1.586l-.001-.025.003.025c-.007.73-.493 1.41-1.186 1.613l-.141.034a1.68 1.68 0 0 1-1.765-.782c-.368-.616-.287-1.4.157-1.95zm-5.005 0a1.652 1.652 0 0 1 1.82-.502c.661.246 1.107.87 1.113 1.586l-.002-.036.004.036c-.006.73-.493 1.41-1.186 1.613l-.141.034a1.68 1.68 0 0 1-1.765-.782c-.368-.616-.287-1.4.157-1.95zm10.01 0a1.652 1.652 0 0 1 1.82-.502c.66.246 1.106.87 1.113 1.586l-.003-.036.004.036c-.006.73-.492 1.41-1.186 1.613l-.14.034a1.68 1.68 0 0 1-1.765-.782c-.368-.616-.288-1.4.156-1.95zm-3.693.072c-.064-.002-.129.003-.195.008h.006l-.03.005-.022.005c-.028.007-.058.013-.086.022l-.094.031-.012.004-.01.006c-.03.015-.059.03-.087.046l-.084.051-.025.014-.02.01a.05.05 0 0 0-.026.026l.018-.02.009-.005h.002l-.012.013c-.012.01-.024.019-.033.029-.05.043-.093.092-.136.14l-.005.005.01-.013c.021-.031-.025.027-.02.024l.008-.007-.013.018a1.117 1.117 0 0 0-.1.17l-.013.026.003-.004c.013-.042-.028.056-.008.018l.004-.011-.027.082-.027.09c-.008.036-.008.08-.021.113l.003-.02-.001.024-.002.022a1.178 1.178 0 0 0 0 .187v.02l.005.027c-.008-.039-.009-.01-.004.01l.004.009-.004-.017V6.93l.004.012.018.088c.006.032.016.065.026.097l.01.03.009.033.002.001.012.021.02.04a1.117 1.117 0 0 0 .096.16l.005.01-.007-.007.01.013.01.012L7.2 7.43l-.003-.005.07.076.07.068.032.028c.046.042-.016-.01-.016-.011.006.018.064.046.079.057.056.036.116.06.172.095l-.01-.006.013.004.02.008a1.023 1.023 0 0 0 .191.054l.045.008c.053.003.114.007.175.005.036 0 .077-.01.114-.008h-.017l.04-.007a1.58 1.58 0 0 0 .091-.023l.09-.029.024-.007.01-.006.044-.022.043-.023a.882.882 0 0 0 .074-.045l.026-.015.028-.02.017-.017c.012-.01.023-.018.033-.028l.07-.069c.02-.021.037-.043.057-.065l.002-.002a.077.077 0 0 1-.013.019c.016-.008.03-.031.024-.029l-.01.01.01-.016c.02-.027.037-.054.054-.083l.047-.086.02-.04c.017-.034.012-.02.004-.004l-.006.013.01-.015a.429.429 0 0 0 .012-.039l.008-.03c.021-.065.035-.13.048-.197l-.003.012v.008c-.003.038.006-.027.005-.031l-.003.01v-.003l.002-.022c.002-.035.004-.07.004-.106l-.001.003.008.062c.032.15.165.277.323.27a.337.337 0 0 0 .33-.335l-.001-.025-.004-.04c-.03-.149-.169-.276-.324-.268a.342.342 0 0 0-.322.257l-.01.076a.587.587 0 0 0-.01-.13v.009l-.001-.006-.003-.012a.098.098 0 0 1-.002-.014V6.64a1.218 1.218 0 0 0-.026-.117l-.035-.107-.008-.02-.003-.007.004.007-.004-.009-.003-.007.001.004-.005-.01-.046-.086a1.065 1.065 0 0 0-.058-.092l-.013-.023-.013-.012a1.709 1.709 0 0 0-.07-.076l-.074-.07c-.008-.01-.017-.016-.025-.023l.004.003.004.002.006.005-.01-.008c-.01-.009-.015-.011-.012-.009l.004.004-.05-.034-.046-.03a1.412 1.412 0 0 0-.086-.046c-.012-.005-.071-.045-.03-.015l.01.008-.008-.005-.014-.006a1.399 1.399 0 0 0-.2-.06l-.026-.004c.005.003.002.004-.012 0l-.022-.006-.032-.003zm-5.004 0c-.065-.002-.13.003-.195.008l.006-.001-.03.006-.022.005c-.029.007-.058.013-.086.022l-.094.031-.012.004-.011.006-.087.046-.084.051-.024.014-.02.01a.051.051 0 0 0-.026.026l.018-.02.008-.005h.002l-.012.013-.033.029a1.54 1.54 0 0 0-.135.14l-.004.004-.004.005-.012.018a1.117 1.117 0 0 0-.1.17l-.013.026.002-.004c.013-.042-.028.056-.008.018l.005-.011-.027.082-.028.09c-.008.036-.008.08-.021.113l.003-.014v.018l-.003.022a1.178 1.178 0 0 0 0 .187l.005.047c-.008-.039-.008-.01-.003.01l.003.009-.003-.017-.002-.02.005.018.008.044.01.044c.007.032.017.065.027.097l.009.03.009.033.003.001.012.021.02.04a1.117 1.117 0 0 0 .096.16l.007.013-.01-.01.01.013h.002l-.001-.001.07.076.07.068c.011.01.023.018.033.028.046.042-.017-.01-.017-.011l.02.02c.02.015.05.03.06.037.056.036.115.06.171.095l-.01-.006.013.004.02.008a1.023 1.023 0 0 0 .192.054l.044.008-.008-.002.091.006.092.001c.036 0 .078-.01.114-.008H3.13l.019-.003.022-.004c.061-.013.122-.03.182-.052l.023-.007.01-.006.044-.022.043-.023a.882.882 0 0 0 .074-.045l.026-.015.029-.02.016-.017c.012-.01.024-.018.033-.028.024-.022.047-.045.07-.069l.058-.065v-.002a.068.068 0 0 1-.012.019c.016-.008.03-.031.025-.029l-.011.01.01-.016c.02-.027.038-.054.054-.083l.047-.086.03-.06c.003-.004 0 .005-.005.016l-.008.015.011-.017a.429.429 0 0 0 .012-.039l.008-.03c.022-.065.035-.13.048-.197l-.002.01.001-.014.003-.022c.002-.035.003-.07.003-.106V6.8L4 6.862c.032.15.166.277.323.27a.337.337 0 0 0 .33-.335l-.002-.036-.002-.029c-.031-.149-.17-.276-.324-.268a.342.342 0 0 0-.322.257l-.01.076a.587.587 0 0 0-.011-.13H3.98a1.272 1.272 0 0 0-.065-.252l-.009-.02-.003-.007.004.007-.003-.009L3.9 6.38l.001.004-.005-.01-.046-.086a1.065 1.065 0 0 0-.058-.092l-.014-.024c.018.012.012-.006-.017-.02l.016.019-.011-.01a1.709 1.709 0 0 0-.07-.076l-.074-.07c-.008-.01-.016-.016-.024-.023l.002.002h.002c-.011-.009-.015-.011-.013-.009l.006.006-.007-.005a1.24 1.24 0 0 0-.045-.031l-.046-.03a1.412 1.412 0 0 0-.086-.046c-.011-.005-.07-.045-.03-.015.037.027.005.002-.011-.003a1.399 1.399 0 0 0-.201-.06l-.026-.004c.005.003.002.004-.012 0L3.11 5.79l-.031-.003zm10.009 0c-.065-.002-.13.003-.195.008h.006a1.129 1.129 0 0 0-.03.005l-.022.005c-.028.007-.058.013-.086.022l-.094.031-.012.004-.011.006a3.42 3.42 0 0 0-.087.046l-.083.051-.025.014-.02.01.002.001-.012.013-.033.029c-.05.043-.092.092-.135.14l-.004.004-.004.005-.012.018a1.117 1.117 0 0 0-.1.17l-.013.026.002-.004c.014-.042-.028.056-.008.018l.005-.011-.027.082-.027.09c-.009.036-.009.08-.022.113l.003-.014v.018l-.003.022a1.178 1.178 0 0 0 0 .187l.005.047c-.008-.039-.008-.01-.003.01L12 6.96l-.003-.017-.002-.02.005.018.009.044.01.044c.006.032.016.065.026.097l.009.03.01.033.002.001.012.021.02.04a1.117 1.117 0 0 0 .096.16l.007.013-.01-.01.01.013h.002l-.001-.001.07.076.07.068c.011.01.023.018.033.028l.013.013-.01-.007a.63.63 0 0 1-.014-.011l.014.014c.02.015.05.03.06.037.056.036.115.06.171.095l-.01-.006.013.004.02.008a1.023 1.023 0 0 0 .192.054l.044.008-.008-.002.092.006.091.001c.037 0 .078-.01.114-.008h-.018l.019-.003.022-.004c.061-.013.122-.03.182-.052l.023-.007c-.008.008.022-.003.028-.013l-.024.013h-.003l.009-.006.044-.022.043-.023a.882.882 0 0 0 .075-.045l.025-.015.029-.02.017-.017c.011-.01.023-.018.033-.028l.069-.069.058-.065v-.002a.066.066 0 0 1-.012.019c.016-.008.03-.031.025-.029l-.011.009.01-.015c.02-.027.038-.054.054-.083l.048-.086.03-.06c.003-.004-.001.005-.006.016l-.007.014.01-.016a.429.429 0 0 0 .013-.039l.007-.03c.022-.065.035-.13.048-.197l-.002.01.002-.014.002-.022c.002-.035.003-.07.003-.106V6.8l.008.062c.032.15.165.277.322.27a.337.337 0 0 0 .33-.335l-.002-.036-.002-.029c-.031-.149-.17-.276-.324-.268a.342.342 0 0 0-.322.257l-.01.076a.587.587 0 0 0-.011-.13h-.001a1.272 1.272 0 0 0-.065-.252l-.009-.02-.003-.007.004.007-.003-.009-.004-.007.002.004-.005-.01c-.015-.028-.03-.058-.047-.086a1.065 1.065 0 0 0-.057-.092l-.015-.024c.018.012.012-.006-.017-.02l.016.019-.01-.01a1.709 1.709 0 0 0-.07-.076l-.074-.07c-.009-.01-.017-.016-.025-.023l-.004-.003.007.005-.01-.009h-.002l.004.004a2.364 2.364 0 0 0-.05-.034l-.046-.03a1.412 1.412 0 0 0-.086-.046c-.011-.005-.07-.045-.03-.015.037.027.006.002-.011-.003a1.399 1.399 0 0 0-.201-.06l-.026-.004c.006.003.002.004-.012 0l-.022-.006-.031-.003zm-1.313-4.296A1.652 1.652 0 0 1 13.55.987c.66.247 1.106.871 1.113 1.587l-.003-.036.004.036c-.006.729-.492 1.41-1.186 1.613l-.14.034a1.68 1.68 0 0 1-1.765-.783c-.368-.615-.288-1.4.156-1.949zm-10.009 0A1.652 1.652 0 0 1 3.54.987c.661.247 1.107.871 1.113 1.587l-.002-.036.004.036c-.006.729-.493 1.41-1.186 1.613l-.141.034a1.68 1.68 0 0 1-1.765-.783c-.368-.615-.287-1.4.157-1.949zm5.005 0a1.652 1.652 0 0 1 1.82-.502c.66.247 1.106.871 1.113 1.587l-.001-.025.003.025c-.007.729-.493 1.41-1.186 1.613l-.141.034a1.68 1.68 0 0 1-1.765-.783c-.368-.615-.287-1.4.157-1.949zm-3.692.072c-.065-.002-.13.003-.195.008l.015-.001-.017.003a.275.275 0 0 0-.022.004l-.022.004-.086.022c-.032.01-.063.02-.094.032l-.012.003-.011.007a3.42 3.42 0 0 0-.087.046l-.084.05c-.006.005-.015.01-.024.014l-.02.01.002.002-.012.013c-.012.01-.023.018-.033.028a1.54 1.54 0 0 0-.135.14l-.003.002-.005.008-.012.017a1.117 1.117 0 0 0-.1.17l-.01.022c.012-.042-.029.057-.009.018l.005-.01-.027.082-.028.09C2 2.38 2 2.424 1.986 2.457l.003-.014v.018l-.003.023a1.178 1.178 0 0 0 0 .187V2.7a.062.062 0 0 0 .002.028l.003.009-.003-.017-.002-.02.005.017.008.045.01.044c.007.032.017.065.027.097l.018.062.003.002.012.02.02.04a1.117 1.117 0 0 0 .096.16v.001l.007.013.072.077.069.069c.011.01.023.018.033.028l.016.015a.23.23 0 0 1-.033-.027l.02.02c.02.015.05.03.06.037.056.037.115.06.171.095l-.014-.008.017.007.02.008a1.023 1.023 0 0 0 .192.053c.014.004.03.005.044.009l-.011-.003h-.022c-.006.001.071.01.033.003l-.011-.003.094.007h.092c.036 0 .078-.01.114-.008h-.023l-.02.006c-.01.003.035-.006.043-.006l-.021.002.044-.008c.061-.014.122-.03.182-.052l.022-.007c-.007.008.023-.003.029-.013l-.024.012h-.006l.012-.006.044-.021.043-.024a.882.882 0 0 0 .074-.045l.026-.015.029-.018v-.002l.016-.016c.012-.01.024-.019.033-.029.024-.021.047-.045.07-.068l.058-.065.003-.005.01-.014c.019-.026.037-.054.053-.082l.047-.086.02-.04c.028-.057-.005.018-.006.018.015-.008.03-.077.034-.093.022-.065.035-.13.048-.197l-.003.014v.017a.29.29 0 0 0 .005-.03L3.989 2.7v.005l-.003.009.001-.013.003-.023.003-.105v.003L4 2.639c.032.15.166.276.323.269a.337.337 0 0 0 .33-.334l-.002-.036-.002-.029c-.031-.15-.17-.276-.324-.269a.342.342 0 0 0-.322.257l-.01.077a.596.596 0 0 0-.011-.13l-.001.002-.003-.011a1.272 1.272 0 0 0-.063-.243c.001-.002 0-.007-.003-.013l-.007-.014-.005-.01-.025-.048-.024-.044a1.065 1.065 0 0 0-.058-.091c-.006-.01-.02-.039-.03-.044l.013.016-.009-.007a1.709 1.709 0 0 0-.07-.076l-.074-.071a.288.288 0 0 0-.024-.022l-.003-.002-.052-.036-.046-.029a1.412 1.412 0 0 0-.086-.046c-.011-.005-.07-.046-.03-.016l.009.007-.006-.003-.014-.007a1.399 1.399 0 0 0-.201-.06l-.026-.004c.005.004.002.005-.012.001l-.023-.007-.03-.002zm10.009 0c-.065-.002-.13.003-.195.008l.014-.001-.016.003a.275.275 0 0 0-.022.004l-.022.004-.086.022c-.032.01-.063.02-.094.032l-.012.003-.011.007a3.42 3.42 0 0 0-.087.046l-.083.05c-.006.005-.015.01-.025.014l-.02.01a.053.053 0 0 0-.026.027l.018-.02.009-.006h.001l-.012.014c-.011.01-.023.018-.033.028-.05.044-.092.092-.135.14l-.003.002-.005.008-.012.017a1.117 1.117 0 0 0-.1.17l-.01.022c.013-.042-.029.057-.009.018l.005-.01-.027.082-.027.09c-.009.035-.009.079-.022.112l.003-.014v.018l-.003.023a1.178 1.178 0 0 0 0 .187V2.7a.064.064 0 0 0 .002.028l.003.009-.003-.017-.002-.02.005.017.009.045.01.044c.006.032.016.065.026.097l.009.03.01.032.002.002.012.02.02.04a1.117 1.117 0 0 0 .096.16v.001l.007.013.072.077.069.069c.011.01.023.018.033.028l.013.013-.01-.008a.63.63 0 0 1-.014-.01l.014.014c.02.014.05.03.06.036.056.037.115.06.171.095l-.014-.008.017.007.02.008a1.023 1.023 0 0 0 .192.053c.015.004.03.005.044.009l-.011-.003h-.022c-.006.001.072.01.033.003l-.011-.003.095.007h.091c.037 0 .078-.01.114-.008h-.023l-.02.006c-.01.003.035-.006.043-.006l-.021.002.044-.008c.061-.014.122-.03.182-.052l.022-.007c-.007.008.023-.003.029-.013l-.024.012h-.006l.012-.006.044-.021.043-.024a.882.882 0 0 0 .075-.045l.025-.015.029-.018v-.002l.017-.016.033-.029c.023-.021.046-.045.069-.068l.058-.065.004-.005.009-.014c.019-.026.037-.054.053-.082l.048-.086.02-.04c.027-.057-.006.018-.007.018.015-.008.03-.077.034-.093.022-.065.035-.13.048-.197l-.003.014v.017a.29.29 0 0 0 .005-.03l-.001-.006v.005l-.003.009.002-.013.002-.023.003-.105v.003l.008.062c.032.15.165.276.322.269a.337.337 0 0 0 .33-.334l-.002-.036-.002-.029c-.031-.15-.17-.276-.324-.269a.342.342 0 0 0-.322.257l-.01.077a.596.596 0 0 0-.011-.13l-.001.002-.003-.011a1.272 1.272 0 0 0-.063-.243c.001-.002 0-.007-.003-.013v.004l-.005-.011-.002-.007.003.006-.003-.008-.005-.01v.002l-.025-.048-.024-.044a1.065 1.065 0 0 0-.057-.091c-.007-.01-.02-.039-.032-.044l.012.014c-.03-.031-.052-.057-.076-.081l-.074-.071-.025-.022-.005-.004-.05-.034-.046-.029a1.412 1.412 0 0 0-.086-.046c-.011-.005-.07-.046-.03-.016l.01.007-.007-.003-.014-.007a1.399 1.399 0 0 0-.201-.06l-.026-.004c.006.004.002.005-.012.001l-.023-.007-.03-.002zm-5.005 0c-.064-.002-.129.003-.195.008l.014-.001-.015.003a.275.275 0 0 0-.023.004l-.022.004-.086.022c-.031.01-.062.02-.094.032l-.012.003-.01.007a3.42 3.42 0 0 0-.087.046l-.084.05c-.006.005-.015.01-.025.014l-.018.01-.011.015-.018.014-.015.014c-.05.044-.093.092-.136.14l-.006.006.011-.014c.021-.03-.025.027-.02.024l.008-.006-.037.053-.023.038c-.02.031-.037.063-.053.096l-.01.022c.013-.042-.028.057-.008.018l.004-.01-.027.082-.027.09c-.008.035-.008.079-.021.112l.003-.02-.001.024-.002.023a1.178 1.178 0 0 0 0 .187V2.7a.055.055 0 0 0 .001.028l.004.009-.004-.017v-.014l.004.011.008.045.01.044c.006.032.016.065.026.097l.019.062.002.002.012.02.02.04a1.117 1.117 0 0 0 .096.16l.005.01.008.01.066.071.07.069.032.028.016.015a.23.23 0 0 1-.032-.027l.002.003.018.018c.01.007.022.015.033.02l.026.016c.056.037.116.06.172.095l-.015-.008.018.007.02.008a1.023 1.023 0 0 0 .191.053l.033.006H7.83c-.006.001.072.01.034.003l-.012-.003.095.007h.092c.036 0 .077-.01.114-.008H8.13l-.02.006c-.011.003.035-.006.043-.006l-.022.002.045-.008c.06-.014.122-.03.181-.052l.023-.007c-.007.008.022-.003.028-.013l-.024.012H8.38l.011-.006.045-.021.043-.024a.882.882 0 0 0 .074-.045l.026-.015.028-.018v-.002l.017-.016.033-.029.07-.068c.02-.022.037-.044.057-.065l.004-.005.01-.014c.018-.026.036-.054.053-.082l.047-.086.02-.04c.028-.057-.005.018-.007.018.015-.008.03-.077.035-.093.021-.065.035-.13.048-.197l-.003.01v.01c-.004.047.011-.067.003-.02l-.001-.004.002-.023c.002-.035.004-.07.004-.105l-.001.003.008.062c.032.15.165.276.323.269a.337.337 0 0 0 .33-.334l-.001-.025-.004-.04c-.03-.15-.169-.276-.324-.269a.342.342 0 0 0-.322.257l-.01.077a.596.596 0 0 0-.01-.13v.008a.112.112 0 0 1-.006-.031v-.005a1.197 1.197 0 0 0-.026-.118l-.035-.106c0-.002-.001-.007-.004-.013l-.006-.014-.005-.01-.025-.048-.024-.044a1.065 1.065 0 0 0-.058-.091l-.014-.024c.013.01.013.003.004-.006l-.021-.013.015.017-.01-.01a1.709 1.709 0 0 0-.07-.075l-.074-.071a.288.288 0 0 0-.025-.022l-.005-.004-.05-.034-.045-.029a1.412 1.412 0 0 0-.086-.046c-.012-.005-.071-.046-.03-.016l.008.007-.006-.003-.014-.007a1.399 1.399 0 0 0-.2-.06l-.027-.004-.005-.002-.015-.002-.01-.002-.01-.002.006.002-.03-.002z"/>
</svg>
