<svg xmlns="http://www.w3.org/2000/svg" width="14" height="14" viewBox="0 0 14 14">
    <path fill="#000" fill-rule="evenodd" d="M13.443 9.167c.308 0 .557.246.557.55v3.566c0 .304-.25.55-.557.55H.557a.554.554 0 0 1-.557-.55V9.717c0-.304.25-.55.557-.55.307 0 .557.246.557.55v3.015h11.772V9.717c0-.304.25-.55.557-.55zm-6.35 1.218l-.013.001h-.002l-.016.004-.059.003.043-.004.032-.003h.001l-.033.003-.046.004-.093-.008a.5.5 0 0 1-.205-.082l-.043-.031-.005-.004.02.016-.045-.04-.01-.008L4.335 7.95a.538.538 0 0 1 .687-.824l.074.063 1.366 1.365V1.478c0-.264.19-.484.441-.53L7 .94c.268 0 .49.195.531.451l.007.087.002 7.077L8.904 7.19a.539.539 0 0 1 .695-.057l.066.057a.539.539 0 0 1 .063.687l-.063.074-2.284 2.285a.549.549 0 0 1-.258.143l-.042.007h.012z"/>
</svg>
