<svg xmlns="http://www.w3.org/2000/svg" width="20" height="20" viewBox="0 0 10 10">
    <path fill="#000" fill-rule="evenodd" d="M9.092 1.704C8.558 1.169 7.847.875 7.091.875c-.756 0-1.467.294-2.002.83-.03.03-.06.06-.088.092-.03-.032-.059-.063-.09-.093-.534-.535-1.245-.829-2-.829-.095 0-.189.005-.282.014-.65.063-1.252.347-1.72.815C.375 2.238.08 2.949.08 3.705c0 .756.295 1.467.83 2.002l.017.017 3.856 3.32c.063.054.14.081.218.081.077 0 .155-.027.217-.08l3.856-3.321.018-.017c1.104-1.104 1.104-2.9 0-4.003z"/>
</svg>
