<svg xmlns="http://www.w3.org/2000/svg" width="16" height="17" viewBox="0 0 16 17">
    <path fill="#000" fill-rule="evenodd" d="M5.525 2.582a.938.938 0 0 1 .62.188c.084.086.155.188.209.3l.817 1.545h7.264c.49 0 .889.43.898.969v9.083c0 .86-.066 1.424-.898 1.424H1.864c-.832 0-.898-.834-.898-1.417V3.57a.955.955 0 0 1 .185-.672.788.788 0 0 1 .57-.317zM5.429 3.96H2.163v10.814h11.973V5.936H6.95c-.434 0-.661-.425-.814-.659L5.43 3.96zm9.074-1.946c.331 0 .599.295.599.66 0 .363-.268.658-.599.658H8.517c-.33 0-.599-.295-.599-.659 0-.364.268-.659.599-.659z"/>
</svg>
