<svg xmlns="http://www.w3.org/2000/svg" xmlns:xlink="http://www.w3.org/1999/xlink" width="28" height="28" viewBox="0 0 28 28">
    <defs>
        <rect id="11aizkbn4a" width="21" height="21" x="0" y="0" rx="2.333"/>
    </defs>
    <g fill="none" fill-rule="evenodd" transform="translate(3.5 3.5)">
        <mask id="pxy0hwa6hb" fill="#fff">
            <use xlink:href="#11aizkbn4a"/>
        </mask>
        <g fill="#FFF" mask="url(#pxy0hwa6hb)">
            <path d="M10.5 3.5c1.889 0 3.468.692 4.68 1.82l-1.975 1.928c-.505-.474-1.392-1.042-2.706-1.042-1.85 0-3.422 1.221-3.99 2.909-.14.435-.225.902-.225 1.384 0 .482.086.949.233 1.384.56 1.688 2.131 2.909 3.982 2.909 1.042 0 1.835-.288 2.426-.7l.193-.145c.799-.646 1.166-1.527 1.238-2.126H10.5V9.224h6.571c.101.435.148.855.148 1.43 0 2.131-.762 3.928-2.084 5.149-1.159 1.073-2.745 1.695-4.635 1.695-2.737 0-5.102-1.57-6.252-3.857l-.137-.288c-.39-.875-.61-1.84-.61-2.854 0-1.128.272-2.193.747-3.142l.119-.226C5.556 4.968 7.853 3.5 10.499 3.5z"/>
        </g>
    </g>
</svg>
