<svg xmlns="http://www.w3.org/2000/svg" xmlns:xlink="http://www.w3.org/1999/xlink" width="32" height="32" viewBox="0 0 32 32">
    <defs>
        <rect id="1bdcr1z4ta" width="24" height="24" x="0" y="0" rx="4"/>
    </defs>
    <g fill="none" fill-rule="evenodd">
        <g>
            <g>
                <g>
                    <g transform="translate(-700 -282) translate(345 227) translate(355 55) translate(4 4)">
                        <mask id="g2s4hnhx2b" fill="#fff">
                            <use xlink:href="#1bdcr1z4ta"/>
                        </mask>
                        <path fill="#000" d="M11.897 4.005L11.985 4c.384 0 .701.287.744.656l.006.086v12.74l3.985-3.944c.27-.267.695-.288.99-.061l.07.061c.27.268.291.689.063.98l-.063.07-5.25 5.196c-.112.111-.252.18-.398.206l-.088.01h-.088c-.148-.009-.293-.06-.416-.154l-.07-.062-5.25-5.196c-.293-.29-.293-.76 0-1.05.27-.267.695-.288.99-.061l.07.061 3.955 3.914V4.742c0-.38.289-.694.662-.737L11.985 4l-.088.005z" mask="url(#g2s4hnhx2b)"/>
                    </g>
                </g>
            </g>
        </g>
    </g>
</svg>
