<svg xmlns="http://www.w3.org/2000/svg" xmlns:xlink="http://www.w3.org/1999/xlink" width="28" height="28" viewBox="0 0 28 28">
    <defs>
        <rect id="nvgdbg9mea" width="21" height="21" x="0" y="0" rx="2.333"/>
    </defs>
    <g fill="none" fill-rule="evenodd" transform="translate(3.5 3.5)">
        <mask id="p4n6rzeizb" fill="#fff">
            <use xlink:href="#nvgdbg9mea"/>
        </mask>
        <g fill="#000" mask="url(#p4n6rzeizb)">
            <g>
                <path d="M8.111 10.148c2.685 0 4.861-2.172 4.861-4.852S10.796.444 8.112.444C5.426.444 3.25 2.616 3.25 5.296s2.177 4.852 4.861 4.852zm0-1.167c-2.04 0-3.694-1.65-3.694-3.685S6.07 1.61 8.11 1.61c2.04 0 3.695 1.65 3.695 3.686 0 2.035-1.654 3.685-3.695 3.685z" transform="translate(4.083 3.5)"/>
                <path d="M4.85 8.137L.527 12.45c-.238.237-.239.623-.001.861v.001c.24.238.626.238.865 0L5.713 9c.239-.238.239-.624.001-.862-.24-.239-.626-.239-.865 0z" transform="translate(4.083 3.5)"/>
            </g>
        </g>
    </g>
</svg>
