<svg xmlns="http://www.w3.org/2000/svg" width="14" height="14" viewBox="0 0 14 14">
    <g fill="none" fill-rule="evenodd">
        <g fill="#000" fill-rule="nonzero" stroke="#000" stroke-width=".5">
            <g>
                <g>
                    <g>
                        <g>
                            <path d="M14 3.388c0-.08-.065-.188-.132-.24L10.135.173c-.174-.136-.457-.151-.66-.014-.181.123-.186.362-.018.495l2.997 2.384H.467c-.258 0-.467.157-.467.35 0 .194.209.35.467.35h11.987L9.457 6.123c-.168.133-.156.366.018.495.184.135.488.123.66-.014l3.733-2.975c.11-.08.13-.158.132-.24z" transform="translate(-1005 -104) translate(975 91) translate(30 13)"/>
                        </g>
                        <g>
                            <path d="M14 3.388c0-.08-.065-.188-.132-.24L10.135.173c-.174-.136-.457-.151-.66-.014-.181.123-.186.362-.018.495l2.997 2.384H.467c-.258 0-.467.157-.467.35 0 .194.209.35.467.35h11.987L9.457 6.123c-.168.133-.156.366.018.495.184.135.488.123.66-.014l3.733-2.975c.11-.08.13-.158.132-.24z" transform="translate(-1005 -104) translate(975 91) translate(30 13) matrix(-1 0 0 1 14 7)"/>
                        </g>
                    </g>
                </g>
            </g>
        </g>
    </g>
</svg>
