<svg xmlns="http://www.w3.org/2000/svg" xmlns:xlink="http://www.w3.org/1999/xlink" width="28" height="28" viewBox="0 0 28 28">
    <defs>
        <rect id="j8q35a256a" width="21" height="21" x="0" y="0" rx="2.333"/>
    </defs>
    <g fill="none" fill-rule="evenodd">
        <g>
            <g>
                <g>
                    <g transform="translate(-807 -97) translate(807 97) translate(3.5 3.5)">
                        <mask id="vzkk1pj7ub" fill="#fff">
                            <use xlink:href="#j8q35a256a"/>
                        </mask>
                        <g fill="#F4F5F6" stroke="#000" mask="url(#vzkk1pj7ub)">
                            <g transform="translate(3.792 2.333)">
                                <rect width="12.606" height="9.611" x=".438" y="4.931" stroke-width=".875" rx="1.685"/>
                                <path stroke-width=".758" d="M12.164 5.483l-5.02 5.185c-.215.223-.571.229-.794.013l-.013-.013-5.02-5.185c-.215-.223-.21-.579.014-.795l.029-.026L6.38.442c.208-.176.513-.176.722 0l5.02 4.22c.237.2.268.554.068.791l-.026.03z"/>
                            </g>
                        </g>
                    </g>
                </g>
            </g>
        </g>
    </g>
</svg>
