<?xml version="1.0" encoding="UTF-8"?>
<svg width="18px" height="17px" viewBox="0 0 18 17" version="1.1" xmlns="http://www.w3.org/2000/svg" xmlns:xlink="http://www.w3.org/1999/xlink">
    <!-- Generator: sketchtool 59.1 (101010) - https://sketch.com -->
    <title>20CC6035-A08A-4520-B3B1-5BFF1B519B49</title>
    <desc>Created with sketchtool.</desc>
    <g id="Asset-Artboard-Page" stroke="none" stroke-width="1" fill="none" fill-rule="evenodd">
        <g id="icon/messages" transform="translate(0.809524, 0.000000)" fill="#000000">
            <g id="Group" transform="translate(0.128788, 2.302083)">
                <path d="M14.7462121,-3.90356167e-16 C15.8220168,-4.56230204e-16 16.6941288,0.872111998 16.6941288,1.94791667 L16.6941288,10.4479167 C16.6941288,11.5237213 15.8220168,12.3958333 14.7462121,12.3958333 L1.99621212,12.3958333 C0.920407454,12.3958333 0.048295456,11.5237213 0.048295456,10.4479167 L0.048295456,1.94791667 C0.048295456,0.872111998 0.920407454,4.56230204e-16 1.99621212,3.90356167e-16 L14.7462121,-3.90356167e-16 Z M1.35329546,2.156 L1.35375729,10.3159991 C1.35375729,10.7881391 1.74050319,11.1708842 2.21757843,11.1708842 L14.6566028,11.1708842 C15.1336781,11.1708842 15.520424,10.7881391 15.520424,10.3159991 L15.5202955,2.201 L10.2733655,6.86671902 C9.23586116,7.78907789 7.69214834,7.81889325 6.62230067,6.96289285 L6.47944157,6.84067556 L1.35329546,2.156 Z M14.4532955,1.254 L2.46629546,1.254 L7.43514576,5.79493474 C7.93509665,6.25184065 8.68183925,6.28719827 9.22011878,5.89788252 L9.33210772,5.80795647 L14.4532955,1.254 Z" id="Combined-Shape"></path>
            </g>
        </g>
    </g>
</svg>