<?xml version="1.0" encoding="UTF-8"?>
<svg width="18px" height="17px" viewBox="0 0 18 17" version="1.1" xmlns="http://www.w3.org/2000/svg" xmlns:xlink="http://www.w3.org/1999/xlink">
    <!-- Generator: sketchtool 59.1 (101010) - https://sketch.com -->
    <title>62F7C512-ED33-454C-BCAD-BD5C5F86CA26</title>
    <desc>Created with sketchtool.</desc>
    <g id="Asset-Artboard-Page" stroke="none" stroke-width="1" fill="none" fill-rule="evenodd">
        <g id="icon/messages-icon/news" transform="translate(0.809524, 0.000000)" fill="#000000">
            <path d="M12.760119,0 C13.9281355,0 14.875,0.890667572 14.875,1.9893617 L14.875,15.0106383 C14.875,16.1093324 13.9281355,17 12.760119,17 L3.53154762,17 C2.36353112,17 1.41666667,16.1093324 1.41666667,15.0106383 L1.41666667,1.9893617 C1.41666667,0.890667572 2.36353112,0 3.53154762,0 L12.760119,0 Z M12.6168942,1.19867726 L3.70654944,1.19867726 C3.19394033,1.19867726 2.77838853,1.59365178 2.77838853,2.08087755 L2.77838853,14.7845617 C2.77838853,15.2717875 3.19394033,15.666762 3.70654944,15.666762 L12.6168942,15.666762 C13.1295033,15.666762 13.5450551,15.2717875 13.5450551,14.7845617 L13.5450551,2.08087755 C13.5450551,1.59365178 13.1295033,1.19867726 12.6168942,1.19867726 Z M11.3333333,10.625 C11.724535,10.625 12.0416667,10.9421316 12.0416667,11.3333333 C12.0416667,11.724535 11.724535,12.0416667 11.3333333,12.0416667 L4.95833333,12.0416667 C4.56713164,12.0416667 4.25,11.724535 4.25,11.3333333 C4.25,10.9421316 4.56713164,10.625 4.95833333,10.625 L11.3333333,10.625 Z M11.3333333,7.79166667 C11.724535,7.79166667 12.0416667,8.1087983 12.0416667,8.5 C12.0416667,8.8912017 11.724535,9.20833333 11.3333333,9.20833333 L4.95833333,9.20833333 C4.56713164,9.20833333 4.25,8.8912017 4.25,8.5 C4.25,8.1087983 4.56713164,7.79166667 4.95833333,7.79166667 L11.3333333,7.79166667 Z M9.20833333,4.95833333 C9.59953503,4.95833333 9.91666667,5.27546497 9.91666667,5.66666667 C9.91666667,6.05786836 9.59953503,6.375 9.20833333,6.375 L4.95833333,6.375 C4.56713164,6.375 4.25,6.05786836 4.25,5.66666667 C4.25,5.27546497 4.56713164,4.95833333 4.95833333,4.95833333 L9.20833333,4.95833333 Z" id="Combined-Shape"></path>
        </g>
    </g>
</svg>