<?xml version="1.0" encoding="UTF-8"?>
<svg width="18px" height="17px" viewBox="0 0 18 17" version="1.1" xmlns="http://www.w3.org/2000/svg" xmlns:xlink="http://www.w3.org/1999/xlink">
    <!-- Generator: sketchtool 59.1 (101010) - https://sketch.com -->
    <title>EA4B441F-2573-4FE1-B119-63B071F1D1EB</title>
    <desc>Created with sketchtool.</desc>
    <g id="Asset-Artboard-Page" stroke="none" stroke-width="1" fill="none" fill-rule="evenodd">
        <g id="icon/messages-icon/help" transform="translate(0.809524, 0.000000)" fill="#000000">
            <path d="M8.5,0.885416667 C12.7054183,0.885416667 16.1145833,4.29458175 16.1145833,8.5 C16.1145833,12.7054183 12.7054183,16.1145833 8.5,16.1145833 C4.29458175,16.1145833 0.885416667,12.7054183 0.885416667,8.5 C0.885416667,4.29458175 4.29458175,0.885416667 8.5,0.885416667 Z M8.5,1.94791667 C4.8813843,1.94791667 1.94791667,4.8813843 1.94791667,8.5 C1.94791667,12.1186157 4.8813843,15.0520833 8.5,15.0520833 C12.1186157,15.0520833 15.0520833,12.1186157 15.0520833,8.5 C15.0520833,4.8813843 12.1186157,1.94791667 8.5,1.94791667 Z M8.84849983,9.97333328 C8.94199983,9.97333328 9.01849983,10.0498333 9.01849983,10.1433333 L9.01849983,11.1633333 C9.01849983,11.2568333 8.94199983,11.3333332 8.84849983,11.3333332 L7.82849985,11.3333332 C7.73499986,11.3333332 7.65849986,11.2568333 7.65849986,11.1633333 L7.65849986,10.1433333 C7.65849986,10.0498333 7.73499986,9.97333328 7.82849985,9.97333328 L8.84849983,9.97333328 Z M8.34699991,5.28983329 C9.43499996,5.28983329 10.1405,5.98683328 10.1405,6.97283328 C10.1405,7.67833328 9.68999997,8.17983327 9.31599995,8.45183327 L9.31599995,8.45183327 L9.23409086,8.51462854 C8.98119829,8.71758121 8.92499994,8.86369691 8.92499994,9.15733327 L8.92499994,9.15733327 L8.92499994,9.31883327 C8.92499994,9.41233327 8.84849993,9.48883327 8.75499993,9.48883327 L8.75499993,9.48883327 L7.9049999,9.48883327 C7.81149989,9.48883327 7.73499989,9.41233327 7.73499989,9.31883327 L7.73499989,9.31883327 L7.73588603,9.03678252 C7.74129618,8.71879623 7.77655545,8.42916661 7.9729999,8.17983327 C8.15999991,7.94183328 8.44899992,7.79733328 8.62749993,7.62733328 C8.80599993,7.45733328 8.95049994,7.22783328 8.95049994,7.03233328 C8.95049994,6.68383328 8.68699993,6.47133328 8.34699991,6.47133328 C7.9644999,6.47133328 7.73499989,6.69233328 7.73499989,7.05783328 L7.73499989,7.05783328 L7.73499989,7.20233328 C7.73499989,7.29583328 7.65849988,7.37233328 7.56499988,7.37233328 L7.56499988,7.37233328 L6.71499985,7.37233328 C6.62149984,7.37233328 6.54499984,7.29583328 6.54499984,7.20233328 L6.54499984,7.20233328 L6.54499984,7.07483328 C6.54499984,5.98683328 7.27599987,5.28983329 8.34699991,5.28983329 Z" id="Combined-Shape"></path>
        </g>
    </g>
</svg>