<?xml version="1.0" encoding="UTF-8"?>
<svg width="18px" height="17px" viewBox="0 0 18 17" version="1.1" xmlns="http://www.w3.org/2000/svg" xmlns:xlink="http://www.w3.org/1999/xlink">
    <!-- Generator: sketchtool 59.1 (101010) - https://sketch.com -->
    <title>6F27A4F5-C9D6-4048-B93B-B4D90B3C892C</title>
    <desc>Created with sketchtool.</desc>
    <g id="Asset-Artboard-Page" stroke="none" stroke-width="1" fill="none" fill-rule="evenodd">
        <g id="icon/messages-icon/meditationtimer/black" transform="translate(0.809524, 0.000000)" fill="#000000" stroke="#000000" stroke-width="0.3">
            <g id="icon/meditationtimer" transform="translate(0.000000, 2.125000)">
                <g id="meditation-copy">
                    <path d="M8.7959598,0.000192153522 C8.67838004,-0.00351946078 8.56513128,0.0466908014 8.48600285,0.137615455 C7.63495442,1.11557117 7.00952679,2.11417349 6.63115112,3.12854348 C5.77048382,2.40711897 4.68202241,1.83890226 3.38214715,1.40845149 C3.27416165,1.37270791 3.15675599,1.38615637 3.05875162,1.44549546 C2.96074726,1.50483456 2.89121929,1.60456955 2.86723588,1.72021688 C2.52317019,3.37995192 2.51459773,4.87044873 2.88277096,6.16906582 C2.08305669,6.15603294 1.22591114,6.25724796 0.31594221,6.46638363 C0.205394054,6.49180407 0.1102044,6.56467953 0.0537098794,6.66714392 C-0.00278464108,6.76960832 -0.0153605271,6.89218774 0.0190653172,7.00483072 C0.693935537,9.21178062 1.76812953,10.8238637 3.27819093,11.721766 C4.76738483,12.607245 6.64012605,12.7724893 8.8541962,12.2394025 C11.0682462,12.7724683 12.9409472,12.607245 14.4301413,11.721766 C15.9402037,10.8238637 17.0143976,9.21178062 17.689268,7.00483072 C17.7236939,6.89218772 17.711118,6.76960826 17.6546234,6.66714386 C17.5981288,6.56467946 17.5029391,6.49180402 17.3923909,6.46638363 C16.4494,6.24965946 15.5632367,6.14915915 14.7387098,6.17123096 C15.1075076,4.87211147 15.0990156,3.38086633 14.7547479,1.72021688 C14.7307645,1.60456955 14.6612365,1.50483456 14.5632322,1.44549546 C14.4652278,1.38615637 14.3478221,1.37270791 14.2398366,1.40845149 C12.9413698,1.8384293 11.8538944,2.40581779 10.9936698,3.12611348 C10.5874035,2.11967252 9.94303995,1.12232094 9.08084329,0.136762012 C9.00745185,0.0528933216 8.90468671,0.00362890007 8.7959598,0.000192153522 Z M8.78503294,1.05714389 C10.0370352,2.59030862 10.6644952,4.07406192 10.6955251,5.51886794 C10.7266154,6.96566882 10.1671517,8.41660659 8.92160899,9.9060334 C7.62477217,8.36943598 7.01956854,6.88852259 7.01091558,5.43905417 C7.002323,3.99831567 7.58372114,2.54504459 8.78503314,1.05714389 L8.78503294,1.05714389 Z M3.56677725,2.36003664 C4.72848691,2.7911117 5.66193964,3.33943221 6.36880587,3.99735713 C6.25818869,4.47667906 6.20315206,4.95911417 6.2060496,5.44424414 C6.20977238,6.06646317 6.30883867,6.68710144 6.50147782,7.30496497 C6.331115,7.17970219 6.15467539,7.06455041 5.97193683,6.95997207 C5.30298283,6.57712077 4.55999575,6.33695845 3.74895216,6.23101377 C3.37502372,5.14880561 3.31099184,3.8623323 3.56677725,2.36003664 L3.56677725,2.36003664 Z M14.0552064,2.36003664 C14.3119579,3.86803106 14.2464568,5.15853827 13.8687654,6.24328996 C13.0926556,6.35493128 12.3798532,6.59137292 11.7357111,6.95997215 C11.5808031,7.04859572 11.4304431,7.14484983 11.2844494,7.24835611 C11.4403032,6.66940202 11.5127868,6.08609663 11.5002098,5.49994923 C11.4892427,4.98930424 11.4144852,4.48046493 11.2785332,3.97370878 C11.9822801,3.3262459 12.9074018,2.78595531 14.0552064,2.36003664 L14.0552064,2.36003664 Z M2.68035218,7.0078574 C3.80294248,6.99818785 4.76881364,7.23011003 5.58518989,7.69733873 C6.80016559,8.39268485 7.72341591,9.62439699 8.335844,11.4966331 C6.41315708,11.9014511 4.88250946,11.7082702 3.67638796,10.9910835 C2.47753091,10.2782481 1.56345694,9.02530499 0.930885787,7.19435369 C1.55154404,7.0747455 2.13459211,7.01256605 2.68035218,7.0078574 L2.68035218,7.0078574 Z M15.0278606,7.00785754 C15.5737012,7.01248211 16.1567696,7.07474564 16.7774279,7.19435383 C16.1448766,9.02530511 15.2308628,10.2782482 14.0320051,10.9910836 C12.8258434,11.7082913 11.295075,11.9014302 9.37230754,11.4965701 C9.98391058,9.62437608 10.9071609,8.392706 12.1223781,7.69733886 C12.9389154,7.23011016 13.9050884,6.99820901 15.0278606,7.00785754 L15.0278606,7.00785754 Z" id="Shape"></path>
                </g>
            </g>
        </g>
    </g>
</svg>