<svg xmlns="http://www.w3.org/2000/svg" width="16" height="16" viewBox="0 0 16 16">
    <g fill="none" fill-rule="evenodd">
        <path fill="#6A6A6A" d="M3.455 2.298a.5.5 0 0 1-.011.707C2.058 4.349 1.347 5.978 1.299 7.919c-.048 1.926.657 3.54 2.133 4.876a.5.5 0 1 1-.672.741C1.071 12.006.245 10.114.3 7.895c.053-2.203.873-4.081 2.448-5.608a.5.5 0 0 1 .707.01zm9.09 0a.5.5 0 0 1 .707-.011c1.575 1.527 2.395 3.405 2.449 5.608.054 2.219-.772 4.11-2.461 5.641a.5.5 0 0 1-.672-.74c1.476-1.338 2.18-2.951 2.133-4.877-.048-1.94-.759-3.57-2.145-4.914a.5.5 0 0 1-.01-.707zm-2.238 2.688a.5.5 0 0 1 .707-.013c.98.945 1.482 2.032 1.482 3.239 0 1.207-.464 2.24-1.376 3.065a.5.5 0 0 1-.671-.741c.703-.638 1.047-1.402 1.047-2.324 0-.923-.384-1.755-1.176-2.519a.5.5 0 0 1-.013-.707zm-4.614 0a.5.5 0 0 1-.013.707c-.792.764-1.176 1.596-1.176 2.519 0 .922.344 1.686 1.047 2.324a.5.5 0 1 1-.671.74c-.912-.825-1.376-1.857-1.376-3.064s.502-2.294 1.482-3.239a.5.5 0 0 1 .707.013zm2.26 1.748c.662 0 1.183.52 1.183 1.183s-.52 1.184-1.183 1.184-1.184-.521-1.184-1.184c0-.663.52-1.183 1.184-1.183z"/>
    </g>
</svg>
