<?xml version="1.0" encoding="UTF-8"?>
<svg width="18px" height="17px" viewBox="0 0 18 17" version="1.1" xmlns="http://www.w3.org/2000/svg" xmlns:xlink="http://www.w3.org/1999/xlink">
    <!-- Generator: sketchtool 59.1 (101010) - https://sketch.com -->
    <title>FDD3171C-56AC-470C-82C3-FEB6C1A4AD77</title>
    <desc>Created with sketchtool.</desc>
    <g id="Asset-Artboard-Page" stroke="none" stroke-width="1" fill="none" fill-rule="evenodd">
        <g id="icon/messages-icon/music" transform="translate(0.809524, 0.000000)" fill="#000000">
            <g id="music-copy" transform="translate(1.416667, -0.708333)">
                <path d="M13.8207066,0.440684527 C14.0041414,0.56169748 14.1150249,0.766581204 14.1161612,0.986607164 L14.1161612,12.8258933 C14.1161612,12.8621126 14.1132388,12.8976482 14.1076175,12.9322763 C14.1133688,13.0051957 14.1161615,13.0796522 14.1161615,13.154762 C14.1125507,14.7879256 12.7918685,16.1109661 11.161616,16.1145833 C9.52986562,16.1145833 8.20707055,14.7894262 8.20707055,13.154762 C8.20707055,11.5200979 9.52986562,10.1949408 11.161616,10.1949408 C11.7691734,10.1949408 12.3338993,10.3786515 12.8034615,10.6936472 L12.8022828,4.60219135 L6.48686857,7.3732439 C6.40891332,7.41174815 6.32469563,7.43582261 6.23827511,7.44434891 L6.23737355,14.7991076 C6.23737355,14.8346438 6.23456042,14.8695218 6.22914509,14.9035302 C6.23455561,14.9777324 6.23737379,15.0525243 6.23737379,15.1279756 C6.23376303,16.7611391 4.91308076,18.0841796 3.28282831,18.0877968 C1.6510779,18.0877968 0.328282836,16.7626397 0.328282836,15.1279756 C0.328282836,13.4933114 1.6510779,12.1681543 3.28282831,12.1681543 C3.89020208,12.1681543 4.45477027,12.351754 4.924248,12.6665751 L4.92424228,4.27529774 C4.92556536,4.00976763 5.08613462,3.77107807 5.33131297,3.67017868 L13.2101006,0.381488097 C13.4108907,0.298895182 13.6394517,0.321053489 13.8207066,0.440684527 Z M3.28282831,13.4836304 C2.37630032,13.4836304 1.64141418,14.2198289 1.64141418,15.1279756 C1.64141418,16.0361224 2.37630032,16.7723209 3.28282831,16.7723209 C4.18935631,16.7723209 4.92424245,16.0361224 4.92424245,15.1279756 C4.92424245,14.2198289 4.18935631,13.4836304 3.28282831,13.4836304 Z M11.161616,11.5104169 C10.255088,11.5104169 9.52020189,12.2466153 9.52020189,13.1547621 C9.52020189,14.0629089 10.255088,14.7991073 11.161616,14.7991073 C12.068144,14.7991073 12.8030302,14.0629089 12.8030302,13.1547621 C12.8030302,12.2466153 12.068144,11.5104169 11.161616,11.5104169 Z M12.8030299,1.97321434 L6.23737355,4.71598228 L6.23728284,6.06019135 L12.5272729,3.28869045 C12.6144674,3.24488656 12.7084964,3.22188613 12.8026325,3.21917366 L12.8030299,1.97321434 Z" id="Combined-Shape"></path>
            </g>
        </g>
    </g>
</svg>