<?xml version="1.0" encoding="UTF-8"?>
<svg width="18px" height="17px" viewBox="0 0 18 17" version="1.1" xmlns="http://www.w3.org/2000/svg" xmlns:xlink="http://www.w3.org/1999/xlink">
    <!-- Generator: sketchtool 59.1 (101010) - https://sketch.com -->
    <title>D80F646E-AD7F-442C-8A42-6238BFB007F8</title>
    <desc>Created with sketchtool.</desc>
    <g id="Asset-Artboard-Page" stroke="none" stroke-width="1" fill="none" fill-rule="evenodd">
        <g id="icon/messages-icon/tethering" transform="translate(0.809524, 0.000000)">
            <path d="M3.67068647,2.44132784 C3.87494872,2.65194892 3.86979387,2.98827831 3.65917278,3.19254055 C2.18648974,4.62076197 1.43078858,6.35185251 1.38003614,8.41443461 C1.32969913,10.4601339 2.07850287,12.1744833 3.64603348,13.5948078 C3.86345725,13.7918134 3.88000944,14.1277748 3.68300382,14.3451986 C3.4859982,14.5626223 3.1500368,14.5791745 2.93261303,14.3821689 C1.13796566,12.756056 0.25985183,10.7456575 0.317857627,8.38829837 C0.375448001,6.04782207 1.24666441,4.05211985 2.91947372,2.42981416 C3.13009481,2.22555191 3.46642421,2.23070676 3.67068647,2.44132784 Z M13.3293135,2.44132784 C13.5335758,2.23070676 13.8699052,2.22555191 14.0805263,2.42981416 C15.7533356,4.05211985 16.624552,6.04782207 16.6821424,8.38829837 C16.7401482,10.7456575 15.8620343,12.756056 14.067387,14.3821689 C13.8499632,14.5791745 13.5140018,14.5626223 13.3169962,14.3451986 C13.1199906,14.1277748 13.1365427,13.7918134 13.3539665,13.5948078 C14.9214971,12.1744833 15.6703009,10.4601339 15.6199639,8.41443461 C15.5692114,6.35185251 14.8135103,4.62076197 13.3408272,3.19254055 C13.1302061,2.98827831 13.1250513,2.65194892 13.3293135,2.44132784 Z M10.9508676,5.29795702 C11.1545002,5.08672716 11.4908127,5.08056842 11.7020426,5.28420108 C12.7433531,6.28805933 13.276611,7.44303448 13.276611,8.72495616 C13.276611,10.0072743 12.7836421,11.104269 11.8154995,11.9816745 C11.5980959,12.1787024 11.2621328,12.1621847 11.0651049,11.9447811 C10.868077,11.7273775 10.8845948,11.3914144 11.1019984,11.1943865 C11.8493386,10.5170892 12.214111,9.70536766 12.214111,8.72495616 C12.214111,7.74414817 11.806017,6.86026359 10.9646235,6.04913204 C10.7533937,5.84549939 10.7472349,5.50918687 10.9508676,5.29795702 Z M6.04913209,5.29795702 C6.25276474,5.50918687 6.246606,5.84549939 6.03537615,6.04913204 C5.19398266,6.86026359 4.78588861,7.74414817 4.78588861,8.72495616 C4.78588861,9.70536766 5.15066111,10.5170892 5.89800128,11.1943865 C6.11540486,11.3914144 6.13192263,11.7273775 5.93489475,11.9447811 C5.73786686,12.1621847 5.40190378,12.1787024 5.18450019,11.9816745 C4.21635754,11.104269 3.72338862,10.0072743 3.72338862,8.72495616 C3.72338862,7.44303448 4.25664658,6.28805933 5.29795709,5.28420108 C5.50918693,5.08056842 5.84549944,5.08672716 6.04913209,5.29795702 Z M8.44970438,7.15458576 C9.15384639,7.15458576 9.70710082,7.70784019 9.70710082,8.4119822 C9.70710082,9.1161242 9.15384639,9.66937864 8.44970438,9.66937864 C7.74556237,9.66937864 7.19230794,9.1161242 7.19230794,8.4119822 C7.19230794,7.70784019 7.74556237,7.15458576 8.44970438,7.15458576 Z" id="Combined-Shape" fill="#000000"></path>
            <g id="Group" transform="translate(3.187500, 8.477844) scale(-1, 1) translate(-3.187500, -8.477844) translate(0.000000, 2.102844)"></g>
        </g>
    </g>
</svg>