<?xml version="1.0" encoding="UTF-8"?>
<svg width="18px" height="17px" viewBox="0 0 18 17" version="1.1" xmlns="http://www.w3.org/2000/svg" xmlns:xlink="http://www.w3.org/1999/xlink">
    <!-- Generator: sketchtool 59.1 (101010) - https://sketch.com -->
    <title>AC18D675-E470-4FD4-A219-0D35B2D6E804</title>
    <desc>Created with sketchtool.</desc>
    <g id="Asset-Artboard-Page" stroke="none" stroke-width="1" fill="none" fill-rule="evenodd">
        <g id="icon/messages-icon/calendar" transform="translate(0.809524, 0.000000)" fill="#000000" stroke="#000000" stroke-width="0.5">
            <g id="noun_Calendar_831984" transform="translate(0.708333, 1.416667)">
                <path d="M13.2281254,1.22662604 L12.094792,1.22662604 L12.094792,0.570121959 C12.094792,0.328252037 11.882292,0.12093496 11.6343753,0.12093496 C11.3864587,0.12093496 11.1739587,0.328252037 11.1739587,0.570121959 L11.1739587,1.22662604 L4.39166679,1.22662604 L4.39166679,0.570121959 C4.39166679,0.328252037 4.17916679,0.12093496 3.93125011,0.12093496 C3.68333344,0.12093496 3.47083343,0.328252037 3.47083343,0.570121959 L3.47083343,1.22662604 L2.33750007,1.22662604 C1.0979167,1.22662604 0.0708333344,2.21138215 0.0708333344,3.43800819 L0.0708333344,11.8343498 C0.0708333344,13.0436994 1.08020836,14.0457319 2.33750007,14.0457319 L13.1927087,14.0457319 C14.4322921,14.0457319 15.4593754,13.0609758 15.4593754,11.8343498 L15.4593754,3.43800819 C15.4770838,2.22865857 14.4677088,1.22662604 13.2281254,1.22662604 Z M13.2281245,13.1473575 L2.35520825,13.1473575 C1.61145828,13.1473575 0.991666634,12.5599591 0.991666634,11.817073 L0.991666634,6.51321137 L14.5739578,6.51321137 L14.5739578,11.8343494 C14.5739578,12.5599591 13.9718745,13.1473575 13.2281245,13.1473575 Z M2.35520842,2.10772354 L3.4885418,2.10772354 L3.4885418,3.64532518 C3.4885418,3.8871951 3.70104181,4.09451218 3.94895848,4.09451218 C4.19687516,4.09451218 4.40937517,3.8871951 4.40937517,3.64532518 L4.40937517,2.10772354 L11.1916671,2.10772354 L11.1916671,3.64532518 C11.1916671,3.8871951 11.4041671,4.09451218 11.6520838,4.09451218 C11.9000005,4.09451218 12.1125005,3.8871951 12.1125005,3.64532518 L12.1125005,2.10772354 L13.2458339,2.10772354 C13.9895839,2.10772354 14.6093756,2.69512192 14.6093756,3.43800811 L14.6093756,5.6148374 L1.00937503,5.6148374 L1.00937503,3.43800811 C1.00937503,2.71239834 1.61145839,2.10772354 2.35520842,2.10772354 Z" id="Shape"></path>
            </g>
        </g>
    </g>
</svg>