<svg xmlns="http://www.w3.org/2000/svg" width="17" height="17" viewBox="0 0 17 17">
    <g fill="none" fill-rule="evenodd" stroke="#000">
        <path fill="#000" fill-rule="nonzero" stroke-width=".2" d="M14.12 0c.791 0 1.514.358 2.033.941.525.584.847 1.38.847 2.26V13.8c0 .878-.322 1.675-.847 2.259-.52.583-1.242.941-2.032.941H4.585c-.79 0-1.507-.358-2.032-.941-.525-.584-.847-1.38-.847-2.26v-2.675H.52c-.287 0-.52-.232-.52-.52 0-.287.233-.52.52-.52h1.186V6.922H.52c-.287 0-.52-.232-.52-.52 0-.287.233-.52.52-.52h1.186V3.2c0-.878.322-1.675.847-2.259C3.078.358 3.795 0 4.585 0h9.536zm-.099 1.104H4.685c-.509 0-.968.233-1.305.615-.337.383-.542.904-.542 1.481v2.682h.907c.288 0 .52.233.52.52 0 .288-.232.52-.52.52h-.907v3.162h.907c.288 0 .52.233.52.52 0 .288-.232.52-.52.52h-.907V13.8c0 .577.205 1.098.542 1.48.337.383.796.616 1.305.616h9.336c.51 0 .968-.239 1.305-.615.337-.383.542-.904.542-1.481V3.2c0-.577-.205-1.098-.542-1.48-.337-.377-.796-.616-1.305-.616z"/>
        <path stroke-width="1.2" d="M12.858 11.603c0 .188-.019.37-.055.548H6.322c-.036-.177-.055-.36-.055-.548 0-.583.183-1.123.495-1.565.321-.455.778-.808 1.313-.998l.922-.328-.71-.673c-.356-.336-.577-.812-.577-1.34 0-.51.207-.973.542-1.307.335-.335.799-.542 1.31-.542.512 0 .976.207 1.311.542.335.334.542.797.542 1.307 0 .528-.221 1.004-.577 1.341l-.71.673.922.328c.535.19.992.542 1.313.997.312.442.495.982.495 1.565z"/>
    </g>
</svg>
