<svg xmlns="http://www.w3.org/2000/svg" xmlns:xlink="http://www.w3.org/1999/xlink" width="32" height="32" viewBox="0 0 32 32">
    <defs>
        <rect id="l3ml4tjjra" width="24" height="24" x="0" y="0" rx="4"/>
    </defs>
    <g fill="none" fill-rule="evenodd" transform="translate(4 4)">
        <mask id="w3h3fn6h9b" fill="#fff">
            <use xlink:href="#l3ml4tjjra"/>
        </mask>
        <g stroke="#000" stroke-width="1.3" mask="url(#w3h3fn6h9b)">
            <path d="M18 18.683H5.333c-.372 0-.71-.15-.954-.395-.245-.244-.396-.582-.396-.955V6.667c0-.373.151-.71.396-.955.244-.244.582-.395.954-.395H8.28c.267 0 .522.079.737.219.215.14.39.341.498.586l.218.494c.212.48.556.876.978 1.15.422.276.922.43 1.447.43H18c.373 0 .71.152.955.396.244.244.395.582.395.955v7.786c0 .373-.151.71-.395.955-.245.244-.582.395-.955.395z"/>
        </g>
    </g>
</svg>
