<svg xmlns="http://www.w3.org/2000/svg" xmlns:xlink="http://www.w3.org/1999/xlink" width="32" height="32" viewBox="0 0 32 32">
    <defs>
        <rect id="gsk6kfmfya" width="24" height="24" x="0" y="0" rx="4"/>
    </defs>
    <g fill="none" fill-rule="evenodd" transform="translate(4 4)">
        <mask id="funbcsegwb" fill="#fff">
            <use xlink:href="#gsk6kfmfya"/>
        </mask>
        <g stroke="#000" mask="url(#funbcsegwb)">
            <g transform="translate(4.667 2.667)">
                <path d="M8 6.167H4c-.046 0-.088-.019-.118-.05-.03-.03-.049-.071-.049-.117 0-.046.019-.088.05-.118L8 5.833c.046 0 .088.019.118.05.03.03.049.071.049.117 0 .046-.019.088-.05.118-.03.03-.071.049-.117.049zM10.667 9.5H4c-.046 0-.088-.019-.118-.049-.03-.03-.049-.072-.049-.118s.019-.087.05-.118l6.784-.048c.046 0 .087.018.118.048.03.03.048.072.048.118s-.018.088-.048.118c-.03.03-.072.049-.118.049zM10.667 12.833H4c-.046 0-.088-.018-.118-.048-.03-.03-.049-.072-.049-.118s.019-.088.05-.118l6.784-.049c.046 0 .087.019.118.049.03.03.048.072.048.118s-.018.087-.048.118c-.03.03-.072.048-.118.048z"/>
                <rect width="13.367" height="17.367" x=".65" y=".65" stroke-width="1.3" rx="3"/>
            </g>
        </g>
    </g>
</svg>
