<?xml version="1.0" encoding="UTF-8"?>
<svg width="18px" height="17px" viewBox="0 0 18 17" version="1.1" xmlns="http://www.w3.org/2000/svg" xmlns:xlink="http://www.w3.org/1999/xlink">
    <!-- Generator: sketchtool 59.1 (101010) - https://sketch.com -->
    <title>B07B7466-3B8D-4CF8-9016-69A013923ED2</title>
    <desc>Created with sketchtool.</desc>
    <g id="Asset-Artboard-Page" stroke="none" stroke-width="1" fill="none" fill-rule="evenodd">
        <g id="icon/messages-icon/files-manager" transform="translate(0.809524, 0.000000)" fill="#000000">
            <g id="Group" transform="translate(0.708333, 0.708333)">
                <path d="M5.16158176,1.12899664 C5.3949404,1.11447809 5.62619037,1.18452337 5.81989811,1.3283997 C5.90983697,1.42000308 5.98509736,1.52762544 6.04251716,1.64674495 L6.04251716,1.64674495 L6.91073147,3.28744736 L14.6292521,3.28744736 C15.148814,3.28733304 15.5729425,3.74454351 15.5833337,4.31594737 L15.5833337,4.31594737 L15.5833337,13.9607588 C15.5833337,14.8738149 15.5133677,15.4720241 14.6292521,15.4720241 L14.6292521,15.4720241 L1.27210887,15.4720241 C0.387993202,15.4720241 0.318027214,14.5869543 0.318027214,13.9677554 L0.318027214,2.17848645 C0.292360762,1.92117886 0.36345765,1.66351628 0.514813557,1.46531212 C0.666169463,1.26710796 0.884620509,1.14560062 1.11945581,1.12899664 L1.11945581,1.12899664 Z M5.05981273,2.59128577 L1.59013604,2.59128577 L1.59013604,14.0727037 L14.3112238,14.0727037 L14.3112238,14.0727037 L14.3112238,4.69026529 L6.67539087,4.69026529 C6.21425144,4.69026529 5.97255077,4.2389847 5.8103569,3.99060545 L5.8103569,3.99060545 L5.05981273,2.59128577 Z M14.7015301,0.524744918 C15.0528133,0.524744918 15.3375845,0.837993315 15.3375845,1.22440479 C15.3375845,1.61081627 15.0528133,1.92406467 14.7015301,1.92406467 L14.7015301,1.92406467 L8.34098614,1.92406467 C7.98970299,1.92406467 7.70493174,1.61081627 7.70493174,1.22440479 C7.70493174,0.837993315 7.98970299,0.524744918 8.34098614,0.524744918 L8.34098614,0.524744918 Z" id="Combined-Shape"></path>
            </g>
        </g>
    </g>
</svg>