<?xml version="1.0" encoding="UTF-8"?>
<svg width="18px" height="17px" viewBox="0 0 18 17" version="1.1" xmlns="http://www.w3.org/2000/svg" xmlns:xlink="http://www.w3.org/1999/xlink">
    <!-- Generator: sketchtool 59.1 (101010) - https://sketch.com -->
    <title>8EF83D69-49B0-4F7B-9540-17BA470C234C</title>
    <desc>Created with sketchtool.</desc>
    <g id="Asset-Artboard-Page" stroke="none" stroke-width="1" fill="none" fill-rule="evenodd">
        <g id="icon/messages-copy-2-icon/phone" transform="translate(0.809524, 0.000000)" fill="#000000">
            <path d="M12.75,0.177083333 C13.8258047,0.177083333 14.6979167,1.04919533 14.6979167,2.125 L14.6979167,14.875 C14.6979167,15.9508047 13.8258047,16.8229167 12.75,16.8229167 L4.25,16.8229167 C3.17419533,16.8229167 2.30208333,15.9508047 2.30208333,14.875 L2.30208333,2.125 C2.30208333,1.04919533 3.17419533,0.177083333 4.25,0.177083333 L12.75,0.177083333 Z M12.6180825,1.35078817 L4.41118592,1.35078817 C3.93904594,1.35078817 3.55630086,1.73753406 3.55630086,2.2146093 L3.55630086,14.6536337 C3.55630086,15.1307089 3.93904594,15.5174548 4.41118592,15.5174548 L12.6180825,15.5174548 C13.0902225,15.5174548 13.4729675,15.1307089 13.4729675,14.6536337 L13.4729675,2.2146093 C13.4729675,1.73753406 13.0902225,1.35078817 12.6180825,1.35078817 Z M5.40063982,12.0416667 C5.8419956,12.0416667 6.19978515,12.4041028 6.19978515,12.8511905 C6.19978515,13.2982782 5.8419956,13.6607144 5.40063982,13.6607144 C4.95928404,13.6607144 4.60149448,13.2982782 4.60149448,12.8511905 C4.60149448,12.4041028 4.95928404,12.0416667 5.40063982,12.0416667 Z M8.59722099,12.0416667 C9.03857677,12.0416667 9.39636633,12.4041028 9.39636633,12.8511905 C9.39636633,13.2982782 9.03857677,13.6607144 8.59722099,13.6607144 C8.15586521,13.6607144 7.79807566,13.2982782 7.79807566,12.8511905 C7.79807566,12.4041028 8.15586521,12.0416667 8.59722099,12.0416667 Z M11.7938023,12.0416667 C12.2351581,12.0416667 12.5929477,12.4041028 12.5929477,12.8511905 C12.5929477,13.2982782 12.2351581,13.6607144 11.7938023,13.6607144 C11.3524466,13.6607144 10.994657,13.2982782 10.994657,12.8511905 C10.994657,12.4041028 11.3524466,12.0416667 11.7938023,12.0416667 Z M5.40063982,9.20833333 C5.8419956,9.20833333 6.19978515,9.5707695 6.19978515,10.0178572 C6.19978515,10.4649449 5.8419956,10.827381 5.40063982,10.827381 C4.95928404,10.827381 4.60149448,10.4649449 4.60149448,10.0178572 C4.60149448,9.5707695 4.95928404,9.20833333 5.40063982,9.20833333 Z M8.59722099,9.20833333 C9.03857677,9.20833333 9.39636633,9.5707695 9.39636633,10.0178572 C9.39636633,10.4649449 9.03857677,10.827381 8.59722099,10.827381 C8.15586521,10.827381 7.79807566,10.4649449 7.79807566,10.0178572 C7.79807566,9.5707695 8.15586521,9.20833333 8.59722099,9.20833333 Z M11.7938023,9.20833333 C12.2351581,9.20833333 12.5929477,9.5707695 12.5929477,10.0178572 C12.5929477,10.4649449 12.2351581,10.827381 11.7938023,10.827381 C11.3524466,10.827381 10.994657,10.4649449 10.994657,10.0178572 C10.994657,9.5707695 11.3524466,9.20833333 11.7938023,9.20833333 Z" id="Combined-Shape"></path>
        </g>
    </g>
</svg>