<svg xmlns="http://www.w3.org/2000/svg" width="17" height="17" viewBox="0 0 17 17">
    <path fill="#000" fill-rule="evenodd" stroke="#000" stroke-width=".5" d="M13.936 2.643h-1.133v-.656a.463.463 0 0 0-.46-.45.463.463 0 0 0-.46.45v.656H5.1v-.656a.463.463 0 0 0-.46-.45.463.463 0 0 0-.46.45v.656H3.045c-1.24 0-2.267.985-2.267 2.212v8.396c0 1.21 1.01 2.211 2.267 2.211H13.9c1.24 0 2.267-.984 2.267-2.211V4.855c.017-1.21-.992-2.212-2.232-2.212zm0 11.921H3.064c-.744 0-1.364-.587-1.364-1.33V7.93h13.582v5.321c0 .726-.602 1.313-1.346 1.313zM3.064 3.524h1.133v1.538c0 .242.212.45.46.45.248 0 .46-.208.46-.45V3.524H11.9v1.538c0 .242.212.45.46.45.248 0 .46-.208.46-.45V3.524h1.134c.744 0 1.364.588 1.364 1.33v2.178h-13.6V4.855c0-.726.602-1.33 1.346-1.33z"/>
</svg>
