<?xml version="1.0" encoding="UTF-8"?>
<svg width="18px" height="17px" viewBox="0 0 18 17" version="1.1" xmlns="http://www.w3.org/2000/svg" xmlns:xlink="http://www.w3.org/1999/xlink">
    <!-- Generator: sketchtool 59.1 (101010) - https://sketch.com -->
    <title>E717C3CD-F7C9-453F-8BBD-D1D7888CB200</title>
    <desc>Created with sketchtool.</desc>
    <g id="Asset-Artboard-Page" stroke="none" stroke-width="1" fill="none" fill-rule="evenodd">
        <g id="icon/messages-icon/settings" transform="translate(0.809524, 0.000000)" fill="#000000">
            <g id="noun_Settings_937618" transform="translate(0.000000, 0.000000)">
                <path d="M8.65485164,17.0000002 L8.14990114,17.0000002 L7.89237638,16.9225745 C7.2713063,16.7531044 6.76060403,16.3111148 6.50376249,15.7207923 C6.41325353,15.5191248 6.30033138,15.3282864 6.16712882,15.1518814 C5.95673278,14.8724755 5.78841595,14.8152477 5.66217832,14.8152477 C5.35262873,14.7830484 5.04002221,14.8317663 4.75495058,14.9566339 C3.98213017,15.3024857 3.0763653,15.1398655 2.47212138,14.5467769 C1.86787746,13.9536882 1.68840937,13.0511105 2.01980202,12.2719804 C2.12870651,12.0294519 2.18602381,11.7669386 2.18811885,11.5010893 C2.20118013,11.3572125 2.16690154,11.213006 2.09049509,11.0903962 C1.89061146,10.8217198 1.61779009,10.6160814 1.30445547,10.4979209 C0.979301253,10.3684835 0.693358351,10.1567814 0.474653474,9.88356449 C0.0499485876,9.38124478 -0.101043195,8.70241089 0.0706930706,8.06742585 C0.239848792,7.43467436 0.696886905,6.91840211 1.30445547,6.67376247 C1.51786452,6.59266722 1.71381834,6.47155291 1.88178221,6.31693078 C2.02642993,6.21348681 2.13057042,6.06292942 2.17633667,5.89108919 C2.22265056,5.5617611 2.17419196,5.22605394 2.0366337,4.92326739 C1.8302158,4.44913017 1.81156575,3.91429466 1.98445548,3.42693074 C2.15892362,2.88684386 2.55847779,2.44862316 3.08019808,2.22514854 C3.61659938,1.98992327 4.22696512,1.98992327 4.76336642,2.22514854 C4.99569618,2.33038157 5.24902802,2.38104794 5.5039605,2.37326735 C5.64080301,2.38039844 5.77637104,2.34385401 5.89108922,2.26891092 C6.15961827,2.06927003 6.36477009,1.79631875 6.48188131,1.4828713 C6.61272655,1.15294376 6.82738662,0.862862592 7.10465359,0.641287131 C7.60912326,0.214151488 8.29220224,0.0641765833 8.92920808,0.240693066 C9.55994976,0.416189452 10.0735442,0.874444995 10.3195051,1.48118813 C10.4015762,1.69499927 10.5232034,1.89142992 10.67802,2.06019804 C10.7895677,2.216002 10.9573956,2.32225277 11.1459408,2.35643567 C11.4581604,2.38847757 11.7733208,2.33798226 12.0599012,2.21000003 C12.5392919,1.99818115 13.0819236,1.97949051 13.5747527,2.15782181 C14.1109143,2.33402368 14.5451603,2.73269591 14.7664359,3.25188123 C15.0014551,3.78832572 15.0014551,4.39860508 14.7664359,4.93504957 C14.6617002,5.16883222 14.6099696,5.42288678 14.6149508,5.67900998 C14.6044997,5.81798345 14.6374334,5.95677546 14.7092082,6.07623771 C14.9176805,6.35623955 15.2039201,6.56872412 15.5322775,6.68722781 C15.9333771,6.84275971 16.2682292,7.1324098 16.4799013,7.5069308 C16.5675543,7.67184361 16.6418515,7.84351513 16.7020795,8.02029714 C16.7239607,8.0808912 16.7475251,8.14316843 16.7710894,8.20376249 L16.7929706,8.24752487 L16.8030696,8.29633675 C16.8412903,8.48461464 16.8412903,8.67865293 16.8030696,8.86693082 L16.7912874,8.9207922 L16.7694062,8.98811894 C16.7694062,9.00326745 16.7576241,9.02009914 16.7525746,9.04029716 C16.5955442,9.72309537 16.1061463,10.2814136 15.4498023,10.5265348 C15.2257766,10.6167869 15.0233143,10.7532912 14.8556438,10.9271289 C14.7311547,11.0273979 14.6493455,11.1711654 14.6267329,11.3294061 C14.5948557,11.6394953 14.6435552,11.9525631 14.7681191,12.238317 C14.9195585,12.584145 14.9725625,12.9650747 14.9212874,13.3391091 C14.8526366,13.9818269 14.476028,14.5511335 13.9113864,14.8657428 C13.3420763,15.1820261 12.6583881,15.2168321 12.0599012,14.9600002 C11.8268179,14.8566092 11.5742807,14.8043799 11.3193071,14.8068319 L11.3193071,14.8068319 C11.1715054,14.7944762 11.0239904,14.8337342 10.9018814,14.917921 C10.6357514,15.1283236 10.4325468,15.4078027 10.3144556,15.7258418 C10.1990633,16.010882 10.0179754,16.2646358 9.78594077,16.4664359 C9.48242695,16.7215792 9.12232232,16.9004774 8.73564372,16.9882181 L8.65485164,17.0000002 Z M8.31821797,15.8992083 L8.51178233,15.8992083 C8.70685733,15.854918 8.88931006,15.7668572 9.0453467,15.6416835 C9.14813194,15.5532384 9.2288255,15.4419966 9.28099027,15.316832 C9.47147986,14.815949 9.79434237,14.376158 10.2151487,14.0443567 C10.5296154,13.8109091 10.9145063,13.6921157 11.3058418,13.7077231 C11.7210268,13.7025737 12.1323268,13.7881655 12.5109903,13.9585151 C12.7932935,14.072067 13.1117474,14.0522795 13.3778221,13.9046538 C13.6371208,13.7591847 13.8069049,13.4940942 13.8305943,13.197723 C13.8565173,13.0217096 13.8320051,12.8419534 13.7599013,12.6793072 C13.5614403,12.2241865 13.4820846,11.7260411 13.5293072,11.2317824 C13.5741753,10.8177756 13.7672745,10.4339686 14.0729706,10.1511883 C14.3492537,9.8669851 14.6825191,9.64442578 15.0508914,9.498119 C15.379269,9.37819238 15.6211569,9.09545789 15.6888122,8.75247541 C15.7022776,8.7053467 15.7157429,8.66495066 15.7275251,8.62960412 C15.7287892,8.61279618 15.7287892,8.59591702 15.7275251,8.57910907 C15.7275251,8.57910907 15.7275251,8.56396056 15.7275251,8.55722789 C15.7073271,8.50504967 15.6888122,8.45455462 15.6702974,8.4023764 C15.6292877,8.28042429 15.579214,8.16171032 15.5204954,8.04722787 C15.4327878,7.89162083 15.2925792,7.77229431 15.1249508,7.7105942 C14.5999827,7.51525697 14.1444174,7.16919132 13.8154458,6.7158417 C13.6101533,6.41296006 13.5053385,6.05317435 13.5158419,5.68742584 C13.5093481,5.27048473 13.5949833,4.85725163 13.7666339,4.47722779 C13.8674896,4.22441711 13.8620274,3.94159922 13.7514854,3.69287133 C13.6566835,3.45882007 13.4641759,3.27799818 13.2246537,3.19801983 C12.9929529,3.10857321 12.7353404,3.11401572 12.507624,3.21316835 C12.0486247,3.41680488 11.54468,3.49799275 11.0449507,3.44881192 C10.5821224,3.39053001 10.1598517,3.1552649 9.86673286,2.79237626 C9.6191623,2.52147825 9.4249985,2.2062476 9.29445562,1.86326733 C9.17241096,1.58748091 8.93349865,1.38067052 8.64306946,1.29940593 C8.34701502,1.21842518 8.03009511,1.29321828 7.80148528,1.49801979 C7.67159033,1.60083212 7.57114262,1.73611719 7.51029716,1.89019802 C7.31558197,2.39470571 6.98100986,2.83321123 6.54584169,3.15425746 C6.24395065,3.36365203 5.8829975,3.47099431 5.51574265,3.4605941 C5.09852087,3.46617388 4.68505384,3.38118343 4.30386143,3.21148518 C4.05051934,3.10861213 3.76629069,3.11286342 3.51613864,3.22326736 C3.28251819,3.3231946 3.10463802,3.52077085 3.02970299,3.7635644 C2.94227067,3.99330482 2.94770379,4.24805758 3.0448515,4.47386145 C3.26350863,4.96290834 3.34048834,5.50351586 3.26702973,6.03415852 C3.19190355,6.4650092 2.96354562,6.85417415 2.62405941,7.12990112 C2.35367328,7.37856383 2.03833451,7.5733655 1.69495048,7.70386153 C1.41844627,7.82487992 1.21213248,8.06526957 1.13445542,8.35693085 C1.05513569,8.65384367 1.13182021,8.97072184 1.33811879,9.19851503 C1.43878564,9.32544522 1.57116209,9.42356637 1.72188117,9.48297048 C2.22320378,9.6758989 2.66009586,10.006047 2.98257427,10.4356438 C3.19939791,10.7462478 3.30874632,11.1192145 3.29396042,11.497723 C3.29183327,11.912691 3.2047648,12.3228293 3.03811883,12.7028716 C2.88895652,13.0662351 2.97678396,13.4838389 3.25967595,13.7563359 C3.54256793,14.0288329 3.96316568,14.100972 4.32069312,13.9383171 C4.77652218,13.7404282 5.27549222,13.662772 5.76990107,13.7127726 C6.28620961,13.7742906 6.75044104,14.0567595 7.04237635,14.48703 C7.22593362,14.7300687 7.38122403,14.9932153 7.50524765,15.2713865 C7.63261661,15.5698871 7.89341236,15.7907524 8.20881202,15.8672281 L8.31821797,15.8992083 Z M8.40574276,12.0279211 C6.50670737,12.0242068 4.96946381,10.4831974 4.97039564,8.58415858 C4.97316801,6.68905863 6.50728259,5.1526869 8.40237642,5.14712873 L8.40237642,5.14712873 C10.2994425,5.14990967 11.8366253,6.68709251 11.8394063,8.58415858 L11.8394063,8.58415858 C11.8375774,10.4763697 10.3080311,12.0119319 8.41584177,12.0211884 L8.39901009,12.0211884 L8.40574276,12.0279211 Z M8.40574285,6.25465355 L8.40574285,6.25465355 C7.46011955,6.25567278 6.60850965,6.82703449 6.24900144,7.70165346 C5.88949323,8.57627243 6.09310345,9.58137767 6.76465374,10.2471289 C7.19920754,10.6805596 7.78862323,10.9228683 8.40237652,10.920415 L8.41584186,10.920415 C9.70046392,10.9120727 10.7377162,9.8688073 10.7386141,8.58415856 L10.7386141,8.58415856 C10.7367699,7.29662426 9.69495328,6.25255098 8.40742602,6.24792088 L8.40574285,6.25465355 Z" id="Shape"></path>
            </g>
        </g>
    </g>
</svg>