<?xml version="1.0" encoding="UTF-8"?>
<svg width="18px" height="17px" viewBox="0 0 18 17" version="1.1" xmlns="http://www.w3.org/2000/svg" xmlns:xlink="http://www.w3.org/1999/xlink">
    <!-- Generator: sketchtool 59.1 (101010) - https://sketch.com -->
    <title>17D5D68E-614D-4EE7-877D-EB58D5326964</title>
    <desc>Created with sketchtool.</desc>
    <g id="Asset-Artboard-Page" stroke="none" stroke-width="1" fill="none" fill-rule="evenodd">
        <g id="icon/messages-icon/tools" transform="translate(0.809524, 0.000000)" fill="#000000">
            <g id="Group">
                <path d="M1.46064216,11.0175233 L0.212204634,15.7490716 C0.135007632,16.0415693 0.219155509,16.3530582 0.433004889,16.5670096 C0.594558017,16.7284607 0.811624647,16.8159299 1.03408453,16.8159299 C1.10640465,16.8159299 1.1792454,16.8066947 1.25094291,16.7878119 L5.98259551,15.5393745 C6.12785839,15.5009842 6.26046477,15.4248242 6.36671477,15.3185742 L13.7473542,7.93793517 C13.7475348,7.93775455 13.7476389,7.9375463 13.7478217,7.93736355 L16.0977211,5.58746423 C16.5609052,5.12438425 16.8159456,4.50867401 16.8159456,3.85374265 C16.8159456,3.1988113 16.5609031,2.58299694 16.0977211,2.11991695 L14.8799962,0.902192106 C14.4168121,0.439112118 13.8011018,0.184071749 13.1463787,0.184071749 C12.4914473,0.184071749 11.875737,0.439114243 11.4127611,0.902192106 L9.06218595,3.25266092 L1.68144242,10.6333 C1.57519241,10.7396541 1.49903454,10.8721563 1.46064216,11.0175233 Z M12.6149205,2.10424731 C12.8985995,1.82046418 13.3935332,1.82015393 13.6780431,2.10435143 L14.8957679,3.3220763 C15.0377116,3.46412405 15.1159456,3.6528623 15.1159456,3.85374067 C15.1159456,4.05451492 15.0377116,4.2432553 14.8957679,4.38540504 L13.1463787,6.13479428 L10.8653251,3.85374067 L12.6149205,2.10424731 Z M3.04577951,11.6731819 L9.66316131,5.05580013 L11.9442171,7.3368559 L5.32704353,13.9541314 L2.22836001,14.7717592 L3.04577951,11.6731819 Z" id="Shape"></path>
            </g>
        </g>
    </g>
</svg>