<?xml version="1.0" encoding="UTF-8"?>
<svg width="18px" height="17px" viewBox="0 0 18 17" version="1.1" xmlns="http://www.w3.org/2000/svg" xmlns:xlink="http://www.w3.org/1999/xlink">
    <!-- Generator: sketchtool 59.1 (101010) - https://sketch.com -->
    <title>2AEFC468-878F-45EC-B75D-EC16D723AC72</title>
    <desc>Created with sketchtool.</desc>
    <g id="Asset-Artboard-Page" stroke="none" stroke-width="1" fill="none" fill-rule="evenodd">
        <g id="icon/messages-icon/overview" transform="translate(0.809524, 0.000000)" fill="#000000">
            <path d="M12.75,0.177083333 C13.8258047,0.177083333 14.6979167,1.04919533 14.6979167,2.125 L14.6979167,14.875 C14.6979167,15.9508047 13.8258047,16.8229167 12.75,16.8229167 L4.25,16.8229167 C3.17419533,16.8229167 2.30208333,15.9508047 2.30208333,14.875 L2.30208333,2.125 C2.30208333,1.04919533 3.17419533,0.177083333 4.25,0.177083333 L12.75,0.177083333 Z M5.31508333,1.35008333 L4.41118592,1.35078817 C3.93904594,1.35078817 3.55630086,1.73753406 3.55630086,2.2146093 L3.55630086,14.6536337 C3.55630086,15.1307089 3.93904594,15.5174548 4.41118592,15.5174548 L12.6180825,15.5174548 C13.0902225,15.5174548 13.4729675,15.1307089 13.4729675,14.6536337 L13.4729675,2.2146093 C13.4729675,1.73753406 13.0902225,1.35078817 12.6180825,1.35078817 L11.6854666,1.35039204 C11.6868156,1.37231047 11.6875,1.39440864 11.6875,1.41666667 L11.6875,2.83333333 C11.6875,3.42013588 11.2118025,3.89583333 10.625,3.89583333 L6.375,3.89583333 C5.78819745,3.89583333 5.3125,3.42013588 5.3125,2.83333333 L5.3125,1.41666667 L5.31508333,1.35008333 Z M11.6875,12.0416667 C11.8831008,12.0416667 12.0416667,12.2002325 12.0416667,12.3958333 C12.0416667,12.5914342 11.8831008,12.75 11.6875,12.75 L5.3125,12.75 C5.11689915,12.75 4.95833333,12.5914342 4.95833333,12.3958333 C4.95833333,12.2002325 5.11689915,12.0416667 5.3125,12.0416667 L11.6875,12.0416667 Z M11.6875,9.91666667 C11.8831008,9.91666667 12.0416667,10.0752325 12.0416667,10.2708333 C12.0416667,10.4664342 11.8831008,10.625 11.6875,10.625 L5.3125,10.625 C5.11689915,10.625 4.95833333,10.4664342 4.95833333,10.2708333 C4.95833333,10.0752325 5.11689915,9.91666667 5.3125,9.91666667 L11.6875,9.91666667 Z M11.6875,7.79166667 C11.8831008,7.79166667 12.0416667,7.95023248 12.0416667,8.14583333 C12.0416667,8.34143418 11.8831008,8.5 11.6875,8.5 L5.3125,8.5 C5.11689915,8.5 4.95833333,8.34143418 4.95833333,8.14583333 C4.95833333,7.95023248 5.11689915,7.79166667 5.3125,7.79166667 L11.6875,7.79166667 Z M10.9720833,1.35008333 L6.02706543,1.35017265 C6.02297425,1.37171017 6.02083333,1.3939384 6.02083333,1.41666667 L6.02083333,2.83333333 C6.02083333,3.02893418 6.17939915,3.1875 6.375,3.1875 L10.625,3.1875 C10.8206008,3.1875 10.9791667,3.02893418 10.9791667,2.83333333 L10.9791667,1.41666667 L10.9720833,1.35008333 Z" id="Combined-Shape"></path>
        </g>
    </g>
</svg>