<svg xmlns="http://www.w3.org/2000/svg" xmlns:xlink="http://www.w3.org/1999/xlink" width="32" height="32" viewBox="0 0 32 32">
    <defs>
        <rect id="wvtlu9cg2a" width="24" height="24" x="0" y="0" rx="4"/>
    </defs>
    <g fill="none" fill-rule="evenodd" transform="translate(4 4)">
        <mask id="sm7a4dh0nb" fill="#fff">
            <use xlink:href="#wvtlu9cg2a"/>
        </mask>
        <g mask="url(#sm7a4dh0nb)">
            <g>
                <path fill="#000" fill-rule="nonzero" d="M15.505 0c.868 0 1.662.393 2.232 1.034.576.64.93 1.516.93 2.48v11.638c0 .965-.354 1.84-.93 2.481-.57.64-1.364 1.034-2.232 1.034H5.035c-.868 0-1.655-.393-2.232-1.034-.576-.64-.93-1.516-.93-2.48v-1.82H.667c-.369 0-.667-.298-.667-.666C0 12.298.298 12 .667 12h1.206V6.666H.667C.298 6.667 0 6.369 0 6c0-.368.298-.667.667-.667h1.206V3.514c0-.964.354-1.84.93-2.48C3.38.393 4.167 0 5.035 0h10.47zm-.109 1.213H5.144c-.558 0-1.062.255-1.432.675-.37.42-.595.992-.595 1.626l-.001 1.819h.901c.368 0 .667.299.667.667 0 .368-.299.667-.667.667l-.901-.001V12h.901c.368 0 .667.298.667.667 0 .368-.299.666-.667.666h-.901v1.82c0 .633.225 1.205.596 1.626.37.42.874.675 1.432.675h10.252c.559 0 1.062-.262 1.433-.675.37-.42.594-.993.594-1.627V3.514c0-.634-.224-1.206-.594-1.626-.37-.413-.874-.675-1.433-.675z" transform="translate(1.333 2.667)"/>
                <path stroke="#000" stroke-width="1.3" d="M14.128 12.74c0 .21-.022.413-.062.61H6.934c-.04-.197-.062-.4-.062-.61 0-.641.202-1.236.546-1.724.354-.501.858-.89 1.447-1.099l1.004-.356-.776-.73c-.392-.369-.636-.893-.636-1.475 0-.563.228-1.073.598-1.442s.88-.597 1.445-.597c.564 0 1.075.228 1.445.597.37.37.598.879.598 1.442 0 .582-.244 1.108-.637 1.48l-.77.73 1 .354c.589.208 1.092.596 1.446 1.096.344.488.546 1.083.546 1.725z" transform="translate(1.333 2.667)"/>
            </g>
        </g>
    </g>
</svg>
