<svg xmlns="http://www.w3.org/2000/svg" width="14" height="14" viewBox="0 0 14 14">
    <path fill="#FFF" fill-rule="evenodd" d="M6.3 2.1c.387 0 .7.313.7.7 0 .387-.313.7-.7.7H2.1c-.387 0-.7.313-.7.7v7.7c0 .387.313.7.7.7h7.7c.387 0 .7-.313.7-.7V7.7c0-.387.313-.7.7-.7.387 0 .7.313.7.7v4.2c0 1.16-.94 2.1-2.1 2.1H2.1C.94 14 0 13.06 0 11.9V4.2c0-1.16.94-2.1 2.1-2.1zm7-2.1c.035 0 .07.003.103.008l.035.006c.02.004.039.008.057.014.018.005.036.01.054.018l.039.016.045.022c.02.011.04.023.058.036.037.024.071.053.104.085l-.08-.069c.057.042.107.092.149.149l.017.024.035.058.022.045.016.04c.007.017.013.035.018.053.006.018.01.037.014.056l.007.038C13.997.63 14 .665 14 .7v4.2c0 .387-.313.7-.7.7-.387 0-.7-.313-.7-.7V2.388L6.095 8.895c-.246.246-.63.27-.903.074l-.087-.074c-.273-.273-.273-.717 0-.99L11.61 1.4H9.1c-.354 0-.647-.263-.694-.605L8.4.7c0-.387.313-.7.7-.7z"/>
</svg>
