<svg xmlns="http://www.w3.org/2000/svg" width="16" height="17" viewBox="0 0 16 17">
    <g fill="#000" fill-rule="evenodd">
        <path d="M10.633 14.229c-.713 0-1.391-.19-1.993-.545a6.52 6.52 0 0 0 1.837-3.506 3.87 3.87 0 0 1 1.766-.427c.834 0 1.645.273 2.311.768a3.927 3.927 0 0 1-3.92 3.71m-9.602-3.71a3.87 3.87 0 0 1 4.043-.359 6.523 6.523 0 0 0 1.852 3.535 3.927 3.927 0 0 1-5.895-3.176m6.745-5.553a5.513 5.513 0 0 1 1.779 4.066 5.515 5.515 0 0 1-1.779 4.066A5.517 5.517 0 0 1 6 9.032c0-1.556.644-3.016 1.778-4.066m7.706 5.041a.498.498 0 0 0-.13-.161 4.905 4.905 0 0 0-3.11-1.113c-.57 0-1.134.101-1.665.293a6.537 6.537 0 0 0-2.481-5.13.513.513 0 0 0-.638 0 6.536 6.536 0 0 0-2.481 5.119 4.905 4.905 0 0 0-4.746.83.504.504 0 0 0-.13.162.503.503 0 0 0-.102.303c0 2.722 2.222 4.937 4.952 4.937 1.031 0 2.006-.312 2.84-.898a4.9 4.9 0 0 0 2.841.898c2.731 0 4.953-2.215 4.953-4.937a.5.5 0 0 0-.103-.303"/>
        <path d="M15.399 6.856c.07 0 .123-.067.104-.135A7.98 7.98 0 0 0 7.778.851a7.98 7.98 0 0 0-7.726 5.87.108.108 0 0 0 .104.135h.84c.047 0 .088-.03.102-.074a6.963 6.963 0 0 1 6.68-4.912 6.963 6.963 0 0 1 6.68 4.912.107.107 0 0 0 .101.074h.84z"/>
    </g>
</svg>
