<?xml version="1.0" encoding="UTF-8"?>
<svg viewBox="0 0 357 80" version="1.1" xmlns="http://www.w3.org/2000/svg" xmlns:xlink="http://www.w3.org/1999/xlink">
    <!-- Generator: sketchtool 59.1 (101010) - https://sketch.com -->
    <title>F34EBC0A-A4A4-412B-8C2D-A2C51862C3A9</title>
    <desc>Created with sketchtool.</desc>
    <g id="STYLEGUIDE" stroke="none" stroke-width="1" fill="none" fill-rule="evenodd">
        <g id="MUDITA-CENTER-STYLEGUIDE" transform="translate(-80.000000, -21268.000000)" fill="#000000" fill-rule="nonzero">
            <g id="poziome_transparent" transform="translate(80.000000, 21268.000000)">
                <path d="M156.081356,33.1117204 C151.276836,33.1117204 147.150282,34.7706215 144.470056,37.7853107 L144.158192,38.1333333 L143.868927,37.7672316 C141.419209,34.7254237 137.884746,33.1117204 133.649718,33.1117204 C129.238418,33.1117204 125.387571,34.499435 122.80226,37.0124294 L122.413559,37.3920904 L122.174011,36.9084746 C120.967232,34.499435 118.386441,33.1117204 115.091525,33.1117204 C113.772652,33.1053599 112.461958,33.3192262 111.213559,33.7446328 C110.815819,33.880226 110.684746,34.0836158 110.684746,34.5627119 L110.684746,39.1638418 C110.670975,39.2696593 110.705875,39.3760194 110.779661,39.4531073 C110.976432,39.5711318 111.210723,39.6099109 111.435028,39.5615819 C112.057582,39.4603591 112.6853,39.3939658 113.315254,39.3627119 C115.412429,39.3627119 116.479096,40.3163842 116.479096,42.1920904 L116.479096,64.6870056 C116.461769,64.8487313 116.518557,65.0096115 116.633569,65.1246232 C116.748581,65.239635 116.909461,65.2964234 117.071186,65.279096 L123.123164,65.279096 C123.284889,65.2964234 123.44577,65.239635 123.560781,65.1246232 C123.675793,65.0096115 123.732582,64.8487313 123.715254,64.6870056 L123.715254,47.6519774 C123.715254,42.6169492 127.019209,39.2316384 131.936723,39.2316384 C136.578531,39.2316384 139.697175,42.8022599 139.697175,48.1129944 L139.697175,64.6870056 C139.679848,64.8487313 139.736636,65.0096115 139.851648,65.1246232 C139.96666,65.239635 140.12754,65.2964234 140.289266,65.279096 L146.341243,65.279096 C146.502969,65.2964234 146.663849,65.239635 146.778861,65.1246232 C146.893872,65.0096115 146.950661,64.8487313 146.933333,64.6870056 L146.933333,47.6519774 C146.933333,42.6169492 149.920904,39.2316384 154.363842,39.2316384 C159.439548,39.2316384 162.847458,42.8022599 162.847458,48.1129944 L162.847458,64.6870056 C162.831624,64.8491863 162.889548,65.0098917 163.00521,65.1246769 C163.120871,65.2394622 163.282012,65.2961623 163.444068,65.279096 L169.491525,65.279096 C169.653581,65.2961623 169.814722,65.2394622 169.930384,65.1246769 C170.046045,65.0098917 170.103969,64.8491863 170.088136,64.6870056 L170.088136,47.6519774 C170.092655,38.9559322 164.461017,33.1117204 156.081356,33.1117204 Z" id="Path"></path>
                <path d="M216.158192,59.4079096 C215.991861,59.3187311 215.797389,59.2976632 215.615819,59.3491525 L215.615819,59.3491525 C214.792596,59.5241473 213.953478,59.6135118 213.111864,59.6158192 C211.520904,59.6158192 210.4,58.4542373 210.4,56.7909605 L210.4,34.540113 C210.417327,34.3783874 210.360539,34.2175072 210.245527,34.1024954 C210.130515,33.9874836 209.969635,33.9306952 209.80791,33.9480226 L203.764972,33.9480226 C203.603246,33.9306952 203.442366,33.9874836 203.327354,34.1024954 C203.212342,34.2175072 203.155554,34.3783874 203.172881,34.540113 L203.172881,51.3355932 C203.172881,56.3073446 199.493785,59.7514124 194.228249,59.7514124 C189.152542,59.7514124 185.744633,56.1853107 185.744633,50.8745763 L185.744633,34.540113 C185.760466,34.3779324 185.702542,34.217227 185.586881,34.1024417 C185.471219,33.9876564 185.310078,33.9309564 185.148023,33.9480226 L179.100565,33.9480226 C178.938839,33.9306952 178.777959,33.9874836 178.662947,34.1024954 C178.547936,34.2175072 178.491147,34.3783874 178.508475,34.540113 L178.508475,51.3355932 C178.508475,60.0271186 184.135593,65.8711864 192.519774,65.8711864 C197.016949,65.8711864 200.840678,64.6282486 203.579661,62.2824859 L203.927684,61.9841808 L204.167232,62.3728814 C205.563842,64.5966102 208.415819,65.8711864 211.99096,65.8711864 C213.473983,65.8498523 214.943799,65.5888569 216.343503,65.0983051 C216.515853,65.0700604 216.66906,64.9723205 216.767314,64.82793 C216.865568,64.6835395 216.900258,64.5051526 216.863277,64.3344633 L216.334463,59.8146893 C216.338744,59.6597024 216.274206,59.510769 216.158192,59.4079096 L216.158192,59.4079096 Z" id="Path"></path>
                <path d="M260.420339,59.4079096 C260.25585,59.3180607 260.062494,59.2969378 259.882486,59.3491525 L259.882486,59.3491525 C259.057694,59.5238838 258.217105,59.6132436 257.374011,59.6158192 C255.787571,59.6158192 254.662147,58.4542373 254.662147,56.7909605 L254.662147,19.340113 C254.677757,19.1787992 254.62041,19.0189572 254.505811,18.9043583 C254.391212,18.7897595 254.23137,18.732413 254.070056,18.7480226 L247.963842,18.7480226 C247.802528,18.732413 247.642686,18.7897595 247.528087,18.9043583 C247.413488,19.0189572 247.356142,19.1787992 247.371751,19.340113 L247.371751,36.3028249 L246.748023,35.8734463 C244.116157,34.0378817 240.975727,33.0722034 237.767232,33.1118644 C227.737853,33.1118644 220.732203,39.8508475 220.732203,49.4915254 C220.732203,59.1322034 227.737853,65.8711864 237.767232,65.8711864 C241.68154,65.9735374 245.481728,64.5468455 248.361582,61.8937853 L248.750282,61.5502825 L248.976271,62.0022599 C250.169492,64.4519774 252.822599,65.8576271 256.253107,65.8576271 C257.736055,65.8355035 259.205745,65.5745305 260.60565,65.0847458 C260.777796,65.0566342 260.930704,64.9587091 261.028246,64.8141061 C261.125789,64.6695031 261.159315,64.4910486 261.120904,64.320904 L260.59661,59.8011299 C260.596923,59.6508515 260.532735,59.5076633 260.420339,59.4079096 L260.420339,59.4079096 Z M237.821469,60.0813559 C232.103955,60.0813559 227.954802,55.6293785 227.954802,49.4915254 C227.954802,43.3536723 232.103955,38.9016949 237.821469,38.9016949 C243.538983,38.9016949 247.421469,43.2587571 247.421469,49.4915254 C247.421469,55.7242938 243.489266,60.0813559 237.835028,60.0813559 L237.821469,60.0813559 Z" id="Shape"></path>
                <rect id="Rectangle" x="267.629379" y="33.9887006" width="7.23615819" height="31.2316384" rx="1.31"></rect>
                <path d="M303.276836,59.019209 C301.545063,59.4158356 299.77435,59.6174664 297.99774,59.620339 C294.381921,59.620339 291.945763,57.0847458 291.945763,53.2926554 L291.945763,39.5570621 L303.520904,39.5570621 C303.68263,39.5743895 303.84351,39.5176011 303.958522,39.4025893 C304.073533,39.2875776 304.130322,39.1266974 304.112994,38.9649718 L304.112994,34.5581921 C304.130322,34.3964665 304.073533,34.2355863 303.958522,34.1205745 C303.84351,34.0055627 303.68263,33.9487743 303.520904,33.9661017 L291.936723,33.9661017 L291.936723,24.9581921 C291.954051,24.7964665 291.897262,24.6355863 291.78225,24.5205745 C291.667239,24.4055627 291.506358,24.3487743 291.344633,24.3661017 L285.292655,24.3661017 C285.131342,24.350492 284.9715,24.4078386 284.856901,24.5224374 C284.742302,24.6370363 284.684955,24.7968783 284.700565,24.9581921 L284.700565,53.5683616 C284.700565,60.9265537 289.672316,65.8711864 297.066667,65.8711864 C299.49973,65.7979151 301.916655,65.4491743 304.271186,64.8316384 C304.439033,64.7991242 304.58658,64.7000741 304.680233,64.55704 C304.773886,64.4140059 304.805675,64.2391617 304.768362,64.0723164 L303.981921,59.4892655 C303.971178,59.3234692 303.883784,59.1721496 303.745544,59.0799896 C303.607304,58.9878295 303.434011,58.9653574 303.276836,59.019209 Z" id="Path"></path>
                <path d="M348.727684,59.4079096 C348.561353,59.3187311 348.366881,59.2976632 348.185311,59.3491525 C347.359501,59.5275952 346.517183,59.6184929 345.672316,59.620339 C344.085876,59.620339 342.960452,58.4587571 342.960452,56.7954802 L342.960452,34.540113 C342.977779,34.3783874 342.920991,34.2175072 342.805979,34.1024954 C342.690967,33.9874836 342.530087,33.9306952 342.368362,33.9480226 L336.334463,33.9480226 C336.172738,33.9306952 336.011857,33.9874836 335.896846,34.1024954 C335.781834,34.2175072 335.725045,34.3783874 335.742373,34.540113 L335.742373,36.3841808 L335.114124,35.9322034 C332.479827,34.0501052 329.311751,33.0616656 326.074576,33.1118644 C316.045198,33.1118644 309.039548,39.8508475 309.039548,49.4915254 C309.039548,59.1322034 316.045198,65.8711864 326.074576,65.8711864 C329.985685,65.95464 333.779045,64.5305116 336.668927,61.8937853 L337.057627,61.5502825 L337.283616,62.0022599 C338.476836,64.4519774 341.129944,65.8576271 344.560452,65.8576271 C346.048034,65.8377543 347.522546,65.5767383 348.926554,65.0847458 C349.098904,65.0565011 349.252111,64.9587612 349.350365,64.8143707 C349.448618,64.6699802 349.483309,64.4915933 349.446328,64.320904 L348.917514,59.7785311 C348.908651,59.6339346 348.839844,59.4995978 348.727684,59.4079096 Z M326.128814,60.0813559 C320.411299,60.0813559 316.262147,55.6293785 316.262147,49.4915254 C316.262147,43.3536723 320.411299,38.9016949 326.128814,38.9016949 C331.846328,38.9016949 335.733333,43.2587571 335.733333,49.4915254 C335.733333,55.7242938 331.79209,60.0813559 326.137853,60.0813559 L326.128814,60.0813559 Z" id="Shape"></path>
                <path d="M271.322034,18.9830483 C269.703775,18.9812223 268.243843,19.9546308 267.623295,21.4491827 C267.002746,22.9437346 267.343853,24.6649467 268.487489,25.8098761 C269.631124,26.9548054 271.35195,27.2978577 272.847202,26.6789994 C274.342455,26.0601412 275.317514,24.6013109 275.317514,22.9830483 C275.31503,20.7767055 273.528375,18.9880299 271.322034,18.9830483 Z" id="Path"></path>
                <path d="M85.4237288,51.0418079 C85.2511969,50.6940709 85.0079665,50.3861843 84.7096045,50.1378531 C77.362286,44.0750073 67.3541625,42.3553984 58.4045198,45.6180791 C58.4147948,34.5823414 53.3847508,24.146082 44.7457627,17.279096 C43.7176864,16.4572759 42.2574549,16.4572759 41.2293785,17.279096 C32.605287,24.1342458 27.5768868,34.5471275 27.5706215,45.5638418 C18.648283,42.3801405 8.70873528,44.1300367 1.41016949,50.1694915 C1.11311686,50.4190961 0.870118954,50.7266884 0.696045198,51.0734463 C0.332431206,51.5571623 0.134322254,52.1451497 0.131073446,52.7502825 C0.165924469,67.7977747 12.3649069,79.9826098 27.4124294,80.0000548 C33.0171176,80.0113017 38.4856244,78.2732614 43.0553672,75.0282486 C47.627047,78.272795 53.0968261,80.0107376 58.7028249,80.0000548 C73.7619403,79.9825606 85.9647167,67.7777621 85.9796712,52.7186441 C85.9812937,52.1141694 85.7861561,51.5255835 85.4237288,51.0418079 L85.4237288,51.0418079 Z M42.9830508,23.1864407 C49.2291797,28.989533 52.7779771,37.1306537 52.7779771,45.6564972 C52.7779771,54.1823406 49.2291797,62.3234614 42.9830508,68.1265537 C36.736922,62.3234614 33.1881246,54.1823406 33.1881246,45.6564972 C33.1881246,37.1306537 36.736922,28.989533 42.9830508,23.1864407 Z M5.8259887,53.8711864 C12.2724065,49.0411996 20.8961143,48.2728197 28.0949153,51.8870056 C29.3733036,59.2989793 32.9368758,66.1258671 38.2870056,71.4124294 C34.9911282,73.3505861 31.2359389,74.3697626 27.4124294,74.3638675 C15.916956,74.3446608 6.43811649,65.3498809 5.81694915,53.8711864 L5.8259887,53.8711864 Z M58.7073446,74.3729241 C54.8429762,74.3806061 51.0488346,73.3403022 47.7288136,71.3627119 C53.0275528,66.1037665 56.5648106,59.3308653 57.8531073,51.9774011 C65.080425,48.2451027 73.8057319,48.9755771 80.3118644,53.8576271 C79.7019644,65.3504474 70.2118099,74.3602385 58.7028249,74.3729241 L58.7073446,74.3729241 Z" id="Shape"></path>
                <path d="M84.9717514,33.6361582 C85.1566624,33.6353936 85.3307676,33.5489316 85.4431256,33.40207 C85.5554836,33.2552083 85.5933933,33.0645486 85.5457627,32.8858757 C80.2809373,13.7266211 62.86155,0.448245547 42.9920904,0.448245547 C23.1226308,0.448245547 5.70324353,13.7266211 0.438418079,32.8858757 C0.390787498,33.0645486 0.428697197,33.2552083 0.541055205,33.40207 C0.653413213,33.5489316 0.827518369,33.6353936 1.01242938,33.6361582 L5.63615819,33.6361582 C5.89348803,33.6340733 6.12000645,33.4660113 6.19661017,33.220339 C11.184036,17.084229 26.1027902,6.08026725 42.9920904,6.08026725 C59.8813906,6.08026725 74.8001447,17.084229 79.7875706,33.220339 C79.8611753,33.466188 80.0868746,33.6350037 80.3435028,33.6361582 L84.9717514,33.6361582 Z" id="Path"></path>
                <path d="M350.214689,25.360452 L350.119774,21.6 C350.111915,21.517104 350.140159,21.4348417 350.197282,21.3742569 C350.254404,21.3136722 350.334864,21.280642 350.418079,21.2836158 L352.090395,21.2429379 C353.179661,21.2158192 353.952542,21.8350282 353.979661,22.7570621 C354.013851,23.3598922 353.645315,23.9126969 353.075706,24.1129944 L353.925424,25.1977401 C354.074576,25.4011299 353.99774,25.5683616 353.749153,25.5728814 L353.175141,25.5728814 C353.027855,25.5900351 352.883255,25.5238329 352.8,25.4011299 L351.950282,24.2892655 L351.20904,24.2892655 L351.236158,25.2971751 C351.244018,25.3800711 351.215773,25.4623335 351.158651,25.5229182 C351.101528,25.5835029 351.021068,25.6165332 350.937853,25.6135593 L350.526554,25.6135593 C350.371421,25.6268741 350.233582,25.5150047 350.214689,25.360452 L350.214689,25.360452 Z M352.158192,23.439548 C352.650847,23.439548 352.935593,23.1728814 352.922034,22.7615819 C352.908475,22.3502825 352.578531,22.1559322 352.126554,22.1649718 L351.163842,22.1920904 L351.19548,23.4666667 L352.158192,23.439548 Z" id="Shape"></path>
                <path d="M355.416949,19.8870056 C353.818173,18.3509106 351.390251,18.0720264 349.484821,19.2056094 C347.579391,20.3391923 346.665924,22.6059428 347.252952,24.7439495 C347.839981,26.8819561 349.782869,28.3644428 352,28.3661017 L352.090395,28.3661017 C354.085179,28.3313028 355.862043,27.0968528 356.590694,25.2395855 C357.319344,23.3823182 356.855912,21.2689462 355.416949,19.8870056 L355.416949,19.8870056 Z M354.964972,26.2870056 C353.676428,27.6363423 351.641621,27.95062 350.006021,27.05292 C348.37042,26.1552201 347.542849,24.2699259 347.989179,22.4583396 C348.435509,20.6467534 350.044177,19.3616876 351.909605,19.3265537 L351.99548,19.3265537 C353.643703,19.3284402 355.131988,20.3130441 355.778404,21.8292192 C356.42482,23.3453942 356.104798,25.100964 354.964972,26.2915254 L354.964972,26.2870056 Z" id="Shape"></path>
            </g>
        </g>
    </g>
</svg>
