<svg xmlns="http://www.w3.org/2000/svg" width="16" height="16" viewBox="0 0 16 16">
    <path fill="#000" fill-rule="evenodd" d="M14.341-.252a.62.62 0 0 1 .278.514v11.143a.624.624 0 0 1-.008.102 2.79 2.79 0 0 1-2.772 2.993 2.783 2.783 0 0 1-2.781-2.786 2.783 2.783 0 0 1 4.325-2.317V3.664L7.438 6.273a.679.679 0 0 1-.235.067v6.922a.625.625 0 0 1-.008.099 2.79 2.79 0 0 1-2.773 2.997 2.783 2.783 0 0 1-2.78-2.787 2.783 2.783 0 0 1 4.324-2.316V3.357a.619.619 0 0 1 .384-.57l7.415-3.095a.617.617 0 0 1 .575.056zM4.423 12.024c-.853 0-1.545.693-1.545 1.547 0 .855.692 1.548 1.545 1.548s1.545-.693 1.545-1.548c0-.854-.692-1.547-1.545-1.547zm7.415-1.857c-.853 0-1.544.693-1.544 1.547 0 .855.691 1.548 1.544 1.548.854 0 1.545-.693 1.545-1.548 0-.854-.691-1.547-1.545-1.547zm1.545-8.977l-6.18 2.582v1.265l5.92-2.608a.616.616 0 0 1 .26-.066V1.19z"/>
</svg>
