<svg xmlns="http://www.w3.org/2000/svg" width="16" height="17" viewBox="0 0 16 17">
    <g fill="none" fill-rule="evenodd" stroke="#000">
        <path fill="#000" fill-rule="nonzero" stroke-width=".2" d="M12.61.882c.707 0 1.352.325 1.816.855a3.09 3.09 0 0 1 .756 2.052v9.627a3.09 3.09 0 0 1-.756 2.052c-.464.53-1.11.855-1.815.855H4.095c-.706 0-1.346-.325-1.815-.855a3.09 3.09 0 0 1-.756-2.052l-.001-2.43H.473a.472.472 0 0 1 0-.944l1.05-.001V7.17H.473a.472.472 0 1 1 0-.945h1.05V3.789c0-.798.288-1.522.757-2.052.469-.53 1.11-.855 1.815-.855h8.516zm-.088 1.003H4.184c-.454 0-.864.211-1.165.559-.301.347-.484.82-.484 1.345l-.001 2.436h.803a.472.472 0 1 1 0 .945h-.803v2.87l.803.002a.472.472 0 1 1 0 .945l-.803-.001v2.43c0 .524.184.998.485 1.345.3.348.71.559 1.165.559h8.338c.454 0 .864-.217 1.165-.559.301-.347.484-.82.484-1.345V3.79c0-.525-.183-.998-.484-1.345-.3-.342-.71-.559-1.165-.559z"/>
        <path stroke-linecap="round" stroke-linejoin="round" stroke-width="1.5" d="M6 8.403l1.88 1.83 3.135-3.34"/>
    </g>
</svg>
