<svg xmlns="http://www.w3.org/2000/svg" width="16" height="17" viewBox="0 0 16 17">
    <path fill="#000" fill-rule="evenodd" d="M8 1.638c2.338 0 3.915.87 4.789 2.426.583 1.04.795 2.2.818 3.663l.005.441c.015.506.1 1.149.245 1.893.086.443.19.912.31 1.397.093.377.192.748.291 1.105l.1.35.176.589a.668.668 0 0 1-.636.87h-3.19c-.204 1.502-1.126 2.35-2.66 2.35-1.532 0-2.468-.846-2.7-2.35H1.965a.668.668 0 0 1-.638-.864c.695-2.279 1.055-4.072 1.085-5.363l.004-.455c.022-1.482.227-2.624.807-3.655C4.089 2.495 5.66 1.638 8 1.638zm1.563 12.734H6.899c.16.72.584 1.014 1.349 1.014.764 0 1.176-.29 1.315-1.014zM8 2.974c-3.17 0-4.177 1.58-4.249 4.633l-.007.583c-.031 1.257-.328 2.869-.887 4.845h10.349l-.113-.409c-.075-.276-.15-.56-.22-.847a29.801 29.801 0 0 1-.325-1.463c-.158-.813-.252-1.526-.27-2.118l-.007-.557C12.198 4.603 11.164 2.974 8 2.974z"/>
</svg>
