<svg xmlns="http://www.w3.org/2000/svg" width="18" height="18" viewBox="0 0 18 18">
    <path fill="none" fill-rule="evenodd" stroke="#000" stroke-width="1.5" d="M3.85.976c-.842.534-2.69 1.829-2.82 2.988-.6 5.166 7.737 13.518 12.892 12.917 1.166-.13 2.454-1.98 2.984-2.825a.61.61 0 0 0-.085-.756l-2.312-2.32a.609.609 0 0 0-.865 0l-1.301 1.32a3.91 3.91 0 0 1-.346.32c-1.085.115-3.11-.532-4.656-2.084-1.545-1.552-2.19-3.578-2.08-4.666.077-.087.183-.199.328-.345l1.322-1.277a.613.613 0 0 0 0-.868L4.607 1.063A.607.607 0 0 0 3.85.976z"/>
</svg>
