<svg xmlns="http://www.w3.org/2000/svg" width="16" height="17" viewBox="0 0 16 17">
    <path fill="#000" fill-rule="evenodd" d="M12 .717c1.013 0 1.833.82 1.833 1.833v12c0 1.013-.82 1.833-1.833 1.833H4a1.833 1.833 0 0 1-1.833-1.833v-12c0-1.013.82-1.833 1.833-1.833h8zm-.124 1.104H4.152a.809.809 0 0 0-.805.813v11.708c0 .449.36.813.805.813h7.724a.809.809 0 0 0 .804-.813V2.634a.809.809 0 0 0-.804-.813zM11 8.55a.333.333 0 0 1 0 .667H5a.333.333 0 0 1 0-.667h6zm0-2a.333.333 0 0 1 0 .667H5a.333.333 0 0 1 0-.667h6zm0-2a.333.333 0 0 1 0 .667H5a.333.333 0 0 1 0-.667h6z"/>
</svg>
