<?xml version="1.0" encoding="UTF-8"?>
<svg width="29px" height="29px" viewBox="0 0 29 29" version="1.1" xmlns="http://www.w3.org/2000/svg" xmlns:xlink="http://www.w3.org/1999/xlink">
    <!-- Generator: sketchtool 62 (101010) - https://sketch.com -->
    <title>2B8BDC00-9035-4950-A833-5098EDA85E21@0,5x</title>
    <desc>Created with sketchtool.</desc>
    <defs>
        <rect id="path-1" x="0" y="0" width="36" height="36" rx="4"></rect>
    </defs>
    <g id="18.-RECOVERY-MODE" stroke="none" stroke-width="1" fill="none" fill-rule="evenodd">
        <g id="18.Recovery-Mode" transform="translate(-685.000000, -276.000000)">
            <g id="recovery-mode-component-copy" transform="translate(660.000000, 251.000000)">
                <g id="recovery-mode-component">
                    <g id="NEW-ICON-WITH-GRID/Backup/BLACK" transform="translate(16.000000, 16.000000)">
                        <g id="Group" transform="translate(6.000000, 6.000000)">
                            <mask id="mask-2" fill="white">
                                <use xlink:href="#path-1"></use>
                            </mask>
                            <g id="Rectangle"></g>
                            <g id="Path-2" mask="url(#mask-2)" fill="#000000" stroke="#000000" stroke-width="0.3">
                                <g transform="translate(4.000000, 4.000000)" id="Path">
                                    <path d="M26.2062013,17.9739614 L26.2072783,17.970946 C26.2571398,17.8324537 26.362786,17.7160383 26.504186,17.650346 C26.645909,17.584546 26.8094937,17.5762537 26.9578937,17.6277306 L26.9617706,17.6289153 C27.2648167,17.729823 27.4176321,18.039223 27.3280321,18.319223 C25.2045552,24.0345614 19.4492629,27.7099922 13.1952475,27.3264999 C6.93943366,26.9428999 1.70504904,22.5913768 0.34010827,16.6603306 C-1.02447819,10.7307922 1.80243519,4.63182141 7.28987519,1.69680757 C12.7781552,-1.23866828 19.6010013,-0.298503985 24.0323244,3.99908603 L24.7141244,4.6985368 L24.7141244,2.02048757 C24.7155244,1.72208295 24.9674167,1.46538757 25.2969552,1.46506449 C25.454509,1.46582911 25.6034475,1.52735372 25.7115706,1.63333372 C25.819586,1.73915218 25.8781706,1.8803368 25.8775244,2.02532295 L25.8557706,6.40538449 C25.854586,6.70334757 25.6035552,6.95998911 25.2744475,6.96127065 L20.684386,6.98241065 C20.3536629,6.9820768 20.1014475,6.72374449 20.1014475,6.42433834 C20.1014475,6.12473834 20.353986,5.86626603 20.6850321,5.86626603 L24.1708167,5.86626603 L23.6711244,5.32421834 C23.5140013,5.15373065 23.3533244,4.9828768 23.1800475,4.81448911 C19.112509,0.862784492 12.8523552,-0.000823815824 7.81633981,2.69073218 C2.77819212,5.38343834 0.168849501,10.9922691 1.42605058,16.4567922 C2.68290596,21.9199153 7.49817366,25.9102383 13.2317552,26.2607768 C18.9650783,26.6113153 24.2553552,23.2394691 26.2062013,17.9739614 Z"></path>
                                </g>
                            </g>
                            <path d="M24.7613676,17.9266959 C24.7337019,17.8727181 24.6954293,17.8248774 24.648841,17.7860377 C23.4891465,16.8284452 21.9090975,16.5565217 20.4960034,17.0713421 C20.4974968,15.3288397 19.7031433,13.6810531 18.3389913,12.5968915 C18.1768183,12.4677028 17.9468951,12.4677028 17.7847221,12.5968915 C16.4230159,13.6786813 15.6288953,15.3223458 15.6277099,17.061458 C14.2201161,16.5606896 12.652891,16.8370549 11.5014833,17.789079 C11.454895,17.8279187 11.4166225,17.8757593 11.3889568,17.9297371 C11.3313372,18.0059221 11.3,18.0988062 11.3,18.1943266 C11.3025144,20.5712351 13.2287523,22.497473 15.6056608,22.5 C16.4906149,22.5015158 17.3539597,22.2266702 18.0751622,21.7138222 C18.7967269,22.22559 19.6600416,22.4993628 20.5446636,22.4969461 C22.9215721,22.4944318 24.84781,20.5681938 24.8503244,18.1912853 C24.8503244,18.0957649 24.8189871,18.0028808 24.7613676,17.9266959 Z M18.0622368,13.531318 C19.0478947,14.4474874 19.607865,15.7324926 19.607865,17.0781849 C19.607865,18.4238773 19.0478947,19.7088824 18.0622368,20.6250519 C17.076162,19.7091159 16.5158954,18.4240238 16.5158954,17.0781849 C16.5158954,15.732346 17.076162,14.447254 18.0622368,13.531318 L18.0622368,13.531318 Z M12.1971711,18.3745211 C13.2148782,17.6125528 14.5759385,17.49155 15.7121048,18.0620318 C15.9140233,19.2325824 16.4771067,20.3106293 17.3224509,21.145107 C16.8021043,21.450967 16.2092413,21.6116544 15.6056608,21.6104265 C13.7906422,21.6061889 12.2947741,20.1853978 12.1971711,18.3730005 L12.1971711,18.3745211 Z M20.5446636,21.6104227 C19.9346797,21.6112664 19.3358691,21.446784 18.8119069,21.1344626 C19.6475985,20.3051135 20.2054526,19.2369557 20.4085673,18.0772381 C21.5493679,17.4890285 22.9259383,17.6041856 23.9531533,18.3737608 C23.8543855,20.1852595 22.3588481,21.6047358 20.5446636,21.6088988 L20.5446636,21.6104227 Z" id="Shape" stroke="#000000" stroke-width="0.2" fill="#000000" fill-rule="nonzero" mask="url(#mask-2)"></path>
                        </g>
                    </g>
                </g>
            </g>
        </g>
    </g>
</svg>