<svg xmlns="http://www.w3.org/2000/svg" width="14" height="14" viewBox="0 0 14 14">
    <path fill-rule="evenodd" d="M3.664 1.767C6.07.242 9.213.59 11.226 2.606c.033.032.06.069.082.107l.042-1.275c.01-.276.241-.493.517-.483.276.01.492.24.483.517l-.06 1.736c-.019.56-.423 1.032-.974 1.138l-1.723.327c-.271.052-.533-.127-.584-.398-.052-.271.126-.533.398-.584l1.325-.252c-.078-.023-.151-.065-.213-.126C8.836 1.629 6.21 1.337 4.2 2.61 2.19 3.886 1.33 6.384 2.134 8.625c.803 2.241 3.054 3.625 5.417 3.33 2.362-.294 4.204-2.188 4.433-4.558.027-.275.271-.476.546-.45.275.027.476.272.45.547-.275 2.835-2.479 5.101-5.306 5.454-2.827.352-5.52-1.304-6.482-3.985-.961-2.682.066-5.672 2.472-7.196z"/>
</svg>
