<svg xmlns="http://www.w3.org/2000/svg" width="16" height="16" viewBox="0 0 16 16">
    <g fill="none" fill-rule="evenodd" stroke="#6A6A6A">
        <path fill="#6A6A6A" fill-rule="nonzero" stroke-width=".5" d="M12.635 5.472a1.505 1.505 0 0 0-.391-1.024L9.769 1.759a1.273 1.273 0 0 0-.942-.426H4.693c-.736 0-1.333.65-1.333 1.45v10.434c0 .385.14.753.39 1.025.25.272.59.425.943.425h6.608c.737 0 1.334-.65 1.334-1.45V5.472zm-.534 7.745c0 .48-.358.87-.8.87H4.7c-.442 0-.8-.39-.8-.87V2.783c0-.48.358-.87.8-.87h4.133a.77.77 0 0 1 .565.255l2.47 2.69a.91.91 0 0 1 .234.614v7.745z"/>
        <rect width="4" height="2.667" x="6" y="9.333" rx=".5"/>
    </g>
</svg>
