<svg xmlns="http://www.w3.org/2000/svg" xmlns:xlink="http://www.w3.org/1999/xlink" width="32" height="32" viewBox="0 0 32 32">
    <defs>
        <rect id="o29k01jvoa" width="24" height="24" x="0" y="0" rx="4"/>
    </defs>
    <g fill="none" fill-rule="evenodd" transform="translate(4 4)">
        <mask id="pcbtbdgtlb" fill="#fff">
            <use xlink:href="#o29k01jvoa"/>
        </mask>
        <g mask="url(#pcbtbdgtlb)">
            <g stroke="#6A6A6A">
                <path fill="#6A6A6A" stroke-width=".7" d="M7.536 13.067c-.118 0-.214-.106-.214-.235V6.39c0-.07-.065-.082-.097-.047L5.712 7.857c-.097.094-.236.035-.236-.094v-.716c0-.176.042-.305.118-.387L7.225 4.96c.054-.059.14-.106.215-.106h.665c.118 0 .215.106.215.235v7.744c0 .13-.097.235-.215.235h-.569z" transform="translate(4.667 2.667)"/>
                <path stroke-width="1.3" d="M13.654 17.387c-.39.389-.927.63-1.52.63H2.8c-.594 0-1.131-.241-1.52-.63-.39-.39-.63-.927-.63-1.52V2.8c0-.594.24-1.131.63-1.52.389-.39.926-.63 1.52-.63h8.277l3.206 3.491v11.726c0 .593-.24 1.13-.63 1.52z" transform="translate(4.667 2.667)"/>
            </g>
        </g>
    </g>
</svg>
