<?xml version="1.0" encoding="UTF-8"?>
<svg width="17px" height="17px" viewBox="0 0 17 17" version="1.1" xmlns="http://www.w3.org/2000/svg" xmlns:xlink="http://www.w3.org/1999/xlink">
    <!-- Generator: sketchtool 59.1 (101010) - https://sketch.com -->
    <title>19CC493B-85B7-441B-BA21-B0392F5AA1F3</title>
    <desc>Created with sketchtool.</desc>
    <g id="Asset-Artboard-Page" stroke="none" stroke-width="1" fill="none" fill-rule="evenodd">
        <g id="icon/battery-icon/sim/OFF" transform="translate(0.809524, 0.000000)" stroke="#6A6A6A">
            <g id="Group" transform="translate(3.333333, 1.334884)" fill="#6A6A6A" fill-rule="nonzero" stroke-width="0.5">
                <g id="129all">
                    <path d="M9.30133822,4.14394342 C9.3022914,3.75893309 9.16160812,3.38952094 8.91066669,3.11811429 L6.43600002,0.42658241 C6.18681619,0.152970382 5.84732432,-0.000658957943 5.49333335,-2.11111763e-06 L1.36,-2.11111763e-06 C0.623620335,-2.11111763e-06 0.0266666661,0.649617179 0.0266666661,1.45096058 L0.0266666661,11.8978768 C0.0266666661,12.2826954 0.167142454,12.6517529 0.417190959,12.9238608 C0.667239464,13.1959687 1.00637802,13.3488373 1.36,13.3488373 L7.96800002,13.3488373 C8.70437969,13.3488373 9.30133822,12.6992202 9.30133822,11.8978768 L9.30133822,4.14394342 Z M8.76799995,11.8978766 C8.76799995,12.3786826 8.40982775,12.768453 7.96799996,12.768453 L1.36533335,12.768453 C0.923505549,12.768453 0.565333351,12.3786826 0.565333351,11.8978766 L0.565333351,1.45096054 C0.565333351,0.970154506 0.923505549,0.580384202 1.36533335,0.580384202 L5.49866665,0.580384202 C5.71076835,0.580587397 5.91411479,0.672441861 6.06399997,0.835753262 L8.53333329,3.52873607 C8.68340527,3.69184419 8.76781323,3.91312994 8.76799995,4.14394335 L8.76799995,11.8978766 Z" id="Shape"></path>
                </g>
            </g>
            <rect id="Rectangle" x="6" y="9.34418583" width="4" height="2.66976738" rx="0.5"></rect>
        </g>
    </g>
</svg>