<svg xmlns="http://www.w3.org/2000/svg" xmlns:xlink="http://www.w3.org/1999/xlink" width="28" height="28" viewBox="0 0 28 28">
    <defs>
        <rect id="ogleuatlza" width="21" height="21" x="0" y="0" rx="2.333"/>
    </defs>
    <g fill="none" fill-rule="evenodd" transform="translate(3.5 3.5)">
        <mask id="mh7lnka8gb" fill="#fff">
            <use xlink:href="#ogleuatlza"/>
        </mask>
        <g stroke="#6A6A6A" mask="url(#mh7lnka8gb)">
            <g transform="translate(4.083 2.333)">
                <path stroke-width=".583" d="M9.333 8.458H3.5c-.08 0-.153-.032-.206-.085-.053-.053-.086-.126-.086-.206l6.125-.292c.08 0 .154.033.207.085.052.053.085.126.085.207 0 .08-.033.153-.085.206-.053.053-.126.085-.207.085zM9.333 11.375H3.5c-.08 0-.153-.033-.206-.085-.053-.053-.086-.126-.086-.207l6.125-.291c.08 0 .154.032.207.085.052.053.085.126.085.206 0 .08-.033.154-.085.207-.053.052-.126.085-.207.085z"/>
                <rect width="12.075" height="15.575" x=".379" y=".379" stroke-width=".758" rx="1.75"/>
                <path stroke-width=".758" d="M2.917.583h7v1.75c0 .645-.523 1.167-1.167 1.167H4.083c-.644 0-1.166-.522-1.166-1.167V.583h0z"/>
            </g>
        </g>
    </g>
</svg>
