<svg xmlns="http://www.w3.org/2000/svg" xmlns:xlink="http://www.w3.org/1999/xlink" width="32" height="32" viewBox="0 0 32 32">
    <defs>
        <rect id="lcpw9cdwca" width="24" height="24" x="0" y="0" rx="4"/>
    </defs>
    <g fill="none" fill-rule="evenodd">
        <g transform="translate(4 4)">
            <mask id="f6jx8jzakb" fill="#fff">
                <use xlink:href="#lcpw9cdwca"/>
            </mask>
            <g stroke="#000" mask="url(#f6jx8jzakb)">
                <g transform="translate(4.667 2.667)">
                    <path d="M10.667 9.5H4c-.046 0-.088-.019-.118-.049-.03-.03-.049-.072-.049-.118s.019-.087.05-.118l6.784-.048c.046 0 .087.018.118.048.03.03.048.072.048.118s-.018.088-.048.118c-.03.03-.072.049-.118.049zM10.667 12.833H4c-.046 0-.088-.018-.118-.048-.03-.03-.049-.072-.049-.118s.019-.088.05-.118l6.784-.049c.046 0 .087.019.118.049.03.03.048.072.048.118s-.018.087-.048.118c-.03.03-.072.048-.118.048z"/>
                    <rect width="13.367" height="17.367" x=".65" y=".65" stroke-width="1.3" rx="3"/>
                </g>
            </g>
        </g>
        <path stroke="#000" stroke-width="1.3" d="M12 7.333h8v1.334c0 1.104-.895 2-2 2h-4c-1.105 0-2-.896-2-2V7.333h0z"/>
    </g>
</svg>
