<svg xmlns="http://www.w3.org/2000/svg" width="16" height="16" viewBox="0 0 16 16">
    <path fill="#6A6A6A" fill-rule="evenodd" d="M12.443 0c1.034 0 1.872.838 1.872 1.872v12.256c0 1.034-.838 1.872-1.872 1.872h-8.17C3.237 16 2.4 15.162 2.4 14.128V1.872C2.4.838 3.238 0 4.272 0h8.17zM5.296 1.128h-.869c-.454 0-.821.372-.821.83v11.957c0 .458.367.83.821.83h7.889c.454 0 .821-.372.821-.83V1.958c0-.458-.367-.83-.821-.83h-.897c.002.021.002.042.002.063v1.362c0 .564-.457 1.021-1.021 1.021H6.315c-.564 0-1.021-.457-1.021-1.02V1.19l.002-.063zm6.125 10.276c.188 0 .34.153.34.34 0 .189-.152.341-.34.341H5.294c-.188 0-.34-.152-.34-.34 0-.188.152-.34.34-.34h6.127zm0-2.042c.188 0 .34.152.34.34 0 .188-.152.34-.34.34H5.294c-.188 0-.34-.152-.34-.34 0-.188.152-.34.34-.34h6.127zm0-2.043c.188 0 .34.153.34.34 0 .189-.152.341-.34.341H5.294c-.188 0-.34-.152-.34-.34 0-.188.152-.34.34-.34h6.127zm-.687-6.191H5.98c-.004.021-.006.042-.006.063v1.362c0 .188.153.34.34.34H10.4c.188 0 .34-.152.34-.34V1.191l-.006-.063z"/>
</svg>
