<svg viewBox="0 0 14 14" version="1.1" xmlns="http://www.w3.org/2000/svg" xmlns:xlink="http://www.w3.org/1999/xlink">
    <!-- Generator: sketchtool 59.1 (101010) - https://sketch.com -->
    <title>C557DCC6-4078-4428-89CE-0257558C00BE</title>
    <desc>Created with sketchtool.</desc>
    <g id="STYLEGUIDE" stroke="none" stroke-width="1" fill="none" fill-rule="evenodd">
        <g id="PURE-DESKTOP-APP-STYLEGUIDE" transform="translate(-980.000000, -3147.000000)" fill="#FFFFFF" fill-rule="nonzero">
            <g id="Group-24" transform="translate(976.000000, 3102.000000)">
                <g id="BUTTON-ICON/PLUS-BUTTON-ICON/UPLOAD" transform="translate(4.000000, 45.000000)">
                    <g id="noun_Upload_1788517" transform="translate(0.000000, 0.583333)">
                        <path d="M12.8785687,8.43068158 C12.8785687,9.08610016 12.8785687,9.74151875 12.8785687,10.3969373 C12.8785687,10.5358116 12.8802566,10.6729922 12.8633778,10.8118664 C12.8701293,10.7661395 12.875193,10.7221062 12.8819445,10.6763794 C12.860002,10.8271087 12.8194927,10.9744509 12.7604167,11.1150187 C12.7772956,11.0743726 12.7941744,11.0337265 12.8110533,10.9930803 C12.7688562,11.0896149 12.7199075,11.1810686 12.6625194,11.2674416 C12.6456405,11.2928454 12.6287616,11.3165557 12.6118828,11.3402659 C12.5612462,11.4113966 12.6912134,11.245425 12.6372011,11.3080877 C12.6017555,11.3504274 12.564622,11.3910735 12.5258006,11.4317196 C12.4886671,11.4689786 12.4498457,11.5028503 12.4110244,11.5367221 C12.3300058,11.6078528 12.5072339,11.467285 12.4346548,11.5197862 C12.4144001,11.5350285 12.3924576,11.5502708 12.3705151,11.5638195 C12.2810572,11.6247887 12.1865356,11.6755963 12.0869503,11.717936 C12.1274596,11.7010002 12.1679688,11.6840643 12.2084781,11.6671284 C12.0683835,11.726404 11.9215375,11.7670501 11.7713156,11.7890667 C11.8168886,11.7822924 11.8607736,11.7772116 11.9063465,11.7704373 C11.7595004,11.7890667 11.6126544,11.7856796 11.4641204,11.7856796 C11.2413195,11.7856796 11.0168307,11.7856796 10.7940298,11.7856796 C10.0311054,11.7856796 9.26818099,11.7856796 8.5052566,11.7856796 C7.57354363,11.7856796 6.64183067,11.7856796 5.7101177,11.7856796 C4.9134356,11.7856796 4.11675349,11.7856796 3.32007139,11.7856796 C2.95548806,11.7856796 2.59090472,11.7873731 2.22632138,11.7856796 C2.14699075,11.7856796 2.06597223,11.7805988 1.9866416,11.7704373 C2.03221452,11.7772116 2.07609955,11.7822924 2.12167246,11.7890667 C1.97145063,11.7670501 1.82460456,11.726404 1.68451004,11.6671284 C1.7250193,11.6840643 1.76552856,11.7010002 1.80603782,11.717936 C1.70982833,11.6755963 1.61868249,11.6264823 1.53260032,11.5689003 C1.50728203,11.5519644 1.48365163,11.5350285 1.46002123,11.5180926 C1.38913002,11.467285 1.55454283,11.5976913 1.49209106,11.5434965 C1.44989391,11.5079311 1.40938465,11.4706722 1.36887539,11.4317196 C1.3317419,11.3944607 1.29798419,11.3555082 1.26422647,11.3165557 C1.19333527,11.2352634 1.33342979,11.4130902 1.28110533,11.3402659 C1.26591436,11.3199428 1.25072339,11.2979262 1.2372203,11.2759095 C1.17645641,11.1861494 1.12581984,11.0913084 1.08362269,10.9913867 C1.10050155,11.0320329 1.11738041,11.072679 1.13425926,11.1133251 C1.07518326,10.9727573 1.034674,10.8254151 1.01273149,10.6746858 C1.01948303,10.7204127 1.02454669,10.7644459 1.03129823,10.8101728 C0.994164743,10.5273436 1.01610726,10.2292721 1.01610726,9.94474932 C1.01610726,9.53659459 1.01610726,9.12674628 1.01610726,8.71859155 C1.01610726,8.62205703 1.01610726,8.52552251 1.01610726,8.42898799 C1.01610726,8.16309466 0.783179016,7.90905645 0.509741515,7.92091157 C0.234616128,7.93276668 0.0033644269,8.14446519 0.0033644269,8.42898799 C0.0033644269,9.03529252 0.0033644269,9.64159705 0.0033644269,10.2495952 C0.0033644269,10.5900064 2.49905244e-11,10.9304176 0.109712578,11.2572801 C0.330825619,11.919473 0.823688276,12.4156943 1.46677277,12.6663454 C1.86342594,12.8204619 2.28708527,12.8001388 2.70399307,12.8001388 C3.25593173,12.8001388 3.80955828,12.8001388 4.36149694,12.8001388 C5.12442132,12.8001388 5.88734571,12.8001388 6.6502701,12.8001388 C7.43682488,12.8001388 8.22169179,12.8001388 9.00824657,12.8001388 C9.63107644,12.8001388 10.2522184,12.8001388 10.8750483,12.8001388 C11.1400464,12.8001388 11.4050444,12.8018324 11.6700425,12.8001388 C12.2743056,12.7967516 12.8735051,12.5461006 13.2870371,12.1006869 C13.6786266,11.6772899 13.8896123,11.1268738 13.8913002,10.5493603 C13.8913002,9.90579679 13.8913002,9.26223332 13.8913002,8.61866986 C13.8913002,8.5560071 13.8913002,8.49165075 13.8913002,8.42898799 C13.8913002,8.16309466 13.658372,7.90905645 13.3849345,7.92091157 C13.1098091,7.93615386 12.8785687,8.14615878 12.8785687,8.43068158 L12.8785687,8.43068158 Z" id="Path"></path>
                        <g id="Group" transform="translate(3.544560, 0.000000)">
                            <path d="M3.9091434,8.85915924 C3.9091434,8.58141079 3.9091434,8.30535593 3.9091434,8.02760749 C3.9091434,7.36541455 3.9091434,6.70322161 3.9091434,6.03933509 C3.9091434,5.23488075 3.9091434,4.43212 3.9091434,3.62766566 C3.9091434,2.93498814 3.9091434,2.24231062 3.9091434,1.54963309 C3.9091434,1.21260906 3.91589494,0.875585036 3.9091434,0.538561009 C3.9091434,0.533480245 3.9091434,0.52839948 3.9091434,0.523318716 C3.9091434,0.257425388 3.67621516,0.00338717618 3.40277766,0.0152422927 C3.12765228,0.0270974093 2.89641192,0.238795919 2.89641192,0.523318716 C2.89641192,0.801067161 2.89641192,1.07712202 2.89641192,1.35487046 C2.89641192,2.0170634 2.89641192,2.67925634 2.89641192,3.34314287 C2.89641192,4.1475972 2.89641192,4.95035795 2.89641192,5.75481229 C2.89641192,6.44748981 2.89641192,7.14016734 2.89641192,7.83284486 C2.89641192,8.16986889 2.88966038,8.50689292 2.89641192,8.84391694 C2.89641192,8.84899771 2.89641192,8.85407847 2.89641192,8.85915924 C2.89641192,9.12505256 3.12934016,9.37909078 3.40277766,9.36723566 C3.67621516,9.35538054 3.9091434,9.14368203 3.9091434,8.85915924 L3.9091434,8.85915924 Z" id="Path"></path>
                            <path d="M3.044946,0.884053005 C3.37070796,1.21091552 3.69478203,1.53608444 4.02054399,1.86294695 C4.53872493,2.3828785 5.05690587,2.90281006 5.5767747,3.42443521 C5.69661459,3.54467996 5.81476659,3.66323113 5.93460648,3.78347589 C6.12196181,3.97146417 6.46629051,3.98501288 6.65027006,3.78347589 C6.8359375,3.58024531 6.85112847,3.26523792 6.65027006,3.06539452 C6.3245081,2.73853201 6.00043403,2.41336309 5.67467207,2.08650058 C5.15649113,1.56656902 4.63831019,1.04663747 4.11844136,0.525012321 C3.99860147,0.404767564 3.88044947,0.286216394 3.76060957,0.165971637 C3.57325425,-0.022016646 3.22892555,-0.0355653511 3.044946,0.165971637 C2.85927856,0.367508625 2.84408759,0.682516018 3.044946,0.884053005 L3.044946,0.884053005 Z" id="Path"></path>
                            <path d="M3.0449459,0.165971631 C2.71918395,0.492834129 2.39510988,0.818003038 2.06934793,1.14486554 C1.55116701,1.66479707 1.03298608,2.18472861 0.513117269,2.70635374 C0.393277381,2.82659849 0.275125378,2.94514965 0.15528549,3.06539441 C-0.0320698289,3.25338268 -0.0455729149,3.59887465 0.15528549,3.78347575 C0.35783178,3.96977044 0.67177853,3.98501273 0.870949049,3.78347575 C1.196711,3.45661325 1.52078506,3.13144434 1.84654701,2.80458184 C2.36472794,2.28465031 2.88290887,1.76471877 3.40277768,1.24309364 C3.52261757,1.12284889 3.64076957,1.00429773 3.76060946,0.884052973 C3.94796478,0.696064697 3.96146786,0.350572731 3.76060946,0.165971631 C3.55806317,-0.0203230565 3.24411642,-0.0355653491 3.0449459,0.165971631 L3.0449459,0.165971631 Z" id="Path"></path>
                        </g>
                    </g>
                </g>
            </g>
        </g>
    </g>
</svg>
