<svg viewBox="0 0 14 14" xmlns="http://www.w3.org/2000/svg"><g fill="#000" fill-rule="nonzero"><path d="M12.879 9.014v1.966c0 .14.001.276-.016.415l.019-.135c-.022.15-.063.298-.122.438l.051-.122a1.786 1.786 0 01-.148.275l-.051.073c-.05.07.08-.095.025-.033a2.536 2.536 0 01-.111.124c-.037.037-.076.071-.115.105-.081.071.096-.07.024-.017a1.641 1.641 0 01-.348.198l.121-.05c-.14.059-.286.1-.437.121l.135-.018c-.146.018-.293.015-.442.015H3.32c-.365 0-.73.002-1.094 0-.079 0-.16-.005-.24-.015l.136.018a1.786 1.786 0 01-.437-.122l.121.051a1.777 1.777 0 01-.273-.149l-.073-.05c-.07-.051.095.079.032.025a2.533 2.533 0 01-.123-.112c-.037-.037-.071-.076-.105-.115-.07-.081.07.096.017.024a1.65 1.65 0 01-.197-.349l.05.122c-.059-.14-.1-.288-.121-.439l.018.136c-.037-.283-.015-.581-.015-.866V9.302v-.29c0-.266-.233-.52-.506-.508a.515.515 0 00-.507.508v1.82c0 .341-.003.682.107 1.009a2.275 2.275 0 001.357 1.409c.396.154.82.133 1.237.133h8.171c.265 0 .53.002.795 0a2.24 2.24 0 001.617-.699c.392-.423.603-.974.604-1.551V9.202v-.19c0-.266-.233-.52-.506-.508-.275.015-.506.225-.506.51z"/><path d="M7.454 9.442v-.831-1.988V4.21 2.133c0-.337.006-.674 0-1.011v-.015c0-.266-.233-.52-.507-.508a.515.515 0 00-.506.508V8.416c0 .337-.007.674 0 1.011v.015c0 .266.233.52.506.509a.517.517 0 00.507-.509z"/><path d="M6.59 1.467l.975.98 1.556 1.56.358.36c.188.188.532.201.716 0a.517.517 0 000-.718l-.976-.98-1.556-1.56-.358-.36c-.187-.188-.532-.201-.715 0a.517.517 0 000 .718z"/><path d="M6.59.75l-.976.978L4.058 3.29l-.358.359c-.188.188-.201.533 0 .718a.513.513 0 00.716 0l.975-.98a129590076.55 129590076.55 0 001.914-1.92c.188-.188.201-.533 0-.718a.513.513 0 00-.715 0z"/></g></svg>
