<svg xmlns="http://www.w3.org/2000/svg" xmlns:xlink="http://www.w3.org/1999/xlink" width="32" height="32" viewBox="0 0 32 32">
    <defs>
        <rect id="ouigywanxa" width="24" height="24" x="0" y="0" rx="4"/>
    </defs>
    <g fill="none" fill-rule="evenodd" transform="translate(4 4)">
        <mask id="580i3rjw1b" fill="#fff">
            <use xlink:href="#ouigywanxa"/>
        </mask>
        <g mask="url(#580i3rjw1b)">
            <g>
                <path fill="#000" stroke="#6A6A6A" stroke-width=".1" d="M15.297 9.529c.313-.014.579.291.579.611h0v2.551c-.002.695-.243 1.357-.69 1.866-.473.536-1.158.838-1.849.842-.303.002-.606 0-.908 0h0H3.09c-.476 0-.96.024-1.414-.161-.735-.302-1.298-.899-1.55-1.695C0 13.149.003 12.74.003 12.33v-2.19c0-.342.264-.597.579-.611.312-.014.578.291.578.611h0v1.824c0 .342-.025.7.018 1.04l-.007-.081-.015-.08.011.08.01.082-.006-.08.018.097c.013.059.028.118.046.176l.035.1.019.043c.018.039.038.077.058.114l.066.11c.015.026.033.053.05.077l-.016-.023.055.065h0l.061.068c.047.047.093.092.141.135l-.017-.016.021.016h0l.043.03c.098.07.202.129.312.18L2 14.065l-.075-.03h0l.139.062-.061-.031.085.033c.055.02.11.036.167.05l.099.019.053.006h0l.137.004c.417.002.834 0 1.25 0h9.477c.112 0 .224-.003.336-.018l-.075.006.091-.018c.056-.013.112-.03.167-.049l.093-.037.043-.02c.036-.019.072-.04.108-.061l.104-.07c.025-.016.05-.034.073-.053l-.03.022-.02.021c-.018.02.121-.097.05-.043l-.027.02c.044-.04.089-.08.131-.126.045-.048.087-.097.128-.148l-.016.017.016-.022h0l.028-.044c.066-.104.122-.214.17-.33l-.028.06.03-.085c.019-.058.034-.117.047-.176l.017-.1-.006.08.01-.079.011-.081-.014.079.006-.083c.003-.055.004-.11.004-.166v-2.532c0-.342.265-.595.58-.613zM7.94.019c.149-.007.287.058.391.164L8.349.2l.409.432 1.778 1.878 1.115 1.178c.23.24.212.62 0 .864-.21.242-.604.226-.818 0l-.409-.432L8.646 2.24l-.128-.135v8.552c0 .342-.266.597-.578.61-.313.015-.579-.29-.579-.61h0v-.019c-.008-.405 0-.81 0-1.216h0l.001-7.317-1.2 1.268-1.116 1.178c-.227.242-.586.224-.818 0-.23-.223-.214-.638 0-.864l.41-.432 1.778-1.879L7.53.2h0l.068-.065c.071-.056.155-.09.243-.104.032-.007.065-.011.098-.013z" transform="translate(4 4)"/>
            </g>
        </g>
    </g>
</svg>
