<svg xmlns="http://www.w3.org/2000/svg" width="16" height="17" viewBox="0 0 16 17">
    <path fill="#000" fill-rule="evenodd" d="M3.468 7.515v1.333c-.035 1.531.823 2.96 2.243 3.735a4.835 4.835 0 0 0 4.596 0c1.42-.775 2.278-2.204 2.243-3.735V7.515h1.4v1.331c-.004 2.801-2.254 5.159-5.242 5.492v1.117H10.8v1.303H5.226v-1.303h2.082v-1.117c-2.986-.334-5.235-2.69-5.24-5.49V7.515h1.4zM6.243 1.44a3.708 3.708 0 0 1 3.532 0c1.09.597 1.747 1.697 1.717 2.874v4.17c-.007 1.79-1.569 3.238-3.492 3.236-1.916-.008-3.467-1.452-3.474-3.236v-4.17c-.03-1.177.627-2.277 1.717-2.874zm2.809 1.194a2.219 2.219 0 0 0-2.084 0c-.645.346-1.042.987-1.042 1.68l.002 4.17c-.024.707.368 1.37 1.022 1.73.655.36 1.467.36 2.122 0 .654-.36 1.046-1.023 1.022-1.73v-4.17c0-.693-.397-1.334-1.042-1.68z"/>
</svg>
