<svg width="32" height="32" viewBox="0 0 32 32" fill="none" xmlns="http://www.w3.org/2000/svg">
<path d="M6 13.0876L7.1025 13.0876L8.6775 15.1876L15.2663 15.1876L12.5625 6.00009L14.085 6.00009L19.4925 15.1876L25.6875 15.1876C26.055 15.1876 26.3656 15.3145 26.6194 15.5682C26.8731 15.822 27 16.1326 27 16.5001C27 16.8676 26.8731 17.1782 26.6194 17.432C26.3656 17.6857 26.055 17.8126 25.6875 17.8126L19.4925 17.8126L14.085 27.0001L12.5625 27.0001L15.2663 17.8126L8.6775 17.8126L7.1025 19.9126L6 19.9126L6.97125 16.5001L6 13.0876Z" fill="black"/>
</svg>
