<svg width="48" height="48" viewBox="0 0 48 48" fill="none" xmlns="http://www.w3.org/2000/svg">
    <circle cx="24" cy="24" r="23.5" stroke="black" fill="transparent"/>
    <path d="M17.9356 20.5946C17.3467 20.299 17.3843 19.7979 17.9356 19.5152L22.6468 17.125V19.2196H26.8944C28.2236 19.2196 29.4984 19.7612 30.4383 20.7251C31.3782 21.6891 31.9062 22.9965 31.9062 24.3598C31.9062 25.723 31.3782 27.0304 30.4383 27.9944C29.4984 28.9583 28.2236 29.4999 26.8944 29.4999H16.8706C16.7692 29.5016 16.6684 29.4826 16.5743 29.444C16.4801 29.4053 16.3943 29.3479 16.322 29.2749C16.2497 29.2019 16.1923 29.1149 16.1531 29.019C16.1139 28.923 16.0937 28.8201 16.0938 28.716C16.0938 28.5047 16.1756 28.3021 16.3213 28.1527C16.467 28.0032 16.6646 27.9193 16.8706 27.9193H26.8944C27.8149 27.9193 28.6976 27.5443 29.3485 26.8767C29.9994 26.2092 30.3651 25.3038 30.3651 24.3598C30.3651 23.4157 29.9994 22.5103 29.3485 21.8428C28.6976 21.1752 27.8149 20.8002 26.8944 20.8002H22.6468V22.882L17.9356 20.5946Z" fill="black"/>
</svg>
