<svg width="48" height="48" viewBox="0 0 48 48" fill="none" xmlns="http://www.w3.org/2000/svg">
    <path d="M36 21C36 20.4477 36.4477 20 37 20C37.5523 20 38 20.4477 38 21V27C38 27.5523 37.5523 28 37 28C36.4477 28 36 27.5523 36 27V21Z" fill="black"/>
    <path fill-rule="evenodd" clip-rule="evenodd" d="M3 17C3 14.2386 5.23858 12 8 12H30C32.7614 12 35 14.2386 35 17V31C35 33.7614 32.7614 36 30 36H8C5.23858 36 3 33.7614 3 31V17ZM8 14C6.34315 14 5 15.3431 5 17V31C5 32.6569 6.34315 34 8 34H30C31.6569 34 33 32.6569 33 31V17C33 15.3431 31.6569 14 30 14H8Z" fill="black"/>
    <path d="M7 18C7 16.8954 7.89543 16 9 16H10C10.5523 16 11 16.4477 11 17V31C11 31.5523 10.5523 32 10 32H9C7.89543 32 7 31.1046 7 30V18Z" fill="black"/>
    <path d="M40.0231 24.778L44.1729 18.1251C44.2344 18.05 44.3266 18 44.4496 18C44.4803 18 44.511 18 44.5418 18C44.6955 18.05 44.7877 18.1501 44.757 18.2751L43.7425 23.2524L47.6772 23.3024C47.8002 23.3024 47.8924 23.3524 47.9539 23.4274C48.0154 23.5025 48.0154 23.6025 47.9539 23.6775L43.3429 29.8803C43.2507 29.9804 43.097 30.0304 42.9741 29.9804C42.8204 29.9304 42.7589 29.8053 42.7896 29.6802L44.0807 25.1282L40.2997 25.1282C40.2075 25.1282 40.0845 25.0782 40.0231 25.0031C39.9923 24.9531 39.9923 24.8531 40.0231 24.778Z" fill="black"/>
</svg>
