<svg width="48" height="48" viewBox="0 0 48 48" fill="none" xmlns="http://www.w3.org/2000/svg">
<path fill-rule="evenodd" clip-rule="evenodd" d="M8 24C8 15.156 15.1573 8 24 8C32.8441 8 40 15.1572 40 24C40 32.8441 32.8429 40 24 40C15.156 40 8 32.8428 8 24ZM13.6291 34.3708C19.3616 40.1033 28.6393 40.1025 34.371 34.3708C40.0895 28.6524 40.0895 19.3476 34.371 13.629C28.6385 7.89651 19.3607 7.89738 13.6291 13.629C7.91055 19.3476 7.91055 28.6524 13.6291 34.3708Z" fill="black"/>
<path d="M21.4296 30.0743C21.4957 30.1477 21.5823 30.1846 21.669 30.1846C21.7557 30.1846 21.8424 30.1477 21.9084 30.0743L31.5948 18.3642C31.7272 18.217 31.7272 17.979 31.5948 17.8318C31.4624 17.6846 31.2484 17.6846 31.116 17.8318L21.669 29.2758L16.8843 23.9563C16.7519 23.8091 16.5379 23.8091 16.4055 23.9563C16.2731 24.1035 16.2731 24.3414 16.4055 24.4886L21.4296 30.0743Z" fill="black" stroke="black"/>
</svg>
