<svg width="16" height="14" viewBox="0 0 16 14" fill="none" xmlns="http://www.w3.org/2000/svg">
    <path fill-rule="evenodd" clip-rule="evenodd" d="M0.965955 0.400337C1.24283 0.139987 1.69175 0.139987 1.96862 0.400337L7.98464 6.05719L14.0007 0.400337C14.2775 0.139987 14.7265 0.139987 15.0033 0.400337C15.2802 0.660686 15.2802 1.0828 15.0033 1.34315L8.98731 7L15.0033 12.6569C15.2802 12.9172 15.2802 13.3393 15.0033 13.5997C14.7265 13.86 14.2775 13.86 14.0007 13.5997L7.98464 7.94281L1.96862 13.5997C1.69175 13.86 1.24283 13.86 0.965955 13.5997C0.689075 13.3393 0.689075 12.9172 0.965955 12.6569L6.98197 7L0.965955 1.34315C0.689075 1.0828 0.689075 0.660686 0.965955 0.400337Z" fill="black"/>
</svg>
