<svg width="24" height="20" viewBox="0 0 24 20" fill="none" xmlns="http://www.w3.org/2000/svg">
<path fill-rule="evenodd" clip-rule="evenodd" d="M10 2.00008C6.68629 2.00008 4 4.68637 4 8.00008C4 8.21121 4.01088 8.41957 4.03207 8.62468L4.0768 9.05772L3.69829 9.27281C2.28453 10.0762 1.33333 11.5941 1.33333 13.3334C1.33333 15.9107 3.42267 18.0001 6 18.0001H16.6667C19.9804 18.0001 22.6667 15.3138 22.6667 12.0001C22.6667 8.68637 19.9804 6.00008 16.6667 6.00008C16.5011 6.00008 16.3372 6.00677 16.1753 6.01988L15.6993 6.05841L15.5096 5.62009C14.5877 3.48907 12.467 2.00008 10 2.00008ZM2.66667 8.00008C2.66667 3.94999 5.94991 0.666748 10 0.666748C12.8513 0.666748 15.3211 2.29387 16.5341 4.66792C16.5782 4.66714 16.6224 4.66675 16.6667 4.66675C20.7168 4.66675 24 7.94999 24 12.0001C24 16.0502 20.7168 19.3334 16.6667 19.3334H6C2.68629 19.3334 0 16.6471 0 13.3334C0 11.249 1.06322 9.41355 2.67436 8.33875C2.66925 8.22646 2.66667 8.11355 2.66667 8.00008Z" fill="black"/>
</svg>
