<svg width="15" height="28" viewBox="0 0 15 28" fill="none" xmlns="http://www.w3.org/2000/svg">
    <rect width="15" height="28" fill="transparent"/>
    <g transform="translate(0, 4)">
        <path fill-rule="evenodd" clip-rule="evenodd" d="M2.59903 1.33333C1.90492 1.33333 1.33333 1.90188 1.33333 2.61423V16.0524C1.33333 16.7648 1.90492 17.3333 2.59903 17.3333H12.0676C12.7617 17.3333 13.3333 16.7648 13.3333 16.0524V2.61423C13.3333 1.90188 12.7617 1.33333 12.0676 1.33333H2.59903ZM0 2.61423C0 1.17537 1.15871 0 2.59903 0H12.0676C13.508 0 14.6667 1.17537 14.6667 2.61423V16.0524C14.6667 17.4913 13.508 18.6667 12.0676 18.6667H2.59903C1.15871 18.6667 0 17.4913 0 16.0524V2.61423Z" fill="black"/>
        <path d="M4 13.3333C4.55228 13.3333 5 12.8856 5 12.3333C5 11.781 4.55228 11.3333 4 11.3333C3.44772 11.3333 3 11.781 3 12.3333C3 12.8856 3.44772 13.3333 4 13.3333Z" fill="black"/>
        <path d="M7.33333 13.3333C7.88562 13.3333 8.33333 12.8856 8.33333 12.3333C8.33333 11.781 7.88562 11.3333 7.33333 11.3333C6.78105 11.3333 6.33333 11.781 6.33333 12.3333C6.33333 12.8856 6.78105 13.3333 7.33333 13.3333Z" fill="black"/>
        <path d="M11.6667 12.3333C11.6667 12.8856 11.219 13.3333 10.6667 13.3333C10.1144 13.3333 9.66667 12.8856 9.66667 12.3333C9.66667 11.781 10.1144 11.3333 10.6667 11.3333C11.219 11.3333 11.6667 11.781 11.6667 12.3333Z" fill="black"/>
    </g>
</svg>
