<svg width="26" height="26" viewBox="0 0 26 26" fill="none" xmlns="http://www.w3.org/2000/svg">
<path fill-rule="evenodd" clip-rule="evenodd" d="M25 16C25.5523 16 26 16.4477 26 17V23C26 24.6568 24.6569 26 23 26H3C1.34315 26 0 24.6568 0 23V17.5C0 16.9477 0.447715 16.5 1 16.5C1.55228 16.5 2 16.9477 2 17.5V23C2 23.5523 2.44772 24 3 24H23C23.5523 24 24 23.5523 24 23V17C24 16.4477 24.4477 16 25 16Z" fill="black"/>
<path fill-rule="evenodd" clip-rule="evenodd" d="M13.2867 -4.57764e-05C12.6731 -4.58292e-05 12.1756 0.482109 12.1756 1.07688L12.1756 13.3804L7.88422 9.53416C7.44347 9.12032 6.74004 9.13115 6.31307 9.55833C5.88609 9.98552 5.89726 10.6673 6.33801 11.0811L12.5136 16.6965C12.7254 16.8953 13.0099 17.0044 13.3047 16.9998C13.5994 16.9952 13.8802 16.8773 14.0852 16.6719L19.6873 11.0566C20.1141 10.6292 20.1025 9.94738 19.6616 9.53377C19.2206 9.12016 18.5172 9.13133 18.0904 9.55874L14.3978 13.2616L14.3979 1.07688C14.3979 0.48211 13.9004 -4.57235e-05 13.2867 -4.57764e-05Z" fill="black"/>
</svg>
