<svg width="32" height="32" viewBox="0 0 32 32" fill="none" xmlns="http://www.w3.org/2000/svg">
    <path
        d="M15.9998 12.2671C18.0826 12.2671 21.3332 12.2671 21.3332 12.2671L15.9998 19.7338L10.6665 12.2671C10.6665 12.2671 13.917 12.2671 15.9998 12.2671Z"
        fill="black"/>
    <path fill-rule="evenodd" clip-rule="evenodd"
          d="M10.1924 12.5564C10.2838 12.3787 10.4669 12.2671 10.6666 12.2671L21.333 12.2671C21.5327 12.2671 21.7161 12.3787 21.8075 12.5564C21.8989 12.734 21.8834 12.9478 21.7673 13.1104L16.434 20.5771C16.3338 20.7172 16.1722 20.8004 16 20.8004C15.8277 20.8004 15.6661 20.7172 15.566 20.5771L10.2326 13.1104C10.1165 12.9478 10.101 12.734 10.1924 12.5564ZM20.2969 13.3338L11.703 13.3338L16 19.3495L20.2969 13.3338Z"
          fill="black"/>
</svg>
