<svg width="24" height="24" viewBox="0 0 24 24" fill="none" xmlns="http://www.w3.org/2000/svg">
    <path fill-rule="evenodd" clip-rule="evenodd" d="M19.0048 3.11406C19.2088 3.24128 19.3321 3.45668 19.3333 3.68799V16.1348C19.3333 16.1725 19.3301 16.2095 19.324 16.2456C19.3302 16.3227 19.3333 16.4012 19.3333 16.4805C19.3293 18.1975 17.8606 19.5884 16.0476 19.5922C14.233 19.5922 12.7619 18.1991 12.7619 16.4805C12.7619 14.762 14.233 13.3688 16.0476 13.3688C16.7232 13.3688 17.3511 13.5619 17.8733 13.893L17.8726 7.48775L10.8489 10.4023C10.7619 10.443 10.6678 10.4683 10.5713 10.4772L10.5714 18.2092C10.5714 18.2465 10.5683 18.283 10.5623 18.3186C10.5683 18.3962 10.5714 18.4752 10.5714 18.555C10.5674 20.2719 9.0987 21.6629 7.28571 21.6667C5.47106 21.6667 4 20.2735 4 18.555C4 16.8364 5.47106 15.4433 7.28571 15.4433C7.9613 15.4433 8.58926 15.6364 9.11142 15.9675L9.11111 7.14543C9.11258 6.86628 9.29115 6.61534 9.56381 6.50926L18.3257 3.05183C18.549 2.965 18.8032 2.98829 19.0048 3.11406ZM7.28571 16.8263C6.27758 16.8263 5.46032 17.6002 5.46032 18.555C5.46032 19.5097 6.27758 20.2837 7.28571 20.2837C8.29385 20.2837 9.11111 19.5097 9.11111 18.555C9.11111 17.6002 8.29385 16.8263 7.28571 16.8263ZM16.0476 14.7518C15.0395 14.7518 14.2222 15.5258 14.2222 16.4805C14.2222 17.4353 15.0395 18.2092 16.0476 18.2092C17.0558 18.2092 17.873 17.4353 17.873 16.4805C17.873 15.5258 17.0558 14.7518 16.0476 14.7518ZM17.873 4.72523L10.5714 7.60873L10.5711 9.02216L17.5663 6.1082C17.6634 6.06209 17.7682 6.03791 17.873 6.03511L17.873 4.72523Z" fill="black"/>
</svg>
