<svg width="48" height="48" viewBox="0 0 48 48" fill="none" xmlns="http://www.w3.org/2000/svg">
<mask id="mask0" mask-type="alpha" maskUnits="userSpaceOnUse" x="5" y="5" width="38" height="38">
<path d="M38 6H10C7.79086 6 6 7.79086 6 10V38C6 40.2091 7.79086 42 10 42H38C40.2091 42 42 40.2091 42 38V10C42 7.79086 40.2091 6 38 6Z" fill="white" stroke="black" stroke-width="2"/>
</mask>
<g mask="url(#mask0)">
<path fill-rule="evenodd" clip-rule="evenodd" d="M27.1009 11.317C26.8205 11.0171 26.3852 10.9191 26.0033 11.0698C25.6214 11.2206 25.3704 11.5894 25.3704 12V17.3149C23.375 17.3798 21.4504 17.8493 19.6798 18.6562C15.4247 20.5951 12.0587 24.4823 10.7361 29.3859C9.92324 32.3986 9.9877 34.8431 10.0114 35.7416C10.0143 35.8514 10.0166 35.9382 10.0166 36C10.0166 36.4555 10.3245 36.8535 10.7654 36.9679C11.2063 37.0824 11.6689 36.8843 11.8904 36.4863C14.9023 31.0738 18.52 29.0416 21.3026 28.313C22.7103 27.9445 23.9339 27.9021 24.799 27.9504C25.0128 27.9624 25.2042 27.9798 25.3704 27.9991V34.7368C25.3704 35.1474 25.6214 35.5163 26.0033 35.667C26.3852 35.8178 26.8205 35.7197 27.1009 35.4198L37.7305 24.0514C38.0899 23.667 38.0899 23.0698 37.7305 22.6855L27.1009 11.317ZM26.3704 27.1579L26.6308 26.1924C27.0672 26.3101 27.3704 26.7059 27.3704 27.1579V32.2032L35.631 23.3684L27.3704 14.5337V18.3158C27.3704 18.5874 27.2599 18.8473 27.0644 19.0358C26.8688 19.2243 26.605 19.3251 26.3336 19.3151C26.2757 19.313 26.2165 19.3119 26.1473 19.3106L26.1431 19.3105C24.8494 19.2806 23.5787 19.45 22.3625 19.7959C18.8125 20.8058 15.7277 23.3205 13.8966 26.779C13.3818 27.7511 12.9662 28.7979 12.6671 29.9067C12.4223 30.814 12.2654 31.66 12.1657 32.4186C14.9912 28.7511 18.1301 27.0763 20.796 26.3782C22.4415 25.9474 23.8785 25.8959 24.9106 25.9535C25.4271 25.9824 25.8442 26.0387 26.1382 26.0893C26.2852 26.1147 26.4017 26.1387 26.4847 26.1572C26.5263 26.1664 26.5594 26.1743 26.5839 26.1804L26.614 26.188L26.6241 26.1906L26.6279 26.1916L26.6295 26.192C26.6295 26.192 26.6308 26.1924 26.3704 27.1579Z" fill="black"/>
</g>
</svg>
