<svg width="48" height="48" viewBox="0 0 48 48" fill="none" xmlns="http://www.w3.org/2000/svg">
<rect x="0.5" y="0.5" width="47" height="47" rx="23.5" fill="white"/>
<rect x="0.5" y="0.5" width="47" height="47" rx="23.5" stroke="#3B3F42"/>
<path d="M33.6455 19.3221L30.1078 20.7875C29.6971 20.9576 29.501 21.4257 29.6697 21.833C29.8385 22.2403 30.3081 22.4326 30.7188 22.2625L34.2565 20.7972C34.6671 20.6271 34.8632 20.159 34.6945 19.7517C34.5258 19.3443 34.0561 19.152 33.6455 19.3221Z" fill="black"/>
<path d="M17.539 25.9912L14.0013 27.4566C13.5907 27.6266 13.3946 28.0947 13.5633 28.502C13.732 28.9094 14.2017 29.1017 14.6123 28.9316L18.15 27.4662C18.5607 27.2961 18.7568 26.8281 18.588 26.4207C18.4193 26.0134 17.9497 25.8211 17.539 25.9912Z" fill="black"/>
<path d="M14.6211 19.3262C14.2105 19.1561 13.7408 19.3484 13.5721 19.7558C13.4034 20.1631 13.5995 20.6312 14.0101 20.8013L17.5478 22.2666C17.9585 22.4367 18.4281 22.2444 18.5968 21.8371C18.7656 21.4298 18.5694 20.9617 18.1588 20.7916L14.6211 19.3262Z" fill="black"/>
<path d="M30.71 26.0072C30.2993 25.8372 29.8297 26.0295 29.661 26.4368C29.4922 26.8441 29.6884 27.3122 30.099 27.4823L33.6367 28.9477C34.0473 29.1177 34.517 28.9254 34.6857 28.5181C34.8544 28.1108 34.6583 27.6427 34.2477 27.4726L30.71 26.0072Z" fill="black"/>
<path d="M27.4546 14.0032L25.9893 17.5409C25.8192 17.9515 26.0115 18.4212 26.4188 18.5899C26.8261 18.7586 27.2942 18.5625 27.4643 18.1519L28.9297 14.6142C29.0998 14.2035 28.9074 13.7339 28.5001 13.5652C28.0928 13.3965 27.6247 13.5926 27.4546 14.0032Z" fill="black"/>
<path d="M20.7736 30.0919L19.3082 33.6297C19.1381 34.0403 19.3304 34.5099 19.7378 34.6787C20.1451 34.8474 20.6132 34.6513 20.7833 34.2406L22.2486 30.7029C22.4187 30.2923 22.2264 29.8226 21.8191 29.6539C21.4118 29.4852 20.9437 29.6813 20.7736 30.0919Z" fill="black"/>
<path d="M28.207 22.451C28.541 23.2548 28.6292 24.1395 28.4603 24.9934C28.2915 25.8472 27.8732 26.6318 27.2584 27.2479C26.6436 27.8641 25.8599 28.284 25.0064 28.4547C24.153 28.6253 23.268 28.5391 22.4636 28.2067C21.6591 27.8744 20.9713 27.311 20.4871 26.5878C20.0029 25.8645 19.744 25.0139 19.7433 24.1435C19.7426 23.2731 20 22.422 20.4829 21.698C20.9659 20.9739 21.6528 20.4093 22.4567 20.0756C23.5346 19.6319 24.7443 19.6327 25.8216 20.0777C26.8989 20.5228 27.7565 21.376 28.207 22.451ZM23.0149 21.5554C22.5118 21.7778 22.0858 22.1438 21.7901 22.6076C21.4944 23.0713 21.3424 23.6121 21.3531 24.162C21.3637 24.7118 21.5366 25.2463 21.8501 25.6982C22.1635 26.1502 22.6034 26.4994 23.1147 26.7021C23.626 26.9048 24.1857 26.952 24.7237 26.8376C25.2616 26.7232 25.7538 26.4524 26.1384 26.0593C26.5229 25.6661 26.7828 25.1681 26.8852 24.6277C26.9877 24.0874 26.9282 23.5288 26.7142 23.0222C26.5716 22.6798 26.3618 22.3694 26.0972 22.1094C25.8327 21.8495 25.5188 21.6451 25.174 21.5084C24.8292 21.3717 24.4605 21.3054 24.0897 21.3135C23.7188 21.3215 23.3534 21.4038 23.0149 21.5554Z" fill="black"/>
<path d="M20.7892 14.0013C20.6192 13.5907 20.1511 13.3946 19.7437 13.5633C19.3364 13.732 19.1441 14.2017 19.3142 14.6123L20.7796 18.15C20.9497 18.5606 21.4177 18.7567 21.8251 18.588C22.2324 18.4193 22.4247 17.9497 22.2546 17.539L20.7892 14.0013Z" fill="black"/>
<path d="M27.4583 30.1078C27.2882 29.6971 26.8201 29.501 26.4128 29.6697C26.0055 29.8384 25.8132 30.3081 25.9833 30.7187L27.4486 34.2564C27.6187 34.6671 28.0868 34.8632 28.4941 34.6945C28.9015 34.5258 29.0938 34.0561 28.9237 33.6455L27.4583 30.1078Z" fill="black"/>
</svg>
