<svg width="48" height="48" viewBox="0 0 48 48" fill="none" xmlns="http://www.w3.org/2000/svg">
<mask id="mask0" mask-type="alpha" maskUnits="userSpaceOnUse" x="5" y="5" width="38" height="38">
<path d="M38 6H10C7.79086 6 6 7.79086 6 10V38C6 40.2091 7.79086 42 10 42H38C40.2091 42 42 40.2091 42 38V10C42 7.79086 40.2091 6 38 6Z" fill="white" stroke="black" stroke-width="2"/>
</mask>
<g mask="url(#mask0)">
<path fill-rule="evenodd" clip-rule="evenodd" d="M24.2867 10C23.6731 10 23.1756 10.4822 23.1756 11.0769L23.1756 34.3804L15.8842 27.5342C15.4435 27.1204 14.74 27.1312 14.3131 27.5584C13.8861 27.9856 13.8973 28.6673 14.338 29.0812L23.5136 37.6966C23.7254 37.8954 24.0099 38.0045 24.3047 37.9999C24.5994 37.9953 24.8802 37.8773 25.0852 37.672L33.6873 29.0566C34.1141 28.6292 34.1025 27.9474 33.6616 27.5338C33.2206 27.1202 32.5172 27.1314 32.0904 27.5588L25.3978 34.2617L25.3979 11.0769C25.3979 10.4822 24.9004 10 24.2867 10Z" fill="black"/>
</g>
</svg>
