<svg width="48" height="48" viewBox="0 0 48 48" fill="none" xmlns="http://www.w3.org/2000/svg">
<mask id="mask0" mask-type="alpha" maskUnits="userSpaceOnUse" x="6" y="6" width="36" height="36">
<path d="M38 6H10C7.79086 6 6 7.79086 6 10V38C6 40.2091 7.79086 42 10 42H38C40.2091 42 42 40.2091 42 38V10C42 7.79086 40.2091 6 38 6Z" fill="white"/>
</mask>
<g mask="url(#mask0)">
<path d="M32.2578 10C33.5595 10 34.7498 10.5891 35.6052 11.5504C36.47 12.5116 37 13.8243 37 15.2713V32.7287C37 34.1757 36.47 35.4884 35.6052 36.4496C34.7498 37.4109 33.5595 38 32.2578 38H16.5525C15.2507 38 14.0698 37.4109 13.2051 36.4496C12.3403 35.4884 11.8103 34.1757 11.8103 32.7287L11.81 30H10C9.44772 30 9 29.5523 9 29C9 28.4477 9.44772 28 10 28H11.81V20H10C9.44772 20 9 19.5523 9 19C9 18.4477 9.44772 18 10 18H11.81L11.8103 15.2713C11.8103 13.8243 12.3403 12.5116 13.2051 11.5504C14.0698 10.5891 15.2507 10 16.5525 10H32.2578ZM32.0942 11.8191H16.7161C15.8784 11.8191 15.1227 12.2016 14.5673 12.832C14.0119 13.4625 13.6751 14.3204 13.6751 15.2713L13.675 18H15.0257C15.578 18 16.0257 18.4477 16.0257 19C16.0257 19.5523 15.578 20 15.0257 20H13.675V28H15.0257C15.578 28 16.0257 28.4477 16.0257 29C16.0257 29.5523 15.578 30 15.0257 30H13.675L13.6751 32.7287C13.6751 33.6796 14.0119 34.5375 14.5673 35.168C15.1227 35.7985 15.8784 36.1809 16.7161 36.1809H32.0942C32.9319 36.1809 33.6876 35.7881 34.243 35.168C34.7984 34.5375 35.1352 33.6796 35.1352 32.7287V15.2713C35.1352 14.3204 34.7984 13.4625 34.243 12.832C33.6876 12.2119 32.9319 11.8191 32.0942 11.8191Z" fill="black"/>
<path fill-rule="evenodd" clip-rule="evenodd" d="M22.0027 17.0318C22.0012 17.0353 22 17.0396 22 17.0465V20.9535C22 20.9604 22.0012 20.9647 22.0027 20.9682C22.0045 20.9724 22.0078 20.9777 22.0132 20.9831C22.0237 20.9935 22.0374 21 22.0563 21H29.9437C29.9626 21 29.9763 20.9935 29.9868 20.9831C29.9922 20.9777 29.9955 20.9724 29.9973 20.9682C29.9988 20.9647 30 20.9604 30 20.9535V17.0465C30 17.0396 29.9988 17.0353 29.9973 17.0318C29.9955 17.0276 29.9922 17.0223 29.9868 17.0169C29.9763 17.0065 29.9626 17 29.9437 17H22.0563C22.0374 17 22.0237 17.0065 22.0132 17.0169C22.0078 17.0223 22.0045 17.0276 22.0027 17.0318ZM20 17.0465C20 15.9075 20.9295 15 22.0563 15H29.9437C31.0705 15 32 15.9075 32 17.0465V20.9535C32 22.0925 31.0705 23 29.9437 23H22.0563C20.9295 23 20 22.0925 20 20.9535V17.0465Z" fill="black"/>
</g>
</svg>
