<svg width="48" height="48" viewBox="0 0 48 48" fill="none" xmlns="http://www.w3.org/2000/svg">
<mask id="mask0" mask-type="alpha" maskUnits="userSpaceOnUse" x="5" y="5" width="38" height="38">
<path d="M38 6H10C7.79086 6 6 7.79086 6 10V38C6 40.2091 7.79086 42 10 42H38C40.2091 42 42 40.2091 42 38V10C42 7.79086 40.2091 6 38 6Z" fill="white" stroke="black" stroke-width="2"/>
</mask>
<g mask="url(#mask0)">
<path fill-rule="evenodd" clip-rule="evenodd" d="M32.4781 15.1907C30.9217 12.5026 28.1097 11 23.9439 11C19.7763 11 16.9736 12.48 15.4302 15.141C14.3972 16.9219 14.0315 18.8951 13.9921 21.4567L13.9848 22.2428C13.9313 24.4734 13.2901 27.5712 12.0526 31.5088C11.8195 32.2504 12.3906 32.9997 13.1889 32.9997L14.5689 32.9998C16.1173 32.9998 17.6189 32.9999 19.1 32.9999C19.5632 35.2822 21.581 37 24 37C26.419 37 28.4367 35.2822 28.9 33C30.7945 32.9999 32.7478 32.9999 34.8111 32.9997C35.6143 32.9997 36.1861 32.2416 35.9438 31.4977L35.6305 30.4817L35.4528 29.8749C35.2756 29.259 35.1006 28.6177 34.9346 27.9662C34.7214 27.129 34.5345 26.3187 34.3812 25.5527C34.1241 24.267 33.9722 23.1558 33.9443 22.2822L33.9359 21.5197C33.8951 18.9919 33.5181 16.9868 32.4781 15.1907ZM26.8293 33C24.9194 33 23.0517 33 21.1707 33C21.5825 34.1652 22.6938 35 24 35C25.3062 35 26.4175 34.1652 26.8293 33ZM16.372 21.3118C16.4995 16.0381 18.2962 13.308 23.9439 13.308C29.5823 13.308 31.4249 16.1228 31.5559 21.3712L31.5687 22.3333C31.5995 23.3569 31.7677 24.5879 32.0487 25.9928C32.2101 26.7999 32.4057 27.6476 32.628 28.5205C32.7545 29.0169 32.8858 29.5069 33.0193 29.9848L33.2209 30.6918H14.7776C15.7747 27.2763 16.3039 24.4921 16.3596 22.3208L16.372 21.3118Z" fill="black"/>
</g>
</svg>
