<svg width="48" height="48" viewBox="0 0 48 48" fill="none" xmlns="http://www.w3.org/2000/svg">
<mask id="mask0" mask-type="alpha" maskUnits="userSpaceOnUse" x="5" y="5" width="38" height="38">
<path d="M38 6H10C7.79086 6 6 7.79086 6 10V38C6 40.2091 7.79086 42 10 42H38C40.2091 42 42 40.2091 42 38V10C42 7.79086 40.2091 6 38 6Z" fill="black" stroke="black" stroke-width="2"/>
</mask>
<g mask="url(#mask0)">
<path d="M22.8786 13.0401C27.5564 12.3244 32.2432 11.6501 36.93 10.9998C36.9329 15.1075 36.93 19.2121 36.9329 23.3196C32.2492 23.3376 27.5654 23.4088 22.8786 23.4237C22.8755 19.9605 22.8755 16.5003 22.8786 13.0401Z" fill="#FFF"/>
<path d="M11 14.6974C14.5224 14.154 18.0598 13.6848 21.5972 13.242C21.6003 16.6487 21.6003 20.0526 21.6031 23.4592C18.0688 23.4564 14.5343 23.5096 11 23.5009V14.6974Z" fill="#FFF"/>
<path d="M11 24.5732C14.5314 24.5611 18.0629 24.6177 21.5943 24.6118C21.5943 28.0272 21.6031 31.4429 21.5972 34.8586C18.0688 34.3358 14.5343 33.8784 11 33.4001V24.5732Z" fill="#FFF"/>
<path d="M22.8592 24.7087C27.5519 24.7087 32.2415 24.7087 36.9314 24.7087C36.9374 28.8046 36.9314 32.9002 36.9314 36.9992C32.2536 36.2981 27.5668 35.6478 22.88 35.0121C22.8741 31.5786 22.8651 28.1452 22.8592 24.7087Z" fill="#FFF"/>
</g>
</svg>
