<svg width="48" height="48" viewBox="0 0 48 48" fill="none" xmlns="http://www.w3.org/2000/svg">
    <path fill-rule="evenodd" clip-rule="evenodd"
          d="M8 21.5C8 17.3635 11.363 14 15.4989 14C19.6248 14 22.9817 17.3479 22.9977 21.4704C23.0104 21.8468 23.0382 24.2196 21.8913 26.8632C20.7038 29.6003 18.2663 32.5935 13.4007 33.9452C13.2659 33.9828 13.1307 34 12.9995 34C12.4767 34 11.9791 33.7256 11.7052 33.2575C11.3608 32.6692 11.4571 31.9245 11.9353 31.4425L11.9389 31.4389C11.9365 31.4412 11.937 31.4407 11.9402 31.4373C11.9765 31.3987 12.359 30.9919 12.7254 30.369C13.0167 29.8737 13.2665 29.2951 13.3595 28.689C10.227 27.7635 8 24.8737 8 21.5ZM15.4989 16.0002C12.4675 16.0002 9.9999 18.4682 9.9999 21.5C9.9999 24.1969 11.9367 26.4679 14.5566 26.9174L15.3272 27.0496L15.3848 27.8295C15.4904 29.261 14.9535 30.5256 14.4492 31.3831C14.4247 31.4248 14.4001 31.4657 14.3755 31.5059C17.5676 30.2083 19.2008 28.0398 20.0567 26.067C21.0567 23.762 21.0049 21.6893 20.9986 21.5287L20.9979 21.51L20.9979 21.4913C20.9931 18.4639 18.5271 16.0002 15.4989 16.0002ZM13.358 32.8482C13.357 32.8492 13.356 32.8503 13.3549 32.8513C13.3559 32.8504 13.3569 32.8493 13.358 32.8482ZM12.862 32.019C12.8631 32.0186 12.8643 32.0183 12.8655 32.018L12.862 32.019Z"
          fill="black"/>
    <path fill-rule="evenodd" clip-rule="evenodd"
          d="M24.9991 21.5C24.9991 17.3635 28.3621 14 32.498 14C36.6239 14 39.9808 17.3479 39.9969 21.4704C40.0095 21.8468 40.0374 24.2196 38.8904 26.8632C37.7029 29.6003 35.2655 32.5935 30.3998 33.9452C30.265 33.9828 30.1299 34 29.9987 34C29.4758 34 28.9783 33.7256 28.7044 33.2575C28.3599 32.6692 28.4562 31.9245 28.9344 31.4425L28.9381 31.4389C28.9357 31.4412 28.9362 31.4407 28.9394 31.4373C28.9757 31.3987 29.3582 30.9919 29.7245 30.369C30.0158 29.8737 30.2657 29.2951 30.3586 28.689C27.2261 27.7635 24.9991 24.8737 24.9991 21.5ZM32.498 16.0002C29.4666 16.0002 26.999 18.4682 26.999 21.5C26.999 24.1969 28.9359 26.4679 31.5557 26.9174L32.3264 27.0496L32.3839 27.8295C32.4895 29.261 31.9527 30.5256 31.4483 31.3831C31.4238 31.4248 31.3992 31.4657 31.3746 31.5059C34.5668 30.2084 36.1999 28.0398 37.0558 26.067C38.0558 23.762 38.004 21.6893 37.9978 21.5287L37.9971 21.51L37.997 21.4913C37.9923 18.4639 35.5263 16.0002 32.498 16.0002ZM30.3572 32.8482C30.3561 32.8492 30.3551 32.8503 30.3541 32.8513C30.355 32.8504 30.356 32.8493 30.3572 32.8482ZM29.8611 32.019C29.8623 32.0186 29.8634 32.0183 29.8646 32.018L29.8611 32.019Z"
          fill="black"/>
</svg>
