<svg width="48" height="48" viewBox="0 0 48 48" fill="none" xmlns="http://www.w3.org/2000/svg">
<mask id="mask0" mask-type="alpha" maskUnits="userSpaceOnUse" x="5" y="5" width="38" height="38">
<path d="M38 6H10C7.79086 6 6 7.79086 6 10V38C6 40.2091 7.79086 42 10 42H38C40.2091 42 42 40.2091 42 38V10C42 7.79086 40.2091 6 38 6Z" fill="white" stroke="black" stroke-width="2"/>
</mask>
<g mask="url(#mask0)">
<path fill-rule="evenodd" clip-rule="evenodd" d="M29.5815 9.74972C26.3926 8.69636 22.9435 8.75447 19.7915 9.91464C16.6395 11.0748 13.9687 13.2693 12.2106 16.1435C10.4525 19.0178 9.7098 22.4039 10.1025 25.7548C10.4952 29.1057 12.0003 32.2256 14.3747 34.6106C16.7491 36.9955 19.8541 38.5061 23.188 38.8983C26.522 39.2905 29.8901 38.5414 32.7482 36.7721C35.6063 35.0027 37.7875 32.3165 38.9393 29.1473C39.1279 28.6285 38.8623 28.0544 38.3463 27.8648C37.8302 27.6753 37.259 27.9422 37.0704 28.461C36.0722 31.2076 34.1818 33.5357 31.7048 35.0691C29.2278 36.6026 26.3087 37.2518 23.4193 36.9119C20.5299 36.5719 17.8389 35.2628 15.7811 33.1958C13.7233 31.1289 12.4188 28.4249 12.0785 25.5208C11.7382 22.6167 12.3819 19.6821 13.9056 17.1911C15.4292 14.7001 17.7439 12.7982 20.4757 11.7927C23.2074 10.7872 26.1966 10.7368 28.9603 11.6498C31.1009 12.3568 33.0094 13.6098 34.5073 15.2718H32.0284C31.479 15.2718 31.0336 15.7195 31.0336 16.2718C31.0336 16.8241 31.479 17.2718 32.0284 17.2718H36.5362C37.0857 17.2718 37.5311 16.8241 37.5311 16.2718V11.5C37.5311 10.9477 37.0857 10.5 36.5362 10.5C35.9868 10.5 35.5414 10.9477 35.5414 11.5V13.4609C33.8857 11.7754 31.8462 10.4978 29.5815 9.74972Z" fill="black"/>
</g>
</svg>
