<svg xmlns="http://www.w3.org/2000/svg" xmlns:xlink="http://www.w3.org/1999/xlink" width="80" height="80" viewBox="0 0 80 80">
    <defs>
        <rect id="z15q0lv6ca" width="60" height="60" x="0" y="0" rx="8"/>
    </defs>
    <g fill="none" fill-rule="evenodd" transform="translate(10 10)">
        <mask id="8kf9oyzthb" fill="#fff">
            <use xlink:href="#z15q0lv6ca"/>
        </mask>
        <g mask="url(#8kf9oyzthb)">
            <g>
                <path fill="#000" fill-rule="nonzero" d="M13.583.799c5.447 0 9.863 4.443 9.863 9.924s-4.416 9.925-9.863 9.925c-5.447 0-9.862-4.444-9.862-9.925C3.72 5.243 8.136.8 13.583.8zm0 1.736c-4.494 0-8.137 3.666-8.137 8.188 0 4.523 3.643 8.189 8.137 8.189 4.495 0 8.138-3.666 8.138-8.189 0-4.522-3.643-8.188-8.138-8.188z" transform="translate(14.167 8.333)"/>
                <path fill="#000" fill-rule="nonzero" d="M2.245 37.015c1.333-11.038 5.127-16.367 11.338-16.367 6.207 0 9.935 5.322 11.143 16.357.052.477.478.82.952.768.473-.053.815-.481.763-.958l-.089-.762-.097-.745C24.771 24.49 20.56 18.912 13.583 18.912c-7.288 0-11.625 6.091-13.05 17.893-.058.476.278.909.751.967.473.058.903-.281.96-.757z" transform="translate(14.167 8.333)"/>
                <g transform="translate(14.167 8.333) translate(17.333 22.044)">
                    <ellipse cx="9.75" cy="9.811" fill="#F3F8FC" rx="9.75" ry="9.811"/>
                    <g stroke="#A8B8C0" stroke-width="1.8">
                        <path d="M5.618 5.357L2.81 8.401.002 5.357M17.976 7.82L15.168 4.776 12.36 7.82" transform="translate(.75 3.774)"/>
                        <path d="M14.96 4.971c.135.553.208 1.136.208 1.735 0 3.7-2.765 6.698-6.179 6.698-.554 0-1.09-.08-1.6-.227-1.034-.299-1.964-.885-2.71-1.671M2.973 8.232c-.107-.49-.163-1-.163-1.526 0-3.7 2.766-6.699 6.18-6.699.484 0 .956.06 1.408.176 1.057.266 2.007.828 2.779 1.597" transform="translate(.75 3.774)"/>
                    </g>
                </g>
            </g>
        </g>
    </g>
</svg>
