<svg width="16" height="16" viewBox="0 0 16 16" fill="none" xmlns="http://www.w3.org/2000/svg">
<mask id="mask0_2513_69820" style="mask-type:alpha" maskUnits="userSpaceOnUse" x="0" y="0" width="16" height="16">
<path d="M12.9779 1.6001H3.02232C2.23685 1.6001 1.6001 2.23685 1.6001 3.02232V12.9779C1.6001 13.7633 2.23685 14.4001 3.02232 14.4001H12.9779C13.7633 14.4001 14.4001 13.7633 14.4001 12.9779V3.02232C14.4001 2.23685 13.7633 1.6001 12.9779 1.6001Z" fill="white" stroke="black" stroke-width="2"/>
</mask>
<g mask="url(#mask0_2513_69820)">
<path fill-rule="evenodd" clip-rule="evenodd" d="M1.125 7.875C1.125 4.07804 4.20304 1 8 1C11.797 1 14.875 4.07804 14.875 7.875C14.875 11.672 11.797 14.75 8 14.75C4.20304 14.75 1.125 11.672 1.125 7.875Z" fill="#FD9900"/>
<path fill-rule="evenodd" clip-rule="evenodd" d="M7.92367 9.60321C8.36664 9.60321 8.72575 9.9347 8.72575 10.3436C8.72575 10.7525 8.36664 11.084 7.92367 11.084C7.48069 11.084 7.12158 10.7525 7.12158 10.3436C7.12158 9.9347 7.48069 9.60321 7.92367 9.60321ZM7.92367 4.20898C8.34449 4.20898 8.68963 4.53534 8.72309 4.95044L8.72575 5.01668L8.59207 7.97821C8.59207 8.34994 8.29281 8.65129 7.92367 8.65129C7.57623 8.65129 7.29071 8.38435 7.25832 8.04304L7.25526 7.97821L7.12158 5.01668C7.12158 4.5706 7.48069 4.20898 7.92367 4.20898Z" fill="white"/>
</g>
</svg>
