<svg width="14" height="10" viewBox="0 0 14 10" fill="none" xmlns="http://www.w3.org/2000/svg">
    <path fill-rule="evenodd" clip-rule="evenodd" d="M14 5.14337C14 4.83654 13.7589 4.58781 13.4615 4.58781L1.80979 4.58781L5.2329 0.942108C5.43982 0.721734 5.4344 0.37002 5.22081 0.156534C5.00722 -0.0569534 4.66633 -0.0513712 4.45941 0.169003L0.151716 4.75682C0.0523167 4.86268 -0.00223637 5.00496 6.86646e-05 5.15233C0.00237274 5.2997 0.0613451 5.44009 0.164002 5.54259L4.47169 9.84367C4.6854 10.057 5.02629 10.0513 5.23309 9.83079C5.4399 9.6103 5.43431 9.25859 5.22061 9.04522L1.86917 5.69892L13.4615 5.69892C13.7589 5.69892 14 5.45019 14 5.14337Z" fill="currentColor"/>
</svg>
