<svg width="32" height="32" viewBox="0 0 32 32" fill="none" xmlns="http://www.w3.org/2000/svg">
    <path fill-rule="evenodd" clip-rule="evenodd"
          d="M25.3334 15.8089C25.3334 16.218 25.0119 16.5496 24.6154 16.5496L9.07976 16.5496L13.6439 21.4105C13.9198 21.7044 13.9126 22.1733 13.6278 22.458C13.343 22.7426 12.8885 22.7352 12.6126 22.4414L6.86899 16.3243C6.73646 16.1831 6.66373 15.9934 6.6668 15.7969C6.66987 15.6004 6.7485 15.4132 6.88538 15.2766L12.629 9.5418C12.9139 9.2573 13.3684 9.26499 13.6442 9.55897C13.9199 9.85295 13.9125 10.3219 13.6275 10.6064L9.15893 15.0681L24.6154 15.0681C25.0119 15.0681 25.3334 15.3998 25.3334 15.8089Z"
          fill="currentColor"/>
</svg>
