<svg fill="none" height="48" viewBox="0 0 48 48" width="48" xmlns="http://www.w3.org/2000/svg">
    <path clip-rule="evenodd"
          d="M13 13C13 12.4477 13.4478 12 14 12H21.7424C22.0903 12 22.4131 12.1808 22.5949 12.4774L23.5283 14H32.6463C34.3031 14 35.6463 15.3431 35.6463 17V17.131C36.9848 17.5409 37.9107 18.8597 37.7472 20.3313L36.1916 34.3313C36.0228 35.8506 34.7386 37 33.21 37H14.7901C13.2615 37 11.9773 35.8506 11.8085 34.3313L10.1295 19.2209C9.9979 18.0361 10.9253 17 12.1173 17H13V13ZM15 17H33.6463C33.6463 16.4477 33.1986 16 32.6463 16H22.9684C22.6205 16 22.2976 15.8192 22.1158 15.5226L21.1824 14H15V17ZM12.1173 19L13.7962 34.1104C13.8525 34.6169 14.2806 35 14.7901 35H33.21C33.7195 35 34.1476 34.6169 34.2038 34.1104L35.7594 20.1104C35.8252 19.5181 35.3615 19 34.7655 19H12.1173Z"
          fill="currentColor"
          fill-rule="evenodd" />
</svg>
