<svg width="51" height="48" viewBox="0 0 51 48" fill="none" xmlns="http://www.w3.org/2000/svg">
<path d="M33 21C33 20.4477 33.4477 20 34 20C34.5523 20 35 20.4477 35 21V27C35 27.5523 34.5523 28 34 28C33.4477 28 33 27.5523 33 27V21Z" fill="black"/>
<path fill-rule="evenodd" clip-rule="evenodd" d="M0 17C0 14.2386 2.23858 12 5 12H27C29.7614 12 32 14.2386 32 17V31C32 33.7614 29.7614 36 27 36H5C2.23858 36 0 33.7614 0 31V17ZM5 14C3.34315 14 2 15.3431 2 17V31C2 32.6569 3.34315 34 5 34H27C28.6569 34 30 32.6569 30 31V17C30 15.3431 28.6569 14 27 14H5Z" fill="black"/>
<path d="M39.0346 25.2967L45.2594 14.2084C45.3516 14.0834 45.4899 14 45.6744 14C45.7205 14 45.7666 14 45.8127 14C46.0432 14.0834 46.1816 14.2501 46.1354 14.4585L44.6138 22.7539L50.5158 22.8373C50.7003 22.8373 50.8386 22.9207 50.9308 23.0457C51.0231 23.1708 51.0231 23.3375 50.9308 23.4626L44.0144 33.8006C43.8761 33.9673 43.6455 34.0507 43.4611 33.9673C43.2306 33.8839 43.1383 33.6755 43.1844 33.4671L45.121 25.8803L39.4495 25.8803C39.3112 25.8803 39.1268 25.797 39.0346 25.6719C38.9885 25.5885 38.9885 25.4218 39.0346 25.2967Z" fill="black"/>
</svg>
