<svg width="24" height="24" viewBox="0 0 24 24" fill="none" xmlns="http://www.w3.org/2000/svg">
    <path d="M11.958 3C15.0822 3.0001 17.1911 4.09819 18.3584 6.0625C19.1383 7.37501 19.4206 8.84028 19.4512 10.6875L19.458 11.2451C19.4789 11.8835 19.5923 12.6954 19.7852 13.6348C19.9001 14.1945 20.0403 14.7867 20.2002 15.3984C20.3246 15.8744 20.456 16.343 20.5889 16.793L20.7227 17.2363L20.958 17.9795C21.1392 18.5228 20.7104 19.0769 20.1084 19.0771C18.561 19.0772 17.0957 19.0771 15.6748 19.0771C15.3273 20.7447 13.814 21.9999 12 22C10.1858 22 8.67172 20.7449 8.32422 19.0771H3.8916C3.29295 19.0771 2.86435 18.5292 3.03906 17.9873C3.96718 15.1098 4.44821 12.8459 4.48828 11.2158L4.49414 10.6416C4.52373 8.76975 4.79764 7.32775 5.57227 6.02637C6.72984 4.08178 8.83237 3 11.958 3ZM9.87793 19.0771C10.1869 19.9285 11.0204 20.5381 12 20.5381C12.9795 20.538 13.8132 19.9285 14.1221 19.0771C12.6897 19.0772 11.2886 19.0772 9.87793 19.0771ZM11.958 4.68652C7.72238 4.68652 6.37406 6.68152 6.27832 10.5352L6.26953 11.2725C6.22774 12.8591 5.83079 14.894 5.08301 17.3896H18.915L18.7646 16.873C18.6645 16.524 18.5655 16.1662 18.4707 15.8037C18.3039 15.1658 18.1572 14.5458 18.0361 13.9561C17.8254 12.9295 17.6989 12.0301 17.6758 11.2822L17.667 10.5791C17.5687 6.74387 16.1865 4.68666 11.958 4.68652Z" fill="black"/>
</svg>
