<svg width="48" height="48" viewBox="0 0 48 48" fill="none" xmlns="http://www.w3.org/2000/svg">
    <path d="M23.875 35.4997C21.199 32.7085 17.5699 30.9007 13.626 30.394C13.1771 30.3469 12.7625 30.1439 12.4622 29.8244C12.1619 29.5047 11.9973 29.091 12 28.6632V14.7306C12 14.4806 12.0572 14.2335 12.1675 14.0065C12.2779 13.7794 12.4389 13.5777 12.6395 13.4152C12.8365 13.2556 13.067 13.1376 13.3159 13.069C13.5647 13.0004 13.8261 12.9827 14.0827 13.0171C17.854 13.6101 21.304 15.3906 23.875 18.0709V35.4997Z" stroke="currentColor" stroke-width="2" stroke-linecap="round" stroke-linejoin="round"/>
    <path d="M23.8751 35.4997C26.5511 32.7085 30.1802 30.9007 34.1241 30.394C34.573 30.3469 34.9877 30.1439 35.2879 29.8244C35.5882 29.5047 35.7528 29.091 35.7501 28.6632V14.7306C35.7501 14.4806 35.6929 14.2335 35.5825 14.0065C35.4722 13.7794 35.3112 13.5777 35.1106 13.4152C34.9137 13.2556 34.6831 13.1376 34.4343 13.069C34.1853 13.0004 33.9241 12.9827 33.6674 13.0171C29.8961 13.6101 26.4461 15.3906 23.8751 18.0709V35.4997Z" stroke="currentColor" stroke-width="2" stroke-linecap="round" stroke-linejoin="round"/>
</svg>
