<svg fill="none" height="24" viewBox="0 0 24 24" width="24" xmlns="http://www.w3.org/2000/svg">
    <path
        d="M11.4993 20.2497C9.53691 18.2028 6.8756 16.8771 3.9834 16.5055C3.6542 16.471 3.35017 16.3221 3.12997 16.0878C2.90978 15.8534 2.78903 15.55 2.79104 15.2363V5.01907C2.79103 4.83574 2.83294 4.65458 2.91388 4.48806C2.99483 4.32155 3.11289 4.17362 3.25995 4.05446C3.40441 3.93746 3.5735 3.85093 3.75598 3.8006C3.93846 3.75027 4.13016 3.73729 4.31834 3.76254C7.08393 4.19738 9.61392 5.50312 11.4993 7.46866V20.2497Z"
        stroke="currentColor" stroke-linecap="round" stroke-linejoin="round" stroke-width="1.3" />
    <path
        d="M11.5 20.2497C13.4624 18.2028 16.1237 16.8771 19.0159 16.5055C19.3451 16.471 19.6492 16.3221 19.8693 16.0878C20.0895 15.8534 20.2103 15.55 20.2082 15.2363V5.01907C20.2082 4.83574 20.1663 4.65458 20.0854 4.48806C20.0045 4.32155 19.8864 4.17362 19.7393 4.05446C19.5949 3.93746 19.4258 3.85093 19.2434 3.8006C19.0608 3.75027 18.8692 3.73729 18.681 3.76254C15.9154 4.19738 13.3854 5.50312 11.5 7.46866V20.2497Z"
        stroke="currentColor" stroke-linecap="round" stroke-linejoin="round" stroke-width="1.3" />
</svg>
