<svg width="48" height="48" viewBox="0 0 48 48" fill="none" xmlns="http://www.w3.org/2000/svg">
    <mask id="mask0_190_95" style="mask-type:alpha" maskUnits="userSpaceOnUse" x="6" y="6" width="36" height="36">
        <path
            d="M38 6H10C7.79086 6 6 7.79086 6 10V38C6 40.2091 7.79086 42 10 42H38C40.2091 42 42 40.2091 42 38V10C42 7.79086 40.2091 6 38 6Z"
            fill="white"/>
    </mask>
    <g mask="url(#mask0_190_95)">
        <path fill-rule="evenodd" clip-rule="evenodd"
              d="M11.3217 17.2652C11.7275 16.8906 12.3602 16.9159 12.7348 17.3217L24 29.5257L35.2652 17.3217C35.6398 16.9159 36.2725 16.8906 36.6783 17.2652C37.0841 17.6398 37.1094 18.2725 36.7348 18.6783L24.7348 31.6783C24.5455 31.8834 24.2791 32 24 32C23.7209 32 23.4545 31.8834 23.2652 31.6783L11.2652 18.6783C10.8906 18.2725 10.9159 17.6398 11.3217 17.2652Z"
              fill="currentColor"/>
    </g>
</svg>
