<svg width="16" height="20" viewBox="0 0 16 20" fill="none" xmlns="http://www.w3.org/2000/svg">
    <path fill-rule="evenodd" clip-rule="evenodd"
          d="M3.33333 6C3.33333 5.63181 3.63181 5.33333 4 5.33333H9.33333C9.70152 5.33333 10 5.63181 10 6C10 6.36819 9.70152 6.66667 9.33333 6.66667H4C3.63181 6.66667 3.33333 6.36819 3.33333 6Z"
          fill="currentColor"/>
    <path fill-rule="evenodd" clip-rule="evenodd"
          d="M3.33333 9.33333C3.33333 8.96514 3.63181 8.66667 4 8.66667H12C12.3682 8.66667 12.6667 8.96514 12.6667 9.33333C12.6667 9.70152 12.3682 10 12 10H4C3.63181 10 3.33333 9.70152 3.33333 9.33333Z"
          fill="currentColor"/>
    <path fill-rule="evenodd" clip-rule="evenodd"
          d="M3.33333 12.6667C3.33333 12.2985 3.63181 12 4 12H12C12.3682 12 12.6667 12.2985 12.6667 12.6667C12.6667 13.0349 12.3682 13.3333 12 13.3333H4C3.63181 13.3333 3.33333 13.0349 3.33333 12.6667Z"
          fill="currentColor"/>
    <path fill-rule="evenodd" clip-rule="evenodd"
          d="M2.79227 1.33333C1.97809 1.33333 1.33333 1.98226 1.33333 2.76405V17.236C1.33333 18.0177 1.97809 18.6667 2.79227 18.6667H13.2077C14.0219 18.6667 14.6667 18.0177 14.6667 17.236V2.76405C14.6667 1.98226 14.0219 1.33333 13.2077 1.33333H2.79227ZM0 2.76405C0 1.22913 1.25857 0 2.79227 0H13.2077C14.7414 0 16 1.22913 16 2.76405V17.236C16 18.7709 14.7414 20 13.2077 20H2.79227C1.25857 20 0 18.7709 0 17.236V2.76405Z"
          fill="currentColor"/>
</svg>
