<svg fill="none" height="48" viewBox="0 0 49 48" width="49" xmlns="http://www.w3.org/2000/svg">
    <path clip-rule="evenodd"
          d="M37.423 27.2308C38.0178 27.2308 38.5 27.7129 38.5 28.3077V34.7692C38.5 36.5535 37.0535 38 35.2692 38H13.7308C11.9465 38 10.5 36.5535 10.5 34.7692V28.8462C10.5 28.2514 10.9822 27.7692 11.5769 27.7692C12.1717 27.7692 12.6538 28.2514 12.6538 28.8462V34.7692C12.6538 35.364 13.136 35.8462 13.7308 35.8462H35.2692C35.864 35.8462 36.3461 35.364 36.3461 34.7692V28.3077C36.3461 27.7129 36.8283 27.2308 37.423 27.2308Z"
          fill="currentColor"
          fill-rule="evenodd" />
    <path clip-rule="evenodd"
          d="M24.8088 10C24.1479 10 23.6122 10.5192 23.6122 11.1598L23.6122 24.4097L18.9907 20.2676C18.516 19.8219 17.7585 19.8336 17.2987 20.2936C16.8389 20.7537 16.8509 21.4879 17.3255 21.9336L23.9762 27.9809C24.2042 28.195 24.5107 28.3125 24.8281 28.3075C25.1455 28.3026 25.4479 28.1755 25.6686 27.9544L31.7017 21.9071C32.1613 21.4468 32.1489 20.7126 31.674 20.2672C31.1991 19.8217 30.4416 19.8338 29.982 20.2941L26.0054 24.2818L26.0054 11.1598C26.0054 10.5192 25.4696 10 24.8088 10Z"
          fill="currentColor"
          fill-rule="evenodd" />
</svg>
