<svg fill="none" height="48" viewBox="0 0 48 48" width="48" xmlns="http://www.w3.org/2000/svg">
    <path d="M24 17C27.9052 17 34 17 34 17L24 31L14 17C14 17 20.0948 17 24 17Z" fill="currentColor" />
    <path clip-rule="evenodd"
          d="M13.1108 17.5424C13.2822 17.2093 13.6254 17 14 17H33.9994C34.374 17 34.7178 17.2093 34.8892 17.5424C35.0606 17.8755 35.0315 18.2764 34.8137 18.5812L24.8137 32.5812C24.626 32.844 24.323 33 24 33C23.6771 33 23.374 32.844 23.1863 32.5812L13.1863 18.5812C12.9685 18.2764 12.9394 17.8755 13.1108 17.5424ZM32.0568 19H15.9432L24 30.2795L32.0568 19Z"
          fill="currentColor"
          fill-rule="evenodd" />
</svg>
