<svg width="48" height="48" viewBox="0 0 48 48" fill="none" xmlns="http://www.w3.org/2000/svg">
    <path fill-rule="evenodd" clip-rule="evenodd"
          d="M9 24C9 15.7157 15.7157 9 24 9C32.2843 9 39 15.7157 39 24C39 32.2843 32.2843 39 24 39C15.7157 39 9 32.2843 9 24ZM24 11C16.8203 11 11 16.8203 11 24C11 31.1797 16.8203 37 24 37C31.1797 37 37 31.1797 37 24C37 16.8203 31.1797 11 24 11Z"
          fill="currentColor"/>
    <path fill-rule="evenodd" clip-rule="evenodd"
          d="M23.8334 27.7692C24.7999 27.7692 25.5834 28.4925 25.5834 29.3846C25.5834 30.2767 24.7999 31 23.8334 31C22.8669 31 22.0834 30.2767 22.0834 29.3846C22.0834 28.4925 22.8669 27.7692 23.8334 27.7692ZM23.8334 16C24.7515 16 25.5046 16.7121 25.5776 17.6177L25.5834 17.7622L25.2917 24.2238C25.2917 25.0348 24.6388 25.6923 23.8334 25.6923C23.0753 25.6923 22.4524 25.1099 22.3817 24.3652L22.375 24.2238L22.0834 17.7622C22.0834 16.789 22.8669 16 23.8334 16Z"
          fill="currentColor"/>
</svg>
