<svg fill="none" height="42" viewBox="0 0 42 42" width="42" xmlns="http://www.w3.org/2000/svg">
    <path clip-rule="evenodd"
          d="M7.40234 20.9994C7.40234 13.482 13.486 7.39941 21.0023 7.39941C28.5198 7.39941 34.6023 13.483 34.6023 20.9994C34.6023 28.5169 28.5188 34.5994 21.0023 34.5994C13.4849 34.5994 7.40234 28.5158 7.40234 20.9994ZM12.1871 29.8146C17.0597 34.6872 24.9457 34.6865 29.8177 29.8146C34.6784 24.9539 34.6784 17.0449 29.8177 12.1841C24.9451 7.31145 17.0589 7.31218 12.1871 12.1841C7.32631 17.0449 7.32631 24.9539 12.1871 29.8146Z"
          fill="currentColor"
          fill-rule="evenodd" />
    <path
        d="M25.9449 16.0569C25.735 15.847 25.3945 15.847 25.1844 16.0569L21.0023 20.239L16.8203 16.0568C16.6103 15.8469 16.2698 15.8469 16.0598 16.0568C15.8499 16.2668 15.8499 16.6073 16.0598 16.8173L20.2419 20.9994L16.0598 25.1815C15.8499 25.3915 15.8499 25.7319 16.0598 25.942C16.2698 26.1519 16.6102 26.1519 16.8203 25.942L21.0023 21.7599L25.1844 25.942C25.3945 26.1519 25.7349 26.1519 25.9449 25.942C26.1549 25.732 26.1548 25.3915 25.9449 25.1815L21.7628 20.9994L25.9449 16.8173C26.1548 16.6073 26.1548 16.2669 25.9449 16.0569Z"
        fill="currentColor" />
</svg>
