<svg width="18" height="16" viewBox="0 0 18 16" fill="none" xmlns="http://www.w3.org/2000/svg">
    <path fill-rule="evenodd" clip-rule="evenodd"
          d="M1.91204 1.33333C1.85515 1.33333 1.79816 1.35642 1.75024 1.40671C1.7018 1.45755 1.66732 1.53265 1.66732 1.62319V14.3768C1.66732 14.4673 1.7018 14.5424 1.75024 14.5933C1.79816 14.6436 1.85515 14.6667 1.91204 14.6667H16.0893C16.1462 14.6667 16.2031 14.6436 16.2511 14.5933C16.2995 14.5424 16.334 14.4673 16.334 14.3768V4.68406C16.334 4.59352 16.2995 4.51842 16.2511 4.46758C16.2031 4.41729 16.1462 4.3942 16.0893 4.3942H9.05789C8.56421 4.3942 8.09615 4.24098 7.70464 3.97317C7.31335 3.70552 6.999 3.324 6.80657 2.86631L6.23019 1.49542C6.20668 1.43951 6.17084 1.39854 6.13218 1.37209C6.09375 1.34581 6.05213 1.33333 6.01092 1.33333H1.91204ZM0.784939 0.486944C1.06689 0.191034 1.46559 0 1.91204 0H6.01092C6.33076 0 6.63318 0.0993673 6.88496 0.271598C7.13651 0.443668 7.33705 0.687877 7.4593 0.978649L6.84475 1.23704L7.4593 0.978649L8.03568 2.34954C8.12937 2.57236 8.27903 2.75065 8.45742 2.87267C8.63557 2.99454 8.84284 3.06087 9.05789 3.06087H16.0893C16.5357 3.06087 16.9344 3.2519 17.2164 3.54781C17.4978 3.84316 17.6673 4.24632 17.6673 4.68406V14.3768C17.6673 14.8146 17.4978 15.2177 17.2164 15.5131C16.9344 15.809 16.5357 16 16.0893 16H1.91204C1.46559 16 1.06689 15.809 0.784939 15.5131C0.503527 15.2177 0.333984 14.8145 0.333984 14.3768V1.62319C0.333984 1.18545 0.503526 0.782291 0.784939 0.486944ZM9.66732 0.666667C9.66732 0.298477 9.96579 0 10.334 0H16.9855C17.3537 0 17.6522 0.298477 17.6522 0.666667C17.6522 1.03486 17.3537 1.33333 16.9855 1.33333H10.334C9.96579 1.33333 9.66732 1.03486 9.66732 0.666667Z"
          fill="currentColor"/>
</svg>
