<svg width="48" height="48" viewBox="0 0 48 48" fill="none" xmlns="http://www.w3.org/2000/svg">
  <mask id="mask0_72_444" style="mask-type:alpha" maskUnits="userSpaceOnUse" x="6" y="6" width="36" height="36">
    <path
      d="M38 6H10C7.79086 6 6 7.79086 6 10V38C6 40.2091 7.79086 42 10 42H38C40.2091 42 42 40.2091 42 38V10C42 7.79086 40.2091 6 38 6Z"
      fill="white" />
  </mask>
  <g mask="url(#mask0_72_444)">
    <path fill-rule="evenodd" clip-rule="evenodd"
          d="M13.3671 14C13.2817 14 13.1963 14.0346 13.1244 14.1101C13.0517 14.1863 13 14.299 13 14.4348V33.5652C13 33.701 13.0517 33.8137 13.1244 33.8899C13.1963 33.9654 13.2817 34 13.3671 34H34.6329C34.7183 34 34.8037 33.9654 34.8756 33.8899C34.9483 33.8137 35 33.701 35 33.5652V19.0261C35 18.8903 34.9483 18.7776 34.8756 18.7014C34.8037 18.6259 34.7183 18.5913 34.6329 18.5913H24.0859C23.3453 18.5913 22.6432 18.3615 22.056 17.9598C21.4691 17.5583 20.9975 16.986 20.7089 16.2995L19.8443 14.2431C19.809 14.1593 19.7553 14.0978 19.6973 14.0581C19.6397 14.0187 19.5772 14 19.5154 14H13.3671ZM11.6764 12.7304C12.0994 12.2866 12.6974 12 13.3671 12H19.5154C19.9952 12 20.4488 12.1491 20.8265 12.4074C21.2038 12.6655 21.5046 13.0318 21.688 13.468L20.7661 13.8556L21.688 13.468L22.5525 15.5243C22.6931 15.8585 22.9176 16.126 23.1852 16.309C23.4524 16.4918 23.7633 16.5913 24.0859 16.5913H34.6329C35.3026 16.5913 35.9006 16.8779 36.3236 17.3217C36.7457 17.7647 37 18.3695 37 19.0261V33.5652C37 34.2218 36.7457 34.8266 36.3236 35.2696C35.9006 35.7134 35.3026 36 34.6329 36H13.3671C12.6974 36 12.0994 35.7134 11.6764 35.2696C11.2543 34.8266 11 34.2218 11 33.5652V14.4348C11 13.7782 11.2543 13.1734 11.6764 12.7304ZM25 13C25 12.4477 25.4477 12 26 12H35.9773C36.5296 12 36.9773 12.4477 36.9773 13C36.9773 13.5523 36.5296 14 35.9773 14H26C25.4477 14 25 13.5523 25 13Z"
          fill="currentColor" />
  </g>
</svg>
