<svg fill="none" height="14" viewBox="0 0 12 14" width="12" xmlns="http://www.w3.org/2000/svg">
    <path clip-rule="evenodd" d="M10.7972 4.86176C11.0335 4.86176 11.225 5.05328 11.225 5.28954V11.7062C11.225 12.6512 10.4589 13.4173 9.5139 13.4173H3.95279C3.71653 13.4173 3.52501 13.2258 3.52501 12.9895C3.52501 12.7533 3.71653 12.5618 3.95279 12.5618H9.5139C9.98641 12.5618 10.3695 12.1787 10.3695 11.7062V5.28954C10.3695 5.05328 10.561 4.86176 10.7972 4.86176Z"
          fill="black"
          fill-rule="evenodd" />
    <path clip-rule="evenodd" d="M2.66945 1.43954C2.19694 1.43954 1.8139 1.82259 1.8139 2.2951V9.99509C1.8139 10.4676 2.19694 10.8506 2.66945 10.8506H7.80279C8.2753 10.8506 8.65834 10.4676 8.65834 9.99509V4.43398H6.09168C5.85542 4.43398 5.6639 4.24246 5.6639 4.00621V1.43954H2.66945ZM6.51945 2.04451L8.05337 3.57843H6.51945V2.04451ZM0.958344 2.2951C0.958344 1.35007 1.72443 0.583984 2.66945 0.583984H6.09168C6.20513 0.583984 6.31394 0.629054 6.39416 0.709278L9.38861 3.70372C9.46883 3.78395 9.5139 3.89275 9.5139 4.00621V9.99509C9.5139 10.9401 8.74781 11.7062 7.80279 11.7062H2.66945C1.72443 11.7062 0.958344 10.9401 0.958344 9.99509V2.2951Z"
          fill="black"
          fill-rule="evenodd" />
</svg>
