<svg width="21" height="21" viewBox="1 1 19 19" fill="none" xmlns="http://www.w3.org/2000/svg">
    <path
        d="M17.22 10.6557C17.22 10.0802 17.1733 9.66016 17.0722 9.22461H10.5V11.8224H14.3577C14.28 12.4679 13.86 13.4402 12.9266 14.0935L12.9136 14.1804L14.9916 15.7902L15.1355 15.8046C16.4577 14.5835 17.22 12.7868 17.22 10.6557Z"
        fill="#4285F4"/>
    <path
        d="M10.5004 17.5003C12.3904 17.5003 13.977 16.8781 15.136 15.8048L12.9271 14.0936C12.336 14.5058 11.5426 14.7936 10.5004 14.7936C8.64932 14.7936 7.07822 13.5725 6.51817 11.8848L6.43608 11.8917L4.27533 13.564L4.24707 13.6425C5.39817 15.9292 7.76262 17.5003 10.5004 17.5003Z"
        fill="#34A853"/>
    <path
        d="M6.51775 11.884C6.36997 11.4484 6.28445 10.9817 6.28445 10.4995C6.28445 10.0173 6.36997 9.55064 6.50997 9.11509L6.50606 9.02233L4.31823 7.32324L4.24665 7.35729C3.77223 8.30619 3.5 9.37177 3.5 10.4995C3.5 11.6273 3.77223 12.6928 4.24665 13.6417L6.51775 11.884Z"
        fill="#FBBC05"/>
    <path
        d="M10.5004 6.20665C11.8148 6.20665 12.7015 6.77442 13.2071 7.2489L15.1826 5.32C13.9693 4.19223 12.3904 3.5 10.5004 3.5C7.76262 3.5 5.39817 5.0711 4.24707 7.35775L6.51039 9.11555C7.07822 7.42777 8.64932 6.20665 10.5004 6.20665Z"
        fill="#EB4335"/>
</svg>
