<svg width="48" height="48" viewBox="0 0 48 48" fill="none" xmlns="http://www.w3.org/2000/svg">
    <path
        d="M20.7561 26.3222H12.9217C12.4127 26.3222 12 26.7349 12 27.2439V35.0783C12 35.5873 12.4127 36 12.9217 36H20.7561C21.2651 36 21.6778 35.5873 21.6778 35.0783V27.2439C21.6778 26.7349 21.2651 26.3222 20.7561 26.3222Z"
        stroke="currentColor" stroke-width="2" stroke-linecap="round" stroke-linejoin="round" />
    <path
        d="M35.0783 26.3222H27.2438C26.7348 26.3222 26.3221 26.7349 26.3221 27.2439V35.0783C26.3221 35.5873 26.7348 36 27.2438 36H35.0783C35.5873 36 35.9998 35.5873 35.9998 35.0783V27.2439C35.9998 26.7349 35.5873 26.3222 35.0783 26.3222Z"
        stroke="currentColor" stroke-width="2" stroke-linecap="round" stroke-linejoin="round" />
    <path
        d="M20.7561 12H12.9217C12.4127 12 12 12.4127 12 12.9217V20.7561C12 21.2651 12.4127 21.6778 12.9217 21.6778H20.7561C21.2651 21.6778 21.6778 21.2651 21.6778 20.7561V12.9217C21.6778 12.4127 21.2651 12 20.7561 12Z"
        stroke="currentColor" stroke-width="2" stroke-linecap="round" stroke-linejoin="round" />
    <path
        d="M35.0782 12H27.2438C26.7348 12 26.3221 12.4127 26.3221 12.9217V20.7561C26.3221 21.2651 26.7348 21.6778 27.2438 21.6778H35.0782C35.5873 21.6778 35.9999 21.2651 35.9999 20.7561V12.9217C35.9999 12.4127 35.5873 12 35.0782 12Z"
        stroke="currentColor" stroke-width="2" stroke-linecap="round" stroke-linejoin="round" />
</svg>
