<svg width="20" height="20" viewBox="0 0 20 20" fill="none" xmlns="http://www.w3.org/2000/svg">
    <path fill-rule="evenodd" clip-rule="evenodd"
          d="M0 10C0 4.47715 4.47715 0 10 0C15.5228 0 20 4.47715 20 10C20 15.5228 15.5228 20 10 20C4.47715 20 0 15.5228 0 10ZM10 1.33333C5.21353 1.33333 1.33333 5.21353 1.33333 10C1.33333 14.7865 5.21353 18.6667 10 18.6667C14.7865 18.6667 18.6667 14.7865 18.6667 10C18.6667 5.21353 14.7865 1.33333 10 1.33333Z"
          fill="currentColor"/>
    <path
        d="M10.9015 8.02438C10.9015 8.3263 10.6872 8.68073 10.4224 8.94327C10.1576 9.20581 9.72892 9.42897 9.45154 9.79653C9.16014 10.1816 9.10784 10.6289 9.09982 11.12L9.0985 11.5556C9.0985 11.7 9.21198 11.8181 9.35067 11.8181H10.6115C10.7502 11.8181 10.8637 11.7 10.8637 11.5556V11.3061C10.8637 10.8527 10.947 10.627 11.3222 10.3136L11.4437 10.2166C11.9984 9.79653 12.6667 9.02203 12.6667 7.93249C12.6667 6.40975 11.6202 5.33333 10.0063 5.33333C8.41765 5.33333 7.33333 6.40975 7.33333 8.09001V8.28692C7.33333 8.43132 7.44681 8.54946 7.5855 8.54946H8.84634C8.98503 8.54946 9.0985 8.43132 9.0985 8.28692V8.06376C9.0985 7.4993 9.43893 7.15799 10.0063 7.15799C10.5106 7.15799 10.9015 7.48617 10.9015 8.02438ZM9.23719 14.6667C9.0985 14.6667 8.98503 14.5485 8.98503 14.4041V12.8289C8.98503 12.6845 9.0985 12.5663 9.23719 12.5663H10.7502C10.8889 12.5663 11.0024 12.6845 11.0024 12.8289V14.4041C11.0024 14.5485 10.8889 14.6667 10.7502 14.6667H9.23719Z"
        fill="currentColor"/>
</svg>
