<svg width="14" height="14" viewBox="0 0 14 14" fill="none" xmlns="http://www.w3.org/2000/svg">
    <path
        d="M5.25 6.45986V4.63032C5.25 4.1451 5.44275 3.67975 5.78586 3.33664C6.12897 2.99354 6.59432 2.80078 7.07954 2.80078C7.56477 2.80078 8.03012 2.99354 8.37322 3.33664C8.71633 3.67975 8.90908 4.1451 8.90908 4.63032V6.45986"
        stroke="currentColor" stroke-width="1.3" />
    <path
        d="M10.0066 6.45898H4.15204C3.94996 6.45898 3.78613 6.62281 3.78613 6.82489V10.484C3.78613 10.6861 3.94996 10.8499 4.15204 10.8499H10.0066C10.2087 10.8499 10.3725 10.6861 10.3725 10.484V6.82489C10.3725 6.62281 10.2087 6.45898 10.0066 6.45898Z"
        stroke="currentColor" stroke-width="1.3" />
</svg>
