<svg xmlns="http://www.w3.org/2000/svg" viewBox="0 0 48 48" width="48px" height="48px">
    <path
        d="M 15.067 38.517 C 14.425 38.517 13.871 38.287 13.407 37.821 C 12.942 37.354 12.71 36.804 12.71 36.159 L 12.71 21.598 C 12.71 20.945 12.942 20.388 13.407 19.93 C 13.871 19.469 14.425 19.239 15.067 19.239 L 17.673 19.239 L 17.673 15.812 C 17.673 14.049 18.287 12.552 19.515 11.331 C 20.744 10.098 22.239 9.484 24.004 9.484 C 25.768 9.484 27.262 10.098 28.488 11.331 C 29.714 12.552 30.327 14.049 30.327 15.812 L 30.327 19.239 L 32.932 19.239 C 33.575 19.239 34.129 19.469 34.592 19.93 C 35.058 20.388 35.289 20.945 35.289 21.598 L 35.289 36.159 C 35.289 36.804 35.058 37.354 34.592 37.821 C 34.129 38.287 33.575 38.517 32.932 38.517 L 15.067 38.517 Z M 15.067 37.15 L 32.932 37.15 C 33.222 37.15 33.459 37.059 33.646 36.875 C 33.831 36.689 33.925 36.453 33.925 36.159 L 33.925 21.598 C 33.925 21.31 33.831 21.073 33.646 20.888 C 33.459 20.702 33.222 20.607 32.932 20.607 L 15.067 20.607 C 14.777 20.607 14.539 20.702 14.354 20.888 C 14.168 21.073 14.075 21.31 14.075 21.598 L 14.075 36.159 C 14.075 36.453 14.168 36.689 14.354 36.875 C 14.539 37.059 14.777 37.15 15.067 37.15 Z M 24.004 31.262 C 24.662 31.262 25.224 31.025 25.687 30.566 C 26.148 30.106 26.38 29.55 26.38 28.891 C 26.38 28.252 26.147 27.695 25.683 27.216 C 25.216 26.737 24.655 26.5 23.995 26.5 C 23.336 26.5 22.775 26.737 22.313 27.216 C 21.851 27.695 21.619 28.258 21.619 28.904 C 21.619 29.555 21.852 30.111 22.317 30.572 C 22.783 31.032 23.345 31.262 24.004 31.262 Z M 19.036 19.239 L 28.962 19.239 L 28.962 15.812 C 28.962 14.432 28.48 13.262 27.516 12.296 C 26.552 11.331 25.381 10.851 24.004 10.851 C 22.626 10.851 21.454 11.331 20.488 12.296 C 19.521 13.262 19.036 14.432 19.036 15.812 L 19.036 19.239 Z M 14.075 37.15 L 14.075 20.607 L 14.075 37.15 Z"
        fill="currentColor"
        stroke-width="1"
        stroke="currentColor"
    />
</svg>