<svg width="90" height="20" viewBox="0 0 90 20" fill="none" xmlns="http://www.w3.org/2000/svg">
    <path
        d="M39.0179 8.27811C37.8167 8.27811 36.7851 8.69284 36.115 9.44651L36.0371 9.53351L35.9648 9.44199C35.3523 8.68154 34.4687 8.27811 33.4099 8.27811C32.3071 8.27811 31.3444 8.62504 30.6981 9.25329L30.6009 9.3482L30.541 9.2273C30.2393 8.62504 29.5941 8.27811 28.7704 8.27811C28.4407 8.27652 28.113 8.32999 27.8009 8.43634C27.7015 8.47024 27.6687 8.52108 27.6687 8.64086V9.79114C27.6653 9.8176 27.674 9.84418 27.6924 9.86346C27.7416 9.89296 27.8002 9.90266 27.8563 9.89058C28.0119 9.86527 28.1688 9.84867 28.3263 9.84086C28.8506 9.84086 29.1173 10.0793 29.1173 10.5482V16.1719C29.113 16.2124 29.1272 16.2526 29.1559 16.2813C29.1847 16.3101 29.2249 16.3243 29.2653 16.32H30.7783C30.8187 16.3243 30.859 16.3101 30.8877 16.2813C30.9165 16.2526 30.9307 16.2124 30.9263 16.1719V11.9132C30.9263 10.6544 31.7523 9.80809 32.9817 9.80809C34.1422 9.80809 34.9218 10.7007 34.9218 12.0284V16.1719C34.9175 16.2124 34.9317 16.2526 34.9604 16.2813C34.9892 16.3101 35.0294 16.3243 35.0698 16.32H36.5828C36.6233 16.3243 36.6635 16.3101 36.6922 16.2813C36.721 16.2526 36.7352 16.2124 36.7309 16.1719V11.9132C36.7309 10.6544 37.4777 9.80809 38.5885 9.80809C39.8574 9.80809 40.7094 10.7007 40.7094 12.0284V16.1719C40.7054 16.2125 40.7199 16.2527 40.7488 16.2814C40.7777 16.31 40.818 16.3242 40.8585 16.32H42.3704C42.4109 16.3242 42.4512 16.31 42.4801 16.2814C42.509 16.2527 42.5235 16.2125 42.5196 16.1719V11.9132C42.5207 9.73916 41.1128 8.27811 39.0179 8.27811Z"
        fill="currentColor"/>
    <path
        d="M54.0382 14.8523C53.9966 14.83 53.948 14.8247 53.9026 14.8376C53.6968 14.8814 53.487 14.9037 53.2766 14.9043C52.8789 14.9043 52.5986 14.6139 52.5986 14.1981V8.63536C52.603 8.59493 52.5888 8.55471 52.56 8.52596C52.5313 8.4972 52.4911 8.48301 52.4506 8.48734H50.9399C50.8995 8.48301 50.8592 8.4972 50.8305 8.52596C50.8017 8.55471 50.7875 8.59493 50.7919 8.63536V12.8342C50.7919 14.0772 49.8721 14.9382 48.5557 14.9382C47.2868 14.9382 46.4348 14.0467 46.4348 12.719V8.63536C46.4388 8.59482 46.4243 8.55464 46.3954 8.52594C46.3665 8.49725 46.3262 8.48307 46.2857 8.48734H44.7738C44.7334 8.48301 44.6931 8.4972 44.6644 8.52596C44.6356 8.55471 44.6214 8.59493 44.6258 8.63536V12.8342C44.6258 15.0071 46.0325 16.4681 48.1286 16.4681C49.2529 16.4681 50.2088 16.1574 50.8936 15.571L50.9806 15.4964L51.0405 15.5936C51.3896 16.1495 52.1026 16.4681 52.9964 16.4681C53.3671 16.4628 53.7346 16.3975 54.0845 16.2749C54.1276 16.2678 54.1659 16.2434 54.1905 16.2073C54.215 16.1712 54.2237 16.1266 54.2145 16.084L54.0823 14.954C54.0833 14.9153 54.0672 14.878 54.0382 14.8523Z"
        fill="currentColor"/>
    <path
        d="M65.1017 14.8521C65.0606 14.8297 65.0123 14.8244 64.9673 14.8374C64.7611 14.8811 64.5509 14.9035 64.3401 14.9041C63.9435 14.9041 63.6622 14.6137 63.6622 14.1979V4.83518C63.6661 4.79485 63.6517 4.75489 63.6231 4.72624C63.5944 4.69759 63.5545 4.68325 63.5141 4.68715H61.9876C61.9473 4.68325 61.9073 4.69759 61.8787 4.72624C61.85 4.75489 61.8357 4.79485 61.8396 4.83518V9.07586L61.6836 8.96851C61.0257 8.50962 60.2406 8.2682 59.4384 8.27812C56.9311 8.27812 55.1797 9.96286 55.1797 12.373C55.1797 14.7832 56.9311 16.4679 59.4384 16.4679C60.417 16.4935 61.3671 16.1369 62.087 15.4736L62.1842 15.3877L62.2407 15.5007C62.539 16.1131 63.2023 16.4646 64.0599 16.4646C64.4306 16.459 64.7981 16.3938 65.148 16.2713C65.1911 16.2643 65.2293 16.2398 65.2537 16.2037C65.2781 16.1675 65.2865 16.1229 65.2769 16.0804L65.1458 14.9504C65.1459 14.9129 65.1298 14.8771 65.1017 14.8521ZM59.452 15.0205C58.0226 15.0205 56.9853 13.9075 56.9853 12.373C56.9853 10.8386 58.0226 9.72557 59.452 9.72557C60.8814 9.72557 61.852 10.8148 61.852 12.373C61.852 13.9312 60.8689 15.0205 59.4554 15.0205H59.452Z"
        fill="currentColor"/>
    <path
        d="M68.3878 8.49731H67.2338C67.0529 8.49731 66.9062 8.64394 66.9062 8.82481V15.9777C66.9062 16.1586 67.0529 16.3052 67.2338 16.3052H68.3878C68.5687 16.3052 68.7153 16.1586 68.7153 15.9777V8.82481C68.7153 8.64394 68.5687 8.49731 68.3878 8.49731Z"
        fill="currentColor"/>
    <path
        d="M75.8166 14.7551C75.3836 14.8543 74.941 14.9047 74.4968 14.9054C73.5928 14.9054 72.9838 14.2715 72.9838 13.3235V9.88957H75.8776C75.918 9.8939 75.9582 9.8797 75.987 9.85095C76.0158 9.8222 76.03 9.78198 76.0256 9.74155V8.63985C76.03 8.59942 76.0158 8.5592 75.987 8.53045C75.9582 8.5017 75.918 8.4875 75.8776 8.49183H72.9816V6.23985C72.9859 6.19942 72.9717 6.1592 72.9429 6.13045C72.9142 6.1017 72.874 6.0875 72.8335 6.09183H71.3205C71.2802 6.08793 71.2402 6.10226 71.2116 6.13091C71.1829 6.15956 71.1686 6.19952 71.1725 6.23985V13.3924C71.1725 15.2319 72.4154 16.4681 74.264 16.4681C74.8723 16.4498 75.4765 16.3626 76.0652 16.2082C76.1071 16.2001 76.144 16.1753 76.1674 16.1396C76.1908 16.1038 76.1988 16.0601 76.1895 16.0184L75.9929 14.8726C75.9902 14.8312 75.9683 14.7933 75.9338 14.7703C75.8992 14.7473 75.8559 14.7416 75.8166 14.7551Z"
        fill="currentColor"/>
    <path
        d="M87.1798 14.8523C87.1383 14.83 87.0896 14.8247 87.0443 14.8376C86.8378 14.8822 86.6272 14.9049 86.416 14.9054C86.0194 14.9054 85.738 14.615 85.738 14.1992V8.63535C85.7424 8.59492 85.7282 8.5547 85.6994 8.52595C85.6707 8.49719 85.6304 8.48299 85.59 8.48733H84.0815C84.0411 8.48299 84.0009 8.49719 83.9721 8.52595C83.9434 8.5547 83.9292 8.59492 83.9335 8.63535V9.09637L83.7765 8.98337C83.1179 8.51285 82.3259 8.26574 81.5166 8.27829C79.0092 8.27829 77.2578 9.96303 77.2578 12.3732C77.2578 14.7834 79.0092 16.4681 81.5166 16.4681C82.4943 16.489 83.4427 16.1329 84.1652 15.4738L84.2623 15.3879L84.3188 15.5009C84.6171 16.1133 85.2804 16.4647 86.138 16.4647C86.5099 16.4598 86.8786 16.3945 87.2296 16.2715C87.2727 16.2644 87.311 16.24 87.3355 16.2039C87.3601 16.1678 87.3688 16.1232 87.3595 16.0805L87.2273 14.945C87.2251 14.9088 87.2079 14.8752 87.1798 14.8523ZM81.5301 15.0207C80.1008 15.0207 79.0635 13.9077 79.0635 12.3732C79.0635 10.8387 80.1008 9.72574 81.5301 9.72574C82.9595 9.72574 83.9313 10.815 83.9313 12.3732C83.9313 13.9314 82.9459 15.0207 81.5324 15.0207H81.5301Z"
        fill="currentColor"/>
    <path
        d="M67.8293 4.74609C67.4247 4.74564 67.0597 4.98899 66.9046 5.36263C66.7495 5.73627 66.8347 6.16657 67.1206 6.4528C67.4066 6.73903 67.8368 6.8248 68.2106 6.67008C68.5844 6.51537 68.8282 6.15066 68.8282 5.74609C68.8275 5.19451 68.3809 4.74734 67.8293 4.74609Z"
        fill="currentColor"/>
    <path
        d="M21.3544 12.7608C21.3113 12.6739 21.2505 12.5969 21.1759 12.5348C19.3391 11.0191 16.837 10.5892 14.5996 11.4049C14.6022 8.64592 13.3447 6.03685 11.1849 4.32011C10.9279 4.11465 10.5628 4.11465 10.3058 4.32011C8.1498 6.03389 6.8927 8.63712 6.89114 11.3913C4.66055 10.5954 2.17567 11.0328 0.351024 12.5427C0.276761 12.6051 0.216011 12.682 0.172493 12.7687C0.0815895 12.8896 0.0320622 13.0366 0.03125 13.1879C0.0399628 16.9498 3.08971 19.996 6.85159 20.0003C8.25276 20.0032 9.61989 19.5687 10.7623 18.7574C11.9052 19.5685 13.2727 20.003 14.6742 20.0003C18.439 19.996 21.4897 16.9448 21.4934 13.18C21.4938 13.0289 21.445 12.8817 21.3544 12.7608ZM10.7442 5.79694C12.3058 7.24772 13.193 9.283 13.193 11.4145C13.193 13.5459 12.3058 15.5812 10.7442 17.032C9.18271 15.5812 8.29551 13.5459 8.29551 11.4145C8.29551 9.283 9.18271 7.24772 10.7442 5.79694ZM1.45498 13.4681C3.06658 12.2606 5.22251 12.0685 7.02221 12.9721C7.34181 14.8251 8.2327 16.5318 9.57023 17.8534C8.74626 18.338 7.80747 18.5928 6.85159 18.5913C3.97772 18.5865 1.60801 16.3378 1.45272 13.4681H1.45498ZM14.6753 18.5936C13.7092 18.5955 12.7607 18.3354 11.9307 17.841C13.2554 16.5263 14.1397 14.8331 14.4618 12.9947C16.2686 12.0616 18.4499 12.2442 20.0764 13.4647C19.924 16.3379 17.5514 18.5904 14.6742 18.5936H14.6753Z"
        fill="currentColor"/>
    <path
        d="M21.2399 8.40928C21.2862 8.40909 21.3297 8.38748 21.3578 8.35076C21.3859 8.31404 21.3953 8.26638 21.3834 8.22171C20.0672 3.4319 15.7124 0.112305 10.745 0.112305C5.77765 0.112305 1.4228 3.4319 0.106597 8.22171C0.0946892 8.26638 0.104167 8.31404 0.132256 8.35076C0.160346 8.38748 0.203872 8.40909 0.2501 8.40928H1.40603C1.47036 8.40876 1.52699 8.36675 1.54614 8.30533C2.793 4.2713 6.52269 1.52031 10.745 1.52031C14.9673 1.52031 18.697 4.2713 19.9439 8.30533C19.9623 8.36679 20.0187 8.40899 20.0829 8.40928H21.2399Z"
        fill="currentColor"/>
    <path
        d="M87.5514 6.34038L87.5277 5.40027C87.5257 5.37955 87.5328 5.35898 87.547 5.34383C87.5613 5.32869 87.5814 5.32043 87.6022 5.32117L88.0203 5.31101C88.2926 5.30423 88.4859 5.45903 88.4926 5.68954C88.5012 5.84024 88.4091 5.97845 88.2667 6.02852L88.4791 6.29971C88.5164 6.35055 88.4972 6.39236 88.435 6.39349H88.2915C88.2547 6.39778 88.2185 6.38123 88.1977 6.35055L87.9853 6.07259H87.8L87.8068 6.32456C87.8087 6.34529 87.8017 6.36585 87.7874 6.381C87.7731 6.39615 87.753 6.4044 87.7322 6.40366H87.6294C87.5906 6.40699 87.5561 6.37902 87.5514 6.34038ZM88.0373 5.86016C88.1604 5.86016 88.2316 5.79349 88.2282 5.69067C88.2248 5.58784 88.1424 5.53925 88.0294 5.54151L87.7887 5.54829L87.7966 5.86694L88.0373 5.86016Z"
        fill="currentColor"/>
    <path
        d="M88.8546 4.97194C88.4549 4.58792 87.8479 4.5182 87.3716 4.80159C86.8952 5.08499 86.6668 5.65168 86.8136 6.18618C86.9604 6.72068 87.4461 7.0913 88.0004 7.09172H88.023C88.5217 7.08302 88.9659 6.7744 89.148 6.31009C89.3302 5.84577 89.2143 5.31743 88.8546 4.97194ZM88.7416 6.57194C88.4195 6.90928 87.9108 6.98785 87.5019 6.76342C87.093 6.539 86.8861 6.06767 86.9976 5.61478C87.1092 5.16188 87.5114 4.84061 87.9778 4.83183H87.9992C88.4113 4.8323 88.7834 5.07845 88.945 5.4575C89.1066 5.83654 89.0266 6.27543 88.7416 6.57307V6.57194Z"
        fill="currentColor"/>
</svg>
