<svg width="24" height="24" viewBox="0 0 24 24" fill="none" xmlns="http://www.w3.org/2000/svg">
    <path d="M22.2393 15.0813C22.1977 14.9996 22.1402 14.9273 22.0701 14.8685C20.3265 13.4198 17.9509 13.0084 15.8263 13.7873C15.8285 11.1511 14.6342 8.65828 12.5832 7.0181C12.3394 6.82266 11.9937 6.82266 11.7498 7.0181C9.7025 8.65469 8.50853 11.1413 8.50675 13.7723C6.39042 13.0147 4.03408 13.4328 2.30293 14.8731C2.23289 14.9319 2.17534 15.0042 2.13375 15.0859C2.04712 15.2011 2 15.3417 2 15.4862C2.00378 19.0821 4.8999 21.9962 8.4736 22C9.80414 22.0023 11.1022 21.5865 12.1865 20.8106C13.2714 21.5849 14.5694 21.999 15.8994 21.9954C19.4731 21.9916 22.3693 19.0775 22.373 15.4816C22.373 15.3371 22.3259 15.1965 22.2393 15.0813ZM12.1671 8.43175C13.649 9.81777 14.491 11.7618 14.491 13.7976C14.491 15.8334 13.649 17.7775 12.1671 19.1635C10.6845 17.7778 9.84215 15.8337 9.84215 13.7976C9.84215 11.7616 10.6845 9.81742 12.1671 8.43175ZM3.34891 15.7588C4.87904 14.606 6.9254 14.423 8.63364 15.286C8.93723 17.0569 9.78383 18.6878 11.0548 19.9503C10.2725 20.413 9.38109 20.6561 8.4736 20.6542C5.7447 20.6478 3.49565 18.4984 3.34891 15.7565V15.7588ZM15.8994 20.6542C14.9823 20.6555 14.082 20.4066 13.2942 19.9341C14.5507 18.6795 15.3894 17.0635 15.6948 15.309C17.41 14.4192 19.4797 14.5934 21.0241 15.7576C20.8756 18.4981 18.6271 20.6456 15.8994 20.6519V20.6542Z" fill="currentColor"/>
    <path d="M22.1318 10.9243C22.1756 10.9244 22.217 10.904 22.2436 10.869C22.2703 10.834 22.2793 10.7886 22.2679 10.746C21.0184 6.17084 16.8843 3 12.1688 3C7.45329 3 3.31924 6.17084 2.06973 10.746C2.05882 10.7885 2.06797 10.8337 2.09454 10.8686C2.12111 10.9034 2.16214 10.9239 2.20577 10.9243H3.30432C3.36538 10.9244 3.41927 10.8842 3.43693 10.8254C4.62686 6.97886 8.16509 4.35837 12.1688 4.35837C16.1725 4.35837 19.7107 6.97886 20.9007 10.8254C20.9187 10.884 20.9723 10.924 21.0333 10.9243H22.1318Z" fill="currentColor"/>
</svg>
