<svg width="21" height="20" viewBox="0 0 21 20" fill="none" xmlns="http://www.w3.org/2000/svg">
    <path
        d="M4.5 9.50009H8.625M8.625 9.50009C8.625 8.76742 9.24061 8.17348 10 8.17348C10.7594 8.17348 11.375 8.76742 11.375 9.50009M8.625 9.50009C8.625 10.2328 9.24061 10.8267 10 10.8267C10.7594 10.8267 11.375 10.2328 11.375 9.50009M4.5 13.6734H12.75M12.75 13.6734C12.75 12.9407 13.3656 12.3468 14.125 12.3468C14.8844 12.3468 15.5 12.9407 15.5 13.6734C15.5 14.406 14.8844 15 14.125 15C13.3656 15 12.75 14.406 12.75 13.6734ZM11.375 9.50009H15.5M15.5 5.32661H7.25M7.25 5.32661C7.25 4.59394 6.63439 4 5.875 4C5.11561 4 4.5 4.59394 4.5 5.32661C4.5 6.05926 5.11561 6.65321 5.875 6.65321C6.63439 6.65321 7.25 6.05926 7.25 5.32661Z"
        stroke="currentColor" stroke-width="0.8" stroke-linecap="round" stroke-linejoin="round" />
</svg>
