<svg width="20" height="18" viewBox="0 0 20 18" fill="none" xmlns="http://www.w3.org/2000/svg">
    <path fill-rule="evenodd" clip-rule="evenodd"
          d="M0 1.66683C0 0.93045 0.596954 0.333496 1.33333 0.333496H5.33333C6.06971 0.333496 6.66667 0.93045 6.66667 1.66683V5.66683C6.66667 6.40321 6.06971 7.00016 5.33333 7.00016H1.33333C0.596954 7.00016 0 6.40321 0 5.66683V1.66683ZM5.33333 1.66683H1.33333V5.66683H5.33333V1.66683Z"
          fill="currentColor"/>
    <path fill-rule="evenodd" clip-rule="evenodd"
          d="M9.33333 3.66683C9.33333 3.29864 9.63181 3.00016 10 3.00016H19.3333C19.7015 3.00016 20 3.29864 20 3.66683C20 4.03502 19.7015 4.3335 19.3333 4.3335H10C9.63181 4.3335 9.33333 4.03502 9.33333 3.66683Z"
          fill="currentColor"/>
    <path fill-rule="evenodd" clip-rule="evenodd"
          d="M0 12.3335C0 11.5971 0.596954 11.0002 1.33333 11.0002H5.33333C6.06971 11.0002 6.66667 11.5971 6.66667 12.3335V16.3335C6.66667 17.0699 6.06971 17.6668 5.33333 17.6668H1.33333C0.596954 17.6668 0 17.0699 0 16.3335V12.3335ZM5.33333 12.3335H1.33333V16.3335H5.33333V12.3335Z"
          fill="currentColor"/>
    <path fill-rule="evenodd" clip-rule="evenodd"
          d="M9.33333 14.3335C9.33333 13.9653 9.63181 13.6668 10 13.6668H19.3333C19.7015 13.6668 20 13.9653 20 14.3335C20 14.7017 19.7015 15.0002 19.3333 15.0002H10C9.63181 15.0002 9.33333 14.7017 9.33333 14.3335Z"
          fill="currentColor"/>
</svg>
