<svg fill="none" height="48" viewBox="0 0 48 48" width="48" xmlns="http://www.w3.org/2000/svg">
    <path clip-rule="evenodd"
          d="M24 31C22.043 31 20.1638 30.591 18.4158 29.8388L21.1755 28.2455C21.9942 28.7853 22.9625 29.0975 24 29.0975C26.9273 29.0975 29.3026 26.6138 29.3236 23.5411L34.536 20.5318C35.437 21.416 36.2628 22.411 37 23.5C33.8985 28.0822 29.2267 31 24 31ZM24 17.9025C25.1905 17.9025 26.2897 18.3133 27.1763 19.0074L30.0279 17.361C28.1556 16.4817 26.1236 16 24 16C18.7729 16 14.1015 18.9182 11 23.5C11.8173 24.7076 12.7437 25.7995 13.7606 26.753L18.6901 23.9069C18.6809 23.7725 18.6763 23.6368 18.6763 23.5C18.6763 20.4084 21.0603 17.9025 24 17.9025ZM34.5167 16.5L12 29.5L13 31.2321L35.5167 18.2321L34.5167 16.5Z"
          fill="currentColor"
          fill-rule="evenodd" />
</svg>
