<svg width="48" height="48" viewBox="0 0 48 48" fill="none" xmlns="http://www.w3.org/2000/svg">
    <path d="M31.1353 34.9998L20.8299 25.7672C20.6518 25.6264 20.4279 25.5494 20.1969 25.5494C19.9659 25.5494 19.7421 25.6264 19.564 25.7672L12.0276 30.952M29.22 25.549C28.488 25.549 27.786 25.2708 27.2684 24.7757C26.7508 24.2807 26.4601 23.6092 26.4601 22.909C26.4601 22.2089 26.7508 21.5374 27.2684 21.0423C27.786 20.5473 28.488 20.2691 29.22 20.2691C29.9519 20.2691 30.6539 20.5473 31.1715 21.0423C31.6891 21.5374 31.9799 22.2089 31.9799 22.909C31.9799 23.6092 31.6891 24.2807 31.1715 24.7757C30.6539 25.2708 29.9519 25.549 29.22 25.549Z" stroke="currentColor" stroke-width="2" stroke-linecap="round" stroke-linejoin="round"/>
    <path d="M12 33.2401V14.7607C12 14.2939 12.1939 13.8463 12.5389 13.5162C12.884 13.1862 13.352 13.0007 13.8399 13.0007H20.6293C21.0496 12.989 21.4614 13.1154 21.7962 13.3587C22.131 13.6021 22.3685 13.9478 22.4692 14.3383L23.0396 16.5206H34.0793C34.5672 16.5206 35.0352 16.706 35.3803 17.0361C35.7253 17.3662 35.9192 17.8138 35.9192 18.2806V33.2401C35.9192 33.7068 35.7253 34.1545 35.3803 34.4845C35.0352 34.8146 34.5672 35 34.0793 35H13.8399C13.352 35 12.884 34.8146 12.5389 34.4845C12.1939 34.1545 12 33.7068 12 33.2401Z" stroke="currentColor" stroke-width="2" stroke-linecap="round" stroke-linejoin="round"/>
</svg>
