<svg fill="none" height="24" viewBox="0 0 24 24" width="24" xmlns="http://www.w3.org/2000/svg">
    <path
        d="M17.9748 20.9992L9.90997 13.4455C9.7706 13.3303 9.59544 13.2673 9.41464 13.2673C9.23384 13.2673 9.05868 13.3303 8.91931 13.4455L3.02148 17.6875M16.4759 13.267C15.9031 13.267 15.3537 13.0394 14.9487 12.6344C14.5436 12.2293 14.3161 11.6799 14.3161 11.1071C14.3161 10.5343 14.5436 9.98492 14.9487 9.57987C15.3537 9.17482 15.9031 8.94727 16.4759 8.94727C17.0487 8.94727 17.5981 9.17482 18.0032 9.57987C18.4082 9.98492 18.6358 10.5343 18.6358 11.1071C18.6358 11.6799 18.4082 12.2293 18.0032 12.6344C17.5981 13.0394 17.0487 13.267 16.4759 13.267Z"
        stroke="currentColor" stroke-linecap="round" stroke-linejoin="round" stroke-width="1.5" />
    <path
        d="M3 19.5595V4.44051C3 4.05863 3.1517 3.69238 3.42174 3.42235C3.69177 3.15231 4.05801 3.00061 4.4399 3.00061H9.75313C10.0821 2.99103 10.4043 3.0944 10.6663 3.29351C10.9283 3.49262 11.1142 3.77546 11.193 4.09493L11.6394 5.88041H20.2788C20.6607 5.88041 21.0269 6.03211 21.297 6.30215C21.567 6.57218 21.7187 6.93843 21.7187 7.32031V19.5595C21.7187 19.9413 21.567 20.3076 21.297 20.5776C21.0269 20.8477 20.6607 20.9994 20.2788 20.9994H4.4399C4.05801 20.9994 3.69177 20.8477 3.42174 20.5776C3.1517 20.3076 3 19.9413 3 19.5595Z"
        stroke="currentColor" stroke-linecap="round" stroke-linejoin="round" stroke-width="1.5" />
</svg>
