<svg fill="none" height="32" viewBox="0 0 23 32" width="23" xmlns="http://www.w3.org/2000/svg">
    <path
        d="M16.7464 21.0011H6.00068C5.67225 21.0011 5.40601 20.743 5.40601 20.4246C5.40601 20.1062 5.67225 19.8481 6.00068 19.8481H16.7642C17.0927 19.8481 17.3589 20.1062 17.3589 20.4246C17.3589 20.743 17.0927 21.0011 16.7642 21.0011H16.7464Z"
        fill="#AEBEC9" />
    <path
        d="M12.8335 6.6699H9.63415C8.93964 6.65738 8.38251 6.10961 8.37939 5.43626V4.24297C8.37939 3.9246 8.64564 3.6665 8.97407 3.6665C9.30249 3.6665 9.56874 3.9246 9.56874 4.24297V5.43626C9.57187 5.48175 9.61091 5.51706 9.65794 5.51696H12.8573C12.9032 5.51696 12.9405 5.48083 12.9405 5.43626V4.24297C12.9405 3.9246 13.2068 3.6665 13.5352 3.6665C13.8636 3.6665 14.1299 3.9246 14.1299 4.24297V5.43626C14.1299 5.76747 13.9926 6.0848 13.7488 6.31683C13.5049 6.54885 13.1751 6.67609 12.8335 6.6699Z"
        fill="#AEBEC9" />
    <path
        d="M21.7892 31.9712C21.4608 31.9712 21.1946 31.7131 21.1946 31.3947V3.51099C21.1653 2.1528 20.0089 1.07308 18.6077 1.09559H4.2167C2.81551 1.07308 1.65915 2.1528 1.62988 3.51099V31.4235C1.54966 31.6601 1.32182 31.82 1.06494 31.82C0.808056 31.82 0.580211 31.6601 0.5 31.4235V3.51099C0.512536 2.56764 0.911178 1.66777 1.60821 1.00937C2.30525 0.35097 3.24356 -0.0120075 4.2167 0.000303227H18.6375C20.6626 -0.022141 22.3248 1.54791 22.3542 3.51099V31.4235C22.3392 31.7198 22.0948 31.9567 21.7892 31.9712Z"
        fill="black" />
    <path clip-rule="evenodd"
          d="M3.78266 24.3504H19.0479C19.365 24.3508 19.6267 24.1098 19.6425 23.8028V3.93194C19.6425 3.61356 19.3763 3.35547 19.0479 3.35547H3.78266C3.45423 3.35547 3.18799 3.61356 3.18799 3.93194V23.7739C3.17735 23.9298 3.23658 24.0825 3.35049 24.1929C3.4644 24.3033 3.62192 24.3607 3.78266 24.3504ZM18.4886 23.2551H4.34736V4.47384H18.4886V23.2551Z"
          fill="black"
          fill-rule="evenodd" />
    <path clip-rule="evenodd"
          d="M8.32791 30.0776C8.82739 31.2435 10.0027 32.0025 11.305 32.0002C12.1567 32.0002 12.9735 31.6722 13.5757 31.0884C14.1779 30.5046 14.5162 29.7128 14.5162 28.8872C14.5186 27.6248 13.7357 26.4855 12.533 26.0013C11.3302 25.5171 9.94504 25.7835 9.02417 26.6762C8.1033 27.5689 7.82843 28.9117 8.32791 30.0776ZM9.4272 28.131C9.74294 27.3966 10.4842 26.9192 11.3049 26.9215C12.4225 26.9247 13.3268 27.8038 13.3268 28.8872C13.3268 29.6828 12.8321 30.4 12.0736 30.7039C11.3151 31.0078 10.4424 30.8386 9.86296 30.2752C9.28347 29.7118 9.11145 28.8653 9.4272 28.131Z"
          fill="#AEBEC9"
          fill-rule="evenodd" />
    <path clip-rule="evenodd"
          d="M3.11208 29.6835C3.44784 30.4524 4.2296 30.9485 5.09091 30.9392C6.25178 30.9265 7.18692 30.0123 7.1901 28.8869C7.19246 28.0519 6.67413 27.2983 5.87809 26.9794C5.08206 26.6604 4.16611 26.8393 3.55962 27.4322C2.95313 28.0252 2.77632 28.9146 3.11208 29.6835ZM4.21165 28.5244C4.36368 28.187 4.71135 27.9726 5.09099 27.982C5.59731 27.9945 6.001 28.396 6.00084 28.887C6.00071 29.2551 5.77058 29.5865 5.41878 29.7251C5.06697 29.8638 4.6636 29.782 4.39856 29.5184C4.13352 29.2547 4.05962 28.8617 4.21165 28.5244Z"
          fill="#AEBEC9"
          fill-rule="evenodd" />
    <path clip-rule="evenodd"
          d="M15.5599 29.8862C15.8903 30.6551 16.6663 31.155 17.5255 31.1526C18.6956 31.1495 19.6425 30.229 19.6425 29.0947C19.6425 28.2618 19.1246 27.511 18.3306 27.1928C17.5365 26.8746 16.6229 27.0517 16.0162 27.6415C15.4096 28.2313 15.2294 29.1174 15.5599 29.8862ZM16.658 28.7515C16.8041 28.4128 17.1467 28.1932 17.5254 28.1955C17.7714 28.1955 18.0074 28.2903 18.1814 28.4589C18.3553 28.6276 18.4531 28.8563 18.4531 29.0948C18.4555 29.4619 18.2289 29.794 17.8795 29.9356C17.5301 30.0772 17.1271 30.0001 16.8593 29.7405C16.5915 29.4809 16.512 29.0903 16.658 28.7515Z"
          fill="#AEBEC9"
          fill-rule="evenodd" />
</svg>
