<svg width="48" height="48" viewBox="0 0 48 48" fill="none" xmlns="http://www.w3.org/2000/svg">
    <path
        d="M37.0889 12.139C37.3114 12.3618 37.3371 12.7143 37.149 12.9669L35.9198 14.6159C35.8946 14.6497 35.8561 14.6716 35.8142 14.676C35.3241 14.7275 34.8665 14.9456 34.518 15.294L27.812 22C27.654 22.1576 27.3982 22.1577 27.2402 22C27.0823 21.842 27.0818 21.5856 27.2395 21.4275L33.8841 14.783C34.2394 14.4276 34.4869 13.9791 34.5981 13.489C34.6338 13.3318 34.7259 13.1928 34.8564 13.0981L36.2671 12.0741C36.5197 11.8908 36.8682 11.9183 37.0889 12.139Z"
        fill="currentColor"/>
    <path
        d="M35.8046 11.1826C36.3987 10.8289 37.1542 10.8884 37.6854 11.331L37.7958 11.4316C38.3686 12.0051 38.4357 12.9136 37.9511 13.5644L36.7216 15.2138C36.5296 15.4713 36.2382 15.6372 35.9188 15.6708C35.6564 15.6984 35.4109 15.8146 35.2245 16.0009L27.7265 23.5C27.1785 24.0466 25.7392 21.5137 25.7392 21.5137L33.1767 14.0761C33.3986 13.8541 33.5535 13.5736 33.623 13.2675L33.663 13.122C33.7717 12.7876 33.9837 12.4958 34.2685 12.289L35.6796 11.2646L35.8046 11.1826Z"
        fill="currentColor"/>
    <path
        d="M25.0929 29.4129L17.7609 38.0271C16.1263 39.9479 13.2013 40.065 11.4181 38.282C9.62965 36.4936 9.75292 33.5577 11.6867 31.9266L20.6535 24.367L25.0929 29.4129ZM12.9757 33.4549C11.9378 34.3304 11.8715 35.9073 12.8322 36.868C13.7898 37.8253 15.3599 37.7621 16.2374 36.7312L22.4474 29.4334L20.4454 27.158L12.9757 33.4549Z"
        fill="currentColor"/>
    <mask id="mask0_2_38" style="mask-type:luminance" maskUnits="userSpaceOnUse" x="9" y="9" width="30" height="30">
        <path fill-rule="evenodd" clip-rule="evenodd"
              d="M11.3049 22.434C8.80794 19.937 8.33975 16.1795 9.90033 13.2098C10.106 12.8184 10.6282 12.7684 10.9408 13.081L15.4539 17.5942C15.4674 17.6076 15.4892 17.6076 15.5027 17.5942L17.5941 15.5027C17.6076 15.4892 17.6076 15.4674 17.5941 15.454L13.081 10.9408C12.7684 10.6282 12.8184 10.106 13.2098 9.90034C16.1795 8.33974 19.937 8.80793 22.434 11.3049C24.5418 13.4127 25.2039 16.4188 24.4204 19.091C24.4132 19.1153 24.406 19.1397 24.3986 19.164L37.4596 30.9507C39.3535 32.6599 39.4291 35.6071 37.6251 37.4111C35.8211 39.2151 32.8739 39.1395 31.1647 37.2456L19.4783 24.2958C19.4733 24.2976 19.4684 24.2993 19.4634 24.301C16.7018 25.2627 13.5112 24.6404 11.3049 22.434Z"
              fill="white"/>
    </mask>
    <g mask="url(#mask0_2_38)">
        <path
            d="M24.3986 19.164L22.485 18.5826L22.1158 19.7978L23.0587 20.6487L24.3986 19.164ZM19.4783 24.2958L20.9631 22.9559L20.072 21.9684L18.8168 22.4084L19.4783 24.2958ZM8.12993 12.2795C6.17355 16.0023 6.75699 20.7145 9.89072 23.8482L12.7191 21.0198C10.8589 19.1595 10.5059 16.3568 11.6707 14.1402L8.12993 12.2795ZM12.355 11.6668C11.2078 10.5196 9.03876 10.55 8.12993 12.2795L11.6707 14.1402C11.1733 15.0868 10.0485 15.0172 9.52663 14.4953L12.355 11.6668ZM16.8681 16.18L12.355 11.6668L9.52663 14.4953L14.0397 19.0084L16.8681 16.18ZM14.0885 16.18C14.8561 15.4123 16.1006 15.4124 16.8681 16.18L14.0397 19.0084C14.8342 19.8029 16.1224 19.8029 16.9169 19.0084L14.0885 16.18ZM16.1799 14.0885L14.0885 16.18L16.9169 19.0084L19.0084 16.9169L16.1799 14.0885ZM16.1799 16.8681C15.4123 16.1005 15.4124 14.856 16.1799 14.0885L19.0084 16.9169C19.8028 16.1224 19.8029 14.8343 19.0084 14.0398L16.1799 16.8681ZM11.6668 12.355L16.1799 16.8681L19.0084 14.0398L14.4952 9.52662L11.6668 12.355ZM12.2794 8.12992C10.55 9.03876 10.5196 11.2078 11.6668 12.355L14.4952 9.52662C15.0172 10.0486 15.0868 11.1733 14.1402 11.6708L12.2794 8.12992ZM23.8482 9.8907C20.7145 6.75699 16.0022 6.17354 12.2794 8.12992L14.1402 11.6708C16.3567 10.5059 19.1595 10.8589 21.0198 12.7191L23.8482 9.8907ZM26.3396 19.6537C27.3206 16.3081 26.4936 12.5361 23.8482 9.8907L21.0198 12.7191C22.59 14.2893 23.0873 16.5295 22.5012 18.5282L26.3396 19.6537ZM26.3122 19.7453C26.3215 19.7148 26.3306 19.6843 26.3396 19.6537L22.5012 18.5282C22.4959 18.5463 22.4905 18.5645 22.485 18.5826L26.3122 19.7453ZM23.0587 20.6487L36.1196 32.4355L38.7995 29.4659L25.7385 17.6792L23.0587 20.6487ZM36.1196 32.4355C37.1637 33.3777 37.2054 35.0024 36.2109 35.9969L39.0393 38.8253C41.6528 36.2119 41.5434 31.9421 38.7995 29.4659L36.1196 32.4355ZM36.2109 35.9969C35.2164 36.9914 33.5917 36.9497 32.6495 35.9056L29.6799 38.5855C32.1561 41.3294 36.4259 41.4388 39.0393 38.8253L36.2109 35.9969ZM32.6495 35.9056L20.9631 22.9559L17.9936 25.6357L29.6799 38.5855L32.6495 35.9056ZM20.1211 26.1898C20.1273 26.1876 20.1336 26.1854 20.1399 26.1832L18.8168 22.4084C18.8131 22.4097 18.8094 22.411 18.8056 22.4123L20.1211 26.1898ZM9.89072 23.8482C12.6599 26.6174 16.6626 27.3941 20.1211 26.1898L18.8056 22.4123C16.7409 23.1313 14.3626 22.6633 12.7191 21.0198L9.89072 23.8482Z"
            fill="currentColor"/>
    </g>
</svg>
