<svg width="48" height="48" viewBox="0 0 48 48" fill="none" xmlns="http://www.w3.org/2000/svg">
    <g clip-path="url(#clip0_3_2)">
        <path d="M37.5329 10.3174C37.9152 10.6996 37.9597 11.3045 37.637 11.7381L36.406 13.3879C36.305 13.5231 36.1521 13.6113 35.9843 13.6289C35.5979 13.6697 35.2375 13.8424 34.9628 14.1171L22.5286 26.5512C22.193 26.8868 21.6468 26.8868 21.3113 26.5512C20.976 26.2156 20.9773 25.6708 21.3128 25.3353L33.6851 12.963C33.9799 12.6683 34.1849 12.2952 34.2772 11.8888C34.3372 11.6241 34.493 11.3899 34.7127 11.2304L36.1228 10.2059C36.5564 9.89132 37.1542 9.9387 37.5329 10.3174Z"
              fill="currentColor" stroke="currentColor" stroke-width="0.5"/>
        <path d="M12.1611 30.8428C10.4714 32.2676 10.3635 34.8332 11.9261 36.3962C13.4842 37.9543 16.0409 37.8528 17.4689 36.1748L24.4957 27.9183L20.7202 23.6276L12.1611 30.8428Z"
              fill="currentColor" stroke="black" stroke-width="0.5"/>
        <path fill-rule="evenodd" clip-rule="evenodd"
              d="M11.4285 20.934C8.93151 18.437 8.46332 14.6795 10.0239 11.7098C10.2296 11.3184 10.7518 11.2684 11.0644 11.581L15.5775 16.0942C15.591 16.1076 15.6128 16.1076 15.6263 16.0942L17.7177 14.0027C17.7312 13.9892 17.7312 13.9674 17.7177 13.9539L13.2046 9.44084C12.892 9.12818 12.942 8.60603 13.3334 8.40035C16.3031 6.83974 20.0606 7.30793 22.5576 9.80492C24.6655 11.9127 25.3276 14.9188 24.5439 17.591C24.5369 17.6153 24.5295 17.6396 24.5221 17.664L37.5831 29.4506C39.4772 31.1599 39.5527 34.1071 37.7487 35.9112C35.9448 37.7151 32.9976 37.6396 31.2884 35.7456L19.6019 22.7959C19.5969 22.7976 19.592 22.7993 19.587 22.8011C16.8254 23.7626 13.6349 23.1404 11.4285 20.934Z"
              fill="currentColor"/>
        <mask id="mask0_3_2" style="mask-type:luminance" maskUnits="userSpaceOnUse" x="9" y="7" width="31" height="31">
            <path fill-rule="evenodd" clip-rule="evenodd"
                  d="M11.4285 20.934C8.93151 18.437 8.46332 14.6795 10.0239 11.7098C10.2296 11.3184 10.7518 11.2684 11.0644 11.581L15.5775 16.0942C15.591 16.1076 15.6128 16.1076 15.6263 16.0942L17.7177 14.0027C17.7312 13.9892 17.7312 13.9674 17.7177 13.9539L13.2046 9.44084C12.892 9.12818 12.942 8.60603 13.3334 8.40035C16.3031 6.83974 20.0606 7.30793 22.5576 9.80492C24.6655 11.9127 25.3276 14.9188 24.5439 17.591C24.5369 17.6153 24.5295 17.6396 24.5221 17.664L37.5831 29.4506C39.4772 31.1599 39.5527 34.1071 37.7487 35.9112C35.9448 37.7151 32.9976 37.6396 31.2884 35.7456L19.6019 22.7959C19.5969 22.7976 19.592 22.7993 19.587 22.8011C16.8254 23.7626 13.6349 23.1404 11.4285 20.934Z"
                  fill="currentColor"/>
        </mask>
        <g mask="url(#mask0_3_2)">
            <path d="M24.5221 17.664L23.4783 17.3469L23.2769 18.0097L23.7914 18.4738L24.5221 17.664ZM19.6019 22.7959L20.4118 22.0649L19.9257 21.5263L19.241 21.7663L19.6019 22.7959ZM9.05824 11.2023C7.28176 14.5828 7.81281 18.8611 10.6571 21.7054L12.1999 20.1626C10.0502 18.0129 9.64488 14.7762 10.9896 12.2173L9.05824 11.2023ZM11.8358 10.8097C11.0679 10.0418 9.64746 10.0811 9.05824 11.2023L10.9896 12.2173C10.9131 12.3629 10.7662 12.4495 10.6281 12.4653C10.4987 12.4801 10.376 12.4354 10.293 12.3524L11.8358 10.8097ZM16.3489 15.3228L11.8358 10.8097L10.293 12.3524L14.8061 16.8656L16.3489 15.3228ZM14.8549 15.3228C15.2674 14.9102 15.9363 14.9102 16.3489 15.3228L14.8061 16.8656C15.2457 17.3051 15.9582 17.305 16.3977 16.8655L14.8549 15.3228ZM16.9464 13.2313L14.8549 15.3228L16.3977 16.8655L18.4891 14.7741L16.9464 13.2313ZM16.9464 14.7253C16.5338 14.3128 16.5338 13.6439 16.9464 13.2313L18.4891 14.7741C18.9286 14.3346 18.9286 13.6221 18.4891 13.1826L16.9464 14.7253ZM12.4332 10.2122L16.9464 14.7253L18.4891 13.1826L13.976 8.66945L12.4332 10.2122ZM12.8259 7.43465C11.7047 8.02388 11.6654 9.44433 12.4332 10.2122L13.976 8.66945C14.059 8.75241 14.1036 8.87509 14.0888 9.00452C14.073 9.14263 13.9865 9.2895 13.8409 9.36602L12.8259 7.43465ZM23.3289 9.03351C20.4847 6.18923 16.2064 5.65817 12.8259 7.43465L13.8409 9.36602C16.3998 8.0213 19.6365 8.42662 21.7862 10.5763L23.3289 9.03351ZM25.5908 17.8979C26.482 14.8584 25.73 11.4346 23.3289 9.03351L21.7862 10.5763C23.6007 12.3909 24.173 14.9792 23.4971 17.284L25.5908 17.8979ZM25.5659 17.9811C25.5744 17.9534 25.5827 17.9257 25.5908 17.8979L23.4971 17.284C23.491 17.305 23.4847 17.3259 23.4783 17.3469L25.5659 17.9811ZM23.7914 18.4738L36.8522 30.2605L38.314 28.6407L25.253 16.8541L23.7914 18.4738ZM36.8522 30.2605C38.2826 31.5515 38.3398 33.7774 36.9772 35.1397L38.52 36.6825C40.7655 34.4369 40.6715 30.7684 38.314 28.6407L36.8522 30.2605ZM36.9772 35.1397C35.6149 36.502 33.389 36.4451 32.0983 35.0147L30.4785 36.4765C32.606 38.834 36.2747 38.928 38.52 36.6825L36.9772 35.1397ZM32.0983 35.0147L20.4118 22.0649L18.7921 23.5268L30.4785 36.4765L32.0983 35.0147ZM19.9457 23.8313C19.9513 23.8294 19.957 23.8274 19.9628 23.8252L19.241 21.7663C19.2369 21.7678 19.2326 21.7693 19.2282 21.7708L19.9457 23.8313ZM10.6571 21.7054C13.1705 24.2188 16.804 24.9253 19.9457 23.8313L19.2282 21.7708C16.8467 22.6001 14.0992 22.0619 12.1999 20.1626L10.6571 21.7054Z"
                  fill="black"/>
        </g>
    </g>
    <defs>
        <clipPath id="clip0_3_2">
            <rect width="48" height="48" fill="currentColor"/>
        </clipPath>
    </defs>
</svg>
