<svg width="48" height="48" viewBox="0 0 22 22" fill="none" xmlns="http://www.w3.org/2000/svg">
    <path
        d="M17.2031 4.72856C17.3566 4.88204 17.391 5.11369 17.2977 5.30239L17.2508 5.37973L16.6866 6.13587C16.6519 6.1823 16.6041 6.21637 16.5499 6.23392L16.4933 6.24635C16.3162 6.26503 16.151 6.34419 16.0251 6.47008L10.3261 12.1691C10.1723 12.3229 9.92195 12.3229 9.76815 12.1691C9.6145 12.0152 9.61509 11.7656 9.76884 11.6118L15.4395 5.94114C15.5409 5.8397 15.6195 5.7179 15.6701 5.58482L15.7109 5.44878C15.7315 5.35788 15.7772 5.27512 15.8407 5.20848L15.9104 5.14702L16.5568 4.67746C16.7555 4.53327 17.0295 4.55499 17.2031 4.72856Z"
        fill="currentColor" stroke="currentColor" stroke-width="0.5"/>
    <path
        d="M5.57433 14.1355C4.7999 14.7885 4.75041 15.9645 5.46661 16.6808C6.13621 17.3504 7.20802 17.3513 7.87864 16.7147L8.00708 16.5793L11.2277 12.7952L9.49725 10.8286L5.57433 14.1355Z"
        fill="currentColor" stroke="black" stroke-width="0.5"/>
    <mask id="path-3-inside-1_5008_6122" fill="white">
        <path fill-rule="evenodd" clip-rule="evenodd"
              d="M5.23806 9.59475C4.09361 8.4503 3.87902 6.72811 4.5943 5.36701C4.68857 5.18761 4.92789 5.16468 5.07119 5.30798L7.1397 7.37649C7.14587 7.38266 7.15587 7.38266 7.16204 7.37649L8.12063 6.4179C8.1268 6.41173 8.1268 6.40173 8.12063 6.39556L6.05212 4.32705C5.90882 4.18375 5.93175 3.94443 6.11115 3.85016C7.47225 3.13488 9.19445 3.34947 10.3389 4.49392C11.305 5.46 11.6085 6.83779 11.2493 8.06252C11.2461 8.07369 11.2427 8.08484 11.2393 8.09598L17.2256 13.4982C18.0937 14.2816 18.1283 15.6324 17.3015 16.4593C16.4747 17.2861 15.1239 17.2515 14.3405 16.3834L8.98422 10.4481C8.98193 10.4489 8.97965 10.4497 8.97736 10.4505C7.71164 10.8912 6.24931 10.606 5.23806 9.59475Z"/>
    </mask>
    <path fill-rule="evenodd" clip-rule="evenodd"
          d="M5.23806 9.59475C4.09361 8.4503 3.87902 6.72811 4.5943 5.36701C4.68857 5.18761 4.92789 5.16468 5.07119 5.30798L7.1397 7.37649C7.14587 7.38266 7.15587 7.38266 7.16204 7.37649L8.12063 6.4179C8.1268 6.41173 8.1268 6.40173 8.12063 6.39556L6.05212 4.32705C5.90882 4.18375 5.93175 3.94443 6.11115 3.85016C7.47225 3.13488 9.19445 3.34947 10.3389 4.49392C11.305 5.46 11.6085 6.83779 11.2493 8.06252C11.2461 8.07369 11.2427 8.08484 11.2393 8.09598L17.2256 13.4982C18.0937 14.2816 18.1283 15.6324 17.3015 16.4593C16.4747 17.2861 15.1239 17.2515 14.3405 16.3834L8.98422 10.4481C8.98193 10.4489 8.97965 10.4497 8.97736 10.4505C7.71164 10.8912 6.24931 10.606 5.23806 9.59475Z"
          fill="currentColor"/>
    <path
        d="M4.5943 5.36701L5.0369 5.5996L5.0369 5.5996L4.5943 5.36701ZM5.23806 9.59475L5.59161 9.2412H5.59161L5.23806 9.59475ZM5.07119 5.30798L5.42474 4.95443L5.07119 5.30798ZM7.1397 7.37649L6.78615 7.73005L7.1397 7.37649ZM8.12063 6.39556L7.76708 6.74911L8.12063 6.39556ZM6.05212 4.32705L6.40567 3.9735L6.05212 4.32705ZM6.11115 3.85016L6.34374 4.29276L6.34374 4.29276L6.11115 3.85016ZM10.3389 4.49392L9.98534 4.84747V4.84747L10.3389 4.49392ZM11.2493 8.06252L11.7291 8.20322L11.7291 8.20321L11.2493 8.06252ZM11.2393 8.09598L10.7609 7.95064L10.6686 8.25445L10.9044 8.46718L11.2393 8.09598ZM17.2256 13.4982L16.8906 13.8694L17.2256 13.4982ZM14.3405 16.3834L13.9693 16.7184L14.3405 16.3834ZM8.98422 10.4481L9.35542 10.1131L9.13263 9.86622L8.81881 9.97623L8.98422 10.4481ZM8.97736 10.4505L9.14179 10.9227L9.1418 10.9227L8.97736 10.4505ZM4.15169 5.13441C3.33747 6.6838 3.58087 8.64468 4.8845 9.94831L5.59161 9.2412C4.60635 8.25593 4.42057 6.77243 5.0369 5.5996L4.15169 5.13441ZM5.42474 4.95443C5.0728 4.60248 4.42175 4.62051 4.15169 5.13441L5.0369 5.5996C5.00183 5.66635 4.93451 5.706 4.87121 5.71324C4.81189 5.72003 4.75566 5.69955 4.71764 5.66153L5.42474 4.95443ZM7.49326 7.02294L5.42474 4.95443L4.71764 5.66153L6.78615 7.73005L7.49326 7.02294ZM6.80849 7.02294C6.99757 6.83385 7.30415 6.83384 7.49326 7.02294L6.78615 7.73005C6.98759 7.93149 7.31417 7.93147 7.51559 7.73004L6.80849 7.02294ZM7.76708 6.06435L6.80849 7.02294L7.51559 7.73004L8.47419 6.77145L7.76708 6.06435ZM7.76708 6.74911C7.57799 6.56002 7.57799 6.25344 7.76708 6.06435L8.47419 6.77145C8.67562 6.57002 8.67562 6.24344 8.47419 6.04201L7.76708 6.74911ZM5.69857 4.6806L7.76708 6.74911L8.47419 6.04201L6.40567 3.9735L5.69857 4.6806ZM5.87855 3.40755C5.36465 3.67761 5.34662 4.32865 5.69857 4.6806L6.40567 3.9735C6.44369 4.01152 6.46417 4.06775 6.45738 4.12707C6.45014 4.19037 6.41049 4.25769 6.34374 4.29276L5.87855 3.40755ZM10.6924 4.14036C9.38882 2.83673 7.42794 2.59333 5.87855 3.40755L6.34374 4.29276C7.51657 3.67643 9.00007 3.8622 9.98534 4.84747L10.6924 4.14036ZM11.7291 8.20321C12.1376 6.8101 11.7929 5.24085 10.6924 4.14036L9.98534 4.84747C10.817 5.67916 11.0793 6.86547 10.7695 7.92183L11.7291 8.20321ZM11.7177 8.24133C11.7216 8.22863 11.7254 8.21593 11.7291 8.20322L10.7695 7.92183C10.7667 7.93145 10.7638 7.94105 10.7609 7.95064L11.7177 8.24133ZM10.9044 8.46718L16.8906 13.8694L17.5606 13.127L11.5743 7.72479L10.9044 8.46718ZM16.8906 13.8694C17.5462 14.4611 17.5724 15.4813 16.9479 16.1057L17.655 16.8128C18.6842 15.7836 18.6411 14.1022 17.5606 13.127L16.8906 13.8694ZM16.9479 16.1057C16.3235 16.7301 15.3033 16.704 14.7117 16.0484L13.9693 16.7184C14.9444 17.7989 16.6259 17.842 17.655 16.8128L16.9479 16.1057ZM14.7117 16.0484L9.35542 10.1131L8.61303 10.7831L13.9693 16.7184L14.7117 16.0484ZM9.1418 10.9227C9.14434 10.9218 9.14696 10.9209 9.14963 10.9199L8.81881 9.97623C8.81691 9.9769 8.81495 9.97758 8.81291 9.97829L9.1418 10.9227ZM4.8845 9.94831C6.03646 11.1003 7.70185 11.4241 9.14179 10.9227L8.81292 9.97829C7.72143 10.3584 6.46215 10.1117 5.59161 9.2412L4.8845 9.94831Z"
        fill="black" mask="url(#path-3-inside-1_5008_6122)"/>
</svg>
