<svg width="48" height="48" viewBox="0 0 48 48" fill="none" xmlns="http://www.w3.org/2000/svg">
    <path fill-rule="evenodd" clip-rule="evenodd"
          d="M28.5815 9.74969C25.3926 8.69633 21.9435 8.75444 18.7915 9.91461C15.6395 11.0748 12.9687 13.2693 11.2106 16.1435C9.45253 19.0178 8.70983 22.4039 9.10253 25.7548C9.49523 29.1057 11.0003 32.2256 13.3747 34.6106C15.7491 36.9955 18.8541 38.5061 22.188 38.8983C25.522 39.2905 28.8901 38.5414 31.7482 36.7721C34.6064 35.0027 36.7876 32.3165 37.9394 29.1473C38.128 28.6285 37.8624 28.0544 37.3464 27.8648C36.8303 27.6753 36.2591 27.9422 36.0705 28.461C35.0723 31.2076 33.1818 33.5357 30.7048 35.0691C28.2278 36.6026 25.3087 37.2518 22.4193 36.9119C19.5299 36.5719 16.8389 35.2628 14.7811 33.1958C12.7233 31.1289 11.4188 28.4249 11.0785 25.5208C10.7382 22.6167 11.3819 19.6821 12.9056 17.1911C14.4292 14.7001 16.7439 12.7982 19.4757 11.7927C22.2074 10.7872 25.1966 10.7368 27.9603 11.6498C30.1009 12.3568 32.0094 13.6098 33.5074 15.2718H31.0284C30.479 15.2718 30.0336 15.7195 30.0336 16.2718C30.0336 16.8241 30.479 17.2718 31.0284 17.2718H35.5363C36.0858 17.2718 36.5312 16.8241 36.5312 16.2718V11.5C36.5312 10.9477 36.0858 10.5 35.5363 10.5C34.9869 10.5 34.5415 10.9477 34.5415 11.5V13.4609C32.8858 11.7754 30.8462 10.4978 28.5815 9.74969Z"
          fill="currentColor"/>
</svg>
