<svg width="20" height="20" viewBox="0 0 20 20" fill="none" xmlns="http://www.w3.org/2000/svg">
    <path fill-rule="evenodd" clip-rule="evenodd"
          d="M8.28614 0.758049L8.05594 0.623291L7.79632 0.684519C6.78359 0.923356 5.83313 1.32299 4.97347 1.85471L4.74674 1.99495L4.67922 2.25286L4.17551 4.17703L2.2518 4.68118L1.99387 4.74877L1.8537 4.97558C1.32371 5.83314 0.925078 6.78108 0.686421 7.79111L0.625091 8.05067L0.759706 8.28091L1.76485 10L0.759661 11.7187L0.625 11.949L0.686326 12.2086C0.924972 13.2188 1.32364 14.1669 1.8537 15.0245L1.99387 15.2513L2.2518 15.3189L4.17548 15.8231L4.67858 17.7467L4.74605 18.0047L4.97282 18.145C5.83265 18.6769 6.78333 19.0767 7.79632 19.3156L8.05594 19.3768L8.28614 19.2421L10.0018 18.2377L11.7174 19.2421L11.9476 19.3768L12.2072 19.3156C13.2202 19.0767 14.1709 18.6769 15.0307 18.145L15.2575 18.0047L15.325 17.7467L15.8281 15.8231L17.7512 15.3196L18.0092 15.252L18.1494 15.0252C18.6797 14.1673 19.0785 13.219 19.3172 12.2086L19.3785 11.949L19.2439 11.7187L18.2387 10.0001L19.2439 8.28163L19.3786 8.05137L19.3173 7.79176C19.0786 6.78123 18.6797 5.83284 18.1494 4.97493L18.0092 4.74808L17.7512 4.68053L15.828 4.17701L15.3243 2.25286L15.2568 1.99495L15.0301 1.85471C14.1706 1.32311 13.2204 0.923525 12.2079 0.68467L11.9483 0.623436L11.7181 0.758121L10.0018 1.76238L8.28614 0.758049ZM5.36663 4.8919L5.90004 2.85429C6.50536 2.50603 7.15885 2.23264 7.84802 2.04656L9.66492 3.11016L10.0016 3.30728L10.3384 3.11023L12.156 2.0467C12.845 2.23277 13.4983 2.50612 14.1035 2.85429L14.6369 4.89198L14.7357 5.26929L15.113 5.36808L17.1497 5.9013C17.4968 6.50503 17.7694 7.15672 17.9552 7.84394L16.8909 9.66342L16.6941 10L16.8909 10.3366L17.9552 12.1564C17.7694 12.8435 17.4967 13.4951 17.1497 14.0988L15.1129 14.632L14.7355 14.7309L14.6368 15.1083L14.104 17.1455C13.4986 17.4939 12.8449 17.7674 12.1555 17.9535L10.3386 16.8899L10.0018 16.6927L9.66498 16.8899L7.84802 17.9535C7.15866 17.7674 6.50498 17.4939 5.89952 17.1455L5.36674 15.1084L5.26806 14.731L4.89078 14.6322L2.85359 14.0983C2.50666 13.4947 2.23412 12.8433 2.04835 12.1564L3.1126 10.3367L3.30941 10.0001L3.11265 9.6636L2.04843 7.84343C2.2342 7.1566 2.50671 6.50526 2.85359 5.90183L4.8907 5.36796L5.26788 5.26911L5.36663 4.8919ZM6.81007 10.0022C6.81007 8.21305 8.24508 6.77349 10.002 6.77349C11.7588 6.77349 13.1938 8.21305 13.1938 10.0022C13.1938 11.7914 11.7588 13.2309 10.002 13.2309C8.24508 13.2309 6.81007 11.7914 6.81007 10.0022ZM10.002 5.44016C7.49679 5.44016 5.47674 7.48864 5.47674 10.0022C5.47674 12.5158 7.49679 14.5642 10.002 14.5642C12.5071 14.5642 14.5272 12.5158 14.5272 10.0022C14.5272 7.48864 12.5071 5.44016 10.002 5.44016Z"
          fill="currentColor"/>
</svg>
