<svg fill="none" height="48" viewBox="0 0 48 48" width="48" xmlns="http://www.w3.org/2000/svg">
    <path
        d="M14.75 34H11.625C11.2798 34 11 34.2798 11 34.625V35.375C11 35.7202 11.2798 36 11.625 36H14.75C15.0952 36 15.375 35.7202 15.375 35.375V34.625C15.375 34.2798 15.0952 34 14.75 34Z"
        fill="currentColor" />
    <path
        d="M21.625 34H18.5C18.1548 34 17.875 34.2798 17.875 34.625V35.375C17.875 35.7202 18.1548 36 18.5 36H21.625C21.9702 36 22.25 35.7202 22.25 35.375V34.625C22.25 34.2798 21.9702 34 21.625 34Z"
        fill="currentColor" />
    <path
        d="M28.5 34H25.375C25.0298 34 24.75 34.2798 24.75 34.625V35.375C24.75 35.7202 25.0298 36 25.375 36H28.5C28.8452 36 29.125 35.7202 29.125 35.375V34.625C29.125 34.2798 28.8452 34 28.5 34Z"
        fill="currentColor" />
    <path
        d="M35.375 34H32.25C31.9048 34 31.625 34.2798 31.625 34.625V35.375C31.625 35.7202 31.9048 36 32.25 36H35.375C35.7202 36 36 35.7202 36 35.375V34.625C36 34.2798 35.7202 34 35.375 34Z"
        fill="currentColor" />
</svg>
