<svg fill="none" height="48" viewBox="0 0 48 48" width="48" xmlns="http://www.w3.org/2000/svg">
    <path
        d="M14.75 29.75H11.625C11.2798 29.75 11 30.0298 11 30.375V35.375C11 35.7202 11.2798 36 11.625 36H14.75C15.0952 36 15.375 35.7202 15.375 35.375V30.375C15.375 30.0298 15.0952 29.75 14.75 29.75Z"
        fill="currentColor" />
    <path
        d="M21.625 23.5H18.5C18.1548 23.5 17.875 23.7798 17.875 24.125V35.375C17.875 35.7202 18.1548 36 18.5 36H21.625C21.9702 36 22.25 35.7202 22.25 35.375V24.125C22.25 23.7798 21.9702 23.5 21.625 23.5Z"
        fill="currentColor" />
    <path
        d="M28.5 17.25H25.375C25.0298 17.25 24.75 17.5298 24.75 17.875V35.375C24.75 35.7202 25.0298 36 25.375 36H28.5C28.8452 36 29.125 35.7202 29.125 35.375V17.875C29.125 17.5298 28.8452 17.25 28.5 17.25Z"
        fill="currentColor" />
    <path
        d="M35.375 11H32.25C31.9048 11 31.625 11.2798 31.625 11.625V35.375C31.625 35.7202 31.9048 36 32.25 36H35.375C35.7202 36 36 35.7202 36 35.375V11.625C36 11.2798 35.7202 11 35.375 11Z"
        fill="currentColor" />
    <path
        d="M14.6797 18C14.7922 18 14.8842 17.91 14.8842 17.8V16.8C14.8842 16.69 14.7922 16.6 14.6797 16.6H12.5332C12.4719 16.6 12.431 16.56 12.431 16.5V11.2C12.431 11.09 12.339 11 12.2266 11H11.2044C11.092 11 11 11.09 11 11.2V17.8C11 17.91 11.092 18 11.2044 18H14.6797ZM16.6422 18C16.7547 18 16.8467 17.91 16.8467 17.8V12.5C16.8467 12.44 16.8876 12.4 16.9489 12.4H18.2266C18.339 12.4 18.431 12.31 18.431 12.2V11.2C18.431 11.09 18.339 11 18.2266 11H14.0358C13.9233 11 13.8313 11.09 13.8313 11.2V12.2C13.8313 12.31 13.9233 12.4 14.0358 12.4H15.3135C15.3748 12.4 15.4157 12.44 15.4157 12.5V17.8C15.4157 17.91 15.5077 18 15.6201 18H16.6422ZM22.7956 18C22.908 18 23 17.91 23 17.8V16.8C23 16.69 22.908 16.6 22.7956 16.6H20.3731C20.3118 16.6 20.2709 16.56 20.2709 16.5V15.3C20.2709 15.24 20.3118 15.2 20.3731 15.2H22.6729C22.7853 15.2 22.8773 15.11 22.8773 15V14C22.8773 13.89 22.7853 13.8 22.6729 13.8H20.3731C20.3118 13.8 20.2709 13.76 20.2709 13.7V12.5C20.2709 12.44 20.3118 12.4 20.3731 12.4H22.7547C22.8671 12.4 22.9591 12.31 22.9591 12.2V11.2C22.9591 11.09 22.8671 11 22.7547 11H19.0443C18.9319 11 18.8399 11.09 18.8399 11.2V17.8C18.8399 17.91 18.9319 18 19.0443 18H22.7956Z"
        fill="currentColor" />
</svg>
