<svg fill="none" height="42" viewBox="0 0 42 42" width="42" xmlns="http://www.w3.org/2000/svg">
    <rect fill="currentColor" height="3.54783" rx="1.77391" width="3.54783" x="19.2261" y="7.3999" />
    <rect fill="currentColor" height="3.54783" opacity="0.1" rx="1.77391" transform="rotate(30 26.2637 8.33496)"
          width="3.54783"
          x="26.2637" y="8.33496" />
    <rect fill="currentColor" height="3.54783" opacity="0.2" rx="1.77391" transform="rotate(60 31.8906 12.6636)"
          width="3.54783"
          x="31.8906" y="12.6636" />
    <rect fill="currentColor" height="3.54783" opacity="0.3" rx="1.77391" transform="rotate(90 34.6001 19.2261)"
          width="3.54783"
          x="34.6001" y="19.2261" />
    <rect fill="currentColor" height="3.54783" opacity="0.4" rx="1.77391" transform="rotate(120 33.665 26.2637)"
          width="3.54783"
          x="33.665" y="26.2637" />
    <rect fill="currentColor" height="3.54783" opacity="0.5" rx="1.77391"
          transform="matrix(-0.866026 0.499999 -0.500001 -0.866025 29.3359 31.8911)" width="3.54783" />
    <rect fill="currentColor" height="3.54783" opacity="0.6" rx="1.77391" transform="rotate(180 22.7739 34.6001)"
          width="3.54782"
          x="22.7739" y="34.6001" />
    <rect fill="currentColor" height="3.54783" opacity="0.7" rx="1.77391" transform="rotate(-150 15.7363 33.665)"
          width="3.54783"
          x="15.7363" y="33.665" />
    <rect fill="currentColor" height="3.54783" opacity="0.8" rx="1.77391" transform="rotate(-120 10.1089 29.3359)"
          width="3.54783"
          x="10.1089" y="29.3359" />
    <rect fill="currentColor" height="3.54783" opacity="0.9" rx="1.77391" transform="rotate(-90 7.3999 22.7739)"
          width="3.54783"
          x="7.3999" y="22.7739" />
    <rect fill="currentColor" height="3.54783" rx="1.77391" transform="rotate(-60 8.33496 15.7363)" width="3.54783"
          x="8.33496"
          y="15.7363" />
    <rect fill="currentColor" height="3.54783" rx="1.77391" transform="rotate(-30 12.6636 10.1089)" width="3.54783"
          x="12.6636"
          y="10.1089" />
</svg>
