<svg width="32" height="32" viewBox="0 0 32 32" fill="none" xmlns="http://www.w3.org/2000/svg">
    <path
        d="M15.5277 6.9678C15.6364 6.74006 15.9605 6.74006 16.0692 6.9678L18.4357 11.9271C18.4794 12.0188 18.5665 12.0821 18.6672 12.0953L24.1151 12.8135C24.3652 12.8464 24.4654 13.1547 24.2824 13.3285L20.2971 17.1116C20.2234 17.1815 20.1902 17.284 20.2086 17.3838L21.2091 22.787C21.2551 23.0351 20.9928 23.2256 20.7711 23.1053L15.9415 20.4841C15.8523 20.4356 15.7446 20.4356 15.6553 20.4841L10.8258 23.1053C10.604 23.2256 10.3418 23.0351 10.3877 22.787L11.3882 17.3838C11.4067 17.284 11.3734 17.1815 11.2998 17.1116L7.31448 13.3285C7.13147 13.1547 7.23164 12.8464 7.48181 12.8135L12.9297 12.0953C13.0304 12.0821 13.1175 12.0188 13.1612 11.9271L15.5277 6.9678Z"
        stroke="currentColor" stroke-width="1.6" stroke-linecap="round" stroke-linejoin="round" fill="currentColor"/>
</svg>
