<svg fill="none" height="48" viewBox="0 0 48 48" width="48" xmlns="http://www.w3.org/2000/svg">
    <path clip-rule="evenodd"
          d="M36 28C36.5523 28 37 28.4477 37 29V35C37 36.6568 35.6569 38 34 38H14C12.3431 38 11 36.6568 11 35V29.5C11 28.9477 11.4477 28.5 12 28.5C12.5523 28.5 13 28.9477 13 29.5V35C13 35.5523 13.4477 36 14 36H34C34.5523 36 35 35.5523 35 35V29C35 28.4477 35.4477 28 36 28Z"
          fill="currentColor"
          fill-rule="evenodd" />
    <path clip-rule="evenodd"
          d="M24.2867 29C23.6731 29 23.1756 28.5178 23.1756 27.9231L23.1756 15.6196L18.8842 19.4658C18.4435 19.8796 17.74 19.8688 17.3131 19.4416C16.8861 19.0144 16.8973 18.3326 17.338 17.9188L23.5136 12.3034C23.7254 12.1046 24.0099 11.9955 24.3047 12.0001C24.5994 12.0047 24.8802 12.1227 25.0852 12.328L30.6873 17.9434C31.1141 18.3708 31.1025 19.0525 30.6616 19.4662C30.2206 19.8798 29.5172 19.8686 29.0904 19.4412L25.3978 15.7383L25.3979 27.923C25.3979 28.5178 24.9004 29 24.2867 29Z"
          fill="currentColor"
          fill-rule="evenodd" />
</svg>
