<svg width="48" height="48" viewBox="0 0 48 48" fill="none" xmlns="http://www.w3.org/2000/svg">
<mask id="mask0" mask-type="alpha" maskUnits="userSpaceOnUse" x="5" y="5" width="38" height="38">
<path d="M38 6H10C7.79086 6 6 7.79086 6 10V38C6 40.2091 7.79086 42 10 42H38C40.2091 42 42 40.2091 42 38V10C42 7.79086 40.2091 6 38 6Z" fill="white" stroke="black" stroke-width="2"/>
</mask>
<g mask="url(#mask0)">
<path fill-rule="evenodd" clip-rule="evenodd" d="M36 28C36.5523 28 37 28.4477 37 29V35C37 36.6568 35.6569 38 34 38H14C12.3431 38 11 36.6568 11 35V29.5C11 28.9477 11.4477 28.5 12 28.5C12.5523 28.5 13 28.9477 13 29.5V35C13 35.5523 13.4477 36 14 36H34C34.5523 36 35 35.5523 35 35V29C35 28.4477 35.4477 28 36 28Z" fill="#fff"/>
<path fill-rule="evenodd" clip-rule="evenodd" d="M24.2867 12C23.6731 12 23.1756 12.4821 23.1756 13.0769L23.1756 25.3804L18.8842 21.5342C18.4435 21.1203 17.74 21.1311 17.3131 21.5583C16.8861 21.9855 16.8973 22.6673 17.338 23.0811L23.5136 28.6965C23.7254 28.8953 24.0099 29.0044 24.3047 28.9998C24.5994 28.9952 24.8802 28.8773 25.0852 28.6719L30.6873 23.0566C31.1141 22.6292 31.1025 21.9474 30.6616 21.5338C30.2206 21.1202 29.5172 21.1313 29.0904 21.5587L25.3978 25.2616L25.3979 13.0769C25.3979 12.4821 24.9004 12 24.2867 12Z" fill="#fff"/>
</g>
</svg>
