<svg width="48" height="48" viewBox="0 0 48 48" fill="none" xmlns="http://www.w3.org/2000/svg">
<mask id="mask0" mask-type="alpha" maskUnits="userSpaceOnUse" x="6" y="6" width="36" height="36">
<path d="M38 6H10C7.79086 6 6 7.79086 6 10V38C6 40.2091 7.79086 42 10 42H38C40.2091 42 42 40.2091 42 38V10C42 7.79086 40.2091 6 38 6Z" fill="white"/>
</mask>
<g mask="url(#mask0)">
<path d="M37.8162 27.6041C37.759 27.4919 37.6799 27.3924 37.5837 27.3116C35.1873 25.3206 31.9223 24.7552 29.0024 25.8256C29.0054 22.2026 27.364 18.7765 24.5452 16.5223C24.2101 16.2537 23.735 16.2537 23.3998 16.5223C20.5861 18.7716 18.9451 22.1891 18.9427 25.8051C16.034 24.7639 12.7956 25.3385 10.4163 27.318C10.3201 27.3987 10.241 27.4982 10.1838 27.6104C10.0648 27.7688 10 27.962 10 28.1606C10.0052 33.1026 13.9855 37.1077 18.8971 37.1129C20.7257 37.1161 22.5097 36.5446 24 35.4783C25.491 36.5424 27.2749 37.1116 29.1029 37.1066C34.0145 37.1014 37.9948 33.0963 38 28.1542C38 27.9556 37.9352 27.7625 37.8162 27.6041ZM23.9733 18.4652C26.01 20.3701 27.1671 23.0419 27.1671 25.8399C27.1671 28.6378 26.01 31.3096 23.9733 33.2145C21.9357 31.3101 20.778 28.6382 20.778 25.8399C20.778 23.0416 21.9357 20.3696 23.9733 18.4652ZM11.8539 28.5352C13.9568 26.9509 16.7693 26.6993 19.117 27.8855C19.5343 30.3193 20.6978 32.5608 22.4446 34.2958C21.3694 34.9318 20.1443 35.2659 18.8971 35.2633C15.1466 35.2545 12.0556 32.3004 11.8539 28.5321V28.5352ZM29.1029 35.2633C27.8425 35.2651 26.6051 34.9231 25.5224 34.2737C27.2492 32.5493 28.402 30.3284 28.8217 27.9171C31.179 26.6941 34.0235 26.9335 36.1461 28.5336C35.942 32.3001 32.8517 35.2515 29.1029 35.2602V35.2633Z" fill="black"/>
<path d="M37.6685 21.8909C37.7287 21.891 37.7855 21.8629 37.8222 21.8149C37.8588 21.7668 37.8711 21.7044 37.8555 21.6459C36.1382 15.3579 30.4565 11 23.9756 11C17.4948 11 11.8131 15.3579 10.0958 21.6459C10.0808 21.7043 10.0934 21.7664 10.1299 21.8143C10.1665 21.8621 10.2228 21.8904 10.2828 21.8909H11.7926C11.8765 21.891 11.9506 21.8358 11.9749 21.755C13.6103 16.4684 18.4731 12.8669 23.9756 12.8669C29.4782 12.8669 34.341 16.4684 35.9764 21.755C36.0011 21.8355 36.0749 21.8905 36.1587 21.8909H37.6685Z" fill="black"/>
</g>
</svg>
