<svg width="32" height="32" viewBox="0 0 32 32" fill="none" xmlns="http://www.w3.org/2000/svg">
<path fill-rule="evenodd" clip-rule="evenodd" d="M16 2C12.4939 2 9.28887 3.28881 6.83274 5.41853L11.0944 9.68014C12.449 8.62708 14.1513 8 16 8C17.8488 8 19.5511 8.62714 20.9058 9.68028L25.1674 5.41868C22.7113 3.28888 19.5062 2 16 2ZM22.32 11.0945C23.373 12.4492 24 14.1514 24 16C24 17.8487 23.3729 19.551 22.3199 20.9056L26.5815 25.1673L26.6085 25.136C27.5784 24.0099 28.3642 22.7347 28.9346 21.3576C29.5483 19.876 29.9022 18.3018 29.9826 16.7037C29.9942 16.4706 30 16.236 30 16C30 15.764 29.9942 15.5294 29.9826 15.2963C29.9022 13.6982 29.5483 12.124 28.9346 10.6424C28.3651 9.26751 27.5809 7.99429 26.6132 6.8695L26.5816 6.83291L22.32 11.0945ZM20.9056 22.3199C19.551 23.3729 17.8487 24 16 24C14.1514 24 12.4492 23.373 11.0945 22.32L6.83321 26.5813C7.96694 27.5635 9.25288 28.3586 10.6427 28.9343C12.3413 29.6379 14.1618 30 16.0003 30C16.23 30 16.4594 29.9943 16.6884 29.9831C18.2917 29.9041 19.8713 29.5499 21.3576 28.9343C22.7474 28.3586 24.0334 27.5635 25.1671 26.5813L20.9056 22.3199ZM9.68027 20.9058C8.62713 19.5511 8 17.8488 8 16C8 14.1513 8.62708 12.449 9.68014 11.0944L5.41869 6.8329C4.43647 7.96664 3.64139 9.25258 3.06569 10.6424C2.36212 12.341 2 14.1615 2 16C2 17.8385 2.36212 19.659 3.06569 21.3576C3.64141 22.7475 4.43654 24.0335 5.41882 25.1673L9.68027 20.9058ZM16 0C11.9416 0 8.23608 1.51102 5.41538 4.00117L5.3934 3.97919L4.69501 4.67758C1.79446 7.57369 0 11.5773 0 16C0 20.0585 1.51108 23.7641 4.00131 26.5848L3.97949 26.6066L4.62601 27.2531L4.62683 27.2539L4.68493 27.3123L4.68629 27.3137L4.72027 27.3476C4.76565 27.3927 4.81129 27.4375 4.8572 27.4821C7.71437 30.2553 11.6032 31.9715 15.8929 31.9996C15.9286 31.9999 15.9643 32 16 32C16.0179 32 16.0358 32 16.0536 31.9999C16.0715 31.9999 16.0893 31.9998 16.1071 31.9996C20.1092 31.9734 23.7624 30.4779 26.5545 28.0254C26.815 27.7968 27.0683 27.5594 27.314 27.3137L27.3728 27.2546L28.0208 26.6066L27.9989 26.5847C28.0232 26.557 28.0475 26.5293 28.0717 26.5015C30.3671 23.8651 31.8131 20.4696 31.9831 16.7415C31.9946 16.4947 32.0003 16.2475 32.0003 16C32.0003 15.7526 31.9946 15.5056 31.9831 15.259C31.8133 11.5328 30.3689 8.13899 28.0757 5.50314C27.8318 5.22247 27.5777 4.95 27.314 4.68629L26.6069 3.97919L26.5848 4.00132C23.7641 1.51108 20.0585 0 16 0ZM10 16C10 12.6863 12.6863 10 16 10C19.3137 10 22 12.6863 22 16C22 19.3137 19.3137 22 16 22C12.6863 22 10 19.3137 10 16Z" fill="black"/>
</svg>
